<svg xmlns="http://www.w3.org/2000/svg" width="130.32" height="125.465" viewBox="0 0 130.32 125.465"><defs><style>.a{fill:#38cae5;}.b,.e{fill:none;}.c{fill:#040505;}.d{fill:#fff;}.d,.e{stroke:#1a1818;stroke-miterlimit:10;stroke-width:0.8px;}.e{stroke-linecap:round;}</style></defs><g transform="translate(-502.538 -302.269)"><rect class="a" width="124" height="29.102" transform="translate(505.037 394.932)"/><g transform="translate(502.538 302.269)"><path class="b" d="M544.232,304.98h11.9a5.787,5.787,0,0,1,5.78,5.78V327.93a2.3,2.3,0,0,1-4.592,0V310.76a1.19,1.19,0,0,0-1.188-1.188h-11.9a2.3,2.3,0,0,1,0-4.592Zm-15.874,0h3.634a2.3,2.3,0,0,1,0,4.592h-3.634a2.3,2.3,0,0,1,0-4.592Z" transform="translate(-441.342 -295.217)"/><path class="b" d="M575.583,359.282a11.042,11.042,0,1,0,0-22.068,11.534,11.534,0,0,0-9.557,4.97,2.3,2.3,0,0,1-4.188-1.3V322.622a2.3,2.3,0,0,0-2.294-2.294H547.3a15.226,15.226,0,0,1,1.714,7.037,16.043,16.043,0,0,1-32.076,0,15.229,15.229,0,0,1,1.714-7.037H508.043a3.922,3.922,0,0,0-3.918,3.918v48a3.922,3.922,0,0,0,3.918,3.918h49.873a3.923,3.923,0,0,0,3.922-3.918V355.612a2.292,2.292,0,0,1,1.617-2.193,2.212,2.212,0,0,1,.677-.1,2.3,2.3,0,0,1,1.894,1A11.534,11.534,0,0,0,575.583,359.282Zm-48.976,11.726h-11.9a5.786,5.786,0,0,1-5.78-5.78v-17.17a2.294,2.294,0,0,1,4.588,0v17.17a1.193,1.193,0,0,0,1.192,1.188h11.9a2.3,2.3,0,0,1,0,4.592Zm15.874,0h-3.634a2.3,2.3,0,1,1,0-4.592h3.634a2.3,2.3,0,0,1,0,4.592Z" transform="translate(-498.41 -255.294)"/><path class="b" d="M575.748,337.34H559.629a2.295,2.295,0,0,1-1.448-4.077,10.86,10.86,0,0,0,4.077-8.441,11.456,11.456,0,0,0-22.9,0,10.863,10.863,0,0,0,4.08,8.441,2.3,2.3,0,0,1-1.448,4.077H524.251a6.809,6.809,0,0,1-3.029-.735,6.8,6.8,0,0,1,.731,3.029v12.8a16.307,16.307,0,0,1,9.158-2.8,15.631,15.631,0,1,1,0,31.251,16.308,16.308,0,0,1-9.158-2.8v11.174a3.925,3.925,0,0,0,3.922,3.918h49.873a3.925,3.925,0,0,0,3.922-3.918v-48A3.925,3.925,0,0,0,575.748,337.34Zm-1.379,44.846a5.786,5.786,0,0,1-5.78,5.78H551.418a2.3,2.3,0,0,1,0-4.592h17.171a1.19,1.19,0,0,0,1.188-1.188v-11.9a2.3,2.3,0,1,1,4.591,0Zm0-24.139a2.3,2.3,0,0,1-4.591,0v-3.634a2.3,2.3,0,0,1,4.591,0Z" transform="translate(-453.937 -272.306)"/><path class="c" d="M632.046,310.782a8.519,8.519,0,0,0-8.51-8.51H573.664a8.457,8.457,0,0,0-6.547,3.14,9.289,9.289,0,0,1,2.409,6.208v13.836a2.272,2.272,0,0,0,.216-.918V310.782a3.928,3.928,0,0,1,3.922-3.922h49.873a3.929,3.929,0,0,1,3.922,3.922v48a3.926,3.926,0,0,1-3.922,3.922H612.423a15.273,15.273,0,0,0,2.215-7.926,16.043,16.043,0,0,0-32.076,0,15.275,15.275,0,0,0,2.215,7.926H572.04a2.3,2.3,0,0,1-2.3-2.294V342.36a2.273,2.273,0,0,0-.216-.918v16.346a9.371,9.371,0,0,1-9.359,9.359H544.919a10.707,10.707,0,0,1,2.827,7.184,11.458,11.458,0,0,1-22.9,0,10.724,10.724,0,0,1,2.827-7.184H511.089a9.291,9.291,0,0,1-5.7-1.984,8.486,8.486,0,0,0-2.539,6.05v48a8.519,8.519,0,0,0,8.51,8.51h49.873a8.473,8.473,0,0,0,6.216-2.737,8.472,8.472,0,0,0,6.215,2.737h49.873a8.519,8.519,0,0,0,8.51-8.51v-48a8.5,8.5,0,0,0-2.7-6.216,8.488,8.488,0,0,0,2.7-6.216Zm-64.6,89.5a2.212,2.212,0,0,0-.677.1,2.292,2.292,0,0,0-1.617,2.193v16.637a3.923,3.923,0,0,1-3.922,3.918H511.36a3.922,3.922,0,0,1-3.918-3.918v-48a3.922,3.922,0,0,1,3.918-3.918h10.613a15.229,15.229,0,0,0-1.714,7.037,16.043,16.043,0,0,0,32.076,0,15.226,15.226,0,0,0-1.714-7.037h12.24a2.3,2.3,0,0,1,2.294,2.294v18.262a2.3,2.3,0,0,0,4.188,1.3,11.534,11.534,0,0,1,9.557-4.97,11.042,11.042,0,1,1,0,22.068,11.534,11.534,0,0,1-9.557-4.969A2.3,2.3,0,0,0,567.448,400.282Zm60.01,18.935a3.925,3.925,0,0,1-3.922,3.918H573.664a3.925,3.925,0,0,1-3.922-3.918V408.043a16.308,16.308,0,0,0,9.158,2.8,15.631,15.631,0,1,0,0-31.251,16.307,16.307,0,0,0-9.158,2.8v-12.8a6.8,6.8,0,0,0-.731-3.029,6.809,6.809,0,0,0,3.029.735h17.743a2.3,2.3,0,0,0,1.448-4.077,10.863,10.863,0,0,1-4.08-8.441,11.456,11.456,0,0,1,22.9,0,10.86,10.86,0,0,1-4.077,8.441,2.295,2.295,0,0,0,1.448,4.077h16.119a3.925,3.925,0,0,1,3.922,3.918Z" transform="translate(-501.726 -302.261)"/><path class="c" d="M514.659,319.179h14.79a4.938,4.938,0,0,0,1.088-.126h-15.15A2.337,2.337,0,0,0,514.659,319.179Z" transform="translate(-471.009 -258.611)"/><path class="c" d="M505.759,319.053c-.259,0-.5.054-.756.076a4.288,4.288,0,0,0,.486.05h16.126a2.314,2.314,0,0,0-.724-.126Z" transform="translate(-496.126 -258.611)"/><path class="c" d="M529.538,311.454a15.631,15.631,0,1,0,0,31.251,16.3,16.3,0,0,0,7.908-2.045v11.293a5.222,5.222,0,0,0,.054-.533v-16.5a11.648,11.648,0,0,1-7.962,3.2,11.043,11.043,0,1,1,0-22.072,11.636,11.636,0,0,1,7.962,3.2V305.253a5.118,5.118,0,0,0-.054-.533V313.5A16.3,16.3,0,0,0,529.538,311.454Z" transform="translate(-474.019 -295.894)"/><path class="c" d="M506.856,357.8V311.628a5.053,5.053,0,0,1,5.045-5.042h49.077a5.036,5.036,0,0,1,4.988,4.509v-.306a8.433,8.433,0,0,1,1.963-5.369,9.3,9.3,0,0,0-6.95-3.151H511.9a9.371,9.371,0,0,0-9.363,9.359V357.8a9.322,9.322,0,0,0,3.662,7.375,8.474,8.474,0,0,1,5.215-2.384A5.034,5.034,0,0,1,506.856,357.8Z" transform="translate(-502.538 -302.269)"/><path class="c" d="M519.068,322.219h1.606a6.792,6.792,0,0,1,3.025.731,6.794,6.794,0,0,1-.731-3.025v-2.089A5.037,5.037,0,0,1,519.068,322.219Z" transform="translate(-459.54 -261.776)"/><path class="c" d="M525.839,323.442c.151-.169.266-.357.432-.519a2.285,2.285,0,0,0-.89-3.8H509.256a4.288,4.288,0,0,1-.486-.05,8.474,8.474,0,0,0-5.215,2.384,9.291,9.291,0,0,0,5.7,1.984Z" transform="translate(-499.893 -258.556)"/><path class="c" d="M538.7,312.925a2.3,2.3,0,0,0-2.521.573c-.169.184-.378.317-.558.49v16.5a5.222,5.222,0,0,1-.054.533v2.089a6.794,6.794,0,0,0,.731,3.025,6.792,6.792,0,0,0-3.025-.731H531.67a4.938,4.938,0,0,1-1.088.126h-14.79a2.283,2.283,0,0,0-.886,3.8c.162.162.277.349.428.519h15.247a9.371,9.371,0,0,0,9.359-9.359V314.142A2.268,2.268,0,0,0,538.7,312.925Z" transform="translate(-472.142 -274.961)"/><path class="c" d="M520.151,308.82a5.118,5.118,0,0,1,.054.533v13.994c.18.169.389.3.558.486a2.3,2.3,0,0,0,2.521.573,2.268,2.268,0,0,0,1.239-1.217V309.352a9.289,9.289,0,0,0-2.409-6.208,8.433,8.433,0,0,0-1.963,5.369Z" transform="translate(-456.723 -299.993)"/></g><circle class="d" cx="7.557" cy="7.557" r="7.557" transform="translate(517.533 317.226)"/><line class="e" x1="2.473" y2="5.207" transform="translate(516.914 335.014)"/><line class="e" x2="0.401" y2="5.563" transform="translate(526.677 335.014)"/><line class="e" x2="3.573" y2="5.142" transform="translate(533.127 332.736)"/><line class="e" x2="5.077" y2="0.781" transform="translate(535.529 326.163)"/><line class="e" x1="4.686" y2="4.686" transform="translate(534.618 314.056)"/><line class="e" x1="4.642" y2="3.839" transform="translate(510.275 329.873)"/><line class="e" x1="6.313" transform="translate(508.056 322.463)"/><line class="e" x1="3.385" y1="5.728" transform="translate(515.352 310.412)"/><line class="e" y1="5.764" x2="1.921" transform="translate(526.994 309.014)"/></g></svg>