<svg xmlns="http://www.w3.org/2000/svg" width="95.197" height="137.025" viewBox="0 0 95.197 137.025"><defs><style>.a{fill:#38cae5;}.b,.d,.e{fill:none;}.c{fill:#1a1718;}.d{stroke:#1a1718;}.d,.e{stroke-miterlimit:10;}.e{stroke:#1a1818;stroke-width:0.8px;}</style></defs><g transform="translate(-464.507 -274.104)"><path class="a" d="M510.7,317l-5.46,8.4-17.124,7.431-4.858,5.753L469.5,322.817l10.859-3.552,5.493-8.4-.646-8.723,32.309-18.416,3.231,6.462-4.846,3.554-1.938,18.739Z" transform="translate(13 25.034)"/><rect class="a" width="41.423" height="22.512" transform="translate(515.282 388.617)"/><path class="a" d="M490.784,295.788l.288-10.46s-8.378-2.547-8.378,7.834C482.694,301.814,490.784,295.788,490.784,295.788Z" transform="translate(47.323 28.485)"/><g transform="translate(464.507 274.104)"><path class="b" d="M469.908,295.279l-5.1-8.9,5.1,8.906Z" transform="translate(-463.733 -242.173)"/><path class="b" d="M483.091,314a15.521,15.521,0,0,1,1.642,30.959l5.154,8.991a3.506,3.506,0,0,0,4.787,1.3l20.884-12.168a2.254,2.254,0,0,1,.447-.155,22.592,22.592,0,0,1,4.376-4.207,2.327,2.327,0,0,0,.976-1.934l-.209-15.218a13.68,13.68,0,0,1,3.865-9.8,13.97,13.97,0,0,1,2.442-1.97l-13.885-24.216a3.506,3.506,0,0,0-4.787-1.3l-13.082,7.5a2.3,2.3,0,0,1-3.332-2.683,10.429,10.429,0,0,0-.893-8.418,10.544,10.544,0,1,0-18.294,10.489,10.425,10.425,0,0,0,6.811,5.025,2.3,2.3,0,0,1,.634,4.229l-13.086,7.5a3.513,3.513,0,0,0-1.3,4.787l4.376,7.633A15.509,15.509,0,0,1,483.091,314Z" transform="translate(-461.191 -270.789)"/><path class="b" d="M506.591,346.829l6.8-9.581a10.755,10.755,0,0,0,1.909-7.6L510.741,298.9a10.769,10.769,0,0,0-2.539-5.6c-5.342-6.033-12.254-10.323-21.046-13.036l8.605,15.01a13.558,13.558,0,0,1,2.993-.4l.094,0A5.234,5.234,0,0,1,504.073,300l.422,27.191a2.3,2.3,0,0,1-4.593.072l-.252-16.526-.072-4.592-.094-6.073a.624.624,0,0,0-.194-.443.46.46,0,0,0-.457-.18,9.2,9.2,0,0,0-9.03,9.347l.212,15.218a6.907,6.907,0,0,1-2.9,5.742,17.858,17.858,0,0,0-6.267,21.14c3.652,6.729,5.263,11.562,3.879,18.543h23.906l-3.7-11.386A12.5,12.5,0,0,1,506.591,346.829Z" transform="translate(-425.255 -258.093)"/><path class="c" d="M557.41,385.453h-4.693l-4.171-12.834a7.914,7.914,0,0,1,1.041-7.121l6.8-9.578a15.351,15.351,0,0,0,2.712-10.885l-4.567-30.8a15.375,15.375,0,0,0-3.642-7.975c-6.757-7.629-15.694-12.711-27.321-15.532a1.862,1.862,0,0,0-.346-.011l-2.356-4.11a8.1,8.1,0,0,0-11.055-3l-9.055,5.19a15.135,15.135,0,1,0-23.128,13.263l-9.059,5.191a8.108,8.108,0,0,0-3,11.051l5.1,8.9v0l.9,1.581a15.175,15.175,0,0,1,2.352-5.136l-4.376-7.633a3.513,3.513,0,0,1,1.3-4.787l13.086-7.5a2.3,2.3,0,0,0-.634-4.229,10.425,10.425,0,0,1-6.811-5.025,10.544,10.544,0,1,1,18.294-10.489,10.429,10.429,0,0,1,.893,8.418,2.3,2.3,0,0,0,3.332,2.683l13.082-7.5a3.506,3.506,0,0,1,4.787,1.3l13.886,24.216a13.967,13.967,0,0,0-2.442,1.97,13.68,13.68,0,0,0-3.865,9.8l.209,15.218a2.327,2.327,0,0,1-.976,1.934,22.593,22.593,0,0,0-4.376,4.207,2.255,2.255,0,0,0-.447.155l-20.884,12.168a3.506,3.506,0,0,1-4.787-1.3l-5.154-8.991a15.468,15.468,0,0,1-1.642.166,14.729,14.729,0,0,1-3.9-.587l1.6,2.8h.011l5.108,8.9a8.037,8.037,0,0,0,4.9,3.789,8.149,8.149,0,0,0,2.132.284,8.058,8.058,0,0,0,4.031-1.084l14.941-8.7a22.433,22.433,0,0,0,.655,14.909c.036.079.072.162.115.241,3.426,6.293,4.7,10.24,3.26,16.468h-3.314a2.294,2.294,0,0,0-2.294,2.294v13.194a2.3,2.3,0,0,0,4.592,0v-10.9h2.536a2.316,2.316,0,0,0,.27.04,1.717,1.717,0,0,0,.238-.04h33.823v10.9a2.3,2.3,0,0,0,4.593,0V387.747A2.294,2.294,0,0,0,557.41,385.453Zm-33.43,0c1.383-6.981-.227-11.815-3.879-18.543a17.858,17.858,0,0,1,6.267-21.14,6.908,6.908,0,0,0,2.9-5.742l-.212-15.218a9.2,9.2,0,0,1,9.03-9.347.46.46,0,0,1,.457.18.624.624,0,0,1,.194.443l.094,6.073.072,4.592.252,16.526a2.3,2.3,0,0,0,4.593-.072l-.422-27.191a5.234,5.234,0,0,0-5.227-5.144l-.094,0a13.557,13.557,0,0,0-2.993.4l-8.605-15.01c8.792,2.712,15.7,7,21.046,13.036a10.769,10.769,0,0,1,2.539,5.6l4.564,30.754a10.755,10.755,0,0,1-1.909,7.6l-6.8,9.581a12.5,12.5,0,0,0-1.657,11.227l3.7,11.386Z" transform="translate(-464.507 -274.104)"/></g><path class="c" d="M501.948,305.324a15.578,15.578,0,0,0-15.557-15.564,15.767,15.767,0,0,0-12.459,6.411l-5.154-10.241a2.252,2.252,0,0,0-4.023,2.024l7.8,15.5a2.251,2.251,0,0,0,2.017,1.243,2.278,2.278,0,0,0,1.008-.241A2.224,2.224,0,0,0,476.734,302c.227-4.949,5.252-7.921,9.657-7.921a11.3,11.3,0,0,1,.133,22.606,14.531,14.531,0,0,1-2.168-.472l-.065-.014-.1-.022.018.018a2.222,2.222,0,0,0-1.585.248,2.25,2.25,0,0,0-.8,3.083l7.593,12.852a2.251,2.251,0,0,0,1.941,1.106,2.225,2.225,0,0,0,1.138-.313,2.248,2.248,0,0,0,.8-3.083l-5.464-9.25C495.536,319.909,501.948,313.27,501.948,305.324Z" transform="translate(0.017 27.554)"/><path class="d" d="M469.984,293.219" transform="translate(14.251 49.737)"/><circle class="e" cx="1.766" cy="1.766" r="1.766" transform="translate(523.516 375.847)"/><circle class="e" cx="1.766" cy="1.766" r="1.766" transform="translate(527.682 376.346)"/><circle class="e" cx="1.766" cy="1.766" r="1.766" transform="translate(531.635 376.89)"/><circle class="e" cx="1.766" cy="1.766" r="1.766" transform="translate(536.191 376.952)"/><circle class="e" cx="1.766" cy="1.766" r="1.766" transform="translate(539.95 376.134)"/><circle class="e" cx="1.766" cy="1.766" r="1.766" transform="translate(544.057 374.921)"/></g></svg>