<svg xmlns="http://www.w3.org/2000/svg" xmlns:xlink="http://www.w3.org/1999/xlink" width="183.356" height="292.976" viewBox="0 0 183.356 292.976"><defs><style>.a{fill:#6bd2e5;}.b{clip-path:url(#a);}.c{clip-path:url(#b);}</style><clipPath id="a"><path class="a" d="M0-194.1H183.357V-377.462H0Z" transform="translate(0 377.462)"/></clipPath><clipPath id="b"><path class="a" d="M0-239.041H138.42V-377.462H0Z" transform="translate(0 377.462)"/></clipPath></defs><g transform="translate(-1020.242 60)"><g transform="translate(1020.242 -60)"><g class="b" transform="translate(0 0)"><g transform="translate(74.208 74.209)"><path class="a" d="M-.012-19.166A17.23,17.23,0,0,0,5.1-7.445,17.242,17.242,0,0,0,17.448-2.33,17.248,17.248,0,0,0,29.8-7.449,17.246,17.246,0,0,0,34.917-19.8,17.248,17.248,0,0,0,29.8-32.155,17.241,17.241,0,0,0,17.447-37.27,17.244,17.244,0,0,0,5.092-32.151a17.226,17.226,0,0,0-5.1,11.716H-.023v1.269ZM7.42-29.82a14.053,14.053,0,0,1,10.026-4.156,14.052,14.052,0,0,1,10.022,4.148A14.061,14.061,0,0,1,31.624-19.8,14.052,14.052,0,0,1,27.474-9.78,14.051,14.051,0,0,1,17.448-5.624,14.049,14.049,0,0,1,7.426-9.773,14.056,14.056,0,0,1,3.271-19.8,14.05,14.05,0,0,1,7.42-29.82" transform="translate(0.023 37.27)"/></g><g transform="translate(87.696 87.696)"><path class="a" d="M-4.055-8.433c.051,0,.1,0,.152,0a3.789,3.789,0,0,0,2.81-1.171A3.773,3.773,0,0,0,.075-12.416a3.772,3.772,0,0,0-1.17-2.809A3.777,3.777,0,0,0-3.9-16.395a3.777,3.777,0,0,0-2.81,1.17,3.772,3.772,0,0,0-1.169,2.809A3.774,3.774,0,0,0-6.714-9.607,3.81,3.81,0,0,0-4.055-8.433" transform="translate(7.886 16.398)"/></g><g transform="translate(80.951 80.955)"><path class="a" d="M-11.36-22.7a10.641,10.641,0,0,0,7.585-3.147,10.634,10.634,0,0,0,3.135-7.58,10.641,10.641,0,0,0-3.147-7.586,10.637,10.637,0,0,0-7.58-3.134A10.645,10.645,0,0,0-18.953-41a10.615,10.615,0,0,0-3.115,6.942h-.024l0,.635,0,.634h.024a10.628,10.628,0,0,0,3.127,6.955A10.636,10.636,0,0,0-11.36-22.7m-7.427-11.359a7.237,7.237,0,0,1,2.18-4.61,7.115,7.115,0,0,1,5.219-2.185h.05a7.109,7.109,0,0,1,5.219,2.185,7.1,7.1,0,0,1,2.187,5.22v.05a7.1,7.1,0,0,1-2.186,5.22A7.086,7.086,0,0,1-11.339-26h-.05a7.093,7.093,0,0,1-5.22-2.186,7.236,7.236,0,0,1-2.179-4.61h.019l-.025-.634.025-.635Z" transform="translate(22.092 44.151)"/></g><g transform="translate(47.223 47.223)"><path class="a" d="M-46.839-94.122h.414A44.289,44.289,0,0,0-15.2-107.141,44.285,44.285,0,0,0-2.175-138.575a44.282,44.282,0,0,0-13.018-31.436,44.282,44.282,0,0,0-31.226-13.022h-.414a44.288,44.288,0,0,0-31.229,13.019,44.286,44.286,0,0,0-13.022,31.436,44.281,44.281,0,0,0,13.019,31.433A44.28,44.28,0,0,0-46.839-94.122m-40.948-45.091a41.033,41.033,0,0,1,12.055-28.472,41.024,41.024,0,0,1,28.924-12.055h.365a41.025,41.025,0,0,1,28.921,12.058A41.019,41.019,0,0,1-5.469-138.575a41.017,41.017,0,0,1-12.058,29.1A41.02,41.02,0,0,1-46.449-97.416h-.367a41.024,41.024,0,0,1-28.92-12.059,41.03,41.03,0,0,1-12.052-28.469h0l0-.634,0-.635Z" transform="translate(91.085 183.033)"/></g><g transform="translate(67.462 67.463)"><path class="a" d="M0-26.307H0A24.032,24.032,0,0,0,7.091-9.817,24.027,24.027,0,0,0,24.162-2.725h.1A24.031,24.031,0,0,0,41.337-9.818,24.028,24.028,0,0,0,48.429-26.94a24.028,24.028,0,0,0-7.093-17.125,24.026,24.026,0,0,0-17.071-7.092h-.1A24.026,24.026,0,0,0,7.09-44.064,24.027,24.027,0,0,0,0-27.576L0-27.133c0,.064,0,.127,0,.192s0,.128,0,.192Zm3.293-.756A20.8,20.8,0,0,1,9.418-41.735a20.809,20.809,0,0,1,14.768-6.129h.057a20.807,20.807,0,0,1,14.764,6.127,20.805,20.805,0,0,1,6.129,14.8,20.8,20.8,0,0,1-6.127,14.792A20.8,20.8,0,0,1,24.242-6.019h-.059A20.8,20.8,0,0,1,9.42-12.146,20.8,20.8,0,0,1,3.291-26.82v-.242Z" transform="translate(0.003 51.157)"/></g><g transform="translate(60.715 60.715)"><path class="a" d="M0-33.45H0A31.018,31.018,0,0,0,9.064-12.19a31,31,0,0,0,21.792,9.07h.2a31,31,0,0,0,21.8-9.069,31,31,0,0,0,9.069-21.893,31,31,0,0,0-9.069-21.9,30.953,30.953,0,0,0-21.892-9.069,30.92,30.92,0,0,0-21.9,9.068A31.019,31.019,0,0,0,0-34.719l0,.242q0,.2,0,.393c0,.131,0,.262,0,.393Zm3.294-.959a27.736,27.736,0,0,1,8.1-19.239,27.731,27.731,0,0,1,19.487-8.1h.079a27.691,27.691,0,0,1,19.563,8.1,27.731,27.731,0,0,1,8.1,19.565,27.731,27.731,0,0,1-8.1,19.563,27.725,27.725,0,0,1-19.484,8.1h-.164a27.726,27.726,0,0,1-19.481-8.1,27.736,27.736,0,0,1-8.1-19.239v-.65Z" transform="translate(0.004 65.048)"/></g><g transform="translate(53.969 53.968)"><path class="a" d="M0-40.592H0A37.654,37.654,0,0,0,11.038-14.564,37.638,37.638,0,0,0,37.55-3.517h.3A37.646,37.646,0,0,0,64.366-14.561,37.64,37.64,0,0,0,75.412-41.224,37.638,37.638,0,0,0,64.368-67.89,37.646,37.646,0,0,0,37.855-78.937h-.149A37.6,37.6,0,0,0,11.04-67.892,37.657,37.657,0,0,0,0-41.862v.024c0,.2,0,.407,0,.611s0,.407,0,.611Zm3.294-1.17a34.383,34.383,0,0,1,10.079-23.8,34.37,34.37,0,0,1,24.2-10.079h.134A34.379,34.379,0,0,1,62.039-65.56,34.372,34.372,0,0,1,72.117-41.224,34.371,34.371,0,0,1,62.037-16.891a34.372,34.372,0,0,1-24.2,10.079h-.268a34.375,34.375,0,0,1-24.2-10.081,34.383,34.383,0,0,1-10.076-23.8l0-.535Z" transform="translate(0.006 78.937)"/></g><g transform="translate(40.476 40.477)"><path class="a" d="M-53.924-108.406h.52a50.935,50.935,0,0,0,35.946-15,50.925,50.925,0,0,0,15-36.2,50.924,50.924,0,0,0-14.994-36.206,50.929,50.929,0,0,0-35.944-15h-.519a50.932,50.932,0,0,0-35.947,15,50.928,50.928,0,0,0-15,36.206,50.926,50.926,0,0,0,14.995,36.2,50.926,50.926,0,0,0,35.944,15m-47.642-51.837a47.668,47.668,0,0,1,14.032-33.242,47.615,47.615,0,0,1,33.877-14.03,47.649,47.649,0,0,1,33.874,14.033A47.663,47.663,0,0,1-5.755-159.605a47.66,47.66,0,0,1-14.034,33.874A47.66,47.66,0,0,1-53.426-111.7H-53.9a47.665,47.665,0,0,1-33.635-14.034,47.664,47.664,0,0,1-14.028-33.238h0l0-.634,0-.635Z" transform="translate(104.863 210.81)"/></g><g transform="translate(6.746 6.746)"><path class="a" d="M0-90.582H0A85.185,85.185,0,0,0,6.459-58.7,85.59,85.59,0,0,0,24.875-31.161,85.61,85.61,0,0,0,52.413-12.744a85.175,85.175,0,0,0,32.44,6.46h.155a85.172,85.172,0,0,0,32.44-6.46,85.612,85.612,0,0,0,27.539-18.417A85.61,85.61,0,0,0,163.4-58.7a85.151,85.151,0,0,0,6.46-32.517,85.158,85.158,0,0,0-6.459-32.517,85.614,85.614,0,0,0-18.416-27.54,85.6,85.6,0,0,0-27.538-18.415,85.157,85.157,0,0,0-32.438-6.461h-.158a85.161,85.161,0,0,0-32.439,6.46,85.6,85.6,0,0,0-27.539,18.416A85.6,85.6,0,0,0,6.459-123.734,85.172,85.172,0,0,0,0-91.851v.323q0,.157,0,.311c0,.1,0,.208,0,.312ZM3.294-91.5A81.887,81.887,0,0,1,9.5-122.472a82.278,82.278,0,0,1,17.7-26.471,82.266,82.266,0,0,1,26.472-17.7,81.868,81.868,0,0,1,31.186-6.209H85a81.877,81.877,0,0,1,31.186,6.209,82.284,82.284,0,0,1,26.471,17.7,82.284,82.284,0,0,1,17.7,26.473,81.865,81.865,0,0,1,6.209,31.255,81.874,81.874,0,0,1-6.209,31.255,82.27,82.27,0,0,1-17.7,26.471,82.274,82.274,0,0,1-26.472,17.7A81.869,81.869,0,0,1,85-9.579H84.86a81.88,81.88,0,0,1-31.184-6.21A82.273,82.273,0,0,1,27.2-33.491,82.27,82.27,0,0,1,9.5-59.962,81.883,81.883,0,0,1,3.294-90.93V-91.5Z" transform="translate(0.001 176.149)"/></g><g transform="translate(13.492 13.492)"><path class="a" d="M0-83.441H0a78.442,78.442,0,0,0,5.944,29.3A78.807,78.807,0,0,0,22.9-28.789,78.824,78.824,0,0,0,48.252-11.834,78.433,78.433,0,0,0,78.119-5.889h.131a78.439,78.439,0,0,0,29.868-5.946,78.808,78.808,0,0,0,25.354-16.955,78.81,78.81,0,0,0,16.955-25.353,78.446,78.446,0,0,0,5.946-29.933,78.452,78.452,0,0,0-5.945-29.934,78.806,78.806,0,0,0-16.955-25.353,78.8,78.8,0,0,0-25.353-16.955,78.431,78.431,0,0,0-29.868-5.946h-.129a78.441,78.441,0,0,0-29.869,5.945A78.815,78.815,0,0,0,22.9-139.362,78.807,78.807,0,0,0,5.945-114.01,78.448,78.448,0,0,0,0-84.71l0,.381v.888Zm3.294-.634,0-.635h0a75.292,75.292,0,0,1,21.939-52.324,75.274,75.274,0,0,1,52.531-21.934h.852a75.275,75.275,0,0,1,52.529,21.94,75.251,75.251,0,0,1,21.933,52.957,75.256,75.256,0,0,1-21.938,52.955A75.276,75.276,0,0,1,78.606-9.183h-.849a75.283,75.283,0,0,1-52.53-21.939A75.285,75.285,0,0,1,3.293-83.441h0Z" transform="translate(0.001 162.262)"/></g><g transform="translate(0 0)"><path class="a" d="M0-97.724H0A91.929,91.929,0,0,0,6.973-63.257,92.415,92.415,0,0,0,26.851-33.532,92.4,92.4,0,0,0,56.575-13.654,91.906,91.906,0,0,0,91.587-6.68h.179a91.926,91.926,0,0,0,35.012-6.974A92.4,92.4,0,0,0,156.5-33.532a92.408,92.408,0,0,0,19.878-29.725,91.893,91.893,0,0,0,6.974-35.1,91.906,91.906,0,0,0-6.974-35.1A92.423,92.423,0,0,0,156.5-163.185a92.4,92.4,0,0,0-29.724-19.877,91.9,91.9,0,0,0-35.012-6.975h-.179a91.91,91.91,0,0,0-35.011,6.974,92.391,92.391,0,0,0-29.725,19.878A92.422,92.422,0,0,0,6.973-133.461,91.944,91.944,0,0,0,0-98.993v.273c0,.121,0,.241,0,.361S0-98.118,0-98Zm3.294-.985A88.6,88.6,0,0,1,10.016-132.2,89.079,89.079,0,0,1,29.18-160.855a89.068,89.068,0,0,1,28.658-19.164,88.587,88.587,0,0,1,33.751-6.723h.176a88.6,88.6,0,0,1,33.751,6.723,89.065,89.065,0,0,1,28.657,19.163A89.082,89.082,0,0,1,173.338-132.2a88.605,88.605,0,0,1,6.722,33.839,88.608,88.608,0,0,1-6.723,33.839,89.076,89.076,0,0,1-19.164,28.657A89.051,89.051,0,0,1,125.515-16.7,88.591,88.591,0,0,1,91.764-9.974h-.176A88.606,88.606,0,0,1,57.838-16.7,89.073,89.073,0,0,1,29.18-35.862,89.084,89.084,0,0,1,10.016-64.519a88.611,88.611,0,0,1-6.722-33.49v-.7Z" transform="translate(0.001 190.037)"/></g><g transform="translate(33.731 33.731)"><path class="a" d="M-61.012-122.689h.621a57.574,57.574,0,0,0,40.665-16.972A57.562,57.562,0,0,0-2.751-180.634a57.563,57.563,0,0,0-16.97-40.976,57.57,57.57,0,0,0-40.662-16.976h-.621a57.573,57.573,0,0,0-40.666,16.971,57.561,57.561,0,0,0-16.974,40.977,57.559,57.559,0,0,0,16.97,40.973,57.568,57.568,0,0,0,40.663,16.976m-54.339-58.583a54.312,54.312,0,0,1,16.009-38.012,54.243,54.243,0,0,1,38.647-16.005,54.292,54.292,0,0,1,38.644,16.009A54.3,54.3,0,0,1-6.045-180.634a54.307,54.307,0,0,1-16.01,38.644,54.306,54.306,0,0,1-38.357,16.005h-.578a54.31,54.31,0,0,1-38.355-16.01A54.31,54.31,0,0,1-115.351-180h0l0-.635,0-.634Z" transform="translate(118.646 238.586)"/></g><g transform="translate(20.238 20.238)"><path class="a" d="M-75.2-151.255h.8a71.848,71.848,0,0,0,50.118-20.923A71.827,71.827,0,0,0-3.362-222.692a71.826,71.826,0,0,0-20.922-50.517A71.837,71.837,0,0,0-74.4-294.136h-.4a71.909,71.909,0,0,0-50.516,20.921A71.829,71.829,0,0,0-146.24-222.7a71.827,71.827,0,0,0,20.921,50.513A71.842,71.842,0,0,0-75.2-151.255M-142.947-222.7l0-.634h0a68.557,68.557,0,0,1,19.962-47.554A68.542,68.542,0,0,1-75.17-290.842h.747a68.544,68.544,0,0,1,47.811,19.962A68.52,68.52,0,0,1-6.656-222.692a68.52,68.52,0,0,1-19.962,48.185A68.539,68.539,0,0,1-74.431-154.55h-.748a68.547,68.547,0,0,1-47.811-19.962,68.555,68.555,0,0,1-19.958-47.549h0Z" transform="translate(146.241 294.136)"/></g><g transform="translate(26.984 26.985)"><path class="a" d="M-68.115-136.971h.695a65.112,65.112,0,0,0,45.4-18.946,65.1,65.1,0,0,0,18.95-45.744,65.1,65.1,0,0,0-18.945-45.747,65.109,65.109,0,0,0-45.4-18.951h-.348a65.083,65.083,0,0,0-45.746,18.945,65.1,65.1,0,0,0-18.951,45.748,65.1,65.1,0,0,0,18.946,45.743,65.107,65.107,0,0,0,45.4,18.951m-61.048-64.694,0-.635h0a61.819,61.819,0,0,1,17.985-42.783A61.76,61.76,0,0,1-67.76-263.064a61.819,61.819,0,0,1,43.414,17.985A61.791,61.791,0,0,1-6.365-201.662a61.789,61.789,0,0,1-17.986,43.415,61.8,61.8,0,0,1-43.093,17.982h-.648a61.806,61.806,0,0,1-43.091-17.987,61.817,61.817,0,0,1-17.981-42.779h0Z" transform="translate(132.458 266.359)"/></g></g></g><g transform="translate(1020.242 94.555)"><g class="c" transform="translate(0 0)"><g transform="translate(56.022 56.022)"><path class="a" d="M-.015-23.6a13.008,13.008,0,0,0,3.856,8.848,13.017,13.017,0,0,0,9.324,3.862,13.021,13.021,0,0,0,9.327-3.865,13.02,13.02,0,0,0,3.861-9.324,13.021,13.021,0,0,0-3.864-9.327,13.016,13.016,0,0,0-9.324-3.862,13.018,13.018,0,0,0-9.327,3.865A13,13,0,0,0-.015-24.561H-.023v.958ZM5.6-31.646a10.609,10.609,0,0,1,7.569-3.137,10.608,10.608,0,0,1,7.566,3.132,10.615,10.615,0,0,1,3.137,7.569,10.608,10.608,0,0,1-3.132,7.565,10.608,10.608,0,0,1-7.569,3.137A10.606,10.606,0,0,1,5.6-16.512a10.611,10.611,0,0,1-3.137-7.569A10.607,10.607,0,0,1,5.6-31.646" transform="translate(0.023 37.27)"/></g><g transform="translate(66.204 66.204)"><path class="a" d="M-4.994-10.385l.114,0a2.86,2.86,0,0,0,2.121-.884,2.848,2.848,0,0,0,.882-2.121,2.847,2.847,0,0,0-.883-2.12A2.852,2.852,0,0,0-4.88-16.4,2.852,2.852,0,0,0-7-15.512a2.847,2.847,0,0,0-.883,2.12A2.849,2.849,0,0,0-7-11.271a2.876,2.876,0,0,0,2.007.886" transform="translate(7.886 16.398)"/></g><g transform="translate(61.111 61.115)"><path class="a" d="M-13.991-27.96a8.033,8.033,0,0,0,5.726-2.376A8.028,8.028,0,0,0-5.9-36.058a8.033,8.033,0,0,0-2.376-5.727A8.03,8.03,0,0,0-14-44.151a8.036,8.036,0,0,0-5.727,2.376,8.013,8.013,0,0,0-2.351,5.24h-.018l0,.479,0,.479h.018a8.024,8.024,0,0,0,2.361,5.25,8.03,8.03,0,0,0,5.723,2.366M-19.6-36.535a5.463,5.463,0,0,1,1.645-3.48,5.371,5.371,0,0,1,3.94-1.65h.038a5.367,5.367,0,0,1,3.94,1.65,5.357,5.357,0,0,1,1.651,3.94v.038a5.357,5.357,0,0,1-1.651,3.94,5.349,5.349,0,0,1-3.94,1.651h-.038a5.354,5.354,0,0,1-3.94-1.651,5.463,5.463,0,0,1-1.645-3.48h.014l-.019-.479.019-.479Z" transform="translate(22.092 44.151)"/></g><g transform="translate(35.65 35.65)"><path class="a" d="M-57.683-115.912h.312a33.435,33.435,0,0,0,23.575-9.828,33.432,33.432,0,0,0,9.831-23.73A33.429,33.429,0,0,0-33.792-173.2a33.429,33.429,0,0,0-23.574-9.831h-.312A33.434,33.434,0,0,0-81.254-173.2a33.432,33.432,0,0,0-9.831,23.732,33.429,33.429,0,0,0,9.829,23.73,33.428,33.428,0,0,0,23.573,9.831M-88.6-149.952a30.977,30.977,0,0,1,9.1-21.494,30.97,30.97,0,0,1,21.835-9.1h.276a30.971,30.971,0,0,1,21.833,9.1,30.966,30.966,0,0,1,9.1,21.973,30.965,30.965,0,0,1-9.1,21.971,30.967,30.967,0,0,1-21.834,9.1h-.277A30.97,30.97,0,0,1-79.5-127.5a30.975,30.975,0,0,1-9.1-21.492h0l0-.479,0-.479Z" transform="translate(91.085 183.033)"/></g><g transform="translate(50.929 50.929)"><path class="a" d="M0-32.4H0a18.142,18.142,0,0,0,5.35,12.449A18.139,18.139,0,0,0,18.24-14.594h.076a18.142,18.142,0,0,0,12.89-5.355A18.139,18.139,0,0,0,36.56-32.875,18.139,18.139,0,0,0,31.205-45.8a18.138,18.138,0,0,0-12.887-5.354h-.076A18.137,18.137,0,0,0,5.351-45.8,18.139,18.139,0,0,0,0-33.355L0-33.021c0,.048,0,.1,0,.145s0,.1,0,.145Zm2.486-.571A15.7,15.7,0,0,1,7.109-44.044a15.709,15.709,0,0,1,11.149-4.627H18.3a15.708,15.708,0,0,1,11.146,4.625,15.706,15.706,0,0,1,4.627,11.17,15.7,15.7,0,0,1-4.626,11.167A15.705,15.705,0,0,1,18.3-17.081h-.044A15.705,15.705,0,0,1,7.111-21.707,15.7,15.7,0,0,1,2.484-32.785v-.183Z" transform="translate(0.003 51.157)"/></g><g transform="translate(45.835 45.835)"><path class="a" d="M0-41.194H0A23.417,23.417,0,0,0,6.842-25.145,23.4,23.4,0,0,0,23.293-18.3h.152A23.405,23.405,0,0,0,39.9-25.144a23.4,23.4,0,0,0,6.847-16.527A23.4,23.4,0,0,0,39.9-58.2a23.367,23.367,0,0,0-16.527-6.847A23.342,23.342,0,0,0,6.842-58.2,23.417,23.417,0,0,0,0-42.152l0,.183q0,.148,0,.3c0,.1,0,.2,0,.3Zm2.487-.724A20.938,20.938,0,0,1,8.6-56.442,20.935,20.935,0,0,1,23.312-62.56h.06A20.9,20.9,0,0,1,38.14-56.442a20.935,20.935,0,0,1,6.118,14.77A20.935,20.935,0,0,1,38.139-26.9a20.93,20.93,0,0,1-14.709,6.117h-.124A20.931,20.931,0,0,1,8.6-26.9,20.939,20.939,0,0,1,2.484-41.427v-.491Z" transform="translate(0.004 65.048)"/></g><g transform="translate(40.742 40.742)"><path class="a" d="M0-49.99H0A28.426,28.426,0,0,0,8.331-30.34,28.414,28.414,0,0,0,28.346-22h.227A28.42,28.42,0,0,0,48.59-30.338a28.415,28.415,0,0,0,8.339-20.129A28.414,28.414,0,0,0,48.592-70.6a28.42,28.42,0,0,0-20.016-8.34h-.113A28.381,28.381,0,0,0,8.333-70.6,28.428,28.428,0,0,0,0-50.948v.018c0,.154,0,.307,0,.461s0,.307,0,.461Zm2.487-.883A25.956,25.956,0,0,1,10.092-68.84a25.947,25.947,0,0,1,18.27-7.609h.1a25.953,25.953,0,0,1,18.369,7.61,25.948,25.948,0,0,1,7.609,18.372A25.947,25.947,0,0,1,46.831-32.1a25.948,25.948,0,0,1-18.271,7.609h-.2A25.95,25.95,0,0,1,10.09-32.1,25.957,25.957,0,0,1,2.483-50.065l0-.4Z" transform="translate(0.006 78.937)"/></g><g transform="translate(30.557 30.557)"><path class="a" d="M-66.408-133.5h.392a38.452,38.452,0,0,0,27.137-11.32,38.444,38.444,0,0,0,11.322-27.331,38.443,38.443,0,0,0-11.319-27.333A38.448,38.448,0,0,0-66.012-210.81H-66.4a38.45,38.45,0,0,0-27.137,11.32,38.447,38.447,0,0,0-11.323,27.333,38.446,38.446,0,0,0,11.32,27.331A38.445,38.445,0,0,0-66.408-133.5m-35.966-39.133a35.985,35.985,0,0,1,10.593-25.1,35.946,35.946,0,0,1,25.574-10.591,35.972,35.972,0,0,1,25.572,10.594,35.982,35.982,0,0,1,10.591,25.574,35.98,35.98,0,0,1-10.594,25.572A35.979,35.979,0,0,1-66.032-135.99h-.361a35.983,35.983,0,0,1-25.392-10.595,35.982,35.982,0,0,1-10.59-25.092h0l0-.479,0-.479Z" transform="translate(104.863 210.81)"/></g><g transform="translate(5.093 5.093)"><path class="a" d="M0-111.553H0A64.308,64.308,0,0,0,4.876-87.484a64.614,64.614,0,0,0,13.9,20.79,64.629,64.629,0,0,0,20.789,13.9,64.3,64.3,0,0,0,24.49,4.877h.117a64.3,64.3,0,0,0,24.49-4.877,64.63,64.63,0,0,0,20.79-13.9,64.629,64.629,0,0,0,13.9-20.789,64.283,64.283,0,0,0,4.877-24.548,64.288,64.288,0,0,0-4.876-24.548,64.632,64.632,0,0,0-13.9-20.791,64.62,64.62,0,0,0-20.789-13.9,64.287,64.287,0,0,0-24.489-4.877h-.119a64.29,64.29,0,0,0-24.489,4.877,64.62,64.62,0,0,0-20.79,13.9,64.618,64.618,0,0,0-13.9,20.789A64.3,64.3,0,0,0,0-112.511v.244q0,.118,0,.235c0,.079,0,.157,0,.236Zm2.487-.7a61.819,61.819,0,0,1,4.687-23.378A62.113,62.113,0,0,1,20.538-155.61a62.1,62.1,0,0,1,19.984-13.365,61.8,61.8,0,0,1,23.543-4.687h.1a61.811,61.811,0,0,1,23.543,4.687A62.118,62.118,0,0,1,107.7-155.611a62.118,62.118,0,0,1,13.364,19.985,61.8,61.8,0,0,1,4.687,23.595,61.809,61.809,0,0,1-4.687,23.595A62.108,62.108,0,0,1,107.7-68.453,62.111,62.111,0,0,1,87.711-55.088,61.8,61.8,0,0,1,64.169-50.4h-.107a61.813,61.813,0,0,1-23.542-4.688A62.11,62.11,0,0,1,20.537-68.453,62.108,62.108,0,0,1,7.173-88.437a61.816,61.816,0,0,1-4.687-23.378v-.433Z" transform="translate(0.001 176.149)"/></g><g transform="translate(10.185 10.185)"><path class="a" d="M0-102.758H0A59.217,59.217,0,0,0,4.488-80.64a59.493,59.493,0,0,0,12.8,19.14,59.506,59.506,0,0,0,19.14,12.8,59.211,59.211,0,0,0,22.547,4.489h.1A59.216,59.216,0,0,0,81.621-48.7a59.494,59.494,0,0,0,19.14-12.8,59.5,59.5,0,0,0,12.8-19.139,59.221,59.221,0,0,0,4.489-22.6,59.225,59.225,0,0,0-4.488-22.6,59.492,59.492,0,0,0-12.8-19.139,59.49,59.49,0,0,0-19.14-12.8,59.209,59.209,0,0,0-22.548-4.489h-.1a59.217,59.217,0,0,0-22.549,4.488,59.5,59.5,0,0,0-19.14,12.8,59.493,59.493,0,0,0-12.8,19.139A59.222,59.222,0,0,0,0-103.716v.958Zm2.487-.479,0-.479h0a56.84,56.84,0,0,1,16.562-39.5,56.826,56.826,0,0,1,39.657-16.558h.643A56.827,56.827,0,0,1,99-143.213a56.808,56.808,0,0,1,16.558,39.979A56.812,56.812,0,0,1,99-63.257,56.828,56.828,0,0,1,59.341-46.7H58.7A56.833,56.833,0,0,1,19.044-63.261a56.835,56.835,0,0,1-16.559-39.5h0Z" transform="translate(0.001 162.262)"/></g><g transform="translate(0 0)"><path class="a" d="M0-120.348H0a69.4,69.4,0,0,0,5.264,26.02A69.766,69.766,0,0,0,20.27-71.887,69.753,69.753,0,0,0,42.709-56.881a69.382,69.382,0,0,0,26.431,5.265h.135a69.4,69.4,0,0,0,26.431-5.265,69.753,69.753,0,0,0,22.44-15.006,69.761,69.761,0,0,0,15.006-22.44,69.372,69.372,0,0,0,5.265-26.5,69.382,69.382,0,0,0-5.265-26.5,69.772,69.772,0,0,0-15.007-22.44,69.755,69.755,0,0,0-22.439-15.006,69.379,69.379,0,0,0-26.431-5.265h-.135a69.385,69.385,0,0,0-26.431,5.265,69.748,69.748,0,0,0-22.44,15.006A69.771,69.771,0,0,0,5.264-147.326,69.41,69.41,0,0,0,0-121.306v.206c0,.091,0,.182,0,.273s0,.182,0,.274Zm2.487-.743a66.887,66.887,0,0,1,5.075-25.282,67.248,67.248,0,0,1,14.467-21.634,67.239,67.239,0,0,1,21.635-14.467,66.877,66.877,0,0,1,25.479-5.075h.133a66.886,66.886,0,0,1,25.479,5.076,67.237,67.237,0,0,1,21.634,14.467,67.25,67.25,0,0,1,14.468,21.635,66.89,66.89,0,0,1,5.075,25.546,66.893,66.893,0,0,1-5.075,25.546,67.245,67.245,0,0,1-14.467,21.634A67.227,67.227,0,0,1,94.754-59.179,66.88,66.88,0,0,1,69.275-54.1h-.133a66.89,66.89,0,0,1-25.479-5.076A67.243,67.243,0,0,1,22.028-73.646,67.252,67.252,0,0,1,7.561-95.281a66.9,66.9,0,0,1-5.075-25.282v-.528Z" transform="translate(0.001 190.037)"/></g><g transform="translate(25.464 25.464)"><path class="a" d="M-75.137-151.093h.469a43.464,43.464,0,0,0,30.7-12.812,43.455,43.455,0,0,0,12.814-30.932,43.456,43.456,0,0,0-12.811-30.934,43.461,43.461,0,0,0-30.7-12.815h-.469a43.463,43.463,0,0,0-30.7,12.812,43.454,43.454,0,0,0-12.814,30.934,43.453,43.453,0,0,0,12.811,30.931,43.46,43.46,0,0,0,30.7,12.816m-41.022-44.226a41,41,0,0,1,12.086-28.7A40.95,40.95,0,0,1-74.9-236.1a40.986,40.986,0,0,1,29.173,12.086,41,41,0,0,1,12.083,29.175,41,41,0,0,1-12.086,29.173,41,41,0,0,1-28.957,12.083h-.436a41,41,0,0,1-28.955-12.086,41,41,0,0,1-12.083-28.694h0l0-.479,0-.479Z" transform="translate(118.646 238.586)"/></g><g transform="translate(15.278 15.278)"><path class="a" d="M-92.612-186.272h.6a54.24,54.24,0,0,0,37.835-15.8,54.224,54.224,0,0,0,15.8-38.134,54.223,54.223,0,0,0-15.795-38.136,54.232,54.232,0,0,0-37.833-15.8h-.3a54.286,54.286,0,0,0-38.136,15.794,54.225,54.225,0,0,0-15.8,38.137,54.224,54.224,0,0,0,15.794,38.134,54.235,54.235,0,0,0,37.834,15.8M-143.754-240.2l0-.479h0a51.756,51.756,0,0,1,15.07-35.9,51.744,51.744,0,0,1,36.1-15.066h.564a51.745,51.745,0,0,1,36.094,15.07A51.728,51.728,0,0,1-40.865-240.2a51.728,51.728,0,0,1-15.07,36.376,51.742,51.742,0,0,1-36.1,15.066h-.564a51.748,51.748,0,0,1-36.094-15.07,51.754,51.754,0,0,1-15.066-35.9h0Z" transform="translate(146.241 294.136)"/></g><g transform="translate(20.371 20.371)"><path class="a" d="M-83.884-168.681h.524a49.155,49.155,0,0,0,34.273-14.3,49.142,49.142,0,0,0,14.306-34.533,49.143,49.143,0,0,0-14.3-34.535,49.152,49.152,0,0,0-34.27-14.306h-.263a49.133,49.133,0,0,0-34.535,14.3,49.144,49.144,0,0,0-14.306,34.536,49.143,49.143,0,0,0,14.3,34.533,49.151,49.151,0,0,0,34.271,14.306M-129.97-217.52l0-.479h0a46.669,46.669,0,0,1,13.578-32.3,46.624,46.624,0,0,1,32.777-13.574,46.668,46.668,0,0,1,32.774,13.578,46.647,46.647,0,0,1,13.575,32.776,46.646,46.646,0,0,1-13.578,32.775,46.656,46.656,0,0,1-32.532,13.575h-.489a46.659,46.659,0,0,1-32.53-13.579,46.667,46.667,0,0,1-13.574-32.295h0Z" transform="translate(132.458 266.359)"/></g></g></g></g></svg>