<svg xmlns="http://www.w3.org/2000/svg" xmlns:xlink="http://www.w3.org/1999/xlink" width="165.526" height="279.726" viewBox="0 0 165.526 279.726"><defs><style>.a{fill:#fff;}.b{opacity:0.288;}.c{clip-path:url(#a);}</style><clipPath id="a"><path class="a" d="M0-47.072H49.211V-96.284H0Z" transform="translate(0 96.284)"/></clipPath></defs><g transform="translate(-600.24 -210.67)"><g class="b" transform="translate(600.24 441.185)"><g class="c"><g transform="translate(17.188 17.187)"><path class="a" d="M0-7.353A7.316,7.316,0,0,0,2.165-2.377,7.319,7.319,0,0,0,7.409-.205a7.321,7.321,0,0,0,5.246-2.174,7.321,7.321,0,0,0,2.172-5.244,7.323,7.323,0,0,0-2.174-5.246,7.32,7.32,0,0,0-5.244-2.172,7.323,7.323,0,0,0-5.246,2.174A7.317,7.317,0,0,0,0-7.892h0v.539Zm3.156-4.524a5.967,5.967,0,0,1,4.258-1.764,5.967,5.967,0,0,1,4.255,1.761,5.973,5.973,0,0,1,1.764,4.258,5.968,5.968,0,0,1-1.762,4.255A5.967,5.967,0,0,1,7.409-1.6,5.965,5.965,0,0,1,3.154-3.365,5.966,5.966,0,0,1,1.39-7.623a5.964,5.964,0,0,1,1.761-4.255" transform="translate(0.009 15.041)"/></g><g transform="translate(22.914 22.914)"><path class="a" d="M-1.556-3.235l.064,0A1.606,1.606,0,0,0-.3-3.734,1.6,1.6,0,0,0,.2-4.927,1.605,1.605,0,0,0-.3-6.12a1.606,1.606,0,0,0-1.193-.5,1.6,1.6,0,0,0-1.193.5,1.6,1.6,0,0,0-.5,1.192,1.6,1.6,0,0,0,.5,1.192,1.618,1.618,0,0,0,1.129.5" transform="translate(3.183 6.618)"/></g><g transform="translate(20.051 20.052)"><path class="a" d="M-4.358-8.711a4.52,4.52,0,0,0,3.221-1.336A4.517,4.517,0,0,0,.193-13.266a4.52,4.52,0,0,0-1.337-3.221,4.516,4.516,0,0,0-3.218-1.331,4.52,4.52,0,0,0-3.221,1.337,4.508,4.508,0,0,0-1.323,2.948h-.01l0,.269,0,.269h.01a4.515,4.515,0,0,0,1.328,2.953A4.516,4.516,0,0,0-4.358-8.711m-3.154-4.823a3.07,3.07,0,0,1,.925-1.958,3.022,3.022,0,0,1,2.216-.928h.021a3.019,3.019,0,0,1,2.216.928A3.011,3.011,0,0,1-1.2-13.275v.021a3.013,3.013,0,0,1-.928,2.216,3.008,3.008,0,0,1-2.216.928h-.021a3.011,3.011,0,0,1-2.216-.928A3.074,3.074,0,0,1-7.513-13H-7.5l-.011-.269.011-.269Z" transform="translate(8.915 17.818)"/></g><g transform="translate(5.729 5.729)"><path class="a" d="M-17.971-36.112h.176A18.806,18.806,0,0,0-4.535-41.64,18.8,18.8,0,0,0,.994-54.987,18.8,18.8,0,0,0-4.533-68.336a18.805,18.805,0,0,0-13.259-5.529h-.176a18.8,18.8,0,0,0-13.261,5.528,18.805,18.805,0,0,0-5.529,13.348A18.8,18.8,0,0,0-31.23-41.642a18.8,18.8,0,0,0,13.259,5.53M-35.358-55.258a17.424,17.424,0,0,1,5.119-12.09,17.421,17.421,0,0,1,12.281-5.119h.155a17.419,17.419,0,0,1,12.28,5.12A17.417,17.417,0,0,1-.4-54.987,17.419,17.419,0,0,1-5.524-42.63a17.419,17.419,0,0,1-12.281,5.119h-.155a17.421,17.421,0,0,1-12.28-5.12,17.424,17.424,0,0,1-5.117-12.089h0l0-.269,0-.269Z" transform="translate(36.758 73.865)"/></g><g transform="translate(14.323 14.323)"><path class="a" d="M0-10.093H0a10.2,10.2,0,0,0,3.009,7A10.2,10.2,0,0,0,10.26-.08H10.3a10.2,10.2,0,0,0,7.25-3.011,10.2,10.2,0,0,0,3.011-7.271,10.2,10.2,0,0,0-3.011-7.272A10.2,10.2,0,0,0,10.3-20.645h-.043a10.2,10.2,0,0,0-7.25,3.012,10.2,10.2,0,0,0-3.008,7l0,.188v.351Zm1.4-.321A8.831,8.831,0,0,1,4-16.644a8.834,8.834,0,0,1,6.27-2.6h.025a8.835,8.835,0,0,1,6.269,2.6,8.835,8.835,0,0,1,2.6,6.283,8.833,8.833,0,0,1-2.6,6.281,8.833,8.833,0,0,1-6.27,2.6h-.025A8.833,8.833,0,0,1,4-4.08a8.832,8.832,0,0,1-2.6-6.231v-.1Z" transform="translate(0.001 20.645)"/></g><g transform="translate(11.458 11.458)"><path class="a" d="M0-12.834H0A13.173,13.173,0,0,0,3.849-3.807,13.163,13.163,0,0,0,13.1.044h.085a13.166,13.166,0,0,0,9.255-3.851,13.165,13.165,0,0,0,3.851-9.3,13.165,13.165,0,0,0-3.851-9.3,13.146,13.146,0,0,0-9.3-3.851,13.131,13.131,0,0,0-9.3,3.851A13.174,13.174,0,0,0,0-13.373l0,.1c0,.056,0,.111,0,.167s0,.111,0,.167Zm1.4-.407a11.782,11.782,0,0,1,3.441-8.17,11.776,11.776,0,0,1,8.274-3.441h.034a11.758,11.758,0,0,1,8.307,3.442A11.772,11.772,0,0,1,24.894-13.1,11.773,11.773,0,0,1,21.452-4.8a11.77,11.77,0,0,1-8.273,3.441h-.07A11.775,11.775,0,0,1,4.838-4.8,11.779,11.779,0,0,1,1.4-12.965v-.276Z" transform="translate(0.002 26.251)"/></g><g transform="translate(8.594 8.593)"><path class="a" d="M0-15.574H0A15.989,15.989,0,0,0,4.687-4.522,15.982,15.982,0,0,0,15.944.169h.128A15.985,15.985,0,0,0,27.331-4.521a15.981,15.981,0,0,0,4.69-11.322,15.982,15.982,0,0,0-4.689-11.323,15.986,15.986,0,0,0-11.258-4.691h-.063A15.963,15.963,0,0,0,4.688-27.166,15.989,15.989,0,0,0,0-16.113v.01c0,.087,0,.173,0,.26s0,.173,0,.259Zm1.4-.5a14.6,14.6,0,0,1,4.28-10.106,14.592,14.592,0,0,1,10.276-4.28h.057a14.6,14.6,0,0,1,10.332,4.28,14.6,14.6,0,0,1,4.28,10.334A14.593,14.593,0,0,1,26.342-5.51a14.6,14.6,0,0,1-10.276,4.28h-.114A14.6,14.6,0,0,1,5.676-5.511,14.6,14.6,0,0,1,1.4-15.617v-.454Z" transform="translate(0.002 31.856)"/></g><g transform="translate(2.864 2.864)"><path class="a" d="M-20.689-41.592h.221A21.626,21.626,0,0,0-5.205-47.96,21.624,21.624,0,0,0,1.163-63.332,21.624,21.624,0,0,0-5.2-78.706a21.626,21.626,0,0,0-15.262-6.369h-.22A21.627,21.627,0,0,0-35.95-78.708a21.623,21.623,0,0,0-6.368,15.374,21.622,21.622,0,0,0,6.367,15.372,21.624,21.624,0,0,0,15.262,6.369M-40.919-63.6A20.24,20.24,0,0,1-34.96-77.718a20.216,20.216,0,0,1,14.384-5.957A20.233,20.233,0,0,1-6.193-77.717,20.238,20.238,0,0,1-.236-63.332,20.238,20.238,0,0,1-6.194-48.949a20.239,20.239,0,0,1-14.283,5.957h-.2a20.24,20.24,0,0,1-14.282-5.96,20.239,20.239,0,0,1-5.956-14.113h0l0-.269,0-.27Z" transform="translate(42.319 85.075)"/></g><g transform="translate(0)"><path class="a" d="M-23.408-47.072h.264A24.448,24.448,0,0,0-5.877-54.279a24.442,24.442,0,0,0,7.208-17.4,24.441,24.441,0,0,0-7.206-17.4,24.445,24.445,0,0,0-17.266-7.208h-.264a24.447,24.447,0,0,0-17.268,7.206,24.444,24.444,0,0,0-7.207,17.4,24.442,24.442,0,0,0,7.206,17.4,24.444,24.444,0,0,0,17.266,7.208M-46.481-71.948a23.061,23.061,0,0,1,6.8-16.141,23.034,23.034,0,0,1,16.41-6.8,23.057,23.057,0,0,1,16.409,6.8,23.059,23.059,0,0,1,6.8,16.41,23.059,23.059,0,0,1-6.8,16.409,23.056,23.056,0,0,1-16.287,6.8H-23.4a23.061,23.061,0,0,1-16.286-6.8,23.061,23.061,0,0,1-6.8-16.139h0l0-.269,0-.27Z" transform="translate(47.881 96.284)"/></g></g></g><g class="b" transform="translate(658.555 441.185)"><g class="c"><g transform="translate(17.188 17.187)"><path class="a" d="M0-7.353A7.316,7.316,0,0,0,2.165-2.377,7.319,7.319,0,0,0,7.409-.205a7.321,7.321,0,0,0,5.246-2.174,7.321,7.321,0,0,0,2.172-5.244,7.323,7.323,0,0,0-2.174-5.246,7.32,7.32,0,0,0-5.244-2.172,7.323,7.323,0,0,0-5.246,2.174A7.317,7.317,0,0,0,0-7.892h0v.539Zm3.156-4.524a5.967,5.967,0,0,1,4.258-1.764,5.967,5.967,0,0,1,4.255,1.761,5.973,5.973,0,0,1,1.764,4.258,5.968,5.968,0,0,1-1.762,4.255A5.967,5.967,0,0,1,7.409-1.6,5.965,5.965,0,0,1,3.154-3.365,5.966,5.966,0,0,1,1.39-7.623a5.964,5.964,0,0,1,1.761-4.255" transform="translate(0.009 15.041)"/></g><g transform="translate(22.914 22.914)"><path class="a" d="M-1.556-3.235l.064,0A1.606,1.606,0,0,0-.3-3.734,1.6,1.6,0,0,0,.2-4.927,1.605,1.605,0,0,0-.3-6.12a1.606,1.606,0,0,0-1.193-.5,1.6,1.6,0,0,0-1.193.5,1.6,1.6,0,0,0-.5,1.192,1.6,1.6,0,0,0,.5,1.192,1.618,1.618,0,0,0,1.129.5" transform="translate(3.183 6.618)"/></g><g transform="translate(20.051 20.052)"><path class="a" d="M-4.358-8.711a4.52,4.52,0,0,0,3.221-1.336A4.517,4.517,0,0,0,.193-13.266a4.52,4.52,0,0,0-1.337-3.221,4.516,4.516,0,0,0-3.218-1.331,4.52,4.52,0,0,0-3.221,1.337,4.508,4.508,0,0,0-1.323,2.948h-.01l0,.269,0,.269h.01a4.515,4.515,0,0,0,1.328,2.953A4.516,4.516,0,0,0-4.358-8.711m-3.154-4.823a3.07,3.07,0,0,1,.925-1.958,3.022,3.022,0,0,1,2.216-.928h.021a3.019,3.019,0,0,1,2.216.928A3.011,3.011,0,0,1-1.2-13.275v.021a3.013,3.013,0,0,1-.928,2.216,3.008,3.008,0,0,1-2.216.928h-.021a3.011,3.011,0,0,1-2.216-.928A3.074,3.074,0,0,1-7.513-13H-7.5l-.011-.269.011-.269Z" transform="translate(8.915 17.818)"/></g><g transform="translate(5.729 5.729)"><path class="a" d="M-17.971-36.112h.176A18.806,18.806,0,0,0-4.535-41.64,18.8,18.8,0,0,0,.994-54.987,18.8,18.8,0,0,0-4.533-68.336a18.805,18.805,0,0,0-13.259-5.529h-.176a18.8,18.8,0,0,0-13.261,5.528,18.805,18.805,0,0,0-5.529,13.348A18.8,18.8,0,0,0-31.23-41.642a18.8,18.8,0,0,0,13.259,5.53M-35.358-55.258a17.424,17.424,0,0,1,5.119-12.09,17.421,17.421,0,0,1,12.281-5.119h.155a17.419,17.419,0,0,1,12.28,5.12A17.417,17.417,0,0,1-.4-54.987,17.419,17.419,0,0,1-5.524-42.63a17.419,17.419,0,0,1-12.281,5.119h-.155a17.421,17.421,0,0,1-12.28-5.12,17.424,17.424,0,0,1-5.117-12.089h0l0-.269,0-.269Z" transform="translate(36.758 73.865)"/></g><g transform="translate(14.323 14.323)"><path class="a" d="M0-10.093H0a10.2,10.2,0,0,0,3.009,7A10.2,10.2,0,0,0,10.26-.08H10.3a10.2,10.2,0,0,0,7.25-3.011,10.2,10.2,0,0,0,3.011-7.271,10.2,10.2,0,0,0-3.011-7.272A10.2,10.2,0,0,0,10.3-20.645h-.043a10.2,10.2,0,0,0-7.25,3.012,10.2,10.2,0,0,0-3.008,7l0,.188v.351Zm1.4-.321A8.831,8.831,0,0,1,4-16.644a8.834,8.834,0,0,1,6.27-2.6h.025a8.835,8.835,0,0,1,6.269,2.6,8.835,8.835,0,0,1,2.6,6.283,8.833,8.833,0,0,1-2.6,6.281,8.833,8.833,0,0,1-6.27,2.6h-.025A8.833,8.833,0,0,1,4-4.08a8.832,8.832,0,0,1-2.6-6.231v-.1Z" transform="translate(0.001 20.645)"/></g><g transform="translate(11.458 11.458)"><path class="a" d="M0-12.834H0A13.173,13.173,0,0,0,3.849-3.807,13.163,13.163,0,0,0,13.1.044h.085a13.166,13.166,0,0,0,9.255-3.851,13.165,13.165,0,0,0,3.851-9.3,13.165,13.165,0,0,0-3.851-9.3,13.146,13.146,0,0,0-9.3-3.851,13.131,13.131,0,0,0-9.3,3.851A13.174,13.174,0,0,0,0-13.373l0,.1c0,.056,0,.111,0,.167s0,.111,0,.167Zm1.4-.407a11.782,11.782,0,0,1,3.441-8.17,11.776,11.776,0,0,1,8.274-3.441h.034a11.758,11.758,0,0,1,8.307,3.442A11.772,11.772,0,0,1,24.894-13.1,11.773,11.773,0,0,1,21.452-4.8a11.77,11.77,0,0,1-8.273,3.441h-.07A11.775,11.775,0,0,1,4.838-4.8,11.779,11.779,0,0,1,1.4-12.965v-.276Z" transform="translate(0.002 26.251)"/></g><g transform="translate(8.594 8.593)"><path class="a" d="M0-15.574H0A15.989,15.989,0,0,0,4.687-4.522,15.982,15.982,0,0,0,15.944.169h.128A15.985,15.985,0,0,0,27.331-4.521a15.981,15.981,0,0,0,4.69-11.322,15.982,15.982,0,0,0-4.689-11.323,15.986,15.986,0,0,0-11.258-4.691h-.063A15.963,15.963,0,0,0,4.688-27.166,15.989,15.989,0,0,0,0-16.113v.01c0,.087,0,.173,0,.26s0,.173,0,.259Zm1.4-.5a14.6,14.6,0,0,1,4.28-10.106,14.592,14.592,0,0,1,10.276-4.28h.057a14.6,14.6,0,0,1,10.332,4.28,14.6,14.6,0,0,1,4.28,10.334A14.593,14.593,0,0,1,26.342-5.51a14.6,14.6,0,0,1-10.276,4.28h-.114A14.6,14.6,0,0,1,5.676-5.511,14.6,14.6,0,0,1,1.4-15.617v-.454Z" transform="translate(0.002 31.856)"/></g><g transform="translate(2.864 2.864)"><path class="a" d="M-20.689-41.592h.221A21.626,21.626,0,0,0-5.205-47.96,21.624,21.624,0,0,0,1.163-63.332,21.624,21.624,0,0,0-5.2-78.706a21.626,21.626,0,0,0-15.262-6.369h-.22A21.627,21.627,0,0,0-35.95-78.708a21.623,21.623,0,0,0-6.368,15.374,21.622,21.622,0,0,0,6.367,15.372,21.624,21.624,0,0,0,15.262,6.369M-40.919-63.6A20.24,20.24,0,0,1-34.96-77.718a20.216,20.216,0,0,1,14.384-5.957A20.233,20.233,0,0,1-6.193-77.717,20.238,20.238,0,0,1-.236-63.332,20.238,20.238,0,0,1-6.194-48.949a20.239,20.239,0,0,1-14.283,5.957h-.2a20.24,20.24,0,0,1-14.282-5.96,20.239,20.239,0,0,1-5.956-14.113h0l0-.269,0-.27Z" transform="translate(42.319 85.075)"/></g><g transform="translate(0)"><path class="a" d="M-23.408-47.072h.264A24.448,24.448,0,0,0-5.877-54.279a24.442,24.442,0,0,0,7.208-17.4,24.441,24.441,0,0,0-7.206-17.4,24.445,24.445,0,0,0-17.266-7.208h-.264a24.447,24.447,0,0,0-17.268,7.206,24.444,24.444,0,0,0-7.207,17.4,24.442,24.442,0,0,0,7.206,17.4,24.444,24.444,0,0,0,17.266,7.208M-46.481-71.948a23.061,23.061,0,0,1,6.8-16.141,23.034,23.034,0,0,1,16.41-6.8,23.057,23.057,0,0,1,16.409,6.8,23.059,23.059,0,0,1,6.8,16.41,23.059,23.059,0,0,1-6.8,16.409,23.056,23.056,0,0,1-16.287,6.8H-23.4a23.061,23.061,0,0,1-16.286-6.8,23.061,23.061,0,0,1-6.8-16.139h0l0-.269,0-.27Z" transform="translate(47.881 96.284)"/></g></g></g><g class="b" transform="translate(716.555 441.185)"><g class="c"><g transform="translate(17.188 17.187)"><path class="a" d="M0-7.353A7.316,7.316,0,0,0,2.165-2.377,7.319,7.319,0,0,0,7.409-.205a7.321,7.321,0,0,0,5.246-2.174,7.321,7.321,0,0,0,2.172-5.244,7.323,7.323,0,0,0-2.174-5.246,7.32,7.32,0,0,0-5.244-2.172,7.323,7.323,0,0,0-5.246,2.174A7.317,7.317,0,0,0,0-7.892h0v.539Zm3.156-4.524a5.967,5.967,0,0,1,4.258-1.764,5.967,5.967,0,0,1,4.255,1.761,5.973,5.973,0,0,1,1.764,4.258,5.968,5.968,0,0,1-1.762,4.255A5.967,5.967,0,0,1,7.409-1.6,5.965,5.965,0,0,1,3.154-3.365,5.966,5.966,0,0,1,1.39-7.623a5.964,5.964,0,0,1,1.761-4.255" transform="translate(0.009 15.041)"/></g><g transform="translate(22.914 22.914)"><path class="a" d="M-1.556-3.235l.064,0A1.606,1.606,0,0,0-.3-3.734,1.6,1.6,0,0,0,.2-4.927,1.605,1.605,0,0,0-.3-6.12a1.606,1.606,0,0,0-1.193-.5,1.6,1.6,0,0,0-1.193.5,1.6,1.6,0,0,0-.5,1.192,1.6,1.6,0,0,0,.5,1.192,1.618,1.618,0,0,0,1.129.5" transform="translate(3.183 6.618)"/></g><g transform="translate(20.051 20.052)"><path class="a" d="M-4.358-8.711a4.52,4.52,0,0,0,3.221-1.336A4.517,4.517,0,0,0,.193-13.266a4.52,4.52,0,0,0-1.337-3.221,4.516,4.516,0,0,0-3.218-1.331,4.52,4.52,0,0,0-3.221,1.337,4.508,4.508,0,0,0-1.323,2.948h-.01l0,.269,0,.269h.01a4.515,4.515,0,0,0,1.328,2.953A4.516,4.516,0,0,0-4.358-8.711m-3.154-4.823a3.07,3.07,0,0,1,.925-1.958,3.022,3.022,0,0,1,2.216-.928h.021a3.019,3.019,0,0,1,2.216.928A3.011,3.011,0,0,1-1.2-13.275v.021a3.013,3.013,0,0,1-.928,2.216,3.008,3.008,0,0,1-2.216.928h-.021a3.011,3.011,0,0,1-2.216-.928A3.074,3.074,0,0,1-7.513-13H-7.5l-.011-.269.011-.269Z" transform="translate(8.915 17.818)"/></g><g transform="translate(5.729 5.729)"><path class="a" d="M-17.971-36.112h.176A18.806,18.806,0,0,0-4.535-41.64,18.8,18.8,0,0,0,.994-54.987,18.8,18.8,0,0,0-4.533-68.336a18.805,18.805,0,0,0-13.259-5.529h-.176a18.8,18.8,0,0,0-13.261,5.528,18.805,18.805,0,0,0-5.529,13.348A18.8,18.8,0,0,0-31.23-41.642a18.8,18.8,0,0,0,13.259,5.53M-35.358-55.258a17.424,17.424,0,0,1,5.119-12.09,17.421,17.421,0,0,1,12.281-5.119h.155a17.419,17.419,0,0,1,12.28,5.12A17.417,17.417,0,0,1-.4-54.987,17.419,17.419,0,0,1-5.524-42.63a17.419,17.419,0,0,1-12.281,5.119h-.155a17.421,17.421,0,0,1-12.28-5.12,17.424,17.424,0,0,1-5.117-12.089h0l0-.269,0-.269Z" transform="translate(36.758 73.865)"/></g><g transform="translate(14.323 14.323)"><path class="a" d="M0-10.093H0a10.2,10.2,0,0,0,3.009,7A10.2,10.2,0,0,0,10.26-.08H10.3a10.2,10.2,0,0,0,7.25-3.011,10.2,10.2,0,0,0,3.011-7.271,10.2,10.2,0,0,0-3.011-7.272A10.2,10.2,0,0,0,10.3-20.645h-.043a10.2,10.2,0,0,0-7.25,3.012,10.2,10.2,0,0,0-3.008,7l0,.188v.351Zm1.4-.321A8.831,8.831,0,0,1,4-16.644a8.834,8.834,0,0,1,6.27-2.6h.025a8.835,8.835,0,0,1,6.269,2.6,8.835,8.835,0,0,1,2.6,6.283,8.833,8.833,0,0,1-2.6,6.281,8.833,8.833,0,0,1-6.27,2.6h-.025A8.833,8.833,0,0,1,4-4.08a8.832,8.832,0,0,1-2.6-6.231v-.1Z" transform="translate(0.001 20.645)"/></g><g transform="translate(11.458 11.458)"><path class="a" d="M0-12.834H0A13.173,13.173,0,0,0,3.849-3.807,13.163,13.163,0,0,0,13.1.044h.085a13.166,13.166,0,0,0,9.255-3.851,13.165,13.165,0,0,0,3.851-9.3,13.165,13.165,0,0,0-3.851-9.3,13.146,13.146,0,0,0-9.3-3.851,13.131,13.131,0,0,0-9.3,3.851A13.174,13.174,0,0,0,0-13.373l0,.1c0,.056,0,.111,0,.167s0,.111,0,.167Zm1.4-.407a11.782,11.782,0,0,1,3.441-8.17,11.776,11.776,0,0,1,8.274-3.441h.034a11.758,11.758,0,0,1,8.307,3.442A11.772,11.772,0,0,1,24.894-13.1,11.773,11.773,0,0,1,21.452-4.8a11.77,11.77,0,0,1-8.273,3.441h-.07A11.775,11.775,0,0,1,4.838-4.8,11.779,11.779,0,0,1,1.4-12.965v-.276Z" transform="translate(0.002 26.251)"/></g><g transform="translate(8.594 8.593)"><path class="a" d="M0-15.574H0A15.989,15.989,0,0,0,4.687-4.522,15.982,15.982,0,0,0,15.944.169h.128A15.985,15.985,0,0,0,27.331-4.521a15.981,15.981,0,0,0,4.69-11.322,15.982,15.982,0,0,0-4.689-11.323,15.986,15.986,0,0,0-11.258-4.691h-.063A15.963,15.963,0,0,0,4.688-27.166,15.989,15.989,0,0,0,0-16.113v.01c0,.087,0,.173,0,.26s0,.173,0,.259Zm1.4-.5a14.6,14.6,0,0,1,4.28-10.106,14.592,14.592,0,0,1,10.276-4.28h.057a14.6,14.6,0,0,1,10.332,4.28,14.6,14.6,0,0,1,4.28,10.334A14.593,14.593,0,0,1,26.342-5.51a14.6,14.6,0,0,1-10.276,4.28h-.114A14.6,14.6,0,0,1,5.676-5.511,14.6,14.6,0,0,1,1.4-15.617v-.454Z" transform="translate(0.002 31.856)"/></g><g transform="translate(2.864 2.864)"><path class="a" d="M-20.689-41.592h.221A21.626,21.626,0,0,0-5.205-47.96,21.624,21.624,0,0,0,1.163-63.332,21.624,21.624,0,0,0-5.2-78.706a21.626,21.626,0,0,0-15.262-6.369h-.22A21.627,21.627,0,0,0-35.95-78.708a21.623,21.623,0,0,0-6.368,15.374,21.622,21.622,0,0,0,6.367,15.372,21.624,21.624,0,0,0,15.262,6.369M-40.919-63.6A20.24,20.24,0,0,1-34.96-77.718a20.216,20.216,0,0,1,14.384-5.957A20.233,20.233,0,0,1-6.193-77.717,20.238,20.238,0,0,1-.236-63.332,20.238,20.238,0,0,1-6.194-48.949a20.239,20.239,0,0,1-14.283,5.957h-.2a20.24,20.24,0,0,1-14.282-5.96,20.239,20.239,0,0,1-5.956-14.113h0l0-.269,0-.27Z" transform="translate(42.319 85.075)"/></g><g transform="translate(0)"><path class="a" d="M-23.408-47.072h.264A24.448,24.448,0,0,0-5.877-54.279a24.442,24.442,0,0,0,7.208-17.4,24.441,24.441,0,0,0-7.206-17.4,24.445,24.445,0,0,0-17.266-7.208h-.264a24.447,24.447,0,0,0-17.268,7.206,24.444,24.444,0,0,0-7.207,17.4,24.442,24.442,0,0,0,7.206,17.4,24.444,24.444,0,0,0,17.266,7.208M-46.481-71.948a23.061,23.061,0,0,1,6.8-16.141,23.034,23.034,0,0,1,16.41-6.8,23.057,23.057,0,0,1,16.409,6.8,23.059,23.059,0,0,1,6.8,16.41,23.059,23.059,0,0,1-6.8,16.409,23.056,23.056,0,0,1-16.287,6.8H-23.4a23.061,23.061,0,0,1-16.286-6.8,23.061,23.061,0,0,1-6.8-16.139h0l0-.269,0-.27Z" transform="translate(47.881 96.284)"/></g></g></g><g class="b" transform="translate(600.24 326.175)"><g class="c"><g transform="translate(17.188 17.187)"><path class="a" d="M0-7.353A7.316,7.316,0,0,0,2.165-2.377,7.319,7.319,0,0,0,7.409-.205a7.321,7.321,0,0,0,5.246-2.174,7.321,7.321,0,0,0,2.172-5.244,7.323,7.323,0,0,0-2.174-5.246,7.32,7.32,0,0,0-5.244-2.172,7.323,7.323,0,0,0-5.246,2.174A7.317,7.317,0,0,0,0-7.892h0v.539Zm3.156-4.524a5.967,5.967,0,0,1,4.258-1.764,5.967,5.967,0,0,1,4.255,1.761,5.973,5.973,0,0,1,1.764,4.258,5.968,5.968,0,0,1-1.762,4.255A5.967,5.967,0,0,1,7.409-1.6,5.965,5.965,0,0,1,3.154-3.365,5.966,5.966,0,0,1,1.39-7.623a5.964,5.964,0,0,1,1.761-4.255" transform="translate(0.009 15.041)"/></g><g transform="translate(22.914 22.914)"><path class="a" d="M-1.556-3.235l.064,0A1.606,1.606,0,0,0-.3-3.734,1.6,1.6,0,0,0,.2-4.927,1.605,1.605,0,0,0-.3-6.12a1.606,1.606,0,0,0-1.193-.5,1.6,1.6,0,0,0-1.193.5,1.6,1.6,0,0,0-.5,1.192,1.6,1.6,0,0,0,.5,1.192,1.618,1.618,0,0,0,1.129.5" transform="translate(3.183 6.618)"/></g><g transform="translate(20.051 20.052)"><path class="a" d="M-4.358-8.711a4.52,4.52,0,0,0,3.221-1.336A4.517,4.517,0,0,0,.193-13.266a4.52,4.52,0,0,0-1.337-3.221,4.516,4.516,0,0,0-3.218-1.331,4.52,4.52,0,0,0-3.221,1.337,4.508,4.508,0,0,0-1.323,2.948h-.01l0,.269,0,.269h.01a4.515,4.515,0,0,0,1.328,2.953A4.516,4.516,0,0,0-4.358-8.711m-3.154-4.823a3.07,3.07,0,0,1,.925-1.958,3.022,3.022,0,0,1,2.216-.928h.021a3.019,3.019,0,0,1,2.216.928A3.011,3.011,0,0,1-1.2-13.275v.021a3.013,3.013,0,0,1-.928,2.216,3.008,3.008,0,0,1-2.216.928h-.021a3.011,3.011,0,0,1-2.216-.928A3.074,3.074,0,0,1-7.513-13H-7.5l-.011-.269.011-.269Z" transform="translate(8.915 17.818)"/></g><g transform="translate(5.729 5.729)"><path class="a" d="M-17.971-36.112h.176A18.806,18.806,0,0,0-4.535-41.64,18.8,18.8,0,0,0,.994-54.987,18.8,18.8,0,0,0-4.533-68.336a18.805,18.805,0,0,0-13.259-5.529h-.176a18.8,18.8,0,0,0-13.261,5.528,18.805,18.805,0,0,0-5.529,13.348A18.8,18.8,0,0,0-31.23-41.642a18.8,18.8,0,0,0,13.259,5.53M-35.358-55.258a17.424,17.424,0,0,1,5.119-12.09,17.421,17.421,0,0,1,12.281-5.119h.155a17.419,17.419,0,0,1,12.28,5.12A17.417,17.417,0,0,1-.4-54.987,17.419,17.419,0,0,1-5.524-42.63a17.419,17.419,0,0,1-12.281,5.119h-.155a17.421,17.421,0,0,1-12.28-5.12,17.424,17.424,0,0,1-5.117-12.089h0l0-.269,0-.269Z" transform="translate(36.758 73.865)"/></g><g transform="translate(14.323 14.323)"><path class="a" d="M0-10.093H0a10.2,10.2,0,0,0,3.009,7A10.2,10.2,0,0,0,10.26-.08H10.3a10.2,10.2,0,0,0,7.25-3.011,10.2,10.2,0,0,0,3.011-7.271,10.2,10.2,0,0,0-3.011-7.272A10.2,10.2,0,0,0,10.3-20.645h-.043a10.2,10.2,0,0,0-7.25,3.012,10.2,10.2,0,0,0-3.008,7l0,.188v.351Zm1.4-.321A8.831,8.831,0,0,1,4-16.644a8.834,8.834,0,0,1,6.27-2.6h.025a8.835,8.835,0,0,1,6.269,2.6,8.835,8.835,0,0,1,2.6,6.283,8.833,8.833,0,0,1-2.6,6.281,8.833,8.833,0,0,1-6.27,2.6h-.025A8.833,8.833,0,0,1,4-4.08a8.832,8.832,0,0,1-2.6-6.231v-.1Z" transform="translate(0.001 20.645)"/></g><g transform="translate(11.458 11.458)"><path class="a" d="M0-12.834H0A13.173,13.173,0,0,0,3.849-3.807,13.163,13.163,0,0,0,13.1.044h.085a13.166,13.166,0,0,0,9.255-3.851,13.165,13.165,0,0,0,3.851-9.3,13.165,13.165,0,0,0-3.851-9.3,13.146,13.146,0,0,0-9.3-3.851,13.131,13.131,0,0,0-9.3,3.851A13.174,13.174,0,0,0,0-13.373l0,.1c0,.056,0,.111,0,.167s0,.111,0,.167Zm1.4-.407a11.782,11.782,0,0,1,3.441-8.17,11.776,11.776,0,0,1,8.274-3.441h.034a11.758,11.758,0,0,1,8.307,3.442A11.772,11.772,0,0,1,24.894-13.1,11.773,11.773,0,0,1,21.452-4.8a11.77,11.77,0,0,1-8.273,3.441h-.07A11.775,11.775,0,0,1,4.838-4.8,11.779,11.779,0,0,1,1.4-12.965v-.276Z" transform="translate(0.002 26.251)"/></g><g transform="translate(8.594 8.593)"><path class="a" d="M0-15.574H0A15.989,15.989,0,0,0,4.687-4.522,15.982,15.982,0,0,0,15.944.169h.128A15.985,15.985,0,0,0,27.331-4.521a15.981,15.981,0,0,0,4.69-11.322,15.982,15.982,0,0,0-4.689-11.323,15.986,15.986,0,0,0-11.258-4.691h-.063A15.963,15.963,0,0,0,4.688-27.166,15.989,15.989,0,0,0,0-16.113v.01c0,.087,0,.173,0,.26s0,.173,0,.259Zm1.4-.5a14.6,14.6,0,0,1,4.28-10.106,14.592,14.592,0,0,1,10.276-4.28h.057a14.6,14.6,0,0,1,10.332,4.28,14.6,14.6,0,0,1,4.28,10.334A14.593,14.593,0,0,1,26.342-5.51a14.6,14.6,0,0,1-10.276,4.28h-.114A14.6,14.6,0,0,1,5.676-5.511,14.6,14.6,0,0,1,1.4-15.617v-.454Z" transform="translate(0.002 31.856)"/></g><g transform="translate(2.864 2.864)"><path class="a" d="M-20.689-41.592h.221A21.626,21.626,0,0,0-5.205-47.96,21.624,21.624,0,0,0,1.163-63.332,21.624,21.624,0,0,0-5.2-78.706a21.626,21.626,0,0,0-15.262-6.369h-.22A21.627,21.627,0,0,0-35.95-78.708a21.623,21.623,0,0,0-6.368,15.374,21.622,21.622,0,0,0,6.367,15.372,21.624,21.624,0,0,0,15.262,6.369M-40.919-63.6A20.24,20.24,0,0,1-34.96-77.718a20.216,20.216,0,0,1,14.384-5.957A20.233,20.233,0,0,1-6.193-77.717,20.238,20.238,0,0,1-.236-63.332,20.238,20.238,0,0,1-6.194-48.949a20.239,20.239,0,0,1-14.283,5.957h-.2a20.24,20.24,0,0,1-14.282-5.96,20.239,20.239,0,0,1-5.956-14.113h0l0-.269,0-.27Z" transform="translate(42.319 85.075)"/></g><g transform="translate(0)"><path class="a" d="M-23.408-47.072h.264A24.448,24.448,0,0,0-5.877-54.279a24.442,24.442,0,0,0,7.208-17.4,24.441,24.441,0,0,0-7.206-17.4,24.445,24.445,0,0,0-17.266-7.208h-.264a24.447,24.447,0,0,0-17.268,7.206,24.444,24.444,0,0,0-7.207,17.4,24.442,24.442,0,0,0,7.206,17.4,24.444,24.444,0,0,0,17.266,7.208M-46.481-71.948a23.061,23.061,0,0,1,6.8-16.141,23.034,23.034,0,0,1,16.41-6.8,23.057,23.057,0,0,1,16.409,6.8,23.059,23.059,0,0,1,6.8,16.41,23.059,23.059,0,0,1-6.8,16.409,23.056,23.056,0,0,1-16.287,6.8H-23.4a23.061,23.061,0,0,1-16.286-6.8,23.061,23.061,0,0,1-6.8-16.139h0l0-.269,0-.27Z" transform="translate(47.881 96.284)"/></g></g></g><g class="b" transform="translate(658.555 326.175)"><g class="c"><g transform="translate(17.188 17.187)"><path class="a" d="M0-7.353A7.316,7.316,0,0,0,2.165-2.377,7.319,7.319,0,0,0,7.409-.205a7.321,7.321,0,0,0,5.246-2.174,7.321,7.321,0,0,0,2.172-5.244,7.323,7.323,0,0,0-2.174-5.246,7.32,7.32,0,0,0-5.244-2.172,7.323,7.323,0,0,0-5.246,2.174A7.317,7.317,0,0,0,0-7.892h0v.539Zm3.156-4.524a5.967,5.967,0,0,1,4.258-1.764,5.967,5.967,0,0,1,4.255,1.761,5.973,5.973,0,0,1,1.764,4.258,5.968,5.968,0,0,1-1.762,4.255A5.967,5.967,0,0,1,7.409-1.6,5.965,5.965,0,0,1,3.154-3.365,5.966,5.966,0,0,1,1.39-7.623a5.964,5.964,0,0,1,1.761-4.255" transform="translate(0.009 15.041)"/></g><g transform="translate(22.914 22.914)"><path class="a" d="M-1.556-3.235l.064,0A1.606,1.606,0,0,0-.3-3.734,1.6,1.6,0,0,0,.2-4.927,1.605,1.605,0,0,0-.3-6.12a1.606,1.606,0,0,0-1.193-.5,1.6,1.6,0,0,0-1.193.5,1.6,1.6,0,0,0-.5,1.192,1.6,1.6,0,0,0,.5,1.192,1.618,1.618,0,0,0,1.129.5" transform="translate(3.183 6.618)"/></g><g transform="translate(20.051 20.052)"><path class="a" d="M-4.358-8.711a4.52,4.52,0,0,0,3.221-1.336A4.517,4.517,0,0,0,.193-13.266a4.52,4.52,0,0,0-1.337-3.221,4.516,4.516,0,0,0-3.218-1.331,4.52,4.52,0,0,0-3.221,1.337,4.508,4.508,0,0,0-1.323,2.948h-.01l0,.269,0,.269h.01a4.515,4.515,0,0,0,1.328,2.953A4.516,4.516,0,0,0-4.358-8.711m-3.154-4.823a3.07,3.07,0,0,1,.925-1.958,3.022,3.022,0,0,1,2.216-.928h.021a3.019,3.019,0,0,1,2.216.928A3.011,3.011,0,0,1-1.2-13.275v.021a3.013,3.013,0,0,1-.928,2.216,3.008,3.008,0,0,1-2.216.928h-.021a3.011,3.011,0,0,1-2.216-.928A3.074,3.074,0,0,1-7.513-13H-7.5l-.011-.269.011-.269Z" transform="translate(8.915 17.818)"/></g><g transform="translate(5.729 5.729)"><path class="a" d="M-17.971-36.112h.176A18.806,18.806,0,0,0-4.535-41.64,18.8,18.8,0,0,0,.994-54.987,18.8,18.8,0,0,0-4.533-68.336a18.805,18.805,0,0,0-13.259-5.529h-.176a18.8,18.8,0,0,0-13.261,5.528,18.805,18.805,0,0,0-5.529,13.348A18.8,18.8,0,0,0-31.23-41.642a18.8,18.8,0,0,0,13.259,5.53M-35.358-55.258a17.424,17.424,0,0,1,5.119-12.09,17.421,17.421,0,0,1,12.281-5.119h.155a17.419,17.419,0,0,1,12.28,5.12A17.417,17.417,0,0,1-.4-54.987,17.419,17.419,0,0,1-5.524-42.63a17.419,17.419,0,0,1-12.281,5.119h-.155a17.421,17.421,0,0,1-12.28-5.12,17.424,17.424,0,0,1-5.117-12.089h0l0-.269,0-.269Z" transform="translate(36.758 73.865)"/></g><g transform="translate(14.323 14.323)"><path class="a" d="M0-10.093H0a10.2,10.2,0,0,0,3.009,7A10.2,10.2,0,0,0,10.26-.08H10.3a10.2,10.2,0,0,0,7.25-3.011,10.2,10.2,0,0,0,3.011-7.271,10.2,10.2,0,0,0-3.011-7.272A10.2,10.2,0,0,0,10.3-20.645h-.043a10.2,10.2,0,0,0-7.25,3.012,10.2,10.2,0,0,0-3.008,7l0,.188v.351Zm1.4-.321A8.831,8.831,0,0,1,4-16.644a8.834,8.834,0,0,1,6.27-2.6h.025a8.835,8.835,0,0,1,6.269,2.6,8.835,8.835,0,0,1,2.6,6.283,8.833,8.833,0,0,1-2.6,6.281,8.833,8.833,0,0,1-6.27,2.6h-.025A8.833,8.833,0,0,1,4-4.08a8.832,8.832,0,0,1-2.6-6.231v-.1Z" transform="translate(0.001 20.645)"/></g><g transform="translate(11.458 11.458)"><path class="a" d="M0-12.834H0A13.173,13.173,0,0,0,3.849-3.807,13.163,13.163,0,0,0,13.1.044h.085a13.166,13.166,0,0,0,9.255-3.851,13.165,13.165,0,0,0,3.851-9.3,13.165,13.165,0,0,0-3.851-9.3,13.146,13.146,0,0,0-9.3-3.851,13.131,13.131,0,0,0-9.3,3.851A13.174,13.174,0,0,0,0-13.373l0,.1c0,.056,0,.111,0,.167s0,.111,0,.167Zm1.4-.407a11.782,11.782,0,0,1,3.441-8.17,11.776,11.776,0,0,1,8.274-3.441h.034a11.758,11.758,0,0,1,8.307,3.442A11.772,11.772,0,0,1,24.894-13.1,11.773,11.773,0,0,1,21.452-4.8a11.77,11.77,0,0,1-8.273,3.441h-.07A11.775,11.775,0,0,1,4.838-4.8,11.779,11.779,0,0,1,1.4-12.965v-.276Z" transform="translate(0.002 26.251)"/></g><g transform="translate(8.594 8.593)"><path class="a" d="M0-15.574H0A15.989,15.989,0,0,0,4.687-4.522,15.982,15.982,0,0,0,15.944.169h.128A15.985,15.985,0,0,0,27.331-4.521a15.981,15.981,0,0,0,4.69-11.322,15.982,15.982,0,0,0-4.689-11.323,15.986,15.986,0,0,0-11.258-4.691h-.063A15.963,15.963,0,0,0,4.688-27.166,15.989,15.989,0,0,0,0-16.113v.01c0,.087,0,.173,0,.26s0,.173,0,.259Zm1.4-.5a14.6,14.6,0,0,1,4.28-10.106,14.592,14.592,0,0,1,10.276-4.28h.057a14.6,14.6,0,0,1,10.332,4.28,14.6,14.6,0,0,1,4.28,10.334A14.593,14.593,0,0,1,26.342-5.51a14.6,14.6,0,0,1-10.276,4.28h-.114A14.6,14.6,0,0,1,5.676-5.511,14.6,14.6,0,0,1,1.4-15.617v-.454Z" transform="translate(0.002 31.856)"/></g><g transform="translate(2.864 2.864)"><path class="a" d="M-20.689-41.592h.221A21.626,21.626,0,0,0-5.205-47.96,21.624,21.624,0,0,0,1.163-63.332,21.624,21.624,0,0,0-5.2-78.706a21.626,21.626,0,0,0-15.262-6.369h-.22A21.627,21.627,0,0,0-35.95-78.708a21.623,21.623,0,0,0-6.368,15.374,21.622,21.622,0,0,0,6.367,15.372,21.624,21.624,0,0,0,15.262,6.369M-40.919-63.6A20.24,20.24,0,0,1-34.96-77.718a20.216,20.216,0,0,1,14.384-5.957A20.233,20.233,0,0,1-6.193-77.717,20.238,20.238,0,0,1-.236-63.332,20.238,20.238,0,0,1-6.194-48.949a20.239,20.239,0,0,1-14.283,5.957h-.2a20.24,20.24,0,0,1-14.282-5.96,20.239,20.239,0,0,1-5.956-14.113h0l0-.269,0-.27Z" transform="translate(42.319 85.075)"/></g><g transform="translate(0)"><path class="a" d="M-23.408-47.072h.264A24.448,24.448,0,0,0-5.877-54.279a24.442,24.442,0,0,0,7.208-17.4,24.441,24.441,0,0,0-7.206-17.4,24.445,24.445,0,0,0-17.266-7.208h-.264a24.447,24.447,0,0,0-17.268,7.206,24.444,24.444,0,0,0-7.207,17.4,24.442,24.442,0,0,0,7.206,17.4,24.444,24.444,0,0,0,17.266,7.208M-46.481-71.948a23.061,23.061,0,0,1,6.8-16.141,23.034,23.034,0,0,1,16.41-6.8,23.057,23.057,0,0,1,16.409,6.8,23.059,23.059,0,0,1,6.8,16.41,23.059,23.059,0,0,1-6.8,16.409,23.056,23.056,0,0,1-16.287,6.8H-23.4a23.061,23.061,0,0,1-16.286-6.8,23.061,23.061,0,0,1-6.8-16.139h0l0-.269,0-.27Z" transform="translate(47.881 96.284)"/></g></g></g><g class="b" transform="translate(716.555 326.175)"><g class="c"><g transform="translate(17.188 17.187)"><path class="a" d="M0-7.353A7.316,7.316,0,0,0,2.165-2.377,7.319,7.319,0,0,0,7.409-.205a7.321,7.321,0,0,0,5.246-2.174,7.321,7.321,0,0,0,2.172-5.244,7.323,7.323,0,0,0-2.174-5.246,7.32,7.32,0,0,0-5.244-2.172,7.323,7.323,0,0,0-5.246,2.174A7.317,7.317,0,0,0,0-7.892h0v.539Zm3.156-4.524a5.967,5.967,0,0,1,4.258-1.764,5.967,5.967,0,0,1,4.255,1.761,5.973,5.973,0,0,1,1.764,4.258,5.968,5.968,0,0,1-1.762,4.255A5.967,5.967,0,0,1,7.409-1.6,5.965,5.965,0,0,1,3.154-3.365,5.966,5.966,0,0,1,1.39-7.623a5.964,5.964,0,0,1,1.761-4.255" transform="translate(0.009 15.041)"/></g><g transform="translate(22.914 22.914)"><path class="a" d="M-1.556-3.235l.064,0A1.606,1.606,0,0,0-.3-3.734,1.6,1.6,0,0,0,.2-4.927,1.605,1.605,0,0,0-.3-6.12a1.606,1.606,0,0,0-1.193-.5,1.6,1.6,0,0,0-1.193.5,1.6,1.6,0,0,0-.5,1.192,1.6,1.6,0,0,0,.5,1.192,1.618,1.618,0,0,0,1.129.5" transform="translate(3.183 6.618)"/></g><g transform="translate(20.051 20.052)"><path class="a" d="M-4.358-8.711a4.52,4.52,0,0,0,3.221-1.336A4.517,4.517,0,0,0,.193-13.266a4.52,4.52,0,0,0-1.337-3.221,4.516,4.516,0,0,0-3.218-1.331,4.52,4.52,0,0,0-3.221,1.337,4.508,4.508,0,0,0-1.323,2.948h-.01l0,.269,0,.269h.01a4.515,4.515,0,0,0,1.328,2.953A4.516,4.516,0,0,0-4.358-8.711m-3.154-4.823a3.07,3.07,0,0,1,.925-1.958,3.022,3.022,0,0,1,2.216-.928h.021a3.019,3.019,0,0,1,2.216.928A3.011,3.011,0,0,1-1.2-13.275v.021a3.013,3.013,0,0,1-.928,2.216,3.008,3.008,0,0,1-2.216.928h-.021a3.011,3.011,0,0,1-2.216-.928A3.074,3.074,0,0,1-7.513-13H-7.5l-.011-.269.011-.269Z" transform="translate(8.915 17.818)"/></g><g transform="translate(5.729 5.729)"><path class="a" d="M-17.971-36.112h.176A18.806,18.806,0,0,0-4.535-41.64,18.8,18.8,0,0,0,.994-54.987,18.8,18.8,0,0,0-4.533-68.336a18.805,18.805,0,0,0-13.259-5.529h-.176a18.8,18.8,0,0,0-13.261,5.528,18.805,18.805,0,0,0-5.529,13.348A18.8,18.8,0,0,0-31.23-41.642a18.8,18.8,0,0,0,13.259,5.53M-35.358-55.258a17.424,17.424,0,0,1,5.119-12.09,17.421,17.421,0,0,1,12.281-5.119h.155a17.419,17.419,0,0,1,12.28,5.12A17.417,17.417,0,0,1-.4-54.987,17.419,17.419,0,0,1-5.524-42.63a17.419,17.419,0,0,1-12.281,5.119h-.155a17.421,17.421,0,0,1-12.28-5.12,17.424,17.424,0,0,1-5.117-12.089h0l0-.269,0-.269Z" transform="translate(36.758 73.865)"/></g><g transform="translate(14.323 14.323)"><path class="a" d="M0-10.093H0a10.2,10.2,0,0,0,3.009,7A10.2,10.2,0,0,0,10.26-.08H10.3a10.2,10.2,0,0,0,7.25-3.011,10.2,10.2,0,0,0,3.011-7.271,10.2,10.2,0,0,0-3.011-7.272A10.2,10.2,0,0,0,10.3-20.645h-.043a10.2,10.2,0,0,0-7.25,3.012,10.2,10.2,0,0,0-3.008,7l0,.188v.351Zm1.4-.321A8.831,8.831,0,0,1,4-16.644a8.834,8.834,0,0,1,6.27-2.6h.025a8.835,8.835,0,0,1,6.269,2.6,8.835,8.835,0,0,1,2.6,6.283,8.833,8.833,0,0,1-2.6,6.281,8.833,8.833,0,0,1-6.27,2.6h-.025A8.833,8.833,0,0,1,4-4.08a8.832,8.832,0,0,1-2.6-6.231v-.1Z" transform="translate(0.001 20.645)"/></g><g transform="translate(11.458 11.458)"><path class="a" d="M0-12.834H0A13.173,13.173,0,0,0,3.849-3.807,13.163,13.163,0,0,0,13.1.044h.085a13.166,13.166,0,0,0,9.255-3.851,13.165,13.165,0,0,0,3.851-9.3,13.165,13.165,0,0,0-3.851-9.3,13.146,13.146,0,0,0-9.3-3.851,13.131,13.131,0,0,0-9.3,3.851A13.174,13.174,0,0,0,0-13.373l0,.1c0,.056,0,.111,0,.167s0,.111,0,.167Zm1.4-.407a11.782,11.782,0,0,1,3.441-8.17,11.776,11.776,0,0,1,8.274-3.441h.034a11.758,11.758,0,0,1,8.307,3.442A11.772,11.772,0,0,1,24.894-13.1,11.773,11.773,0,0,1,21.452-4.8a11.77,11.77,0,0,1-8.273,3.441h-.07A11.775,11.775,0,0,1,4.838-4.8,11.779,11.779,0,0,1,1.4-12.965v-.276Z" transform="translate(0.002 26.251)"/></g><g transform="translate(8.594 8.593)"><path class="a" d="M0-15.574H0A15.989,15.989,0,0,0,4.687-4.522,15.982,15.982,0,0,0,15.944.169h.128A15.985,15.985,0,0,0,27.331-4.521a15.981,15.981,0,0,0,4.69-11.322,15.982,15.982,0,0,0-4.689-11.323,15.986,15.986,0,0,0-11.258-4.691h-.063A15.963,15.963,0,0,0,4.688-27.166,15.989,15.989,0,0,0,0-16.113v.01c0,.087,0,.173,0,.26s0,.173,0,.259Zm1.4-.5a14.6,14.6,0,0,1,4.28-10.106,14.592,14.592,0,0,1,10.276-4.28h.057a14.6,14.6,0,0,1,10.332,4.28,14.6,14.6,0,0,1,4.28,10.334A14.593,14.593,0,0,1,26.342-5.51a14.6,14.6,0,0,1-10.276,4.28h-.114A14.6,14.6,0,0,1,5.676-5.511,14.6,14.6,0,0,1,1.4-15.617v-.454Z" transform="translate(0.002 31.856)"/></g><g transform="translate(2.864 2.864)"><path class="a" d="M-20.689-41.592h.221A21.626,21.626,0,0,0-5.205-47.96,21.624,21.624,0,0,0,1.163-63.332,21.624,21.624,0,0,0-5.2-78.706a21.626,21.626,0,0,0-15.262-6.369h-.22A21.627,21.627,0,0,0-35.95-78.708a21.623,21.623,0,0,0-6.368,15.374,21.622,21.622,0,0,0,6.367,15.372,21.624,21.624,0,0,0,15.262,6.369M-40.919-63.6A20.24,20.24,0,0,1-34.96-77.718a20.216,20.216,0,0,1,14.384-5.957A20.233,20.233,0,0,1-6.193-77.717,20.238,20.238,0,0,1-.236-63.332,20.238,20.238,0,0,1-6.194-48.949a20.239,20.239,0,0,1-14.283,5.957h-.2a20.24,20.24,0,0,1-14.282-5.96,20.239,20.239,0,0,1-5.956-14.113h0l0-.269,0-.27Z" transform="translate(42.319 85.075)"/></g><g transform="translate(0)"><path class="a" d="M-23.408-47.072h.264A24.448,24.448,0,0,0-5.877-54.279a24.442,24.442,0,0,0,7.208-17.4,24.441,24.441,0,0,0-7.206-17.4,24.445,24.445,0,0,0-17.266-7.208h-.264a24.447,24.447,0,0,0-17.268,7.206,24.444,24.444,0,0,0-7.207,17.4,24.442,24.442,0,0,0,7.206,17.4,24.444,24.444,0,0,0,17.266,7.208M-46.481-71.948a23.061,23.061,0,0,1,6.8-16.141,23.034,23.034,0,0,1,16.41-6.8,23.057,23.057,0,0,1,16.409,6.8,23.059,23.059,0,0,1,6.8,16.41,23.059,23.059,0,0,1-6.8,16.409,23.056,23.056,0,0,1-16.287,6.8H-23.4a23.061,23.061,0,0,1-16.286-6.8,23.061,23.061,0,0,1-6.8-16.139h0l0-.269,0-.27Z" transform="translate(47.881 96.284)"/></g></g></g><g class="b" transform="translate(600.24 383.68)"><g class="c"><g transform="translate(17.188 17.187)"><path class="a" d="M0-7.353A7.316,7.316,0,0,0,2.165-2.377,7.319,7.319,0,0,0,7.409-.205a7.321,7.321,0,0,0,5.246-2.174,7.321,7.321,0,0,0,2.172-5.244,7.323,7.323,0,0,0-2.174-5.246,7.32,7.32,0,0,0-5.244-2.172,7.323,7.323,0,0,0-5.246,2.174A7.317,7.317,0,0,0,0-7.892h0v.539Zm3.156-4.524a5.967,5.967,0,0,1,4.258-1.764,5.967,5.967,0,0,1,4.255,1.761,5.973,5.973,0,0,1,1.764,4.258,5.968,5.968,0,0,1-1.762,4.255A5.967,5.967,0,0,1,7.409-1.6,5.965,5.965,0,0,1,3.154-3.365,5.966,5.966,0,0,1,1.39-7.623a5.964,5.964,0,0,1,1.761-4.255" transform="translate(0.009 15.041)"/></g><g transform="translate(22.914 22.914)"><path class="a" d="M-1.556-3.235l.064,0A1.606,1.606,0,0,0-.3-3.734,1.6,1.6,0,0,0,.2-4.927,1.605,1.605,0,0,0-.3-6.12a1.606,1.606,0,0,0-1.193-.5,1.6,1.6,0,0,0-1.193.5,1.6,1.6,0,0,0-.5,1.192,1.6,1.6,0,0,0,.5,1.192,1.618,1.618,0,0,0,1.129.5" transform="translate(3.183 6.618)"/></g><g transform="translate(20.051 20.052)"><path class="a" d="M-4.358-8.711a4.52,4.52,0,0,0,3.221-1.336A4.517,4.517,0,0,0,.193-13.266a4.52,4.52,0,0,0-1.337-3.221,4.516,4.516,0,0,0-3.218-1.331,4.52,4.52,0,0,0-3.221,1.337,4.508,4.508,0,0,0-1.323,2.948h-.01l0,.269,0,.269h.01a4.515,4.515,0,0,0,1.328,2.953A4.516,4.516,0,0,0-4.358-8.711m-3.154-4.823a3.07,3.07,0,0,1,.925-1.958,3.022,3.022,0,0,1,2.216-.928h.021a3.019,3.019,0,0,1,2.216.928A3.011,3.011,0,0,1-1.2-13.275v.021a3.013,3.013,0,0,1-.928,2.216,3.008,3.008,0,0,1-2.216.928h-.021a3.011,3.011,0,0,1-2.216-.928A3.074,3.074,0,0,1-7.513-13H-7.5l-.011-.269.011-.269Z" transform="translate(8.915 17.818)"/></g><g transform="translate(5.729 5.729)"><path class="a" d="M-17.971-36.112h.176A18.806,18.806,0,0,0-4.535-41.64,18.8,18.8,0,0,0,.994-54.987,18.8,18.8,0,0,0-4.533-68.336a18.805,18.805,0,0,0-13.259-5.529h-.176a18.8,18.8,0,0,0-13.261,5.528,18.805,18.805,0,0,0-5.529,13.348A18.8,18.8,0,0,0-31.23-41.642a18.8,18.8,0,0,0,13.259,5.53M-35.358-55.258a17.424,17.424,0,0,1,5.119-12.09,17.421,17.421,0,0,1,12.281-5.119h.155a17.419,17.419,0,0,1,12.28,5.12A17.417,17.417,0,0,1-.4-54.987,17.419,17.419,0,0,1-5.524-42.63a17.419,17.419,0,0,1-12.281,5.119h-.155a17.421,17.421,0,0,1-12.28-5.12,17.424,17.424,0,0,1-5.117-12.089h0l0-.269,0-.269Z" transform="translate(36.758 73.865)"/></g><g transform="translate(14.323 14.323)"><path class="a" d="M0-10.093H0a10.2,10.2,0,0,0,3.009,7A10.2,10.2,0,0,0,10.26-.08H10.3a10.2,10.2,0,0,0,7.25-3.011,10.2,10.2,0,0,0,3.011-7.271,10.2,10.2,0,0,0-3.011-7.272A10.2,10.2,0,0,0,10.3-20.645h-.043a10.2,10.2,0,0,0-7.25,3.012,10.2,10.2,0,0,0-3.008,7l0,.188v.351Zm1.4-.321A8.831,8.831,0,0,1,4-16.644a8.834,8.834,0,0,1,6.27-2.6h.025a8.835,8.835,0,0,1,6.269,2.6,8.835,8.835,0,0,1,2.6,6.283,8.833,8.833,0,0,1-2.6,6.281,8.833,8.833,0,0,1-6.27,2.6h-.025A8.833,8.833,0,0,1,4-4.08a8.832,8.832,0,0,1-2.6-6.231v-.1Z" transform="translate(0.001 20.645)"/></g><g transform="translate(11.458 11.458)"><path class="a" d="M0-12.834H0A13.173,13.173,0,0,0,3.849-3.807,13.163,13.163,0,0,0,13.1.044h.085a13.166,13.166,0,0,0,9.255-3.851,13.165,13.165,0,0,0,3.851-9.3,13.165,13.165,0,0,0-3.851-9.3,13.146,13.146,0,0,0-9.3-3.851,13.131,13.131,0,0,0-9.3,3.851A13.174,13.174,0,0,0,0-13.373l0,.1c0,.056,0,.111,0,.167s0,.111,0,.167Zm1.4-.407a11.782,11.782,0,0,1,3.441-8.17,11.776,11.776,0,0,1,8.274-3.441h.034a11.758,11.758,0,0,1,8.307,3.442A11.772,11.772,0,0,1,24.894-13.1,11.773,11.773,0,0,1,21.452-4.8a11.77,11.77,0,0,1-8.273,3.441h-.07A11.775,11.775,0,0,1,4.838-4.8,11.779,11.779,0,0,1,1.4-12.965v-.276Z" transform="translate(0.002 26.251)"/></g><g transform="translate(8.594 8.593)"><path class="a" d="M0-15.574H0A15.989,15.989,0,0,0,4.687-4.522,15.982,15.982,0,0,0,15.944.169h.128A15.985,15.985,0,0,0,27.331-4.521a15.981,15.981,0,0,0,4.69-11.322,15.982,15.982,0,0,0-4.689-11.323,15.986,15.986,0,0,0-11.258-4.691h-.063A15.963,15.963,0,0,0,4.688-27.166,15.989,15.989,0,0,0,0-16.113v.01c0,.087,0,.173,0,.26s0,.173,0,.259Zm1.4-.5a14.6,14.6,0,0,1,4.28-10.106,14.592,14.592,0,0,1,10.276-4.28h.057a14.6,14.6,0,0,1,10.332,4.28,14.6,14.6,0,0,1,4.28,10.334A14.593,14.593,0,0,1,26.342-5.51a14.6,14.6,0,0,1-10.276,4.28h-.114A14.6,14.6,0,0,1,5.676-5.511,14.6,14.6,0,0,1,1.4-15.617v-.454Z" transform="translate(0.002 31.856)"/></g><g transform="translate(2.864 2.864)"><path class="a" d="M-20.689-41.592h.221A21.626,21.626,0,0,0-5.205-47.96,21.624,21.624,0,0,0,1.163-63.332,21.624,21.624,0,0,0-5.2-78.706a21.626,21.626,0,0,0-15.262-6.369h-.22A21.627,21.627,0,0,0-35.95-78.708a21.623,21.623,0,0,0-6.368,15.374,21.622,21.622,0,0,0,6.367,15.372,21.624,21.624,0,0,0,15.262,6.369M-40.919-63.6A20.24,20.24,0,0,1-34.96-77.718a20.216,20.216,0,0,1,14.384-5.957A20.233,20.233,0,0,1-6.193-77.717,20.238,20.238,0,0,1-.236-63.332,20.238,20.238,0,0,1-6.194-48.949a20.239,20.239,0,0,1-14.283,5.957h-.2a20.24,20.24,0,0,1-14.282-5.96,20.239,20.239,0,0,1-5.956-14.113h0l0-.269,0-.27Z" transform="translate(42.319 85.075)"/></g><g transform="translate(0)"><path class="a" d="M-23.408-47.072h.264A24.448,24.448,0,0,0-5.877-54.279a24.442,24.442,0,0,0,7.208-17.4,24.441,24.441,0,0,0-7.206-17.4,24.445,24.445,0,0,0-17.266-7.208h-.264a24.447,24.447,0,0,0-17.268,7.206,24.444,24.444,0,0,0-7.207,17.4,24.442,24.442,0,0,0,7.206,17.4,24.444,24.444,0,0,0,17.266,7.208M-46.481-71.948a23.061,23.061,0,0,1,6.8-16.141,23.034,23.034,0,0,1,16.41-6.8,23.057,23.057,0,0,1,16.409,6.8,23.059,23.059,0,0,1,6.8,16.41,23.059,23.059,0,0,1-6.8,16.409,23.056,23.056,0,0,1-16.287,6.8H-23.4a23.061,23.061,0,0,1-16.286-6.8,23.061,23.061,0,0,1-6.8-16.139h0l0-.269,0-.27Z" transform="translate(47.881 96.284)"/></g></g></g><g class="b" transform="translate(658.555 383.68)"><g class="c"><g transform="translate(17.188 17.187)"><path class="a" d="M0-7.353A7.316,7.316,0,0,0,2.165-2.377,7.319,7.319,0,0,0,7.409-.205a7.321,7.321,0,0,0,5.246-2.174,7.321,7.321,0,0,0,2.172-5.244,7.323,7.323,0,0,0-2.174-5.246,7.32,7.32,0,0,0-5.244-2.172,7.323,7.323,0,0,0-5.246,2.174A7.317,7.317,0,0,0,0-7.892h0v.539Zm3.156-4.524a5.967,5.967,0,0,1,4.258-1.764,5.967,5.967,0,0,1,4.255,1.761,5.973,5.973,0,0,1,1.764,4.258,5.968,5.968,0,0,1-1.762,4.255A5.967,5.967,0,0,1,7.409-1.6,5.965,5.965,0,0,1,3.154-3.365,5.966,5.966,0,0,1,1.39-7.623a5.964,5.964,0,0,1,1.761-4.255" transform="translate(0.009 15.041)"/></g><g transform="translate(22.914 22.914)"><path class="a" d="M-1.556-3.235l.064,0A1.606,1.606,0,0,0-.3-3.734,1.6,1.6,0,0,0,.2-4.927,1.605,1.605,0,0,0-.3-6.12a1.606,1.606,0,0,0-1.193-.5,1.6,1.6,0,0,0-1.193.5,1.6,1.6,0,0,0-.5,1.192,1.6,1.6,0,0,0,.5,1.192,1.618,1.618,0,0,0,1.129.5" transform="translate(3.183 6.618)"/></g><g transform="translate(20.051 20.052)"><path class="a" d="M-4.358-8.711a4.52,4.52,0,0,0,3.221-1.336A4.517,4.517,0,0,0,.193-13.266a4.52,4.52,0,0,0-1.337-3.221,4.516,4.516,0,0,0-3.218-1.331,4.52,4.52,0,0,0-3.221,1.337,4.508,4.508,0,0,0-1.323,2.948h-.01l0,.269,0,.269h.01a4.515,4.515,0,0,0,1.328,2.953A4.516,4.516,0,0,0-4.358-8.711m-3.154-4.823a3.07,3.07,0,0,1,.925-1.958,3.022,3.022,0,0,1,2.216-.928h.021a3.019,3.019,0,0,1,2.216.928A3.011,3.011,0,0,1-1.2-13.275v.021a3.013,3.013,0,0,1-.928,2.216,3.008,3.008,0,0,1-2.216.928h-.021a3.011,3.011,0,0,1-2.216-.928A3.074,3.074,0,0,1-7.513-13H-7.5l-.011-.269.011-.269Z" transform="translate(8.915 17.818)"/></g><g transform="translate(5.729 5.729)"><path class="a" d="M-17.971-36.112h.176A18.806,18.806,0,0,0-4.535-41.64,18.8,18.8,0,0,0,.994-54.987,18.8,18.8,0,0,0-4.533-68.336a18.805,18.805,0,0,0-13.259-5.529h-.176a18.8,18.8,0,0,0-13.261,5.528,18.805,18.805,0,0,0-5.529,13.348A18.8,18.8,0,0,0-31.23-41.642a18.8,18.8,0,0,0,13.259,5.53M-35.358-55.258a17.424,17.424,0,0,1,5.119-12.09,17.421,17.421,0,0,1,12.281-5.119h.155a17.419,17.419,0,0,1,12.28,5.12A17.417,17.417,0,0,1-.4-54.987,17.419,17.419,0,0,1-5.524-42.63a17.419,17.419,0,0,1-12.281,5.119h-.155a17.421,17.421,0,0,1-12.28-5.12,17.424,17.424,0,0,1-5.117-12.089h0l0-.269,0-.269Z" transform="translate(36.758 73.865)"/></g><g transform="translate(14.323 14.323)"><path class="a" d="M0-10.093H0a10.2,10.2,0,0,0,3.009,7A10.2,10.2,0,0,0,10.26-.08H10.3a10.2,10.2,0,0,0,7.25-3.011,10.2,10.2,0,0,0,3.011-7.271,10.2,10.2,0,0,0-3.011-7.272A10.2,10.2,0,0,0,10.3-20.645h-.043a10.2,10.2,0,0,0-7.25,3.012,10.2,10.2,0,0,0-3.008,7l0,.188v.351Zm1.4-.321A8.831,8.831,0,0,1,4-16.644a8.834,8.834,0,0,1,6.27-2.6h.025a8.835,8.835,0,0,1,6.269,2.6,8.835,8.835,0,0,1,2.6,6.283,8.833,8.833,0,0,1-2.6,6.281,8.833,8.833,0,0,1-6.27,2.6h-.025A8.833,8.833,0,0,1,4-4.08a8.832,8.832,0,0,1-2.6-6.231v-.1Z" transform="translate(0.001 20.645)"/></g><g transform="translate(11.458 11.458)"><path class="a" d="M0-12.834H0A13.173,13.173,0,0,0,3.849-3.807,13.163,13.163,0,0,0,13.1.044h.085a13.166,13.166,0,0,0,9.255-3.851,13.165,13.165,0,0,0,3.851-9.3,13.165,13.165,0,0,0-3.851-9.3,13.146,13.146,0,0,0-9.3-3.851,13.131,13.131,0,0,0-9.3,3.851A13.174,13.174,0,0,0,0-13.373l0,.1c0,.056,0,.111,0,.167s0,.111,0,.167Zm1.4-.407a11.782,11.782,0,0,1,3.441-8.17,11.776,11.776,0,0,1,8.274-3.441h.034a11.758,11.758,0,0,1,8.307,3.442A11.772,11.772,0,0,1,24.894-13.1,11.773,11.773,0,0,1,21.452-4.8a11.77,11.77,0,0,1-8.273,3.441h-.07A11.775,11.775,0,0,1,4.838-4.8,11.779,11.779,0,0,1,1.4-12.965v-.276Z" transform="translate(0.002 26.251)"/></g><g transform="translate(8.594 8.593)"><path class="a" d="M0-15.574H0A15.989,15.989,0,0,0,4.687-4.522,15.982,15.982,0,0,0,15.944.169h.128A15.985,15.985,0,0,0,27.331-4.521a15.981,15.981,0,0,0,4.69-11.322,15.982,15.982,0,0,0-4.689-11.323,15.986,15.986,0,0,0-11.258-4.691h-.063A15.963,15.963,0,0,0,4.688-27.166,15.989,15.989,0,0,0,0-16.113v.01c0,.087,0,.173,0,.26s0,.173,0,.259Zm1.4-.5a14.6,14.6,0,0,1,4.28-10.106,14.592,14.592,0,0,1,10.276-4.28h.057a14.6,14.6,0,0,1,10.332,4.28,14.6,14.6,0,0,1,4.28,10.334A14.593,14.593,0,0,1,26.342-5.51a14.6,14.6,0,0,1-10.276,4.28h-.114A14.6,14.6,0,0,1,5.676-5.511,14.6,14.6,0,0,1,1.4-15.617v-.454Z" transform="translate(0.002 31.856)"/></g><g transform="translate(2.864 2.864)"><path class="a" d="M-20.689-41.592h.221A21.626,21.626,0,0,0-5.205-47.96,21.624,21.624,0,0,0,1.163-63.332,21.624,21.624,0,0,0-5.2-78.706a21.626,21.626,0,0,0-15.262-6.369h-.22A21.627,21.627,0,0,0-35.95-78.708a21.623,21.623,0,0,0-6.368,15.374,21.622,21.622,0,0,0,6.367,15.372,21.624,21.624,0,0,0,15.262,6.369M-40.919-63.6A20.24,20.24,0,0,1-34.96-77.718a20.216,20.216,0,0,1,14.384-5.957A20.233,20.233,0,0,1-6.193-77.717,20.238,20.238,0,0,1-.236-63.332,20.238,20.238,0,0,1-6.194-48.949a20.239,20.239,0,0,1-14.283,5.957h-.2a20.24,20.24,0,0,1-14.282-5.96,20.239,20.239,0,0,1-5.956-14.113h0l0-.269,0-.27Z" transform="translate(42.319 85.075)"/></g><g transform="translate(0)"><path class="a" d="M-23.408-47.072h.264A24.448,24.448,0,0,0-5.877-54.279a24.442,24.442,0,0,0,7.208-17.4,24.441,24.441,0,0,0-7.206-17.4,24.445,24.445,0,0,0-17.266-7.208h-.264a24.447,24.447,0,0,0-17.268,7.206,24.444,24.444,0,0,0-7.207,17.4,24.442,24.442,0,0,0,7.206,17.4,24.444,24.444,0,0,0,17.266,7.208M-46.481-71.948a23.061,23.061,0,0,1,6.8-16.141,23.034,23.034,0,0,1,16.41-6.8,23.057,23.057,0,0,1,16.409,6.8,23.059,23.059,0,0,1,6.8,16.41,23.059,23.059,0,0,1-6.8,16.409,23.056,23.056,0,0,1-16.287,6.8H-23.4a23.061,23.061,0,0,1-16.286-6.8,23.061,23.061,0,0,1-6.8-16.139h0l0-.269,0-.27Z" transform="translate(47.881 96.284)"/></g></g></g><g class="b" transform="translate(716.555 383.68)"><g class="c"><g transform="translate(17.188 17.187)"><path class="a" d="M0-7.353A7.316,7.316,0,0,0,2.165-2.377,7.319,7.319,0,0,0,7.409-.205a7.321,7.321,0,0,0,5.246-2.174,7.321,7.321,0,0,0,2.172-5.244,7.323,7.323,0,0,0-2.174-5.246,7.32,7.32,0,0,0-5.244-2.172,7.323,7.323,0,0,0-5.246,2.174A7.317,7.317,0,0,0,0-7.892h0v.539Zm3.156-4.524a5.967,5.967,0,0,1,4.258-1.764,5.967,5.967,0,0,1,4.255,1.761,5.973,5.973,0,0,1,1.764,4.258,5.968,5.968,0,0,1-1.762,4.255A5.967,5.967,0,0,1,7.409-1.6,5.965,5.965,0,0,1,3.154-3.365,5.966,5.966,0,0,1,1.39-7.623a5.964,5.964,0,0,1,1.761-4.255" transform="translate(0.009 15.041)"/></g><g transform="translate(22.914 22.914)"><path class="a" d="M-1.556-3.235l.064,0A1.606,1.606,0,0,0-.3-3.734,1.6,1.6,0,0,0,.2-4.927,1.605,1.605,0,0,0-.3-6.12a1.606,1.606,0,0,0-1.193-.5,1.6,1.6,0,0,0-1.193.5,1.6,1.6,0,0,0-.5,1.192,1.6,1.6,0,0,0,.5,1.192,1.618,1.618,0,0,0,1.129.5" transform="translate(3.183 6.618)"/></g><g transform="translate(20.051 20.052)"><path class="a" d="M-4.358-8.711a4.52,4.52,0,0,0,3.221-1.336A4.517,4.517,0,0,0,.193-13.266a4.52,4.52,0,0,0-1.337-3.221,4.516,4.516,0,0,0-3.218-1.331,4.52,4.52,0,0,0-3.221,1.337,4.508,4.508,0,0,0-1.323,2.948h-.01l0,.269,0,.269h.01a4.515,4.515,0,0,0,1.328,2.953A4.516,4.516,0,0,0-4.358-8.711m-3.154-4.823a3.07,3.07,0,0,1,.925-1.958,3.022,3.022,0,0,1,2.216-.928h.021a3.019,3.019,0,0,1,2.216.928A3.011,3.011,0,0,1-1.2-13.275v.021a3.013,3.013,0,0,1-.928,2.216,3.008,3.008,0,0,1-2.216.928h-.021a3.011,3.011,0,0,1-2.216-.928A3.074,3.074,0,0,1-7.513-13H-7.5l-.011-.269.011-.269Z" transform="translate(8.915 17.818)"/></g><g transform="translate(5.729 5.729)"><path class="a" d="M-17.971-36.112h.176A18.806,18.806,0,0,0-4.535-41.64,18.8,18.8,0,0,0,.994-54.987,18.8,18.8,0,0,0-4.533-68.336a18.805,18.805,0,0,0-13.259-5.529h-.176a18.8,18.8,0,0,0-13.261,5.528,18.805,18.805,0,0,0-5.529,13.348A18.8,18.8,0,0,0-31.23-41.642a18.8,18.8,0,0,0,13.259,5.53M-35.358-55.258a17.424,17.424,0,0,1,5.119-12.09,17.421,17.421,0,0,1,12.281-5.119h.155a17.419,17.419,0,0,1,12.28,5.12A17.417,17.417,0,0,1-.4-54.987,17.419,17.419,0,0,1-5.524-42.63a17.419,17.419,0,0,1-12.281,5.119h-.155a17.421,17.421,0,0,1-12.28-5.12,17.424,17.424,0,0,1-5.117-12.089h0l0-.269,0-.269Z" transform="translate(36.758 73.865)"/></g><g transform="translate(14.323 14.323)"><path class="a" d="M0-10.093H0a10.2,10.2,0,0,0,3.009,7A10.2,10.2,0,0,0,10.26-.08H10.3a10.2,10.2,0,0,0,7.25-3.011,10.2,10.2,0,0,0,3.011-7.271,10.2,10.2,0,0,0-3.011-7.272A10.2,10.2,0,0,0,10.3-20.645h-.043a10.2,10.2,0,0,0-7.25,3.012,10.2,10.2,0,0,0-3.008,7l0,.188v.351Zm1.4-.321A8.831,8.831,0,0,1,4-16.644a8.834,8.834,0,0,1,6.27-2.6h.025a8.835,8.835,0,0,1,6.269,2.6,8.835,8.835,0,0,1,2.6,6.283,8.833,8.833,0,0,1-2.6,6.281,8.833,8.833,0,0,1-6.27,2.6h-.025A8.833,8.833,0,0,1,4-4.08a8.832,8.832,0,0,1-2.6-6.231v-.1Z" transform="translate(0.001 20.645)"/></g><g transform="translate(11.458 11.458)"><path class="a" d="M0-12.834H0A13.173,13.173,0,0,0,3.849-3.807,13.163,13.163,0,0,0,13.1.044h.085a13.166,13.166,0,0,0,9.255-3.851,13.165,13.165,0,0,0,3.851-9.3,13.165,13.165,0,0,0-3.851-9.3,13.146,13.146,0,0,0-9.3-3.851,13.131,13.131,0,0,0-9.3,3.851A13.174,13.174,0,0,0,0-13.373l0,.1c0,.056,0,.111,0,.167s0,.111,0,.167Zm1.4-.407a11.782,11.782,0,0,1,3.441-8.17,11.776,11.776,0,0,1,8.274-3.441h.034a11.758,11.758,0,0,1,8.307,3.442A11.772,11.772,0,0,1,24.894-13.1,11.773,11.773,0,0,1,21.452-4.8a11.77,11.77,0,0,1-8.273,3.441h-.07A11.775,11.775,0,0,1,4.838-4.8,11.779,11.779,0,0,1,1.4-12.965v-.276Z" transform="translate(0.002 26.251)"/></g><g transform="translate(8.594 8.593)"><path class="a" d="M0-15.574H0A15.989,15.989,0,0,0,4.687-4.522,15.982,15.982,0,0,0,15.944.169h.128A15.985,15.985,0,0,0,27.331-4.521a15.981,15.981,0,0,0,4.69-11.322,15.982,15.982,0,0,0-4.689-11.323,15.986,15.986,0,0,0-11.258-4.691h-.063A15.963,15.963,0,0,0,4.688-27.166,15.989,15.989,0,0,0,0-16.113v.01c0,.087,0,.173,0,.26s0,.173,0,.259Zm1.4-.5a14.6,14.6,0,0,1,4.28-10.106,14.592,14.592,0,0,1,10.276-4.28h.057a14.6,14.6,0,0,1,10.332,4.28,14.6,14.6,0,0,1,4.28,10.334A14.593,14.593,0,0,1,26.342-5.51a14.6,14.6,0,0,1-10.276,4.28h-.114A14.6,14.6,0,0,1,5.676-5.511,14.6,14.6,0,0,1,1.4-15.617v-.454Z" transform="translate(0.002 31.856)"/></g><g transform="translate(2.864 2.864)"><path class="a" d="M-20.689-41.592h.221A21.626,21.626,0,0,0-5.205-47.96,21.624,21.624,0,0,0,1.163-63.332,21.624,21.624,0,0,0-5.2-78.706a21.626,21.626,0,0,0-15.262-6.369h-.22A21.627,21.627,0,0,0-35.95-78.708a21.623,21.623,0,0,0-6.368,15.374,21.622,21.622,0,0,0,6.367,15.372,21.624,21.624,0,0,0,15.262,6.369M-40.919-63.6A20.24,20.24,0,0,1-34.96-77.718a20.216,20.216,0,0,1,14.384-5.957A20.233,20.233,0,0,1-6.193-77.717,20.238,20.238,0,0,1-.236-63.332,20.238,20.238,0,0,1-6.194-48.949a20.239,20.239,0,0,1-14.283,5.957h-.2a20.24,20.24,0,0,1-14.282-5.96,20.239,20.239,0,0,1-5.956-14.113h0l0-.269,0-.27Z" transform="translate(42.319 85.075)"/></g><g transform="translate(0)"><path class="a" d="M-23.408-47.072h.264A24.448,24.448,0,0,0-5.877-54.279a24.442,24.442,0,0,0,7.208-17.4,24.441,24.441,0,0,0-7.206-17.4,24.445,24.445,0,0,0-17.266-7.208h-.264a24.447,24.447,0,0,0-17.268,7.206,24.444,24.444,0,0,0-7.207,17.4,24.442,24.442,0,0,0,7.206,17.4,24.444,24.444,0,0,0,17.266,7.208M-46.481-71.948a23.061,23.061,0,0,1,6.8-16.141,23.034,23.034,0,0,1,16.41-6.8,23.057,23.057,0,0,1,16.409,6.8,23.059,23.059,0,0,1,6.8,16.41,23.059,23.059,0,0,1-6.8,16.409,23.056,23.056,0,0,1-16.287,6.8H-23.4a23.061,23.061,0,0,1-16.286-6.8,23.061,23.061,0,0,1-6.8-16.139h0l0-.269,0-.27Z" transform="translate(47.881 96.284)"/></g></g></g><g class="b" transform="translate(600.24 268.67)"><g class="c"><g transform="translate(17.188 17.187)"><path class="a" d="M0-7.353A7.316,7.316,0,0,0,2.165-2.377,7.319,7.319,0,0,0,7.409-.205a7.321,7.321,0,0,0,5.246-2.174,7.321,7.321,0,0,0,2.172-5.244,7.323,7.323,0,0,0-2.174-5.246,7.32,7.32,0,0,0-5.244-2.172,7.323,7.323,0,0,0-5.246,2.174A7.317,7.317,0,0,0,0-7.892h0v.539Zm3.156-4.524a5.967,5.967,0,0,1,4.258-1.764,5.967,5.967,0,0,1,4.255,1.761,5.973,5.973,0,0,1,1.764,4.258,5.968,5.968,0,0,1-1.762,4.255A5.967,5.967,0,0,1,7.409-1.6,5.965,5.965,0,0,1,3.154-3.365,5.966,5.966,0,0,1,1.39-7.623a5.964,5.964,0,0,1,1.761-4.255" transform="translate(0.009 15.041)"/></g><g transform="translate(22.914 22.914)"><path class="a" d="M-1.556-3.235l.064,0A1.606,1.606,0,0,0-.3-3.734,1.6,1.6,0,0,0,.2-4.927,1.605,1.605,0,0,0-.3-6.12a1.606,1.606,0,0,0-1.193-.5,1.6,1.6,0,0,0-1.193.5,1.6,1.6,0,0,0-.5,1.192,1.6,1.6,0,0,0,.5,1.192,1.618,1.618,0,0,0,1.129.5" transform="translate(3.183 6.618)"/></g><g transform="translate(20.051 20.052)"><path class="a" d="M-4.358-8.711a4.52,4.52,0,0,0,3.221-1.336A4.517,4.517,0,0,0,.193-13.266a4.52,4.52,0,0,0-1.337-3.221,4.516,4.516,0,0,0-3.218-1.331,4.52,4.52,0,0,0-3.221,1.337,4.508,4.508,0,0,0-1.323,2.948h-.01l0,.269,0,.269h.01a4.515,4.515,0,0,0,1.328,2.953A4.516,4.516,0,0,0-4.358-8.711m-3.154-4.823a3.07,3.07,0,0,1,.925-1.958,3.022,3.022,0,0,1,2.216-.928h.021a3.019,3.019,0,0,1,2.216.928A3.011,3.011,0,0,1-1.2-13.275v.021a3.013,3.013,0,0,1-.928,2.216,3.008,3.008,0,0,1-2.216.928h-.021a3.011,3.011,0,0,1-2.216-.928A3.074,3.074,0,0,1-7.513-13H-7.5l-.011-.269.011-.269Z" transform="translate(8.915 17.818)"/></g><g transform="translate(5.729 5.729)"><path class="a" d="M-17.971-36.112h.176A18.806,18.806,0,0,0-4.535-41.64,18.8,18.8,0,0,0,.994-54.987,18.8,18.8,0,0,0-4.533-68.336a18.805,18.805,0,0,0-13.259-5.529h-.176a18.8,18.8,0,0,0-13.261,5.528,18.805,18.805,0,0,0-5.529,13.348A18.8,18.8,0,0,0-31.23-41.642a18.8,18.8,0,0,0,13.259,5.53M-35.358-55.258a17.424,17.424,0,0,1,5.119-12.09,17.421,17.421,0,0,1,12.281-5.119h.155a17.419,17.419,0,0,1,12.28,5.12A17.417,17.417,0,0,1-.4-54.987,17.419,17.419,0,0,1-5.524-42.63a17.419,17.419,0,0,1-12.281,5.119h-.155a17.421,17.421,0,0,1-12.28-5.12,17.424,17.424,0,0,1-5.117-12.089h0l0-.269,0-.269Z" transform="translate(36.758 73.865)"/></g><g transform="translate(14.323 14.323)"><path class="a" d="M0-10.093H0a10.2,10.2,0,0,0,3.009,7A10.2,10.2,0,0,0,10.26-.08H10.3a10.2,10.2,0,0,0,7.25-3.011,10.2,10.2,0,0,0,3.011-7.271,10.2,10.2,0,0,0-3.011-7.272A10.2,10.2,0,0,0,10.3-20.645h-.043a10.2,10.2,0,0,0-7.25,3.012,10.2,10.2,0,0,0-3.008,7l0,.188v.351Zm1.4-.321A8.831,8.831,0,0,1,4-16.644a8.834,8.834,0,0,1,6.27-2.6h.025a8.835,8.835,0,0,1,6.269,2.6,8.835,8.835,0,0,1,2.6,6.283,8.833,8.833,0,0,1-2.6,6.281,8.833,8.833,0,0,1-6.27,2.6h-.025A8.833,8.833,0,0,1,4-4.08a8.832,8.832,0,0,1-2.6-6.231v-.1Z" transform="translate(0.001 20.645)"/></g><g transform="translate(11.458 11.458)"><path class="a" d="M0-12.834H0A13.173,13.173,0,0,0,3.849-3.807,13.163,13.163,0,0,0,13.1.044h.085a13.166,13.166,0,0,0,9.255-3.851,13.165,13.165,0,0,0,3.851-9.3,13.165,13.165,0,0,0-3.851-9.3,13.146,13.146,0,0,0-9.3-3.851,13.131,13.131,0,0,0-9.3,3.851A13.174,13.174,0,0,0,0-13.373l0,.1c0,.056,0,.111,0,.167s0,.111,0,.167Zm1.4-.407a11.782,11.782,0,0,1,3.441-8.17,11.776,11.776,0,0,1,8.274-3.441h.034a11.758,11.758,0,0,1,8.307,3.442A11.772,11.772,0,0,1,24.894-13.1,11.773,11.773,0,0,1,21.452-4.8a11.77,11.77,0,0,1-8.273,3.441h-.07A11.775,11.775,0,0,1,4.838-4.8,11.779,11.779,0,0,1,1.4-12.965v-.276Z" transform="translate(0.002 26.251)"/></g><g transform="translate(8.594 8.593)"><path class="a" d="M0-15.574H0A15.989,15.989,0,0,0,4.687-4.522,15.982,15.982,0,0,0,15.944.169h.128A15.985,15.985,0,0,0,27.331-4.521a15.981,15.981,0,0,0,4.69-11.322,15.982,15.982,0,0,0-4.689-11.323,15.986,15.986,0,0,0-11.258-4.691h-.063A15.963,15.963,0,0,0,4.688-27.166,15.989,15.989,0,0,0,0-16.113v.01c0,.087,0,.173,0,.26s0,.173,0,.259Zm1.4-.5a14.6,14.6,0,0,1,4.28-10.106,14.592,14.592,0,0,1,10.276-4.28h.057a14.6,14.6,0,0,1,10.332,4.28,14.6,14.6,0,0,1,4.28,10.334A14.593,14.593,0,0,1,26.342-5.51a14.6,14.6,0,0,1-10.276,4.28h-.114A14.6,14.6,0,0,1,5.676-5.511,14.6,14.6,0,0,1,1.4-15.617v-.454Z" transform="translate(0.002 31.856)"/></g><g transform="translate(2.864 2.864)"><path class="a" d="M-20.689-41.592h.221A21.626,21.626,0,0,0-5.205-47.96,21.624,21.624,0,0,0,1.163-63.332,21.624,21.624,0,0,0-5.2-78.706a21.626,21.626,0,0,0-15.262-6.369h-.22A21.627,21.627,0,0,0-35.95-78.708a21.623,21.623,0,0,0-6.368,15.374,21.622,21.622,0,0,0,6.367,15.372,21.624,21.624,0,0,0,15.262,6.369M-40.919-63.6A20.24,20.24,0,0,1-34.96-77.718a20.216,20.216,0,0,1,14.384-5.957A20.233,20.233,0,0,1-6.193-77.717,20.238,20.238,0,0,1-.236-63.332,20.238,20.238,0,0,1-6.194-48.949a20.239,20.239,0,0,1-14.283,5.957h-.2a20.24,20.24,0,0,1-14.282-5.96,20.239,20.239,0,0,1-5.956-14.113h0l0-.269,0-.27Z" transform="translate(42.319 85.075)"/></g><g transform="translate(0)"><path class="a" d="M-23.408-47.072h.264A24.448,24.448,0,0,0-5.877-54.279a24.442,24.442,0,0,0,7.208-17.4,24.441,24.441,0,0,0-7.206-17.4,24.445,24.445,0,0,0-17.266-7.208h-.264a24.447,24.447,0,0,0-17.268,7.206,24.444,24.444,0,0,0-7.207,17.4,24.442,24.442,0,0,0,7.206,17.4,24.444,24.444,0,0,0,17.266,7.208M-46.481-71.948a23.061,23.061,0,0,1,6.8-16.141,23.034,23.034,0,0,1,16.41-6.8,23.057,23.057,0,0,1,16.409,6.8,23.059,23.059,0,0,1,6.8,16.41,23.059,23.059,0,0,1-6.8,16.409,23.056,23.056,0,0,1-16.287,6.8H-23.4a23.061,23.061,0,0,1-16.286-6.8,23.061,23.061,0,0,1-6.8-16.139h0l0-.269,0-.27Z" transform="translate(47.881 96.284)"/></g></g></g><g class="b" transform="translate(600.24 210.67)"><g class="c"><g transform="translate(17.188 17.187)"><path class="a" d="M0-7.353A7.316,7.316,0,0,0,2.165-2.377,7.319,7.319,0,0,0,7.409-.205a7.321,7.321,0,0,0,5.246-2.174,7.321,7.321,0,0,0,2.172-5.244,7.323,7.323,0,0,0-2.174-5.246,7.32,7.32,0,0,0-5.244-2.172,7.323,7.323,0,0,0-5.246,2.174A7.317,7.317,0,0,0,0-7.892h0v.539Zm3.156-4.524a5.967,5.967,0,0,1,4.258-1.764,5.967,5.967,0,0,1,4.255,1.761,5.973,5.973,0,0,1,1.764,4.258,5.968,5.968,0,0,1-1.762,4.255A5.967,5.967,0,0,1,7.409-1.6,5.965,5.965,0,0,1,3.154-3.365,5.966,5.966,0,0,1,1.39-7.623a5.964,5.964,0,0,1,1.761-4.255" transform="translate(0.009 15.041)"/></g><g transform="translate(22.914 22.914)"><path class="a" d="M-1.556-3.235l.064,0A1.606,1.606,0,0,0-.3-3.734,1.6,1.6,0,0,0,.2-4.927,1.605,1.605,0,0,0-.3-6.12a1.606,1.606,0,0,0-1.193-.5,1.6,1.6,0,0,0-1.193.5,1.6,1.6,0,0,0-.5,1.192,1.6,1.6,0,0,0,.5,1.192,1.618,1.618,0,0,0,1.129.5" transform="translate(3.183 6.618)"/></g><g transform="translate(20.051 20.052)"><path class="a" d="M-4.358-8.711a4.52,4.52,0,0,0,3.221-1.336A4.517,4.517,0,0,0,.193-13.266a4.52,4.52,0,0,0-1.337-3.221,4.516,4.516,0,0,0-3.218-1.331,4.52,4.52,0,0,0-3.221,1.337,4.508,4.508,0,0,0-1.323,2.948h-.01l0,.269,0,.269h.01a4.515,4.515,0,0,0,1.328,2.953A4.516,4.516,0,0,0-4.358-8.711m-3.154-4.823a3.07,3.07,0,0,1,.925-1.958,3.022,3.022,0,0,1,2.216-.928h.021a3.019,3.019,0,0,1,2.216.928A3.011,3.011,0,0,1-1.2-13.275v.021a3.013,3.013,0,0,1-.928,2.216,3.008,3.008,0,0,1-2.216.928h-.021a3.011,3.011,0,0,1-2.216-.928A3.074,3.074,0,0,1-7.513-13H-7.5l-.011-.269.011-.269Z" transform="translate(8.915 17.818)"/></g><g transform="translate(5.729 5.729)"><path class="a" d="M-17.971-36.112h.176A18.806,18.806,0,0,0-4.535-41.64,18.8,18.8,0,0,0,.994-54.987,18.8,18.8,0,0,0-4.533-68.336a18.805,18.805,0,0,0-13.259-5.529h-.176a18.8,18.8,0,0,0-13.261,5.528,18.805,18.805,0,0,0-5.529,13.348A18.8,18.8,0,0,0-31.23-41.642a18.8,18.8,0,0,0,13.259,5.53M-35.358-55.258a17.424,17.424,0,0,1,5.119-12.09,17.421,17.421,0,0,1,12.281-5.119h.155a17.419,17.419,0,0,1,12.28,5.12A17.417,17.417,0,0,1-.4-54.987,17.419,17.419,0,0,1-5.524-42.63a17.419,17.419,0,0,1-12.281,5.119h-.155a17.421,17.421,0,0,1-12.28-5.12,17.424,17.424,0,0,1-5.117-12.089h0l0-.269,0-.269Z" transform="translate(36.758 73.865)"/></g><g transform="translate(14.323 14.323)"><path class="a" d="M0-10.093H0a10.2,10.2,0,0,0,3.009,7A10.2,10.2,0,0,0,10.26-.08H10.3a10.2,10.2,0,0,0,7.25-3.011,10.2,10.2,0,0,0,3.011-7.271,10.2,10.2,0,0,0-3.011-7.272A10.2,10.2,0,0,0,10.3-20.645h-.043a10.2,10.2,0,0,0-7.25,3.012,10.2,10.2,0,0,0-3.008,7l0,.188v.351Zm1.4-.321A8.831,8.831,0,0,1,4-16.644a8.834,8.834,0,0,1,6.27-2.6h.025a8.835,8.835,0,0,1,6.269,2.6,8.835,8.835,0,0,1,2.6,6.283,8.833,8.833,0,0,1-2.6,6.281,8.833,8.833,0,0,1-6.27,2.6h-.025A8.833,8.833,0,0,1,4-4.08a8.832,8.832,0,0,1-2.6-6.231v-.1Z" transform="translate(0.001 20.645)"/></g><g transform="translate(11.458 11.458)"><path class="a" d="M0-12.834H0A13.173,13.173,0,0,0,3.849-3.807,13.163,13.163,0,0,0,13.1.044h.085a13.166,13.166,0,0,0,9.255-3.851,13.165,13.165,0,0,0,3.851-9.3,13.165,13.165,0,0,0-3.851-9.3,13.146,13.146,0,0,0-9.3-3.851,13.131,13.131,0,0,0-9.3,3.851A13.174,13.174,0,0,0,0-13.373l0,.1c0,.056,0,.111,0,.167s0,.111,0,.167Zm1.4-.407a11.782,11.782,0,0,1,3.441-8.17,11.776,11.776,0,0,1,8.274-3.441h.034a11.758,11.758,0,0,1,8.307,3.442A11.772,11.772,0,0,1,24.894-13.1,11.773,11.773,0,0,1,21.452-4.8a11.77,11.77,0,0,1-8.273,3.441h-.07A11.775,11.775,0,0,1,4.838-4.8,11.779,11.779,0,0,1,1.4-12.965v-.276Z" transform="translate(0.002 26.251)"/></g><g transform="translate(8.594 8.593)"><path class="a" d="M0-15.574H0A15.989,15.989,0,0,0,4.687-4.522,15.982,15.982,0,0,0,15.944.169h.128A15.985,15.985,0,0,0,27.331-4.521a15.981,15.981,0,0,0,4.69-11.322,15.982,15.982,0,0,0-4.689-11.323,15.986,15.986,0,0,0-11.258-4.691h-.063A15.963,15.963,0,0,0,4.688-27.166,15.989,15.989,0,0,0,0-16.113v.01c0,.087,0,.173,0,.26s0,.173,0,.259Zm1.4-.5a14.6,14.6,0,0,1,4.28-10.106,14.592,14.592,0,0,1,10.276-4.28h.057a14.6,14.6,0,0,1,10.332,4.28,14.6,14.6,0,0,1,4.28,10.334A14.593,14.593,0,0,1,26.342-5.51a14.6,14.6,0,0,1-10.276,4.28h-.114A14.6,14.6,0,0,1,5.676-5.511,14.6,14.6,0,0,1,1.4-15.617v-.454Z" transform="translate(0.002 31.856)"/></g><g transform="translate(2.864 2.864)"><path class="a" d="M-20.689-41.592h.221A21.626,21.626,0,0,0-5.205-47.96,21.624,21.624,0,0,0,1.163-63.332,21.624,21.624,0,0,0-5.2-78.706a21.626,21.626,0,0,0-15.262-6.369h-.22A21.627,21.627,0,0,0-35.95-78.708a21.623,21.623,0,0,0-6.368,15.374,21.622,21.622,0,0,0,6.367,15.372,21.624,21.624,0,0,0,15.262,6.369M-40.919-63.6A20.24,20.24,0,0,1-34.96-77.718a20.216,20.216,0,0,1,14.384-5.957A20.233,20.233,0,0,1-6.193-77.717,20.238,20.238,0,0,1-.236-63.332,20.238,20.238,0,0,1-6.194-48.949a20.239,20.239,0,0,1-14.283,5.957h-.2a20.24,20.24,0,0,1-14.282-5.96,20.239,20.239,0,0,1-5.956-14.113h0l0-.269,0-.27Z" transform="translate(42.319 85.075)"/></g><g transform="translate(0)"><path class="a" d="M-23.408-47.072h.264A24.448,24.448,0,0,0-5.877-54.279a24.442,24.442,0,0,0,7.208-17.4,24.441,24.441,0,0,0-7.206-17.4,24.445,24.445,0,0,0-17.266-7.208h-.264a24.447,24.447,0,0,0-17.268,7.206,24.444,24.444,0,0,0-7.207,17.4,24.442,24.442,0,0,0,7.206,17.4,24.444,24.444,0,0,0,17.266,7.208M-46.481-71.948a23.061,23.061,0,0,1,6.8-16.141,23.034,23.034,0,0,1,16.41-6.8,23.057,23.057,0,0,1,16.409,6.8,23.059,23.059,0,0,1,6.8,16.41,23.059,23.059,0,0,1-6.8,16.409,23.056,23.056,0,0,1-16.287,6.8H-23.4a23.061,23.061,0,0,1-16.286-6.8,23.061,23.061,0,0,1-6.8-16.139h0l0-.269,0-.27Z" transform="translate(47.881 96.284)"/></g></g></g><g class="b" transform="translate(658.555 268.67)"><g class="c"><g transform="translate(17.188 17.187)"><path class="a" d="M0-7.353A7.316,7.316,0,0,0,2.165-2.377,7.319,7.319,0,0,0,7.409-.205a7.321,7.321,0,0,0,5.246-2.174,7.321,7.321,0,0,0,2.172-5.244,7.323,7.323,0,0,0-2.174-5.246,7.32,7.32,0,0,0-5.244-2.172,7.323,7.323,0,0,0-5.246,2.174A7.317,7.317,0,0,0,0-7.892h0v.539Zm3.156-4.524a5.967,5.967,0,0,1,4.258-1.764,5.967,5.967,0,0,1,4.255,1.761,5.973,5.973,0,0,1,1.764,4.258,5.968,5.968,0,0,1-1.762,4.255A5.967,5.967,0,0,1,7.409-1.6,5.965,5.965,0,0,1,3.154-3.365,5.966,5.966,0,0,1,1.39-7.623a5.964,5.964,0,0,1,1.761-4.255" transform="translate(0.009 15.041)"/></g><g transform="translate(22.914 22.914)"><path class="a" d="M-1.556-3.235l.064,0A1.606,1.606,0,0,0-.3-3.734,1.6,1.6,0,0,0,.2-4.927,1.605,1.605,0,0,0-.3-6.12a1.606,1.606,0,0,0-1.193-.5,1.6,1.6,0,0,0-1.193.5,1.6,1.6,0,0,0-.5,1.192,1.6,1.6,0,0,0,.5,1.192,1.618,1.618,0,0,0,1.129.5" transform="translate(3.183 6.618)"/></g><g transform="translate(20.051 20.052)"><path class="a" d="M-4.358-8.711a4.52,4.52,0,0,0,3.221-1.336A4.517,4.517,0,0,0,.193-13.266a4.52,4.52,0,0,0-1.337-3.221,4.516,4.516,0,0,0-3.218-1.331,4.52,4.52,0,0,0-3.221,1.337,4.508,4.508,0,0,0-1.323,2.948h-.01l0,.269,0,.269h.01a4.515,4.515,0,0,0,1.328,2.953A4.516,4.516,0,0,0-4.358-8.711m-3.154-4.823a3.07,3.07,0,0,1,.925-1.958,3.022,3.022,0,0,1,2.216-.928h.021a3.019,3.019,0,0,1,2.216.928A3.011,3.011,0,0,1-1.2-13.275v.021a3.013,3.013,0,0,1-.928,2.216,3.008,3.008,0,0,1-2.216.928h-.021a3.011,3.011,0,0,1-2.216-.928A3.074,3.074,0,0,1-7.513-13H-7.5l-.011-.269.011-.269Z" transform="translate(8.915 17.818)"/></g><g transform="translate(5.729 5.729)"><path class="a" d="M-17.971-36.112h.176A18.806,18.806,0,0,0-4.535-41.64,18.8,18.8,0,0,0,.994-54.987,18.8,18.8,0,0,0-4.533-68.336a18.805,18.805,0,0,0-13.259-5.529h-.176a18.8,18.8,0,0,0-13.261,5.528,18.805,18.805,0,0,0-5.529,13.348A18.8,18.8,0,0,0-31.23-41.642a18.8,18.8,0,0,0,13.259,5.53M-35.358-55.258a17.424,17.424,0,0,1,5.119-12.09,17.421,17.421,0,0,1,12.281-5.119h.155a17.419,17.419,0,0,1,12.28,5.12A17.417,17.417,0,0,1-.4-54.987,17.419,17.419,0,0,1-5.524-42.63a17.419,17.419,0,0,1-12.281,5.119h-.155a17.421,17.421,0,0,1-12.28-5.12,17.424,17.424,0,0,1-5.117-12.089h0l0-.269,0-.269Z" transform="translate(36.758 73.865)"/></g><g transform="translate(14.323 14.323)"><path class="a" d="M0-10.093H0a10.2,10.2,0,0,0,3.009,7A10.2,10.2,0,0,0,10.26-.08H10.3a10.2,10.2,0,0,0,7.25-3.011,10.2,10.2,0,0,0,3.011-7.271,10.2,10.2,0,0,0-3.011-7.272A10.2,10.2,0,0,0,10.3-20.645h-.043a10.2,10.2,0,0,0-7.25,3.012,10.2,10.2,0,0,0-3.008,7l0,.188v.351Zm1.4-.321A8.831,8.831,0,0,1,4-16.644a8.834,8.834,0,0,1,6.27-2.6h.025a8.835,8.835,0,0,1,6.269,2.6,8.835,8.835,0,0,1,2.6,6.283,8.833,8.833,0,0,1-2.6,6.281,8.833,8.833,0,0,1-6.27,2.6h-.025A8.833,8.833,0,0,1,4-4.08a8.832,8.832,0,0,1-2.6-6.231v-.1Z" transform="translate(0.001 20.645)"/></g><g transform="translate(11.458 11.458)"><path class="a" d="M0-12.834H0A13.173,13.173,0,0,0,3.849-3.807,13.163,13.163,0,0,0,13.1.044h.085a13.166,13.166,0,0,0,9.255-3.851,13.165,13.165,0,0,0,3.851-9.3,13.165,13.165,0,0,0-3.851-9.3,13.146,13.146,0,0,0-9.3-3.851,13.131,13.131,0,0,0-9.3,3.851A13.174,13.174,0,0,0,0-13.373l0,.1c0,.056,0,.111,0,.167s0,.111,0,.167Zm1.4-.407a11.782,11.782,0,0,1,3.441-8.17,11.776,11.776,0,0,1,8.274-3.441h.034a11.758,11.758,0,0,1,8.307,3.442A11.772,11.772,0,0,1,24.894-13.1,11.773,11.773,0,0,1,21.452-4.8a11.77,11.77,0,0,1-8.273,3.441h-.07A11.775,11.775,0,0,1,4.838-4.8,11.779,11.779,0,0,1,1.4-12.965v-.276Z" transform="translate(0.002 26.251)"/></g><g transform="translate(8.594 8.593)"><path class="a" d="M0-15.574H0A15.989,15.989,0,0,0,4.687-4.522,15.982,15.982,0,0,0,15.944.169h.128A15.985,15.985,0,0,0,27.331-4.521a15.981,15.981,0,0,0,4.69-11.322,15.982,15.982,0,0,0-4.689-11.323,15.986,15.986,0,0,0-11.258-4.691h-.063A15.963,15.963,0,0,0,4.688-27.166,15.989,15.989,0,0,0,0-16.113v.01c0,.087,0,.173,0,.26s0,.173,0,.259Zm1.4-.5a14.6,14.6,0,0,1,4.28-10.106,14.592,14.592,0,0,1,10.276-4.28h.057a14.6,14.6,0,0,1,10.332,4.28,14.6,14.6,0,0,1,4.28,10.334A14.593,14.593,0,0,1,26.342-5.51a14.6,14.6,0,0,1-10.276,4.28h-.114A14.6,14.6,0,0,1,5.676-5.511,14.6,14.6,0,0,1,1.4-15.617v-.454Z" transform="translate(0.002 31.856)"/></g><g transform="translate(2.864 2.864)"><path class="a" d="M-20.689-41.592h.221A21.626,21.626,0,0,0-5.205-47.96,21.624,21.624,0,0,0,1.163-63.332,21.624,21.624,0,0,0-5.2-78.706a21.626,21.626,0,0,0-15.262-6.369h-.22A21.627,21.627,0,0,0-35.95-78.708a21.623,21.623,0,0,0-6.368,15.374,21.622,21.622,0,0,0,6.367,15.372,21.624,21.624,0,0,0,15.262,6.369M-40.919-63.6A20.24,20.24,0,0,1-34.96-77.718a20.216,20.216,0,0,1,14.384-5.957A20.233,20.233,0,0,1-6.193-77.717,20.238,20.238,0,0,1-.236-63.332,20.238,20.238,0,0,1-6.194-48.949a20.239,20.239,0,0,1-14.283,5.957h-.2a20.24,20.24,0,0,1-14.282-5.96,20.239,20.239,0,0,1-5.956-14.113h0l0-.269,0-.27Z" transform="translate(42.319 85.075)"/></g><g transform="translate(0)"><path class="a" d="M-23.408-47.072h.264A24.448,24.448,0,0,0-5.877-54.279a24.442,24.442,0,0,0,7.208-17.4,24.441,24.441,0,0,0-7.206-17.4,24.445,24.445,0,0,0-17.266-7.208h-.264a24.447,24.447,0,0,0-17.268,7.206,24.444,24.444,0,0,0-7.207,17.4,24.442,24.442,0,0,0,7.206,17.4,24.444,24.444,0,0,0,17.266,7.208M-46.481-71.948a23.061,23.061,0,0,1,6.8-16.141,23.034,23.034,0,0,1,16.41-6.8,23.057,23.057,0,0,1,16.409,6.8,23.059,23.059,0,0,1,6.8,16.41,23.059,23.059,0,0,1-6.8,16.409,23.056,23.056,0,0,1-16.287,6.8H-23.4a23.061,23.061,0,0,1-16.286-6.8,23.061,23.061,0,0,1-6.8-16.139h0l0-.269,0-.27Z" transform="translate(47.881 96.284)"/></g></g></g><g class="b" transform="translate(658.555 210.67)"><g class="c"><g transform="translate(17.188 17.187)"><path class="a" d="M0-7.353A7.316,7.316,0,0,0,2.165-2.377,7.319,7.319,0,0,0,7.409-.205a7.321,7.321,0,0,0,5.246-2.174,7.321,7.321,0,0,0,2.172-5.244,7.323,7.323,0,0,0-2.174-5.246,7.32,7.32,0,0,0-5.244-2.172,7.323,7.323,0,0,0-5.246,2.174A7.317,7.317,0,0,0,0-7.892h0v.539Zm3.156-4.524a5.967,5.967,0,0,1,4.258-1.764,5.967,5.967,0,0,1,4.255,1.761,5.973,5.973,0,0,1,1.764,4.258,5.968,5.968,0,0,1-1.762,4.255A5.967,5.967,0,0,1,7.409-1.6,5.965,5.965,0,0,1,3.154-3.365,5.966,5.966,0,0,1,1.39-7.623a5.964,5.964,0,0,1,1.761-4.255" transform="translate(0.009 15.041)"/></g><g transform="translate(22.914 22.914)"><path class="a" d="M-1.556-3.235l.064,0A1.606,1.606,0,0,0-.3-3.734,1.6,1.6,0,0,0,.2-4.927,1.605,1.605,0,0,0-.3-6.12a1.606,1.606,0,0,0-1.193-.5,1.6,1.6,0,0,0-1.193.5,1.6,1.6,0,0,0-.5,1.192,1.6,1.6,0,0,0,.5,1.192,1.618,1.618,0,0,0,1.129.5" transform="translate(3.183 6.618)"/></g><g transform="translate(20.051 20.052)"><path class="a" d="M-4.358-8.711a4.52,4.52,0,0,0,3.221-1.336A4.517,4.517,0,0,0,.193-13.266a4.52,4.52,0,0,0-1.337-3.221,4.516,4.516,0,0,0-3.218-1.331,4.52,4.52,0,0,0-3.221,1.337,4.508,4.508,0,0,0-1.323,2.948h-.01l0,.269,0,.269h.01a4.515,4.515,0,0,0,1.328,2.953A4.516,4.516,0,0,0-4.358-8.711m-3.154-4.823a3.07,3.07,0,0,1,.925-1.958,3.022,3.022,0,0,1,2.216-.928h.021a3.019,3.019,0,0,1,2.216.928A3.011,3.011,0,0,1-1.2-13.275v.021a3.013,3.013,0,0,1-.928,2.216,3.008,3.008,0,0,1-2.216.928h-.021a3.011,3.011,0,0,1-2.216-.928A3.074,3.074,0,0,1-7.513-13H-7.5l-.011-.269.011-.269Z" transform="translate(8.915 17.818)"/></g><g transform="translate(5.729 5.729)"><path class="a" d="M-17.971-36.112h.176A18.806,18.806,0,0,0-4.535-41.64,18.8,18.8,0,0,0,.994-54.987,18.8,18.8,0,0,0-4.533-68.336a18.805,18.805,0,0,0-13.259-5.529h-.176a18.8,18.8,0,0,0-13.261,5.528,18.805,18.805,0,0,0-5.529,13.348A18.8,18.8,0,0,0-31.23-41.642a18.8,18.8,0,0,0,13.259,5.53M-35.358-55.258a17.424,17.424,0,0,1,5.119-12.09,17.421,17.421,0,0,1,12.281-5.119h.155a17.419,17.419,0,0,1,12.28,5.12A17.417,17.417,0,0,1-.4-54.987,17.419,17.419,0,0,1-5.524-42.63a17.419,17.419,0,0,1-12.281,5.119h-.155a17.421,17.421,0,0,1-12.28-5.12,17.424,17.424,0,0,1-5.117-12.089h0l0-.269,0-.269Z" transform="translate(36.758 73.865)"/></g><g transform="translate(14.323 14.323)"><path class="a" d="M0-10.093H0a10.2,10.2,0,0,0,3.009,7A10.2,10.2,0,0,0,10.26-.08H10.3a10.2,10.2,0,0,0,7.25-3.011,10.2,10.2,0,0,0,3.011-7.271,10.2,10.2,0,0,0-3.011-7.272A10.2,10.2,0,0,0,10.3-20.645h-.043a10.2,10.2,0,0,0-7.25,3.012,10.2,10.2,0,0,0-3.008,7l0,.188v.351Zm1.4-.321A8.831,8.831,0,0,1,4-16.644a8.834,8.834,0,0,1,6.27-2.6h.025a8.835,8.835,0,0,1,6.269,2.6,8.835,8.835,0,0,1,2.6,6.283,8.833,8.833,0,0,1-2.6,6.281,8.833,8.833,0,0,1-6.27,2.6h-.025A8.833,8.833,0,0,1,4-4.08a8.832,8.832,0,0,1-2.6-6.231v-.1Z" transform="translate(0.001 20.645)"/></g><g transform="translate(11.458 11.458)"><path class="a" d="M0-12.834H0A13.173,13.173,0,0,0,3.849-3.807,13.163,13.163,0,0,0,13.1.044h.085a13.166,13.166,0,0,0,9.255-3.851,13.165,13.165,0,0,0,3.851-9.3,13.165,13.165,0,0,0-3.851-9.3,13.146,13.146,0,0,0-9.3-3.851,13.131,13.131,0,0,0-9.3,3.851A13.174,13.174,0,0,0,0-13.373l0,.1c0,.056,0,.111,0,.167s0,.111,0,.167Zm1.4-.407a11.782,11.782,0,0,1,3.441-8.17,11.776,11.776,0,0,1,8.274-3.441h.034a11.758,11.758,0,0,1,8.307,3.442A11.772,11.772,0,0,1,24.894-13.1,11.773,11.773,0,0,1,21.452-4.8a11.77,11.77,0,0,1-8.273,3.441h-.07A11.775,11.775,0,0,1,4.838-4.8,11.779,11.779,0,0,1,1.4-12.965v-.276Z" transform="translate(0.002 26.251)"/></g><g transform="translate(8.594 8.593)"><path class="a" d="M0-15.574H0A15.989,15.989,0,0,0,4.687-4.522,15.982,15.982,0,0,0,15.944.169h.128A15.985,15.985,0,0,0,27.331-4.521a15.981,15.981,0,0,0,4.69-11.322,15.982,15.982,0,0,0-4.689-11.323,15.986,15.986,0,0,0-11.258-4.691h-.063A15.963,15.963,0,0,0,4.688-27.166,15.989,15.989,0,0,0,0-16.113v.01c0,.087,0,.173,0,.26s0,.173,0,.259Zm1.4-.5a14.6,14.6,0,0,1,4.28-10.106,14.592,14.592,0,0,1,10.276-4.28h.057a14.6,14.6,0,0,1,10.332,4.28,14.6,14.6,0,0,1,4.28,10.334A14.593,14.593,0,0,1,26.342-5.51a14.6,14.6,0,0,1-10.276,4.28h-.114A14.6,14.6,0,0,1,5.676-5.511,14.6,14.6,0,0,1,1.4-15.617v-.454Z" transform="translate(0.002 31.856)"/></g><g transform="translate(2.864 2.864)"><path class="a" d="M-20.689-41.592h.221A21.626,21.626,0,0,0-5.205-47.96,21.624,21.624,0,0,0,1.163-63.332,21.624,21.624,0,0,0-5.2-78.706a21.626,21.626,0,0,0-15.262-6.369h-.22A21.627,21.627,0,0,0-35.95-78.708a21.623,21.623,0,0,0-6.368,15.374,21.622,21.622,0,0,0,6.367,15.372,21.624,21.624,0,0,0,15.262,6.369M-40.919-63.6A20.24,20.24,0,0,1-34.96-77.718a20.216,20.216,0,0,1,14.384-5.957A20.233,20.233,0,0,1-6.193-77.717,20.238,20.238,0,0,1-.236-63.332,20.238,20.238,0,0,1-6.194-48.949a20.239,20.239,0,0,1-14.283,5.957h-.2a20.24,20.24,0,0,1-14.282-5.96,20.239,20.239,0,0,1-5.956-14.113h0l0-.269,0-.27Z" transform="translate(42.319 85.075)"/></g><g transform="translate(0)"><path class="a" d="M-23.408-47.072h.264A24.448,24.448,0,0,0-5.877-54.279a24.442,24.442,0,0,0,7.208-17.4,24.441,24.441,0,0,0-7.206-17.4,24.445,24.445,0,0,0-17.266-7.208h-.264a24.447,24.447,0,0,0-17.268,7.206,24.444,24.444,0,0,0-7.207,17.4,24.442,24.442,0,0,0,7.206,17.4,24.444,24.444,0,0,0,17.266,7.208M-46.481-71.948a23.061,23.061,0,0,1,6.8-16.141,23.034,23.034,0,0,1,16.41-6.8,23.057,23.057,0,0,1,16.409,6.8,23.059,23.059,0,0,1,6.8,16.41,23.059,23.059,0,0,1-6.8,16.409,23.056,23.056,0,0,1-16.287,6.8H-23.4a23.061,23.061,0,0,1-16.286-6.8,23.061,23.061,0,0,1-6.8-16.139h0l0-.269,0-.27Z" transform="translate(47.881 96.284)"/></g></g></g><g class="b" transform="translate(716.555 268.67)"><g class="c"><g transform="translate(17.188 17.187)"><path class="a" d="M0-7.353A7.316,7.316,0,0,0,2.165-2.377,7.319,7.319,0,0,0,7.409-.205a7.321,7.321,0,0,0,5.246-2.174,7.321,7.321,0,0,0,2.172-5.244,7.323,7.323,0,0,0-2.174-5.246,7.32,7.32,0,0,0-5.244-2.172,7.323,7.323,0,0,0-5.246,2.174A7.317,7.317,0,0,0,0-7.892h0v.539Zm3.156-4.524a5.967,5.967,0,0,1,4.258-1.764,5.967,5.967,0,0,1,4.255,1.761,5.973,5.973,0,0,1,1.764,4.258,5.968,5.968,0,0,1-1.762,4.255A5.967,5.967,0,0,1,7.409-1.6,5.965,5.965,0,0,1,3.154-3.365,5.966,5.966,0,0,1,1.39-7.623a5.964,5.964,0,0,1,1.761-4.255" transform="translate(0.009 15.041)"/></g><g transform="translate(22.914 22.914)"><path class="a" d="M-1.556-3.235l.064,0A1.606,1.606,0,0,0-.3-3.734,1.6,1.6,0,0,0,.2-4.927,1.605,1.605,0,0,0-.3-6.12a1.606,1.606,0,0,0-1.193-.5,1.6,1.6,0,0,0-1.193.5,1.6,1.6,0,0,0-.5,1.192,1.6,1.6,0,0,0,.5,1.192,1.618,1.618,0,0,0,1.129.5" transform="translate(3.183 6.618)"/></g><g transform="translate(20.051 20.052)"><path class="a" d="M-4.358-8.711a4.52,4.52,0,0,0,3.221-1.336A4.517,4.517,0,0,0,.193-13.266a4.52,4.52,0,0,0-1.337-3.221,4.516,4.516,0,0,0-3.218-1.331,4.52,4.52,0,0,0-3.221,1.337,4.508,4.508,0,0,0-1.323,2.948h-.01l0,.269,0,.269h.01a4.515,4.515,0,0,0,1.328,2.953A4.516,4.516,0,0,0-4.358-8.711m-3.154-4.823a3.07,3.07,0,0,1,.925-1.958,3.022,3.022,0,0,1,2.216-.928h.021a3.019,3.019,0,0,1,2.216.928A3.011,3.011,0,0,1-1.2-13.275v.021a3.013,3.013,0,0,1-.928,2.216,3.008,3.008,0,0,1-2.216.928h-.021a3.011,3.011,0,0,1-2.216-.928A3.074,3.074,0,0,1-7.513-13H-7.5l-.011-.269.011-.269Z" transform="translate(8.915 17.818)"/></g><g transform="translate(5.729 5.729)"><path class="a" d="M-17.971-36.112h.176A18.806,18.806,0,0,0-4.535-41.64,18.8,18.8,0,0,0,.994-54.987,18.8,18.8,0,0,0-4.533-68.336a18.805,18.805,0,0,0-13.259-5.529h-.176a18.8,18.8,0,0,0-13.261,5.528,18.805,18.805,0,0,0-5.529,13.348A18.8,18.8,0,0,0-31.23-41.642a18.8,18.8,0,0,0,13.259,5.53M-35.358-55.258a17.424,17.424,0,0,1,5.119-12.09,17.421,17.421,0,0,1,12.281-5.119h.155a17.419,17.419,0,0,1,12.28,5.12A17.417,17.417,0,0,1-.4-54.987,17.419,17.419,0,0,1-5.524-42.63a17.419,17.419,0,0,1-12.281,5.119h-.155a17.421,17.421,0,0,1-12.28-5.12,17.424,17.424,0,0,1-5.117-12.089h0l0-.269,0-.269Z" transform="translate(36.758 73.865)"/></g><g transform="translate(14.323 14.323)"><path class="a" d="M0-10.093H0a10.2,10.2,0,0,0,3.009,7A10.2,10.2,0,0,0,10.26-.08H10.3a10.2,10.2,0,0,0,7.25-3.011,10.2,10.2,0,0,0,3.011-7.271,10.2,10.2,0,0,0-3.011-7.272A10.2,10.2,0,0,0,10.3-20.645h-.043a10.2,10.2,0,0,0-7.25,3.012,10.2,10.2,0,0,0-3.008,7l0,.188v.351Zm1.4-.321A8.831,8.831,0,0,1,4-16.644a8.834,8.834,0,0,1,6.27-2.6h.025a8.835,8.835,0,0,1,6.269,2.6,8.835,8.835,0,0,1,2.6,6.283,8.833,8.833,0,0,1-2.6,6.281,8.833,8.833,0,0,1-6.27,2.6h-.025A8.833,8.833,0,0,1,4-4.08a8.832,8.832,0,0,1-2.6-6.231v-.1Z" transform="translate(0.001 20.645)"/></g><g transform="translate(11.458 11.458)"><path class="a" d="M0-12.834H0A13.173,13.173,0,0,0,3.849-3.807,13.163,13.163,0,0,0,13.1.044h.085a13.166,13.166,0,0,0,9.255-3.851,13.165,13.165,0,0,0,3.851-9.3,13.165,13.165,0,0,0-3.851-9.3,13.146,13.146,0,0,0-9.3-3.851,13.131,13.131,0,0,0-9.3,3.851A13.174,13.174,0,0,0,0-13.373l0,.1c0,.056,0,.111,0,.167s0,.111,0,.167Zm1.4-.407a11.782,11.782,0,0,1,3.441-8.17,11.776,11.776,0,0,1,8.274-3.441h.034a11.758,11.758,0,0,1,8.307,3.442A11.772,11.772,0,0,1,24.894-13.1,11.773,11.773,0,0,1,21.452-4.8a11.77,11.77,0,0,1-8.273,3.441h-.07A11.775,11.775,0,0,1,4.838-4.8,11.779,11.779,0,0,1,1.4-12.965v-.276Z" transform="translate(0.002 26.251)"/></g><g transform="translate(8.594 8.593)"><path class="a" d="M0-15.574H0A15.989,15.989,0,0,0,4.687-4.522,15.982,15.982,0,0,0,15.944.169h.128A15.985,15.985,0,0,0,27.331-4.521a15.981,15.981,0,0,0,4.69-11.322,15.982,15.982,0,0,0-4.689-11.323,15.986,15.986,0,0,0-11.258-4.691h-.063A15.963,15.963,0,0,0,4.688-27.166,15.989,15.989,0,0,0,0-16.113v.01c0,.087,0,.173,0,.26s0,.173,0,.259Zm1.4-.5a14.6,14.6,0,0,1,4.28-10.106,14.592,14.592,0,0,1,10.276-4.28h.057a14.6,14.6,0,0,1,10.332,4.28,14.6,14.6,0,0,1,4.28,10.334A14.593,14.593,0,0,1,26.342-5.51a14.6,14.6,0,0,1-10.276,4.28h-.114A14.6,14.6,0,0,1,5.676-5.511,14.6,14.6,0,0,1,1.4-15.617v-.454Z" transform="translate(0.002 31.856)"/></g><g transform="translate(2.864 2.864)"><path class="a" d="M-20.689-41.592h.221A21.626,21.626,0,0,0-5.205-47.96,21.624,21.624,0,0,0,1.163-63.332,21.624,21.624,0,0,0-5.2-78.706a21.626,21.626,0,0,0-15.262-6.369h-.22A21.627,21.627,0,0,0-35.95-78.708a21.623,21.623,0,0,0-6.368,15.374,21.622,21.622,0,0,0,6.367,15.372,21.624,21.624,0,0,0,15.262,6.369M-40.919-63.6A20.24,20.24,0,0,1-34.96-77.718a20.216,20.216,0,0,1,14.384-5.957A20.233,20.233,0,0,1-6.193-77.717,20.238,20.238,0,0,1-.236-63.332,20.238,20.238,0,0,1-6.194-48.949a20.239,20.239,0,0,1-14.283,5.957h-.2a20.24,20.24,0,0,1-14.282-5.96,20.239,20.239,0,0,1-5.956-14.113h0l0-.269,0-.27Z" transform="translate(42.319 85.075)"/></g><g transform="translate(0)"><path class="a" d="M-23.408-47.072h.264A24.448,24.448,0,0,0-5.877-54.279a24.442,24.442,0,0,0,7.208-17.4,24.441,24.441,0,0,0-7.206-17.4,24.445,24.445,0,0,0-17.266-7.208h-.264a24.447,24.447,0,0,0-17.268,7.206,24.444,24.444,0,0,0-7.207,17.4,24.442,24.442,0,0,0,7.206,17.4,24.444,24.444,0,0,0,17.266,7.208M-46.481-71.948a23.061,23.061,0,0,1,6.8-16.141,23.034,23.034,0,0,1,16.41-6.8,23.057,23.057,0,0,1,16.409,6.8,23.059,23.059,0,0,1,6.8,16.41,23.059,23.059,0,0,1-6.8,16.409,23.056,23.056,0,0,1-16.287,6.8H-23.4a23.061,23.061,0,0,1-16.286-6.8,23.061,23.061,0,0,1-6.8-16.139h0l0-.269,0-.27Z" transform="translate(47.881 96.284)"/></g></g></g><g class="b" transform="translate(716.555 210.67)"><g class="c"><g transform="translate(17.188 17.187)"><path class="a" d="M0-7.353A7.316,7.316,0,0,0,2.165-2.377,7.319,7.319,0,0,0,7.409-.205a7.321,7.321,0,0,0,5.246-2.174,7.321,7.321,0,0,0,2.172-5.244,7.323,7.323,0,0,0-2.174-5.246,7.32,7.32,0,0,0-5.244-2.172,7.323,7.323,0,0,0-5.246,2.174A7.317,7.317,0,0,0,0-7.892h0v.539Zm3.156-4.524a5.967,5.967,0,0,1,4.258-1.764,5.967,5.967,0,0,1,4.255,1.761,5.973,5.973,0,0,1,1.764,4.258,5.968,5.968,0,0,1-1.762,4.255A5.967,5.967,0,0,1,7.409-1.6,5.965,5.965,0,0,1,3.154-3.365,5.966,5.966,0,0,1,1.39-7.623a5.964,5.964,0,0,1,1.761-4.255" transform="translate(0.009 15.041)"/></g><g transform="translate(22.914 22.914)"><path class="a" d="M-1.556-3.235l.064,0A1.606,1.606,0,0,0-.3-3.734,1.6,1.6,0,0,0,.2-4.927,1.605,1.605,0,0,0-.3-6.12a1.606,1.606,0,0,0-1.193-.5,1.6,1.6,0,0,0-1.193.5,1.6,1.6,0,0,0-.5,1.192,1.6,1.6,0,0,0,.5,1.192,1.618,1.618,0,0,0,1.129.5" transform="translate(3.183 6.618)"/></g><g transform="translate(20.051 20.052)"><path class="a" d="M-4.358-8.711a4.52,4.52,0,0,0,3.221-1.336A4.517,4.517,0,0,0,.193-13.266a4.52,4.52,0,0,0-1.337-3.221,4.516,4.516,0,0,0-3.218-1.331,4.52,4.52,0,0,0-3.221,1.337,4.508,4.508,0,0,0-1.323,2.948h-.01l0,.269,0,.269h.01a4.515,4.515,0,0,0,1.328,2.953A4.516,4.516,0,0,0-4.358-8.711m-3.154-4.823a3.07,3.07,0,0,1,.925-1.958,3.022,3.022,0,0,1,2.216-.928h.021a3.019,3.019,0,0,1,2.216.928A3.011,3.011,0,0,1-1.2-13.275v.021a3.013,3.013,0,0,1-.928,2.216,3.008,3.008,0,0,1-2.216.928h-.021a3.011,3.011,0,0,1-2.216-.928A3.074,3.074,0,0,1-7.513-13H-7.5l-.011-.269.011-.269Z" transform="translate(8.915 17.818)"/></g><g transform="translate(5.729 5.729)"><path class="a" d="M-17.971-36.112h.176A18.806,18.806,0,0,0-4.535-41.64,18.8,18.8,0,0,0,.994-54.987,18.8,18.8,0,0,0-4.533-68.336a18.805,18.805,0,0,0-13.259-5.529h-.176a18.8,18.8,0,0,0-13.261,5.528,18.805,18.805,0,0,0-5.529,13.348A18.8,18.8,0,0,0-31.23-41.642a18.8,18.8,0,0,0,13.259,5.53M-35.358-55.258a17.424,17.424,0,0,1,5.119-12.09,17.421,17.421,0,0,1,12.281-5.119h.155a17.419,17.419,0,0,1,12.28,5.12A17.417,17.417,0,0,1-.4-54.987,17.419,17.419,0,0,1-5.524-42.63a17.419,17.419,0,0,1-12.281,5.119h-.155a17.421,17.421,0,0,1-12.28-5.12,17.424,17.424,0,0,1-5.117-12.089h0l0-.269,0-.269Z" transform="translate(36.758 73.865)"/></g><g transform="translate(14.323 14.323)"><path class="a" d="M0-10.093H0a10.2,10.2,0,0,0,3.009,7A10.2,10.2,0,0,0,10.26-.08H10.3a10.2,10.2,0,0,0,7.25-3.011,10.2,10.2,0,0,0,3.011-7.271,10.2,10.2,0,0,0-3.011-7.272A10.2,10.2,0,0,0,10.3-20.645h-.043a10.2,10.2,0,0,0-7.25,3.012,10.2,10.2,0,0,0-3.008,7l0,.188v.351Zm1.4-.321A8.831,8.831,0,0,1,4-16.644a8.834,8.834,0,0,1,6.27-2.6h.025a8.835,8.835,0,0,1,6.269,2.6,8.835,8.835,0,0,1,2.6,6.283,8.833,8.833,0,0,1-2.6,6.281,8.833,8.833,0,0,1-6.27,2.6h-.025A8.833,8.833,0,0,1,4-4.08a8.832,8.832,0,0,1-2.6-6.231v-.1Z" transform="translate(0.001 20.645)"/></g><g transform="translate(11.458 11.458)"><path class="a" d="M0-12.834H0A13.173,13.173,0,0,0,3.849-3.807,13.163,13.163,0,0,0,13.1.044h.085a13.166,13.166,0,0,0,9.255-3.851,13.165,13.165,0,0,0,3.851-9.3,13.165,13.165,0,0,0-3.851-9.3,13.146,13.146,0,0,0-9.3-3.851,13.131,13.131,0,0,0-9.3,3.851A13.174,13.174,0,0,0,0-13.373l0,.1c0,.056,0,.111,0,.167s0,.111,0,.167Zm1.4-.407a11.782,11.782,0,0,1,3.441-8.17,11.776,11.776,0,0,1,8.274-3.441h.034a11.758,11.758,0,0,1,8.307,3.442A11.772,11.772,0,0,1,24.894-13.1,11.773,11.773,0,0,1,21.452-4.8a11.77,11.77,0,0,1-8.273,3.441h-.07A11.775,11.775,0,0,1,4.838-4.8,11.779,11.779,0,0,1,1.4-12.965v-.276Z" transform="translate(0.002 26.251)"/></g><g transform="translate(8.594 8.593)"><path class="a" d="M0-15.574H0A15.989,15.989,0,0,0,4.687-4.522,15.982,15.982,0,0,0,15.944.169h.128A15.985,15.985,0,0,0,27.331-4.521a15.981,15.981,0,0,0,4.69-11.322,15.982,15.982,0,0,0-4.689-11.323,15.986,15.986,0,0,0-11.258-4.691h-.063A15.963,15.963,0,0,0,4.688-27.166,15.989,15.989,0,0,0,0-16.113v.01c0,.087,0,.173,0,.26s0,.173,0,.259Zm1.4-.5a14.6,14.6,0,0,1,4.28-10.106,14.592,14.592,0,0,1,10.276-4.28h.057a14.6,14.6,0,0,1,10.332,4.28,14.6,14.6,0,0,1,4.28,10.334A14.593,14.593,0,0,1,26.342-5.51a14.6,14.6,0,0,1-10.276,4.28h-.114A14.6,14.6,0,0,1,5.676-5.511,14.6,14.6,0,0,1,1.4-15.617v-.454Z" transform="translate(0.002 31.856)"/></g><g transform="translate(2.864 2.864)"><path class="a" d="M-20.689-41.592h.221A21.626,21.626,0,0,0-5.205-47.96,21.624,21.624,0,0,0,1.163-63.332,21.624,21.624,0,0,0-5.2-78.706a21.626,21.626,0,0,0-15.262-6.369h-.22A21.627,21.627,0,0,0-35.95-78.708a21.623,21.623,0,0,0-6.368,15.374,21.622,21.622,0,0,0,6.367,15.372,21.624,21.624,0,0,0,15.262,6.369M-40.919-63.6A20.24,20.24,0,0,1-34.96-77.718a20.216,20.216,0,0,1,14.384-5.957A20.233,20.233,0,0,1-6.193-77.717,20.238,20.238,0,0,1-.236-63.332,20.238,20.238,0,0,1-6.194-48.949a20.239,20.239,0,0,1-14.283,5.957h-.2a20.24,20.24,0,0,1-14.282-5.96,20.239,20.239,0,0,1-5.956-14.113h0l0-.269,0-.27Z" transform="translate(42.319 85.075)"/></g><g transform="translate(0)"><path class="a" d="M-23.408-47.072h.264A24.448,24.448,0,0,0-5.877-54.279a24.442,24.442,0,0,0,7.208-17.4,24.441,24.441,0,0,0-7.206-17.4,24.445,24.445,0,0,0-17.266-7.208h-.264a24.447,24.447,0,0,0-17.268,7.206,24.444,24.444,0,0,0-7.207,17.4,24.442,24.442,0,0,0,7.206,17.4,24.444,24.444,0,0,0,17.266,7.208M-46.481-71.948a23.061,23.061,0,0,1,6.8-16.141,23.034,23.034,0,0,1,16.41-6.8,23.057,23.057,0,0,1,16.409,6.8,23.059,23.059,0,0,1,6.8,16.41,23.059,23.059,0,0,1-6.8,16.409,23.056,23.056,0,0,1-16.287,6.8H-23.4a23.061,23.061,0,0,1-16.286-6.8,23.061,23.061,0,0,1-6.8-16.139h0l0-.269,0-.27Z" transform="translate(47.881 96.284)"/></g></g></g></g></svg>