<svg xmlns="http://www.w3.org/2000/svg" width="188" height="282.202" viewBox="0 0 188 282.202"><defs><style>.a{opacity:0.113;}.b{fill:#fff;}</style></defs><g class="a" transform="translate(-115.205 -336.172)"><circle class="b" cx="13.428" cy="13.428" r="13.428" transform="translate(276.34 591.519)"/><circle class="b" cx="13.428" cy="13.428" r="13.428" transform="translate(236.057 591.519)"/><circle class="b" cx="13.428" cy="13.428" r="13.428" transform="translate(195.773 591.519)"/><circle class="b" cx="13.428" cy="13.428" r="13.428" transform="translate(155.489 591.519)"/><circle class="b" cx="13.428" cy="13.428" r="13.428" transform="translate(115.205 591.519)"/><circle class="b" cx="13.428" cy="13.428" r="13.428" transform="translate(276.349 551.019)"/><circle class="b" cx="13.428" cy="13.428" r="13.428" transform="translate(276.349 508.05)"/><circle class="b" cx="13.428" cy="13.428" r="13.428" transform="translate(276.349 465.081)"/><circle class="b" cx="13.428" cy="13.428" r="13.428" transform="translate(276.349 422.111)"/><circle class="b" cx="13.428" cy="13.428" r="13.428" transform="translate(276.349 379.142)"/><circle class="b" cx="13.428" cy="13.428" r="13.428" transform="translate(276.349 336.172)"/><circle class="b" cx="13.428" cy="13.428" r="13.428" transform="translate(236.065 551.019)"/><circle class="b" cx="13.428" cy="13.428" r="13.428" transform="translate(236.065 508.05)"/><circle class="b" cx="13.428" cy="13.428" r="13.428" transform="translate(236.065 465.081)"/><circle class="b" cx="13.428" cy="13.428" r="13.428" transform="translate(236.065 422.111)"/><circle class="b" cx="13.428" cy="13.428" r="13.428" transform="translate(236.065 379.142)"/><circle class="b" cx="13.428" cy="13.428" r="13.428" transform="translate(236.065 336.172)"/><circle class="b" cx="13.428" cy="13.428" r="13.428" transform="translate(195.782 551.019)"/><circle class="b" cx="13.428" cy="13.428" r="13.428" transform="translate(195.782 508.05)"/><circle class="b" cx="13.428" cy="13.428" r="13.428" transform="translate(195.782 465.081)"/><circle class="b" cx="13.428" cy="13.428" r="13.428" transform="translate(195.782 422.111)"/><circle class="b" cx="13.428" cy="13.428" r="13.428" transform="translate(195.782 379.142)"/><circle class="b" cx="13.428" cy="13.428" r="13.428" transform="translate(195.782 336.172)"/><circle class="b" cx="13.428" cy="13.428" r="13.428" transform="translate(155.498 551.019)"/><circle class="b" cx="13.428" cy="13.428" r="13.428" transform="translate(155.498 508.05)"/><circle class="b" cx="13.428" cy="13.428" r="13.428" transform="translate(155.498 465.081)"/><circle class="b" cx="13.428" cy="13.428" r="13.428" transform="translate(155.498 422.111)"/><circle class="b" cx="13.428" cy="13.428" r="13.428" transform="translate(155.498 379.142)"/><circle class="b" cx="13.428" cy="13.428" r="13.428" transform="translate(155.498 336.172)"/><circle class="b" cx="13.428" cy="13.428" r="13.428" transform="translate(115.214 551.019)"/><circle class="b" cx="13.428" cy="13.428" r="13.428" transform="translate(115.214 508.05)"/><circle class="b" cx="13.428" cy="13.428" r="13.428" transform="translate(115.214 465.081)"/><circle class="b" cx="13.428" cy="13.428" r="13.428" transform="translate(115.214 422.111)"/><circle class="b" cx="13.428" cy="13.428" r="13.428" transform="translate(115.214 336.172)"/></g></svg>