<svg xmlns="http://www.w3.org/2000/svg" width="193.8" height="302.567" viewBox="0 0 193.8 302.567"><defs><style>.a{opacity:0.232;}.b{fill:#fff;}</style></defs><g class="a" transform="translate(-272.88 -93)"><path class="b" d="M416.881,314.559a2.517,2.517,0,1,0-2.517,2.517,2.519,2.519,0,0,0,2.517-2.517" transform="translate(49.797 78.491)"/><circle class="b" cx="2.517" cy="2.517" r="2.517" transform="translate(454.094 390.534)"/><circle class="b" cx="2.517" cy="2.517" r="2.517" transform="translate(446.544 390.534)"/><circle class="b" cx="2.517" cy="2.517" r="2.517" transform="translate(438.993 390.534)"/><circle class="b" cx="2.517" cy="2.517" r="2.517" transform="translate(431.442 390.534)"/><circle class="b" cx="2.517" cy="2.517" r="2.517" transform="translate(423.892 390.534)"/><circle class="b" cx="2.517" cy="2.517" r="2.517" transform="translate(416.341 390.534)"/><circle class="b" cx="2.517" cy="2.517" r="2.517" transform="translate(408.791 390.534)"/><circle class="b" cx="2.517" cy="2.517" r="2.517" transform="translate(401.24 390.534)"/><circle class="b" cx="2.517" cy="2.517" r="2.517" transform="translate(393.689 390.534)"/><circle class="b" cx="2.517" cy="2.517" r="2.517" transform="translate(386.139 390.534)"/><circle class="b" cx="2.517" cy="2.517" r="2.517" transform="translate(378.588 390.534)"/><circle class="b" cx="2.517" cy="2.517" r="2.517" transform="translate(371.038 390.534)"/><circle class="b" cx="2.517" cy="2.517" r="2.517" transform="translate(363.487 390.534)"/><circle class="b" cx="2.517" cy="2.517" r="2.517" transform="translate(355.936 390.534)"/><circle class="b" cx="2.517" cy="2.517" r="2.517" transform="translate(348.386 390.534)"/><circle class="b" cx="2.517" cy="2.517" r="2.517" transform="translate(340.835 390.534)"/><circle class="b" cx="2.517" cy="2.517" r="2.517" transform="translate(333.285 390.534)"/><circle class="b" cx="2.517" cy="2.517" r="2.517" transform="translate(325.734 390.534)"/><circle class="b" cx="2.517" cy="2.517" r="2.517" transform="translate(318.184 390.534)"/><circle class="b" cx="2.517" cy="2.517" r="2.517" transform="translate(310.633 390.534)"/><circle class="b" cx="2.517" cy="2.517" r="2.517" transform="translate(303.082 390.534)"/><circle class="b" cx="2.517" cy="2.517" r="2.517" transform="translate(295.532 390.534)"/><circle class="b" cx="2.517" cy="2.517" r="2.517" transform="translate(287.981 390.534)"/><circle class="b" cx="2.517" cy="2.517" r="2.517" transform="translate(280.431 390.534)"/><circle class="b" cx="2.517" cy="2.517" r="2.517" transform="translate(272.88 390.534)"/><path class="b" d="M416.882,308.971a2.517,2.517,0,1,0-2.517,2.517,2.519,2.519,0,0,0,2.517-2.517" transform="translate(49.798 76.489)"/><path class="b" d="M416.882,303.042a2.517,2.517,0,1,0-2.517,2.516,2.519,2.519,0,0,0,2.517-2.516" transform="translate(49.798 74.364)"/><path class="b" d="M416.882,297.112a2.517,2.517,0,1,0-2.517,2.517,2.519,2.519,0,0,0,2.517-2.517" transform="translate(49.798 72.239)"/><path class="b" d="M416.882,291.183a2.517,2.517,0,1,0-2.517,2.517,2.519,2.519,0,0,0,2.517-2.517" transform="translate(49.798 70.115)"/><path class="b" d="M416.882,285.254a2.517,2.517,0,1,0-2.517,2.517,2.519,2.519,0,0,0,2.517-2.517" transform="translate(49.798 67.99)"/><path class="b" d="M416.882,279.324a2.517,2.517,0,1,0-2.517,2.517,2.518,2.518,0,0,0,2.517-2.517" transform="translate(49.798 65.866)"/><path class="b" d="M416.882,273.395a2.517,2.517,0,1,0-2.517,2.517,2.519,2.519,0,0,0,2.517-2.517" transform="translate(49.798 63.741)"/><path class="b" d="M416.882,267.466a2.517,2.517,0,1,0-2.517,2.517,2.519,2.519,0,0,0,2.517-2.517" transform="translate(49.798 61.616)"/><path class="b" d="M416.882,261.537a2.517,2.517,0,1,0-2.517,2.517,2.519,2.519,0,0,0,2.517-2.517" transform="translate(49.798 59.491)"/><path class="b" d="M416.882,255.607a2.517,2.517,0,1,0-2.517,2.517,2.519,2.519,0,0,0,2.517-2.517" transform="translate(49.798 57.367)"/><path class="b" d="M416.882,249.678a2.517,2.517,0,1,0-2.517,2.517,2.519,2.519,0,0,0,2.517-2.517" transform="translate(49.798 55.242)"/><path class="b" d="M416.882,243.749a2.517,2.517,0,1,0-2.517,2.517,2.519,2.519,0,0,0,2.517-2.517" transform="translate(49.798 53.117)"/><path class="b" d="M416.882,237.82a2.517,2.517,0,1,0-2.517,2.516,2.519,2.519,0,0,0,2.517-2.516" transform="translate(49.798 50.993)"/><path class="b" d="M416.882,231.89a2.517,2.517,0,1,0-2.517,2.517,2.519,2.519,0,0,0,2.517-2.517" transform="translate(49.798 48.868)"/><path class="b" d="M416.882,225.961a2.517,2.517,0,1,0-2.517,2.517,2.519,2.519,0,0,0,2.517-2.517" transform="translate(49.798 46.743)"/><path class="b" d="M416.882,220.032a2.517,2.517,0,1,0-2.517,2.517,2.519,2.519,0,0,0,2.517-2.517" transform="translate(49.798 44.619)"/><path class="b" d="M416.882,214.1a2.517,2.517,0,1,0-2.517,2.517,2.518,2.518,0,0,0,2.517-2.517" transform="translate(49.798 42.494)"/><path class="b" d="M416.882,208.173a2.517,2.517,0,1,0-2.517,2.517,2.519,2.519,0,0,0,2.517-2.517" transform="translate(49.798 40.369)"/><path class="b" d="M416.882,202.244a2.517,2.517,0,1,0-2.517,2.517,2.519,2.519,0,0,0,2.517-2.517" transform="translate(49.798 38.244)"/><path class="b" d="M416.882,196.315a2.517,2.517,0,1,0-2.517,2.517,2.519,2.519,0,0,0,2.517-2.517" transform="translate(49.798 36.12)"/><path class="b" d="M416.882,190.385a2.517,2.517,0,1,0-2.517,2.517,2.519,2.519,0,0,0,2.517-2.517" transform="translate(49.798 33.995)"/><path class="b" d="M416.882,184.456a2.517,2.517,0,1,0-2.517,2.517,2.519,2.519,0,0,0,2.517-2.517" transform="translate(49.798 31.87)"/><path class="b" d="M416.882,178.527a2.517,2.517,0,1,0-2.517,2.517,2.519,2.519,0,0,0,2.517-2.517" transform="translate(49.798 29.746)"/><path class="b" d="M416.882,172.6a2.517,2.517,0,1,0-2.517,2.516,2.519,2.519,0,0,0,2.517-2.516" transform="translate(49.798 27.621)"/><path class="b" d="M416.882,166.668a2.517,2.517,0,1,0-2.517,2.517,2.519,2.519,0,0,0,2.517-2.517" transform="translate(49.798 25.496)"/><path class="b" d="M416.882,160.739a2.517,2.517,0,1,0-2.517,2.517,2.519,2.519,0,0,0,2.517-2.517" transform="translate(49.798 23.372)"/><path class="b" d="M416.882,154.81a2.517,2.517,0,1,0-2.517,2.517,2.519,2.519,0,0,0,2.517-2.517" transform="translate(49.798 21.247)"/><path class="b" d="M416.882,148.88a2.517,2.517,0,1,0-2.517,2.517,2.518,2.518,0,0,0,2.517-2.517" transform="translate(49.798 19.122)"/><path class="b" d="M416.882,142.951a2.517,2.517,0,1,0-2.517,2.517,2.519,2.519,0,0,0,2.517-2.517" transform="translate(49.798 16.997)"/><path class="b" d="M416.882,137.022a2.517,2.517,0,1,0-2.517,2.517,2.519,2.519,0,0,0,2.517-2.517" transform="translate(49.798 14.873)"/><path class="b" d="M416.882,131.093a2.517,2.517,0,1,0-2.517,2.517,2.519,2.519,0,0,0,2.517-2.517" transform="translate(49.798 12.748)"/><path class="b" d="M416.882,125.163a2.517,2.517,0,1,0-2.517,2.517,2.519,2.519,0,0,0,2.517-2.517" transform="translate(49.798 10.623)"/><path class="b" d="M416.882,119.234a2.517,2.517,0,1,0-2.517,2.517,2.519,2.519,0,0,0,2.517-2.517" transform="translate(49.798 8.499)"/><path class="b" d="M416.882,113.305a2.517,2.517,0,1,0-2.517,2.517,2.519,2.519,0,0,0,2.517-2.517" transform="translate(49.798 6.374)"/><path class="b" d="M416.882,107.376a2.517,2.517,0,1,0-2.517,2.516,2.519,2.519,0,0,0,2.517-2.516" transform="translate(49.798 4.25)"/><path class="b" d="M416.882,101.446a2.517,2.517,0,1,0-2.517,2.517,2.519,2.519,0,0,0,2.517-2.517" transform="translate(49.798 2.125)"/><path class="b" d="M416.882,95.517a2.517,2.517,0,1,0-2.517,2.517,2.519,2.519,0,0,0,2.517-2.517" transform="translate(49.798)"/><circle class="b" cx="2.517" cy="2.517" r="2.517" transform="translate(454.096 382.943)"/><circle class="b" cx="2.517" cy="2.517" r="2.517" transform="translate(454.096 374.889)"/><circle class="b" cx="2.517" cy="2.517" r="2.517" transform="translate(454.096 366.835)"/><circle class="b" cx="2.517" cy="2.517" r="2.517" transform="translate(454.096 358.781)"/><circle class="b" cx="2.517" cy="2.517" r="2.517" transform="translate(454.096 350.727)"/><circle class="b" cx="2.517" cy="2.517" r="2.517" transform="translate(454.096 342.673)"/><circle class="b" cx="2.517" cy="2.517" r="2.517" transform="translate(454.096 334.619)"/><circle class="b" cx="2.517" cy="2.517" r="2.517" transform="translate(454.096 326.565)"/><circle class="b" cx="2.517" cy="2.517" r="2.517" transform="translate(454.096 318.511)"/><circle class="b" cx="2.517" cy="2.517" r="2.517" transform="translate(454.096 310.457)"/><circle class="b" cx="2.517" cy="2.517" r="2.517" transform="translate(454.096 302.403)"/><circle class="b" cx="2.517" cy="2.517" r="2.517" transform="translate(454.096 294.349)"/><circle class="b" cx="2.517" cy="2.517" r="2.517" transform="translate(454.096 286.295)"/><circle class="b" cx="2.517" cy="2.517" r="2.517" transform="translate(454.096 278.241)"/><circle class="b" cx="2.517" cy="2.517" r="2.517" transform="translate(454.096 270.187)"/><circle class="b" cx="2.517" cy="2.517" r="2.517" transform="translate(454.096 262.133)"/><circle class="b" cx="2.517" cy="2.517" r="2.517" transform="translate(454.096 254.079)"/><circle class="b" cx="2.517" cy="2.517" r="2.517" transform="translate(454.096 246.025)"/><circle class="b" cx="2.517" cy="2.517" r="2.517" transform="translate(454.096 237.971)"/><circle class="b" cx="2.517" cy="2.517" r="2.517" transform="translate(454.096 229.917)"/><circle class="b" cx="2.517" cy="2.517" r="2.517" transform="translate(454.096 221.864)"/><circle class="b" cx="2.517" cy="2.517" r="2.517" transform="translate(454.096 213.81)"/><circle class="b" cx="2.517" cy="2.517" r="2.517" transform="translate(454.096 205.756)"/><circle class="b" cx="2.517" cy="2.517" r="2.517" transform="translate(454.096 197.702)"/><circle class="b" cx="2.517" cy="2.517" r="2.517" transform="translate(454.096 189.648)"/><circle class="b" cx="2.517" cy="2.517" r="2.517" transform="translate(454.096 181.594)"/><circle class="b" cx="2.517" cy="2.517" r="2.517" transform="translate(454.096 173.54)"/><circle class="b" cx="2.517" cy="2.517" r="2.517" transform="translate(454.096 165.486)"/><circle class="b" cx="2.517" cy="2.517" r="2.517" transform="translate(454.096 157.432)"/><circle class="b" cx="2.517" cy="2.517" r="2.517" transform="translate(454.096 149.378)"/><circle class="b" cx="2.517" cy="2.517" r="2.517" transform="translate(454.096 141.324)"/><circle class="b" cx="2.517" cy="2.517" r="2.517" transform="translate(454.096 133.27)"/><circle class="b" cx="2.517" cy="2.517" r="2.517" transform="translate(454.096 125.216)"/><circle class="b" cx="2.517" cy="2.517" r="2.517" transform="translate(454.096 117.162)"/><circle class="b" cx="2.517" cy="2.517" r="2.517" transform="translate(454.096 109.108)"/><circle class="b" cx="2.517" cy="2.517" r="2.517" transform="translate(454.096 101.054)"/><circle class="b" cx="2.517" cy="2.517" r="2.517" transform="translate(454.096 93)"/><circle class="b" cx="2.517" cy="2.517" r="2.517" transform="translate(446.545 382.943)"/><circle class="b" cx="2.517" cy="2.517" r="2.517" transform="translate(446.545 374.889)"/><circle class="b" cx="2.517" cy="2.517" r="2.517" transform="translate(446.545 366.835)"/><circle class="b" cx="2.517" cy="2.517" r="2.517" transform="translate(446.545 358.781)"/><circle class="b" cx="2.517" cy="2.517" r="2.517" transform="translate(446.545 350.727)"/><circle class="b" cx="2.517" cy="2.517" r="2.517" transform="translate(446.545 342.673)"/><circle class="b" cx="2.517" cy="2.517" r="2.517" transform="translate(446.545 334.619)"/><circle class="b" cx="2.517" cy="2.517" r="2.517" transform="translate(446.545 326.565)"/><circle class="b" cx="2.517" cy="2.517" r="2.517" transform="translate(446.545 318.511)"/><circle class="b" cx="2.517" cy="2.517" r="2.517" transform="translate(446.545 310.457)"/><circle class="b" cx="2.517" cy="2.517" r="2.517" transform="translate(446.545 302.403)"/><circle class="b" cx="2.517" cy="2.517" r="2.517" transform="translate(446.545 294.349)"/><circle class="b" cx="2.517" cy="2.517" r="2.517" transform="translate(446.545 286.295)"/><circle class="b" cx="2.517" cy="2.517" r="2.517" transform="translate(446.545 278.241)"/><circle class="b" cx="2.517" cy="2.517" r="2.517" transform="translate(446.545 270.187)"/><circle class="b" cx="2.517" cy="2.517" r="2.517" transform="translate(446.545 262.133)"/><circle class="b" cx="2.517" cy="2.517" r="2.517" transform="translate(446.545 254.079)"/><circle class="b" cx="2.517" cy="2.517" r="2.517" transform="translate(446.545 246.025)"/><circle class="b" cx="2.517" cy="2.517" r="2.517" transform="translate(446.545 237.971)"/><circle class="b" cx="2.517" cy="2.517" r="2.517" transform="translate(446.545 229.917)"/><circle class="b" cx="2.517" cy="2.517" r="2.517" transform="translate(446.545 221.864)"/><circle class="b" cx="2.517" cy="2.517" r="2.517" transform="translate(446.545 213.81)"/><circle class="b" cx="2.517" cy="2.517" r="2.517" transform="translate(446.545 205.756)"/><circle class="b" cx="2.517" cy="2.517" r="2.517" transform="translate(446.545 197.702)"/><circle class="b" cx="2.517" cy="2.517" r="2.517" transform="translate(446.545 189.648)"/><circle class="b" cx="2.517" cy="2.517" r="2.517" transform="translate(446.545 181.594)"/><circle class="b" cx="2.517" cy="2.517" r="2.517" transform="translate(446.545 173.54)"/><circle class="b" cx="2.517" cy="2.517" r="2.517" transform="translate(446.545 165.486)"/><circle class="b" cx="2.517" cy="2.517" r="2.517" transform="translate(446.545 157.432)"/><circle class="b" cx="2.517" cy="2.517" r="2.517" transform="translate(446.545 149.378)"/><circle class="b" cx="2.517" cy="2.517" r="2.517" transform="translate(446.545 141.324)"/><circle class="b" cx="2.517" cy="2.517" r="2.517" transform="translate(446.545 133.27)"/><circle class="b" cx="2.517" cy="2.517" r="2.517" transform="translate(446.545 125.216)"/><circle class="b" cx="2.517" cy="2.517" r="2.517" transform="translate(446.545 117.162)"/><circle class="b" cx="2.517" cy="2.517" r="2.517" transform="translate(446.545 109.108)"/><circle class="b" cx="2.517" cy="2.517" r="2.517" transform="translate(446.545 101.054)"/><circle class="b" cx="2.517" cy="2.517" r="2.517" transform="translate(446.545 93)"/><circle class="b" cx="2.517" cy="2.517" r="2.517" transform="translate(438.995 382.943)"/><circle class="b" cx="2.517" cy="2.517" r="2.517" transform="translate(438.995 374.889)"/><circle class="b" cx="2.517" cy="2.517" r="2.517" transform="translate(438.995 366.835)"/><circle class="b" cx="2.517" cy="2.517" r="2.517" transform="translate(438.995 358.781)"/><circle class="b" cx="2.517" cy="2.517" r="2.517" transform="translate(438.995 350.727)"/><circle class="b" cx="2.517" cy="2.517" r="2.517" transform="translate(438.995 342.673)"/><circle class="b" cx="2.517" cy="2.517" r="2.517" transform="translate(438.995 334.619)"/><circle class="b" cx="2.517" cy="2.517" r="2.517" transform="translate(438.995 326.565)"/><circle class="b" cx="2.517" cy="2.517" r="2.517" transform="translate(438.995 318.511)"/><circle class="b" cx="2.517" cy="2.517" r="2.517" transform="translate(438.995 310.457)"/><circle class="b" cx="2.517" cy="2.517" r="2.517" transform="translate(438.995 302.403)"/><circle class="b" cx="2.517" cy="2.517" r="2.517" transform="translate(438.995 294.349)"/><circle class="b" cx="2.517" cy="2.517" r="2.517" transform="translate(438.995 286.295)"/><circle class="b" cx="2.517" cy="2.517" r="2.517" transform="translate(438.995 278.241)"/><circle class="b" cx="2.517" cy="2.517" r="2.517" transform="translate(438.995 270.187)"/><circle class="b" cx="2.517" cy="2.517" r="2.517" transform="translate(438.995 262.133)"/><circle class="b" cx="2.517" cy="2.517" r="2.517" transform="translate(438.995 254.079)"/><circle class="b" cx="2.517" cy="2.517" r="2.517" transform="translate(438.995 246.025)"/><circle class="b" cx="2.517" cy="2.517" r="2.517" transform="translate(438.995 237.971)"/><circle class="b" cx="2.517" cy="2.517" r="2.517" transform="translate(438.995 229.917)"/><circle class="b" cx="2.517" cy="2.517" r="2.517" transform="translate(438.995 221.864)"/><circle class="b" cx="2.517" cy="2.517" r="2.517" transform="translate(438.995 213.81)"/><circle class="b" cx="2.517" cy="2.517" r="2.517" transform="translate(438.995 205.756)"/><circle class="b" cx="2.517" cy="2.517" r="2.517" transform="translate(438.995 197.702)"/><circle class="b" cx="2.517" cy="2.517" r="2.517" transform="translate(438.995 189.648)"/><circle class="b" cx="2.517" cy="2.517" r="2.517" transform="translate(438.995 181.594)"/><circle class="b" cx="2.517" cy="2.517" r="2.517" transform="translate(438.995 173.54)"/><circle class="b" cx="2.517" cy="2.517" r="2.517" transform="translate(438.995 165.486)"/><circle class="b" cx="2.517" cy="2.517" r="2.517" transform="translate(438.995 157.432)"/><circle class="b" cx="2.517" cy="2.517" r="2.517" transform="translate(438.995 149.378)"/><circle class="b" cx="2.517" cy="2.517" r="2.517" transform="translate(438.995 141.324)"/><circle class="b" cx="2.517" cy="2.517" r="2.517" transform="translate(438.995 133.27)"/><circle class="b" cx="2.517" cy="2.517" r="2.517" transform="translate(438.995 125.216)"/><circle class="b" cx="2.517" cy="2.517" r="2.517" transform="translate(438.995 117.162)"/><circle class="b" cx="2.517" cy="2.517" r="2.517" transform="translate(438.995 109.108)"/><circle class="b" cx="2.517" cy="2.517" r="2.517" transform="translate(438.995 101.054)"/><circle class="b" cx="2.517" cy="2.517" r="2.517" transform="translate(438.995 93)"/><circle class="b" cx="2.517" cy="2.517" r="2.517" transform="translate(431.444 382.943)"/><circle class="b" cx="2.517" cy="2.517" r="2.517" transform="translate(431.444 374.889)"/><circle class="b" cx="2.517" cy="2.517" r="2.517" transform="translate(431.444 366.835)"/><circle class="b" cx="2.517" cy="2.517" r="2.517" transform="translate(431.444 358.781)"/><circle class="b" cx="2.517" cy="2.517" r="2.517" transform="translate(431.444 350.727)"/><circle class="b" cx="2.517" cy="2.517" r="2.517" transform="translate(431.444 342.673)"/><circle class="b" cx="2.517" cy="2.517" r="2.517" transform="translate(431.444 334.619)"/><circle class="b" cx="2.517" cy="2.517" r="2.517" transform="translate(431.444 326.565)"/><circle class="b" cx="2.517" cy="2.517" r="2.517" transform="translate(431.444 318.511)"/><circle class="b" cx="2.517" cy="2.517" r="2.517" transform="translate(431.444 310.457)"/><circle class="b" cx="2.517" cy="2.517" r="2.517" transform="translate(431.444 302.403)"/><circle class="b" cx="2.517" cy="2.517" r="2.517" transform="translate(431.444 294.349)"/><circle class="b" cx="2.517" cy="2.517" r="2.517" transform="translate(431.444 286.295)"/><circle class="b" cx="2.517" cy="2.517" r="2.517" transform="translate(431.444 278.241)"/><circle class="b" cx="2.517" cy="2.517" r="2.517" transform="translate(431.444 270.187)"/><circle class="b" cx="2.517" cy="2.517" r="2.517" transform="translate(431.444 262.133)"/><circle class="b" cx="2.517" cy="2.517" r="2.517" transform="translate(431.444 254.079)"/><circle class="b" cx="2.517" cy="2.517" r="2.517" transform="translate(431.444 246.025)"/><circle class="b" cx="2.517" cy="2.517" r="2.517" transform="translate(431.444 237.971)"/><circle class="b" cx="2.517" cy="2.517" r="2.517" transform="translate(431.444 229.917)"/><circle class="b" cx="2.517" cy="2.517" r="2.517" transform="translate(431.444 221.864)"/><circle class="b" cx="2.517" cy="2.517" r="2.517" transform="translate(431.444 213.81)"/><circle class="b" cx="2.517" cy="2.517" r="2.517" transform="translate(431.444 205.756)"/><circle class="b" cx="2.517" cy="2.517" r="2.517" transform="translate(431.444 197.702)"/><circle class="b" cx="2.517" cy="2.517" r="2.517" transform="translate(431.444 189.648)"/><circle class="b" cx="2.517" cy="2.517" r="2.517" transform="translate(431.444 181.594)"/><circle class="b" cx="2.517" cy="2.517" r="2.517" transform="translate(431.444 173.54)"/><circle class="b" cx="2.517" cy="2.517" r="2.517" transform="translate(431.444 165.486)"/><circle class="b" cx="2.517" cy="2.517" r="2.517" transform="translate(431.444 157.432)"/><circle class="b" cx="2.517" cy="2.517" r="2.517" transform="translate(431.444 149.378)"/><circle class="b" cx="2.517" cy="2.517" r="2.517" transform="translate(431.444 141.324)"/><circle class="b" cx="2.517" cy="2.517" r="2.517" transform="translate(431.444 133.27)"/><circle class="b" cx="2.517" cy="2.517" r="2.517" transform="translate(431.444 125.216)"/><circle class="b" cx="2.517" cy="2.517" r="2.517" transform="translate(431.444 117.162)"/><circle class="b" cx="2.517" cy="2.517" r="2.517" transform="translate(431.444 109.108)"/><circle class="b" cx="2.517" cy="2.517" r="2.517" transform="translate(431.444 101.054)"/><circle class="b" cx="2.517" cy="2.517" r="2.517" transform="translate(431.444 93)"/><circle class="b" cx="2.517" cy="2.517" r="2.517" transform="translate(423.893 382.943)"/><circle class="b" cx="2.517" cy="2.517" r="2.517" transform="translate(423.893 374.889)"/><circle class="b" cx="2.517" cy="2.517" r="2.517" transform="translate(423.893 366.835)"/><circle class="b" cx="2.517" cy="2.517" r="2.517" transform="translate(423.893 358.781)"/><circle class="b" cx="2.517" cy="2.517" r="2.517" transform="translate(423.893 350.727)"/><circle class="b" cx="2.517" cy="2.517" r="2.517" transform="translate(423.893 342.673)"/><circle class="b" cx="2.517" cy="2.517" r="2.517" transform="translate(423.893 334.619)"/><circle class="b" cx="2.517" cy="2.517" r="2.517" transform="translate(423.893 326.565)"/><circle class="b" cx="2.517" cy="2.517" r="2.517" transform="translate(423.893 318.511)"/><circle class="b" cx="2.517" cy="2.517" r="2.517" transform="translate(423.893 310.457)"/><circle class="b" cx="2.517" cy="2.517" r="2.517" transform="translate(423.893 302.403)"/><circle class="b" cx="2.517" cy="2.517" r="2.517" transform="translate(423.893 294.349)"/><circle class="b" cx="2.517" cy="2.517" r="2.517" transform="translate(423.893 286.295)"/><circle class="b" cx="2.517" cy="2.517" r="2.517" transform="translate(423.893 278.241)"/><circle class="b" cx="2.517" cy="2.517" r="2.517" transform="translate(423.893 270.187)"/><circle class="b" cx="2.517" cy="2.517" r="2.517" transform="translate(423.893 262.133)"/><circle class="b" cx="2.517" cy="2.517" r="2.517" transform="translate(423.893 254.079)"/><circle class="b" cx="2.517" cy="2.517" r="2.517" transform="translate(423.893 246.025)"/><circle class="b" cx="2.517" cy="2.517" r="2.517" transform="translate(423.893 237.971)"/><circle class="b" cx="2.517" cy="2.517" r="2.517" transform="translate(423.893 229.917)"/><circle class="b" cx="2.517" cy="2.517" r="2.517" transform="translate(423.893 221.864)"/><circle class="b" cx="2.517" cy="2.517" r="2.517" transform="translate(423.893 213.81)"/><circle class="b" cx="2.517" cy="2.517" r="2.517" transform="translate(423.893 205.756)"/><circle class="b" cx="2.517" cy="2.517" r="2.517" transform="translate(423.893 197.702)"/><circle class="b" cx="2.517" cy="2.517" r="2.517" transform="translate(423.893 189.648)"/><circle class="b" cx="2.517" cy="2.517" r="2.517" transform="translate(423.893 181.594)"/><circle class="b" cx="2.517" cy="2.517" r="2.517" transform="translate(423.893 173.54)"/><circle class="b" cx="2.517" cy="2.517" r="2.517" transform="translate(423.893 165.486)"/><circle class="b" cx="2.517" cy="2.517" r="2.517" transform="translate(423.893 157.432)"/><circle class="b" cx="2.517" cy="2.517" r="2.517" transform="translate(423.893 149.378)"/><circle class="b" cx="2.517" cy="2.517" r="2.517" transform="translate(423.893 141.324)"/><circle class="b" cx="2.517" cy="2.517" r="2.517" transform="translate(423.893 133.27)"/><circle class="b" cx="2.517" cy="2.517" r="2.517" transform="translate(423.893 125.216)"/><circle class="b" cx="2.517" cy="2.517" r="2.517" transform="translate(423.893 117.162)"/><circle class="b" cx="2.517" cy="2.517" r="2.517" transform="translate(423.893 109.108)"/><circle class="b" cx="2.517" cy="2.517" r="2.517" transform="translate(423.893 101.054)"/><circle class="b" cx="2.517" cy="2.517" r="2.517" transform="translate(423.893 93)"/><circle class="b" cx="2.517" cy="2.517" r="2.517" transform="translate(416.343 382.943)"/><circle class="b" cx="2.517" cy="2.517" r="2.517" transform="translate(416.343 374.889)"/><circle class="b" cx="2.517" cy="2.517" r="2.517" transform="translate(416.343 366.835)"/><circle class="b" cx="2.517" cy="2.517" r="2.517" transform="translate(416.343 358.781)"/><circle class="b" cx="2.517" cy="2.517" r="2.517" transform="translate(416.343 350.727)"/><circle class="b" cx="2.517" cy="2.517" r="2.517" transform="translate(416.343 342.673)"/><circle class="b" cx="2.517" cy="2.517" r="2.517" transform="translate(416.343 334.619)"/><circle class="b" cx="2.517" cy="2.517" r="2.517" transform="translate(416.343 326.565)"/><circle class="b" cx="2.517" cy="2.517" r="2.517" transform="translate(416.343 318.511)"/><circle class="b" cx="2.517" cy="2.517" r="2.517" transform="translate(416.343 310.457)"/><circle class="b" cx="2.517" cy="2.517" r="2.517" transform="translate(416.343 302.403)"/><circle class="b" cx="2.517" cy="2.517" r="2.517" transform="translate(416.343 294.349)"/><circle class="b" cx="2.517" cy="2.517" r="2.517" transform="translate(416.343 286.295)"/><circle class="b" cx="2.517" cy="2.517" r="2.517" transform="translate(416.343 278.241)"/><circle class="b" cx="2.517" cy="2.517" r="2.517" transform="translate(416.343 270.187)"/><circle class="b" cx="2.517" cy="2.517" r="2.517" transform="translate(416.343 262.133)"/><circle class="b" cx="2.517" cy="2.517" r="2.517" transform="translate(416.343 254.079)"/><circle class="b" cx="2.517" cy="2.517" r="2.517" transform="translate(416.343 246.025)"/><circle class="b" cx="2.517" cy="2.517" r="2.517" transform="translate(416.343 237.971)"/><circle class="b" cx="2.517" cy="2.517" r="2.517" transform="translate(416.343 229.917)"/><circle class="b" cx="2.517" cy="2.517" r="2.517" transform="translate(416.343 221.864)"/><circle class="b" cx="2.517" cy="2.517" r="2.517" transform="translate(416.343 213.81)"/><circle class="b" cx="2.517" cy="2.517" r="2.517" transform="translate(416.343 205.756)"/><circle class="b" cx="2.517" cy="2.517" r="2.517" transform="translate(416.343 197.702)"/><circle class="b" cx="2.517" cy="2.517" r="2.517" transform="translate(416.343 189.648)"/><circle class="b" cx="2.517" cy="2.517" r="2.517" transform="translate(416.343 181.594)"/><circle class="b" cx="2.517" cy="2.517" r="2.517" transform="translate(416.343 173.54)"/><circle class="b" cx="2.517" cy="2.517" r="2.517" transform="translate(416.343 165.486)"/><circle class="b" cx="2.517" cy="2.517" r="2.517" transform="translate(416.343 157.432)"/><circle class="b" cx="2.517" cy="2.517" r="2.517" transform="translate(416.343 149.378)"/><circle class="b" cx="2.517" cy="2.517" r="2.517" transform="translate(416.343 141.324)"/><circle class="b" cx="2.517" cy="2.517" r="2.517" transform="translate(416.343 133.27)"/><circle class="b" cx="2.517" cy="2.517" r="2.517" transform="translate(416.343 125.216)"/><circle class="b" cx="2.517" cy="2.517" r="2.517" transform="translate(416.343 117.162)"/><circle class="b" cx="2.517" cy="2.517" r="2.517" transform="translate(416.343 109.108)"/><circle class="b" cx="2.517" cy="2.517" r="2.517" transform="translate(416.343 101.054)"/><circle class="b" cx="2.517" cy="2.517" r="2.517" transform="translate(416.343 93)"/><circle class="b" cx="2.517" cy="2.517" r="2.517" transform="translate(408.792 382.943)"/><circle class="b" cx="2.517" cy="2.517" r="2.517" transform="translate(408.792 374.889)"/><circle class="b" cx="2.517" cy="2.517" r="2.517" transform="translate(408.792 366.835)"/><circle class="b" cx="2.517" cy="2.517" r="2.517" transform="translate(408.792 358.781)"/><circle class="b" cx="2.517" cy="2.517" r="2.517" transform="translate(408.792 350.727)"/><circle class="b" cx="2.517" cy="2.517" r="2.517" transform="translate(408.792 342.673)"/><circle class="b" cx="2.517" cy="2.517" r="2.517" transform="translate(408.792 334.619)"/><circle class="b" cx="2.517" cy="2.517" r="2.517" transform="translate(408.792 326.565)"/><circle class="b" cx="2.517" cy="2.517" r="2.517" transform="translate(408.792 318.511)"/><circle class="b" cx="2.517" cy="2.517" r="2.517" transform="translate(408.792 310.457)"/><circle class="b" cx="2.517" cy="2.517" r="2.517" transform="translate(408.792 302.403)"/><circle class="b" cx="2.517" cy="2.517" r="2.517" transform="translate(408.792 294.349)"/><circle class="b" cx="2.517" cy="2.517" r="2.517" transform="translate(408.792 286.295)"/><circle class="b" cx="2.517" cy="2.517" r="2.517" transform="translate(408.792 278.241)"/><circle class="b" cx="2.517" cy="2.517" r="2.517" transform="translate(408.792 270.187)"/><circle class="b" cx="2.517" cy="2.517" r="2.517" transform="translate(408.792 262.133)"/><circle class="b" cx="2.517" cy="2.517" r="2.517" transform="translate(408.792 254.079)"/><circle class="b" cx="2.517" cy="2.517" r="2.517" transform="translate(408.792 246.025)"/><circle class="b" cx="2.517" cy="2.517" r="2.517" transform="translate(408.792 237.971)"/><circle class="b" cx="2.517" cy="2.517" r="2.517" transform="translate(408.792 229.917)"/><circle class="b" cx="2.517" cy="2.517" r="2.517" transform="translate(408.792 221.864)"/><circle class="b" cx="2.517" cy="2.517" r="2.517" transform="translate(408.792 213.81)"/><circle class="b" cx="2.517" cy="2.517" r="2.517" transform="translate(408.792 205.756)"/><circle class="b" cx="2.517" cy="2.517" r="2.517" transform="translate(408.792 197.702)"/><circle class="b" cx="2.517" cy="2.517" r="2.517" transform="translate(408.792 189.648)"/><circle class="b" cx="2.517" cy="2.517" r="2.517" transform="translate(408.792 181.594)"/><circle class="b" cx="2.517" cy="2.517" r="2.517" transform="translate(408.792 173.54)"/><circle class="b" cx="2.517" cy="2.517" r="2.517" transform="translate(408.792 165.486)"/><circle class="b" cx="2.517" cy="2.517" r="2.517" transform="translate(408.792 157.432)"/><circle class="b" cx="2.517" cy="2.517" r="2.517" transform="translate(408.792 149.378)"/><circle class="b" cx="2.517" cy="2.517" r="2.517" transform="translate(408.792 141.324)"/><circle class="b" cx="2.517" cy="2.517" r="2.517" transform="translate(408.792 133.27)"/><circle class="b" cx="2.517" cy="2.517" r="2.517" transform="translate(408.792 125.216)"/><circle class="b" cx="2.517" cy="2.517" r="2.517" transform="translate(408.792 117.162)"/><circle class="b" cx="2.517" cy="2.517" r="2.517" transform="translate(408.792 109.108)"/><circle class="b" cx="2.517" cy="2.517" r="2.517" transform="translate(408.792 101.054)"/><circle class="b" cx="2.517" cy="2.517" r="2.517" transform="translate(408.792 93)"/><circle class="b" cx="2.517" cy="2.517" r="2.517" transform="translate(401.242 382.943)"/><circle class="b" cx="2.517" cy="2.517" r="2.517" transform="translate(401.242 374.889)"/><circle class="b" cx="2.517" cy="2.517" r="2.517" transform="translate(401.242 366.835)"/><circle class="b" cx="2.517" cy="2.517" r="2.517" transform="translate(401.242 358.781)"/><circle class="b" cx="2.517" cy="2.517" r="2.517" transform="translate(401.242 350.727)"/><circle class="b" cx="2.517" cy="2.517" r="2.517" transform="translate(401.242 342.673)"/><circle class="b" cx="2.517" cy="2.517" r="2.517" transform="translate(401.242 334.619)"/><circle class="b" cx="2.517" cy="2.517" r="2.517" transform="translate(401.242 326.565)"/><circle class="b" cx="2.517" cy="2.517" r="2.517" transform="translate(401.242 318.511)"/><circle class="b" cx="2.517" cy="2.517" r="2.517" transform="translate(401.242 310.457)"/><circle class="b" cx="2.517" cy="2.517" r="2.517" transform="translate(401.242 302.403)"/><circle class="b" cx="2.517" cy="2.517" r="2.517" transform="translate(401.242 294.349)"/><circle class="b" cx="2.517" cy="2.517" r="2.517" transform="translate(401.242 286.295)"/><circle class="b" cx="2.517" cy="2.517" r="2.517" transform="translate(401.242 278.241)"/><circle class="b" cx="2.517" cy="2.517" r="2.517" transform="translate(401.242 270.187)"/><circle class="b" cx="2.517" cy="2.517" r="2.517" transform="translate(401.242 262.133)"/><circle class="b" cx="2.517" cy="2.517" r="2.517" transform="translate(401.242 254.079)"/><circle class="b" cx="2.517" cy="2.517" r="2.517" transform="translate(401.242 246.025)"/><circle class="b" cx="2.517" cy="2.517" r="2.517" transform="translate(401.242 237.971)"/><circle class="b" cx="2.517" cy="2.517" r="2.517" transform="translate(401.242 229.917)"/><circle class="b" cx="2.517" cy="2.517" r="2.517" transform="translate(401.242 221.864)"/><circle class="b" cx="2.517" cy="2.517" r="2.517" transform="translate(401.242 213.81)"/><circle class="b" cx="2.517" cy="2.517" r="2.517" transform="translate(401.242 205.756)"/><circle class="b" cx="2.517" cy="2.517" r="2.517" transform="translate(401.242 197.702)"/><circle class="b" cx="2.517" cy="2.517" r="2.517" transform="translate(401.242 189.648)"/><circle class="b" cx="2.517" cy="2.517" r="2.517" transform="translate(401.242 181.594)"/><circle class="b" cx="2.517" cy="2.517" r="2.517" transform="translate(401.242 173.54)"/><circle class="b" cx="2.517" cy="2.517" r="2.517" transform="translate(401.242 165.486)"/><circle class="b" cx="2.517" cy="2.517" r="2.517" transform="translate(401.242 157.432)"/><circle class="b" cx="2.517" cy="2.517" r="2.517" transform="translate(401.242 149.378)"/><circle class="b" cx="2.517" cy="2.517" r="2.517" transform="translate(401.242 141.324)"/><circle class="b" cx="2.517" cy="2.517" r="2.517" transform="translate(401.242 133.27)"/><circle class="b" cx="2.517" cy="2.517" r="2.517" transform="translate(401.242 125.216)"/><circle class="b" cx="2.517" cy="2.517" r="2.517" transform="translate(401.242 117.162)"/><circle class="b" cx="2.517" cy="2.517" r="2.517" transform="translate(401.242 109.108)"/><circle class="b" cx="2.517" cy="2.517" r="2.517" transform="translate(401.242 101.054)"/><circle class="b" cx="2.517" cy="2.517" r="2.517" transform="translate(401.242 93)"/><circle class="b" cx="2.517" cy="2.517" r="2.517" transform="translate(393.691 382.943)"/><circle class="b" cx="2.517" cy="2.517" r="2.517" transform="translate(393.691 374.889)"/><circle class="b" cx="2.517" cy="2.517" r="2.517" transform="translate(393.691 366.835)"/><circle class="b" cx="2.517" cy="2.517" r="2.517" transform="translate(393.691 358.781)"/><circle class="b" cx="2.517" cy="2.517" r="2.517" transform="translate(393.691 350.727)"/><circle class="b" cx="2.517" cy="2.517" r="2.517" transform="translate(393.691 342.673)"/><circle class="b" cx="2.517" cy="2.517" r="2.517" transform="translate(393.691 334.619)"/><circle class="b" cx="2.517" cy="2.517" r="2.517" transform="translate(393.691 326.565)"/><circle class="b" cx="2.517" cy="2.517" r="2.517" transform="translate(393.691 318.511)"/><circle class="b" cx="2.517" cy="2.517" r="2.517" transform="translate(393.691 310.457)"/><circle class="b" cx="2.517" cy="2.517" r="2.517" transform="translate(393.691 302.403)"/><circle class="b" cx="2.517" cy="2.517" r="2.517" transform="translate(393.691 294.349)"/><circle class="b" cx="2.517" cy="2.517" r="2.517" transform="translate(393.691 286.295)"/><circle class="b" cx="2.517" cy="2.517" r="2.517" transform="translate(393.691 278.241)"/><circle class="b" cx="2.517" cy="2.517" r="2.517" transform="translate(393.691 270.187)"/><circle class="b" cx="2.517" cy="2.517" r="2.517" transform="translate(393.691 262.133)"/><circle class="b" cx="2.517" cy="2.517" r="2.517" transform="translate(393.691 254.079)"/><circle class="b" cx="2.517" cy="2.517" r="2.517" transform="translate(393.691 246.025)"/><circle class="b" cx="2.517" cy="2.517" r="2.517" transform="translate(393.691 237.971)"/><circle class="b" cx="2.517" cy="2.517" r="2.517" transform="translate(393.691 229.917)"/><circle class="b" cx="2.517" cy="2.517" r="2.517" transform="translate(393.691 221.864)"/><circle class="b" cx="2.517" cy="2.517" r="2.517" transform="translate(393.691 213.81)"/><circle class="b" cx="2.517" cy="2.517" r="2.517" transform="translate(393.691 205.756)"/><circle class="b" cx="2.517" cy="2.517" r="2.517" transform="translate(393.691 197.702)"/><circle class="b" cx="2.517" cy="2.517" r="2.517" transform="translate(393.691 189.648)"/><circle class="b" cx="2.517" cy="2.517" r="2.517" transform="translate(393.691 181.594)"/><circle class="b" cx="2.517" cy="2.517" r="2.517" transform="translate(393.691 173.54)"/><circle class="b" cx="2.517" cy="2.517" r="2.517" transform="translate(393.691 165.486)"/><circle class="b" cx="2.517" cy="2.517" r="2.517" transform="translate(393.691 157.432)"/><circle class="b" cx="2.517" cy="2.517" r="2.517" transform="translate(393.691 149.378)"/><circle class="b" cx="2.517" cy="2.517" r="2.517" transform="translate(393.691 141.324)"/><circle class="b" cx="2.517" cy="2.517" r="2.517" transform="translate(393.691 133.27)"/><circle class="b" cx="2.517" cy="2.517" r="2.517" transform="translate(393.691 125.216)"/><circle class="b" cx="2.517" cy="2.517" r="2.517" transform="translate(393.691 117.162)"/><circle class="b" cx="2.517" cy="2.517" r="2.517" transform="translate(393.691 109.108)"/><circle class="b" cx="2.517" cy="2.517" r="2.517" transform="translate(393.691 101.054)"/><circle class="b" cx="2.517" cy="2.517" r="2.517" transform="translate(393.691 93)"/><circle class="b" cx="2.517" cy="2.517" r="2.517" transform="translate(386.14 382.943)"/><circle class="b" cx="2.517" cy="2.517" r="2.517" transform="translate(386.14 374.889)"/><circle class="b" cx="2.517" cy="2.517" r="2.517" transform="translate(386.14 366.835)"/><circle class="b" cx="2.517" cy="2.517" r="2.517" transform="translate(386.14 358.781)"/><circle class="b" cx="2.517" cy="2.517" r="2.517" transform="translate(386.14 350.727)"/><circle class="b" cx="2.517" cy="2.517" r="2.517" transform="translate(386.14 342.673)"/><circle class="b" cx="2.517" cy="2.517" r="2.517" transform="translate(386.14 334.619)"/><circle class="b" cx="2.517" cy="2.517" r="2.517" transform="translate(386.14 326.565)"/><circle class="b" cx="2.517" cy="2.517" r="2.517" transform="translate(386.14 318.511)"/><circle class="b" cx="2.517" cy="2.517" r="2.517" transform="translate(386.14 310.457)"/><circle class="b" cx="2.517" cy="2.517" r="2.517" transform="translate(386.14 302.403)"/><circle class="b" cx="2.517" cy="2.517" r="2.517" transform="translate(386.14 294.349)"/><circle class="b" cx="2.517" cy="2.517" r="2.517" transform="translate(386.14 286.295)"/><circle class="b" cx="2.517" cy="2.517" r="2.517" transform="translate(386.14 278.241)"/><circle class="b" cx="2.517" cy="2.517" r="2.517" transform="translate(386.14 270.187)"/><circle class="b" cx="2.517" cy="2.517" r="2.517" transform="translate(386.14 262.133)"/><circle class="b" cx="2.517" cy="2.517" r="2.517" transform="translate(386.14 254.079)"/><circle class="b" cx="2.517" cy="2.517" r="2.517" transform="translate(386.14 246.025)"/><circle class="b" cx="2.517" cy="2.517" r="2.517" transform="translate(386.14 237.971)"/><circle class="b" cx="2.517" cy="2.517" r="2.517" transform="translate(386.14 229.917)"/><circle class="b" cx="2.517" cy="2.517" r="2.517" transform="translate(386.14 221.864)"/><circle class="b" cx="2.517" cy="2.517" r="2.517" transform="translate(386.14 213.81)"/><circle class="b" cx="2.517" cy="2.517" r="2.517" transform="translate(386.14 205.756)"/><circle class="b" cx="2.517" cy="2.517" r="2.517" transform="translate(386.14 197.702)"/><circle class="b" cx="2.517" cy="2.517" r="2.517" transform="translate(386.14 189.648)"/><circle class="b" cx="2.517" cy="2.517" r="2.517" transform="translate(386.14 181.594)"/><circle class="b" cx="2.517" cy="2.517" r="2.517" transform="translate(386.14 173.54)"/><circle class="b" cx="2.517" cy="2.517" r="2.517" transform="translate(386.14 165.486)"/><circle class="b" cx="2.517" cy="2.517" r="2.517" transform="translate(386.14 157.432)"/><circle class="b" cx="2.517" cy="2.517" r="2.517" transform="translate(386.14 149.378)"/><circle class="b" cx="2.517" cy="2.517" r="2.517" transform="translate(386.14 141.324)"/><circle class="b" cx="2.517" cy="2.517" r="2.517" transform="translate(386.14 133.27)"/><circle class="b" cx="2.517" cy="2.517" r="2.517" transform="translate(386.14 125.216)"/><circle class="b" cx="2.517" cy="2.517" r="2.517" transform="translate(386.14 117.162)"/><circle class="b" cx="2.517" cy="2.517" r="2.517" transform="translate(386.14 109.108)"/><circle class="b" cx="2.517" cy="2.517" r="2.517" transform="translate(386.14 101.054)"/><circle class="b" cx="2.517" cy="2.517" r="2.517" transform="translate(386.14 93)"/><circle class="b" cx="2.517" cy="2.517" r="2.517" transform="translate(378.59 382.943)"/><circle class="b" cx="2.517" cy="2.517" r="2.517" transform="translate(378.59 374.889)"/><circle class="b" cx="2.517" cy="2.517" r="2.517" transform="translate(378.59 366.835)"/><circle class="b" cx="2.517" cy="2.517" r="2.517" transform="translate(378.59 358.781)"/><circle class="b" cx="2.517" cy="2.517" r="2.517" transform="translate(378.59 350.727)"/><circle class="b" cx="2.517" cy="2.517" r="2.517" transform="translate(378.59 342.673)"/><circle class="b" cx="2.517" cy="2.517" r="2.517" transform="translate(378.59 334.619)"/><circle class="b" cx="2.517" cy="2.517" r="2.517" transform="translate(378.59 326.565)"/><circle class="b" cx="2.517" cy="2.517" r="2.517" transform="translate(378.59 318.511)"/><circle class="b" cx="2.517" cy="2.517" r="2.517" transform="translate(378.59 310.457)"/><circle class="b" cx="2.517" cy="2.517" r="2.517" transform="translate(378.59 302.403)"/><circle class="b" cx="2.517" cy="2.517" r="2.517" transform="translate(378.59 294.349)"/><circle class="b" cx="2.517" cy="2.517" r="2.517" transform="translate(378.59 286.295)"/><circle class="b" cx="2.517" cy="2.517" r="2.517" transform="translate(378.59 278.241)"/><circle class="b" cx="2.517" cy="2.517" r="2.517" transform="translate(378.59 270.187)"/><circle class="b" cx="2.517" cy="2.517" r="2.517" transform="translate(378.59 262.133)"/><circle class="b" cx="2.517" cy="2.517" r="2.517" transform="translate(378.59 254.079)"/><circle class="b" cx="2.517" cy="2.517" r="2.517" transform="translate(378.59 246.025)"/><circle class="b" cx="2.517" cy="2.517" r="2.517" transform="translate(378.59 237.971)"/><circle class="b" cx="2.517" cy="2.517" r="2.517" transform="translate(378.59 229.917)"/><circle class="b" cx="2.517" cy="2.517" r="2.517" transform="translate(378.59 221.864)"/><circle class="b" cx="2.517" cy="2.517" r="2.517" transform="translate(378.59 213.81)"/><circle class="b" cx="2.517" cy="2.517" r="2.517" transform="translate(378.59 205.756)"/><circle class="b" cx="2.517" cy="2.517" r="2.517" transform="translate(378.59 197.702)"/><circle class="b" cx="2.517" cy="2.517" r="2.517" transform="translate(378.59 189.648)"/><circle class="b" cx="2.517" cy="2.517" r="2.517" transform="translate(378.59 181.594)"/><circle class="b" cx="2.517" cy="2.517" r="2.517" transform="translate(378.59 173.54)"/><circle class="b" cx="2.517" cy="2.517" r="2.517" transform="translate(378.59 165.486)"/><circle class="b" cx="2.517" cy="2.517" r="2.517" transform="translate(378.59 157.432)"/><circle class="b" cx="2.517" cy="2.517" r="2.517" transform="translate(378.59 149.378)"/><circle class="b" cx="2.517" cy="2.517" r="2.517" transform="translate(378.59 141.324)"/><circle class="b" cx="2.517" cy="2.517" r="2.517" transform="translate(378.59 133.27)"/><circle class="b" cx="2.517" cy="2.517" r="2.517" transform="translate(378.59 125.216)"/><circle class="b" cx="2.517" cy="2.517" r="2.517" transform="translate(378.59 117.162)"/><circle class="b" cx="2.517" cy="2.517" r="2.517" transform="translate(378.59 109.108)"/><circle class="b" cx="2.517" cy="2.517" r="2.517" transform="translate(378.59 101.054)"/><circle class="b" cx="2.517" cy="2.517" r="2.517" transform="translate(378.59 93)"/><circle class="b" cx="2.517" cy="2.517" r="2.517" transform="translate(371.039 382.943)"/><circle class="b" cx="2.517" cy="2.517" r="2.517" transform="translate(371.039 374.889)"/><circle class="b" cx="2.517" cy="2.517" r="2.517" transform="translate(371.039 366.835)"/><circle class="b" cx="2.517" cy="2.517" r="2.517" transform="translate(371.039 358.781)"/><circle class="b" cx="2.517" cy="2.517" r="2.517" transform="translate(371.039 350.727)"/><circle class="b" cx="2.517" cy="2.517" r="2.517" transform="translate(371.039 342.673)"/><circle class="b" cx="2.517" cy="2.517" r="2.517" transform="translate(371.039 334.619)"/><circle class="b" cx="2.517" cy="2.517" r="2.517" transform="translate(371.039 326.565)"/><circle class="b" cx="2.517" cy="2.517" r="2.517" transform="translate(371.039 318.511)"/><circle class="b" cx="2.517" cy="2.517" r="2.517" transform="translate(371.039 310.457)"/><circle class="b" cx="2.517" cy="2.517" r="2.517" transform="translate(371.039 302.403)"/><circle class="b" cx="2.517" cy="2.517" r="2.517" transform="translate(371.039 294.349)"/><circle class="b" cx="2.517" cy="2.517" r="2.517" transform="translate(371.039 286.295)"/><circle class="b" cx="2.517" cy="2.517" r="2.517" transform="translate(371.039 278.241)"/><circle class="b" cx="2.517" cy="2.517" r="2.517" transform="translate(371.039 270.187)"/><circle class="b" cx="2.517" cy="2.517" r="2.517" transform="translate(371.039 262.133)"/><circle class="b" cx="2.517" cy="2.517" r="2.517" transform="translate(371.039 254.079)"/><circle class="b" cx="2.517" cy="2.517" r="2.517" transform="translate(371.039 246.025)"/><circle class="b" cx="2.517" cy="2.517" r="2.517" transform="translate(371.039 237.971)"/><circle class="b" cx="2.517" cy="2.517" r="2.517" transform="translate(371.039 229.917)"/><circle class="b" cx="2.517" cy="2.517" r="2.517" transform="translate(371.039 221.864)"/><circle class="b" cx="2.517" cy="2.517" r="2.517" transform="translate(371.039 213.81)"/><circle class="b" cx="2.517" cy="2.517" r="2.517" transform="translate(371.039 205.756)"/><circle class="b" cx="2.517" cy="2.517" r="2.517" transform="translate(371.039 197.702)"/><circle class="b" cx="2.517" cy="2.517" r="2.517" transform="translate(371.039 189.648)"/><circle class="b" cx="2.517" cy="2.517" r="2.517" transform="translate(371.039 181.594)"/><circle class="b" cx="2.517" cy="2.517" r="2.517" transform="translate(371.039 173.54)"/><circle class="b" cx="2.517" cy="2.517" r="2.517" transform="translate(371.039 165.486)"/><circle class="b" cx="2.517" cy="2.517" r="2.517" transform="translate(371.039 157.432)"/><circle class="b" cx="2.517" cy="2.517" r="2.517" transform="translate(371.039 149.378)"/><circle class="b" cx="2.517" cy="2.517" r="2.517" transform="translate(371.039 141.324)"/><circle class="b" cx="2.517" cy="2.517" r="2.517" transform="translate(371.039 133.27)"/><circle class="b" cx="2.517" cy="2.517" r="2.517" transform="translate(371.039 125.216)"/><circle class="b" cx="2.517" cy="2.517" r="2.517" transform="translate(371.039 117.162)"/><circle class="b" cx="2.517" cy="2.517" r="2.517" transform="translate(371.039 109.108)"/><circle class="b" cx="2.517" cy="2.517" r="2.517" transform="translate(371.039 101.054)"/><circle class="b" cx="2.517" cy="2.517" r="2.517" transform="translate(371.039 93)"/><circle class="b" cx="2.517" cy="2.517" r="2.517" transform="translate(363.489 382.943)"/><circle class="b" cx="2.517" cy="2.517" r="2.517" transform="translate(363.489 374.889)"/><circle class="b" cx="2.517" cy="2.517" r="2.517" transform="translate(363.489 366.835)"/><circle class="b" cx="2.517" cy="2.517" r="2.517" transform="translate(363.489 358.781)"/><circle class="b" cx="2.517" cy="2.517" r="2.517" transform="translate(363.489 350.727)"/><circle class="b" cx="2.517" cy="2.517" r="2.517" transform="translate(363.489 342.673)"/><circle class="b" cx="2.517" cy="2.517" r="2.517" transform="translate(363.489 334.619)"/><circle class="b" cx="2.517" cy="2.517" r="2.517" transform="translate(363.489 326.565)"/><circle class="b" cx="2.517" cy="2.517" r="2.517" transform="translate(363.489 318.511)"/><circle class="b" cx="2.517" cy="2.517" r="2.517" transform="translate(363.489 310.457)"/><circle class="b" cx="2.517" cy="2.517" r="2.517" transform="translate(363.489 302.403)"/><circle class="b" cx="2.517" cy="2.517" r="2.517" transform="translate(363.489 294.349)"/><circle class="b" cx="2.517" cy="2.517" r="2.517" transform="translate(363.489 286.295)"/><circle class="b" cx="2.517" cy="2.517" r="2.517" transform="translate(363.489 278.241)"/><circle class="b" cx="2.517" cy="2.517" r="2.517" transform="translate(363.489 270.187)"/><circle class="b" cx="2.517" cy="2.517" r="2.517" transform="translate(363.489 262.133)"/><circle class="b" cx="2.517" cy="2.517" r="2.517" transform="translate(363.489 254.079)"/><circle class="b" cx="2.517" cy="2.517" r="2.517" transform="translate(363.489 246.025)"/><circle class="b" cx="2.517" cy="2.517" r="2.517" transform="translate(363.489 237.971)"/><circle class="b" cx="2.517" cy="2.517" r="2.517" transform="translate(363.489 229.917)"/><circle class="b" cx="2.517" cy="2.517" r="2.517" transform="translate(363.489 221.864)"/><circle class="b" cx="2.517" cy="2.517" r="2.517" transform="translate(363.489 213.81)"/><circle class="b" cx="2.517" cy="2.517" r="2.517" transform="translate(363.489 205.756)"/><circle class="b" cx="2.517" cy="2.517" r="2.517" transform="translate(363.489 197.702)"/><circle class="b" cx="2.517" cy="2.517" r="2.517" transform="translate(363.489 189.648)"/><circle class="b" cx="2.517" cy="2.517" r="2.517" transform="translate(363.489 181.594)"/><circle class="b" cx="2.517" cy="2.517" r="2.517" transform="translate(363.489 173.54)"/><circle class="b" cx="2.517" cy="2.517" r="2.517" transform="translate(363.489 165.486)"/><circle class="b" cx="2.517" cy="2.517" r="2.517" transform="translate(363.489 157.432)"/><circle class="b" cx="2.517" cy="2.517" r="2.517" transform="translate(363.489 149.378)"/><circle class="b" cx="2.517" cy="2.517" r="2.517" transform="translate(363.489 141.324)"/><circle class="b" cx="2.517" cy="2.517" r="2.517" transform="translate(363.489 133.27)"/><circle class="b" cx="2.517" cy="2.517" r="2.517" transform="translate(363.489 125.216)"/><circle class="b" cx="2.517" cy="2.517" r="2.517" transform="translate(363.489 117.162)"/><circle class="b" cx="2.517" cy="2.517" r="2.517" transform="translate(363.489 109.108)"/><circle class="b" cx="2.517" cy="2.517" r="2.517" transform="translate(363.489 101.054)"/><circle class="b" cx="2.517" cy="2.517" r="2.517" transform="translate(363.489 93)"/><circle class="b" cx="2.517" cy="2.517" r="2.517" transform="translate(355.938 382.943)"/><circle class="b" cx="2.517" cy="2.517" r="2.517" transform="translate(355.938 374.889)"/><circle class="b" cx="2.517" cy="2.517" r="2.517" transform="translate(355.938 366.835)"/><circle class="b" cx="2.517" cy="2.517" r="2.517" transform="translate(355.938 358.781)"/><circle class="b" cx="2.517" cy="2.517" r="2.517" transform="translate(355.938 350.727)"/><circle class="b" cx="2.517" cy="2.517" r="2.517" transform="translate(355.938 342.673)"/><circle class="b" cx="2.517" cy="2.517" r="2.517" transform="translate(355.938 334.619)"/><circle class="b" cx="2.517" cy="2.517" r="2.517" transform="translate(355.938 326.565)"/><circle class="b" cx="2.517" cy="2.517" r="2.517" transform="translate(355.938 318.511)"/><circle class="b" cx="2.517" cy="2.517" r="2.517" transform="translate(355.938 310.457)"/><circle class="b" cx="2.517" cy="2.517" r="2.517" transform="translate(355.938 302.403)"/><circle class="b" cx="2.517" cy="2.517" r="2.517" transform="translate(355.938 294.349)"/><circle class="b" cx="2.517" cy="2.517" r="2.517" transform="translate(355.938 286.295)"/><circle class="b" cx="2.517" cy="2.517" r="2.517" transform="translate(355.938 278.241)"/><circle class="b" cx="2.517" cy="2.517" r="2.517" transform="translate(355.938 270.187)"/><circle class="b" cx="2.517" cy="2.517" r="2.517" transform="translate(355.938 262.133)"/><circle class="b" cx="2.517" cy="2.517" r="2.517" transform="translate(355.938 254.079)"/><circle class="b" cx="2.517" cy="2.517" r="2.517" transform="translate(355.938 246.025)"/><circle class="b" cx="2.517" cy="2.517" r="2.517" transform="translate(355.938 237.971)"/><circle class="b" cx="2.517" cy="2.517" r="2.517" transform="translate(355.938 229.917)"/><circle class="b" cx="2.517" cy="2.517" r="2.517" transform="translate(355.938 221.864)"/><circle class="b" cx="2.517" cy="2.517" r="2.517" transform="translate(355.938 213.81)"/><circle class="b" cx="2.517" cy="2.517" r="2.517" transform="translate(355.938 205.756)"/><circle class="b" cx="2.517" cy="2.517" r="2.517" transform="translate(355.938 197.702)"/><circle class="b" cx="2.517" cy="2.517" r="2.517" transform="translate(355.938 189.648)"/><circle class="b" cx="2.517" cy="2.517" r="2.517" transform="translate(355.938 181.594)"/><circle class="b" cx="2.517" cy="2.517" r="2.517" transform="translate(355.938 173.54)"/><circle class="b" cx="2.517" cy="2.517" r="2.517" transform="translate(355.938 165.486)"/><circle class="b" cx="2.517" cy="2.517" r="2.517" transform="translate(355.938 157.432)"/><circle class="b" cx="2.517" cy="2.517" r="2.517" transform="translate(355.938 149.378)"/><circle class="b" cx="2.517" cy="2.517" r="2.517" transform="translate(355.938 141.324)"/><circle class="b" cx="2.517" cy="2.517" r="2.517" transform="translate(355.938 133.27)"/><circle class="b" cx="2.517" cy="2.517" r="2.517" transform="translate(355.938 125.216)"/><circle class="b" cx="2.517" cy="2.517" r="2.517" transform="translate(355.938 117.162)"/><circle class="b" cx="2.517" cy="2.517" r="2.517" transform="translate(355.938 109.108)"/><circle class="b" cx="2.517" cy="2.517" r="2.517" transform="translate(355.938 101.054)"/><circle class="b" cx="2.517" cy="2.517" r="2.517" transform="translate(355.938 93)"/><circle class="b" cx="2.517" cy="2.517" r="2.517" transform="translate(348.388 382.943)"/><circle class="b" cx="2.517" cy="2.517" r="2.517" transform="translate(348.388 374.889)"/><circle class="b" cx="2.517" cy="2.517" r="2.517" transform="translate(348.388 366.835)"/><circle class="b" cx="2.517" cy="2.517" r="2.517" transform="translate(348.388 358.781)"/><circle class="b" cx="2.517" cy="2.517" r="2.517" transform="translate(348.388 350.727)"/><circle class="b" cx="2.517" cy="2.517" r="2.517" transform="translate(348.388 342.673)"/><circle class="b" cx="2.517" cy="2.517" r="2.517" transform="translate(348.388 334.619)"/><circle class="b" cx="2.517" cy="2.517" r="2.517" transform="translate(348.388 326.565)"/><circle class="b" cx="2.517" cy="2.517" r="2.517" transform="translate(348.388 318.511)"/><circle class="b" cx="2.517" cy="2.517" r="2.517" transform="translate(348.388 310.457)"/><circle class="b" cx="2.517" cy="2.517" r="2.517" transform="translate(348.388 302.403)"/><circle class="b" cx="2.517" cy="2.517" r="2.517" transform="translate(348.388 294.349)"/><circle class="b" cx="2.517" cy="2.517" r="2.517" transform="translate(348.388 286.295)"/><circle class="b" cx="2.517" cy="2.517" r="2.517" transform="translate(348.388 278.241)"/><circle class="b" cx="2.517" cy="2.517" r="2.517" transform="translate(348.388 270.187)"/><circle class="b" cx="2.517" cy="2.517" r="2.517" transform="translate(348.388 262.133)"/><circle class="b" cx="2.517" cy="2.517" r="2.517" transform="translate(348.388 254.079)"/><circle class="b" cx="2.517" cy="2.517" r="2.517" transform="translate(348.388 246.025)"/><circle class="b" cx="2.517" cy="2.517" r="2.517" transform="translate(348.388 237.971)"/><circle class="b" cx="2.517" cy="2.517" r="2.517" transform="translate(348.388 229.917)"/><circle class="b" cx="2.517" cy="2.517" r="2.517" transform="translate(348.388 221.864)"/><circle class="b" cx="2.517" cy="2.517" r="2.517" transform="translate(348.388 213.81)"/><circle class="b" cx="2.517" cy="2.517" r="2.517" transform="translate(348.388 205.756)"/><circle class="b" cx="2.517" cy="2.517" r="2.517" transform="translate(348.388 197.702)"/><circle class="b" cx="2.517" cy="2.517" r="2.517" transform="translate(348.388 189.648)"/><circle class="b" cx="2.517" cy="2.517" r="2.517" transform="translate(348.388 181.594)"/><circle class="b" cx="2.517" cy="2.517" r="2.517" transform="translate(348.388 173.54)"/><circle class="b" cx="2.517" cy="2.517" r="2.517" transform="translate(348.388 165.486)"/><circle class="b" cx="2.517" cy="2.517" r="2.517" transform="translate(348.388 157.432)"/><circle class="b" cx="2.517" cy="2.517" r="2.517" transform="translate(348.388 149.378)"/><circle class="b" cx="2.517" cy="2.517" r="2.517" transform="translate(348.388 141.324)"/><circle class="b" cx="2.517" cy="2.517" r="2.517" transform="translate(348.388 133.27)"/><circle class="b" cx="2.517" cy="2.517" r="2.517" transform="translate(348.388 125.216)"/><circle class="b" cx="2.517" cy="2.517" r="2.517" transform="translate(348.388 117.162)"/><circle class="b" cx="2.517" cy="2.517" r="2.517" transform="translate(348.388 109.108)"/><circle class="b" cx="2.517" cy="2.517" r="2.517" transform="translate(348.388 101.054)"/><circle class="b" cx="2.517" cy="2.517" r="2.517" transform="translate(348.388 93)"/><circle class="b" cx="2.517" cy="2.517" r="2.517" transform="translate(340.837 382.943)"/><circle class="b" cx="2.517" cy="2.517" r="2.517" transform="translate(340.837 374.889)"/><circle class="b" cx="2.517" cy="2.517" r="2.517" transform="translate(340.837 366.835)"/><circle class="b" cx="2.517" cy="2.517" r="2.517" transform="translate(340.837 358.781)"/><circle class="b" cx="2.517" cy="2.517" r="2.517" transform="translate(340.837 350.727)"/><circle class="b" cx="2.517" cy="2.517" r="2.517" transform="translate(340.837 342.673)"/><circle class="b" cx="2.517" cy="2.517" r="2.517" transform="translate(340.837 334.619)"/><circle class="b" cx="2.517" cy="2.517" r="2.517" transform="translate(340.837 326.565)"/><circle class="b" cx="2.517" cy="2.517" r="2.517" transform="translate(340.837 318.511)"/><circle class="b" cx="2.517" cy="2.517" r="2.517" transform="translate(340.837 310.457)"/><circle class="b" cx="2.517" cy="2.517" r="2.517" transform="translate(340.837 302.403)"/><circle class="b" cx="2.517" cy="2.517" r="2.517" transform="translate(340.837 294.349)"/><circle class="b" cx="2.517" cy="2.517" r="2.517" transform="translate(340.837 286.295)"/><circle class="b" cx="2.517" cy="2.517" r="2.517" transform="translate(340.837 278.241)"/><circle class="b" cx="2.517" cy="2.517" r="2.517" transform="translate(340.837 270.187)"/><circle class="b" cx="2.517" cy="2.517" r="2.517" transform="translate(340.837 262.133)"/><circle class="b" cx="2.517" cy="2.517" r="2.517" transform="translate(340.837 254.079)"/><circle class="b" cx="2.517" cy="2.517" r="2.517" transform="translate(340.837 246.025)"/><circle class="b" cx="2.517" cy="2.517" r="2.517" transform="translate(340.837 237.971)"/><circle class="b" cx="2.517" cy="2.517" r="2.517" transform="translate(340.837 229.917)"/><circle class="b" cx="2.517" cy="2.517" r="2.517" transform="translate(340.837 221.864)"/><circle class="b" cx="2.517" cy="2.517" r="2.517" transform="translate(340.837 213.81)"/><circle class="b" cx="2.517" cy="2.517" r="2.517" transform="translate(340.837 205.756)"/><circle class="b" cx="2.517" cy="2.517" r="2.517" transform="translate(340.837 197.702)"/><circle class="b" cx="2.517" cy="2.517" r="2.517" transform="translate(340.837 189.648)"/><circle class="b" cx="2.517" cy="2.517" r="2.517" transform="translate(340.837 181.594)"/><circle class="b" cx="2.517" cy="2.517" r="2.517" transform="translate(340.837 173.54)"/><circle class="b" cx="2.517" cy="2.517" r="2.517" transform="translate(340.837 165.486)"/><circle class="b" cx="2.517" cy="2.517" r="2.517" transform="translate(340.837 157.432)"/><circle class="b" cx="2.517" cy="2.517" r="2.517" transform="translate(340.837 149.378)"/><circle class="b" cx="2.517" cy="2.517" r="2.517" transform="translate(340.837 141.324)"/><circle class="b" cx="2.517" cy="2.517" r="2.517" transform="translate(340.837 133.27)"/><circle class="b" cx="2.517" cy="2.517" r="2.517" transform="translate(340.837 125.216)"/><circle class="b" cx="2.517" cy="2.517" r="2.517" transform="translate(340.837 117.162)"/><circle class="b" cx="2.517" cy="2.517" r="2.517" transform="translate(340.837 109.108)"/><circle class="b" cx="2.517" cy="2.517" r="2.517" transform="translate(340.837 101.054)"/><circle class="b" cx="2.517" cy="2.517" r="2.517" transform="translate(340.837 93)"/><circle class="b" cx="2.517" cy="2.517" r="2.517" transform="translate(333.286 382.943)"/><circle class="b" cx="2.517" cy="2.517" r="2.517" transform="translate(333.286 374.889)"/><circle class="b" cx="2.517" cy="2.517" r="2.517" transform="translate(333.286 366.835)"/><circle class="b" cx="2.517" cy="2.517" r="2.517" transform="translate(333.286 358.781)"/><circle class="b" cx="2.517" cy="2.517" r="2.517" transform="translate(333.286 350.727)"/><circle class="b" cx="2.517" cy="2.517" r="2.517" transform="translate(333.286 342.673)"/><circle class="b" cx="2.517" cy="2.517" r="2.517" transform="translate(333.286 334.619)"/><circle class="b" cx="2.517" cy="2.517" r="2.517" transform="translate(333.286 326.565)"/><circle class="b" cx="2.517" cy="2.517" r="2.517" transform="translate(333.286 318.511)"/><circle class="b" cx="2.517" cy="2.517" r="2.517" transform="translate(333.286 310.457)"/><circle class="b" cx="2.517" cy="2.517" r="2.517" transform="translate(333.286 302.403)"/><circle class="b" cx="2.517" cy="2.517" r="2.517" transform="translate(333.286 294.349)"/><circle class="b" cx="2.517" cy="2.517" r="2.517" transform="translate(333.286 286.295)"/><circle class="b" cx="2.517" cy="2.517" r="2.517" transform="translate(333.286 278.241)"/><circle class="b" cx="2.517" cy="2.517" r="2.517" transform="translate(333.286 270.187)"/><circle class="b" cx="2.517" cy="2.517" r="2.517" transform="translate(333.286 262.133)"/><circle class="b" cx="2.517" cy="2.517" r="2.517" transform="translate(333.286 254.079)"/><circle class="b" cx="2.517" cy="2.517" r="2.517" transform="translate(333.286 246.025)"/><circle class="b" cx="2.517" cy="2.517" r="2.517" transform="translate(333.286 237.971)"/><circle class="b" cx="2.517" cy="2.517" r="2.517" transform="translate(333.286 229.917)"/><circle class="b" cx="2.517" cy="2.517" r="2.517" transform="translate(333.286 221.864)"/><circle class="b" cx="2.517" cy="2.517" r="2.517" transform="translate(333.286 213.81)"/><circle class="b" cx="2.517" cy="2.517" r="2.517" transform="translate(333.286 205.756)"/><circle class="b" cx="2.517" cy="2.517" r="2.517" transform="translate(333.286 197.702)"/><circle class="b" cx="2.517" cy="2.517" r="2.517" transform="translate(333.286 189.648)"/><circle class="b" cx="2.517" cy="2.517" r="2.517" transform="translate(333.286 181.594)"/><circle class="b" cx="2.517" cy="2.517" r="2.517" transform="translate(333.286 173.54)"/><circle class="b" cx="2.517" cy="2.517" r="2.517" transform="translate(333.286 165.486)"/><circle class="b" cx="2.517" cy="2.517" r="2.517" transform="translate(333.286 157.432)"/><circle class="b" cx="2.517" cy="2.517" r="2.517" transform="translate(333.286 149.378)"/><circle class="b" cx="2.517" cy="2.517" r="2.517" transform="translate(333.286 141.324)"/><circle class="b" cx="2.517" cy="2.517" r="2.517" transform="translate(333.286 133.27)"/><circle class="b" cx="2.517" cy="2.517" r="2.517" transform="translate(333.286 125.216)"/><circle class="b" cx="2.517" cy="2.517" r="2.517" transform="translate(333.286 117.162)"/><circle class="b" cx="2.517" cy="2.517" r="2.517" transform="translate(333.286 109.108)"/><circle class="b" cx="2.517" cy="2.517" r="2.517" transform="translate(333.286 101.054)"/><circle class="b" cx="2.517" cy="2.517" r="2.517" transform="translate(333.286 93)"/><circle class="b" cx="2.517" cy="2.517" r="2.517" transform="translate(325.736 382.943)"/><circle class="b" cx="2.517" cy="2.517" r="2.517" transform="translate(325.736 374.889)"/><circle class="b" cx="2.517" cy="2.517" r="2.517" transform="translate(325.736 366.835)"/><circle class="b" cx="2.517" cy="2.517" r="2.517" transform="translate(325.736 358.781)"/><circle class="b" cx="2.517" cy="2.517" r="2.517" transform="translate(325.736 350.727)"/><circle class="b" cx="2.517" cy="2.517" r="2.517" transform="translate(325.736 342.673)"/><circle class="b" cx="2.517" cy="2.517" r="2.517" transform="translate(325.736 334.619)"/><circle class="b" cx="2.517" cy="2.517" r="2.517" transform="translate(325.736 326.565)"/><circle class="b" cx="2.517" cy="2.517" r="2.517" transform="translate(325.736 318.511)"/><circle class="b" cx="2.517" cy="2.517" r="2.517" transform="translate(325.736 310.457)"/><circle class="b" cx="2.517" cy="2.517" r="2.517" transform="translate(325.736 302.403)"/><circle class="b" cx="2.517" cy="2.517" r="2.517" transform="translate(325.736 294.349)"/><circle class="b" cx="2.517" cy="2.517" r="2.517" transform="translate(325.736 286.295)"/><circle class="b" cx="2.517" cy="2.517" r="2.517" transform="translate(325.736 278.241)"/><circle class="b" cx="2.517" cy="2.517" r="2.517" transform="translate(325.736 270.187)"/><circle class="b" cx="2.517" cy="2.517" r="2.517" transform="translate(325.736 262.133)"/><circle class="b" cx="2.517" cy="2.517" r="2.517" transform="translate(325.736 254.079)"/><circle class="b" cx="2.517" cy="2.517" r="2.517" transform="translate(325.736 246.025)"/><circle class="b" cx="2.517" cy="2.517" r="2.517" transform="translate(325.736 237.971)"/><circle class="b" cx="2.517" cy="2.517" r="2.517" transform="translate(325.736 229.917)"/><circle class="b" cx="2.517" cy="2.517" r="2.517" transform="translate(325.736 221.864)"/><circle class="b" cx="2.517" cy="2.517" r="2.517" transform="translate(325.736 213.81)"/><circle class="b" cx="2.517" cy="2.517" r="2.517" transform="translate(325.736 205.756)"/><circle class="b" cx="2.517" cy="2.517" r="2.517" transform="translate(325.736 197.702)"/><circle class="b" cx="2.517" cy="2.517" r="2.517" transform="translate(325.736 189.648)"/><circle class="b" cx="2.517" cy="2.517" r="2.517" transform="translate(325.736 181.594)"/><circle class="b" cx="2.517" cy="2.517" r="2.517" transform="translate(325.736 173.54)"/><circle class="b" cx="2.517" cy="2.517" r="2.517" transform="translate(325.736 165.486)"/><circle class="b" cx="2.517" cy="2.517" r="2.517" transform="translate(325.736 157.432)"/><circle class="b" cx="2.517" cy="2.517" r="2.517" transform="translate(325.736 149.378)"/><circle class="b" cx="2.517" cy="2.517" r="2.517" transform="translate(325.736 141.324)"/><circle class="b" cx="2.517" cy="2.517" r="2.517" transform="translate(325.736 133.27)"/><circle class="b" cx="2.517" cy="2.517" r="2.517" transform="translate(325.736 125.216)"/><circle class="b" cx="2.517" cy="2.517" r="2.517" transform="translate(325.736 117.162)"/><circle class="b" cx="2.517" cy="2.517" r="2.517" transform="translate(325.736 109.108)"/><circle class="b" cx="2.517" cy="2.517" r="2.517" transform="translate(325.736 101.054)"/><circle class="b" cx="2.517" cy="2.517" r="2.517" transform="translate(325.736 93)"/><circle class="b" cx="2.517" cy="2.517" r="2.517" transform="translate(318.185 382.943)"/><circle class="b" cx="2.517" cy="2.517" r="2.517" transform="translate(318.185 374.889)"/><circle class="b" cx="2.517" cy="2.517" r="2.517" transform="translate(318.185 366.835)"/><circle class="b" cx="2.517" cy="2.517" r="2.517" transform="translate(318.185 358.781)"/><circle class="b" cx="2.517" cy="2.517" r="2.517" transform="translate(318.185 350.727)"/><circle class="b" cx="2.517" cy="2.517" r="2.517" transform="translate(318.185 342.673)"/><circle class="b" cx="2.517" cy="2.517" r="2.517" transform="translate(318.185 334.619)"/><circle class="b" cx="2.517" cy="2.517" r="2.517" transform="translate(318.185 326.565)"/><circle class="b" cx="2.517" cy="2.517" r="2.517" transform="translate(318.185 318.511)"/><circle class="b" cx="2.517" cy="2.517" r="2.517" transform="translate(318.185 310.457)"/><circle class="b" cx="2.517" cy="2.517" r="2.517" transform="translate(318.185 302.403)"/><circle class="b" cx="2.517" cy="2.517" r="2.517" transform="translate(318.185 294.349)"/><circle class="b" cx="2.517" cy="2.517" r="2.517" transform="translate(318.185 286.295)"/><circle class="b" cx="2.517" cy="2.517" r="2.517" transform="translate(318.185 278.241)"/><circle class="b" cx="2.517" cy="2.517" r="2.517" transform="translate(318.185 270.187)"/><circle class="b" cx="2.517" cy="2.517" r="2.517" transform="translate(318.185 262.133)"/><circle class="b" cx="2.517" cy="2.517" r="2.517" transform="translate(318.185 254.079)"/><circle class="b" cx="2.517" cy="2.517" r="2.517" transform="translate(318.185 246.025)"/><circle class="b" cx="2.517" cy="2.517" r="2.517" transform="translate(318.185 237.971)"/><circle class="b" cx="2.517" cy="2.517" r="2.517" transform="translate(318.185 229.917)"/><circle class="b" cx="2.517" cy="2.517" r="2.517" transform="translate(318.185 221.864)"/><circle class="b" cx="2.517" cy="2.517" r="2.517" transform="translate(318.185 213.81)"/><circle class="b" cx="2.517" cy="2.517" r="2.517" transform="translate(318.185 205.756)"/><circle class="b" cx="2.517" cy="2.517" r="2.517" transform="translate(318.185 197.702)"/><circle class="b" cx="2.517" cy="2.517" r="2.517" transform="translate(318.185 189.648)"/><circle class="b" cx="2.517" cy="2.517" r="2.517" transform="translate(318.185 181.594)"/><circle class="b" cx="2.517" cy="2.517" r="2.517" transform="translate(318.185 173.54)"/><circle class="b" cx="2.517" cy="2.517" r="2.517" transform="translate(318.185 165.486)"/><circle class="b" cx="2.517" cy="2.517" r="2.517" transform="translate(318.185 157.432)"/><circle class="b" cx="2.517" cy="2.517" r="2.517" transform="translate(318.185 149.378)"/><circle class="b" cx="2.517" cy="2.517" r="2.517" transform="translate(318.185 141.324)"/><circle class="b" cx="2.517" cy="2.517" r="2.517" transform="translate(318.185 133.27)"/><circle class="b" cx="2.517" cy="2.517" r="2.517" transform="translate(318.185 125.216)"/><circle class="b" cx="2.517" cy="2.517" r="2.517" transform="translate(318.185 117.162)"/><circle class="b" cx="2.517" cy="2.517" r="2.517" transform="translate(318.185 109.108)"/><circle class="b" cx="2.517" cy="2.517" r="2.517" transform="translate(318.185 101.054)"/><circle class="b" cx="2.517" cy="2.517" r="2.517" transform="translate(318.185 93)"/><circle class="b" cx="2.517" cy="2.517" r="2.517" transform="translate(310.635 382.943)"/><circle class="b" cx="2.517" cy="2.517" r="2.517" transform="translate(310.635 374.889)"/><circle class="b" cx="2.517" cy="2.517" r="2.517" transform="translate(310.635 366.835)"/><circle class="b" cx="2.517" cy="2.517" r="2.517" transform="translate(310.635 358.781)"/><circle class="b" cx="2.517" cy="2.517" r="2.517" transform="translate(310.635 350.727)"/><circle class="b" cx="2.517" cy="2.517" r="2.517" transform="translate(310.635 342.673)"/><circle class="b" cx="2.517" cy="2.517" r="2.517" transform="translate(310.635 334.619)"/><circle class="b" cx="2.517" cy="2.517" r="2.517" transform="translate(310.635 326.565)"/><circle class="b" cx="2.517" cy="2.517" r="2.517" transform="translate(310.635 318.511)"/><circle class="b" cx="2.517" cy="2.517" r="2.517" transform="translate(310.635 310.457)"/><circle class="b" cx="2.517" cy="2.517" r="2.517" transform="translate(310.635 302.403)"/><circle class="b" cx="2.517" cy="2.517" r="2.517" transform="translate(310.635 294.349)"/><circle class="b" cx="2.517" cy="2.517" r="2.517" transform="translate(310.635 286.295)"/><circle class="b" cx="2.517" cy="2.517" r="2.517" transform="translate(310.635 278.241)"/><circle class="b" cx="2.517" cy="2.517" r="2.517" transform="translate(310.635 270.187)"/><circle class="b" cx="2.517" cy="2.517" r="2.517" transform="translate(310.635 262.133)"/><circle class="b" cx="2.517" cy="2.517" r="2.517" transform="translate(310.635 254.079)"/><circle class="b" cx="2.517" cy="2.517" r="2.517" transform="translate(310.635 246.025)"/><circle class="b" cx="2.517" cy="2.517" r="2.517" transform="translate(310.635 237.971)"/><circle class="b" cx="2.517" cy="2.517" r="2.517" transform="translate(310.635 229.917)"/><circle class="b" cx="2.517" cy="2.517" r="2.517" transform="translate(310.635 221.864)"/><circle class="b" cx="2.517" cy="2.517" r="2.517" transform="translate(310.635 213.81)"/><circle class="b" cx="2.517" cy="2.517" r="2.517" transform="translate(310.635 205.756)"/><circle class="b" cx="2.517" cy="2.517" r="2.517" transform="translate(310.635 197.702)"/><circle class="b" cx="2.517" cy="2.517" r="2.517" transform="translate(310.635 189.648)"/><circle class="b" cx="2.517" cy="2.517" r="2.517" transform="translate(310.635 181.594)"/><circle class="b" cx="2.517" cy="2.517" r="2.517" transform="translate(310.635 173.54)"/><circle class="b" cx="2.517" cy="2.517" r="2.517" transform="translate(310.635 165.486)"/><circle class="b" cx="2.517" cy="2.517" r="2.517" transform="translate(310.635 157.432)"/><circle class="b" cx="2.517" cy="2.517" r="2.517" transform="translate(310.635 149.378)"/><circle class="b" cx="2.517" cy="2.517" r="2.517" transform="translate(310.635 141.324)"/><circle class="b" cx="2.517" cy="2.517" r="2.517" transform="translate(310.635 133.27)"/><circle class="b" cx="2.517" cy="2.517" r="2.517" transform="translate(310.635 125.216)"/><circle class="b" cx="2.517" cy="2.517" r="2.517" transform="translate(310.635 117.162)"/><circle class="b" cx="2.517" cy="2.517" r="2.517" transform="translate(310.635 109.108)"/><circle class="b" cx="2.517" cy="2.517" r="2.517" transform="translate(310.635 101.054)"/><circle class="b" cx="2.517" cy="2.517" r="2.517" transform="translate(310.635 93)"/><circle class="b" cx="2.517" cy="2.517" r="2.517" transform="translate(303.084 382.943)"/><circle class="b" cx="2.517" cy="2.517" r="2.517" transform="translate(303.084 374.889)"/><circle class="b" cx="2.517" cy="2.517" r="2.517" transform="translate(303.084 366.835)"/><circle class="b" cx="2.517" cy="2.517" r="2.517" transform="translate(303.084 358.781)"/><circle class="b" cx="2.517" cy="2.517" r="2.517" transform="translate(303.084 350.727)"/><circle class="b" cx="2.517" cy="2.517" r="2.517" transform="translate(303.084 342.673)"/><circle class="b" cx="2.517" cy="2.517" r="2.517" transform="translate(303.084 334.619)"/><circle class="b" cx="2.517" cy="2.517" r="2.517" transform="translate(303.084 326.565)"/><circle class="b" cx="2.517" cy="2.517" r="2.517" transform="translate(303.084 318.511)"/><circle class="b" cx="2.517" cy="2.517" r="2.517" transform="translate(303.084 310.457)"/><circle class="b" cx="2.517" cy="2.517" r="2.517" transform="translate(303.084 302.403)"/><circle class="b" cx="2.517" cy="2.517" r="2.517" transform="translate(303.084 294.349)"/><circle class="b" cx="2.517" cy="2.517" r="2.517" transform="translate(303.084 286.295)"/><circle class="b" cx="2.517" cy="2.517" r="2.517" transform="translate(303.084 278.241)"/><circle class="b" cx="2.517" cy="2.517" r="2.517" transform="translate(303.084 270.187)"/><circle class="b" cx="2.517" cy="2.517" r="2.517" transform="translate(303.084 262.133)"/><circle class="b" cx="2.517" cy="2.517" r="2.517" transform="translate(303.084 254.079)"/><circle class="b" cx="2.517" cy="2.517" r="2.517" transform="translate(303.084 246.025)"/><circle class="b" cx="2.517" cy="2.517" r="2.517" transform="translate(303.084 237.971)"/><circle class="b" cx="2.517" cy="2.517" r="2.517" transform="translate(303.084 229.917)"/><circle class="b" cx="2.517" cy="2.517" r="2.517" transform="translate(303.084 221.864)"/><circle class="b" cx="2.517" cy="2.517" r="2.517" transform="translate(303.084 213.81)"/><circle class="b" cx="2.517" cy="2.517" r="2.517" transform="translate(303.084 205.756)"/><circle class="b" cx="2.517" cy="2.517" r="2.517" transform="translate(303.084 197.702)"/><circle class="b" cx="2.517" cy="2.517" r="2.517" transform="translate(303.084 189.648)"/><circle class="b" cx="2.517" cy="2.517" r="2.517" transform="translate(303.084 181.594)"/><circle class="b" cx="2.517" cy="2.517" r="2.517" transform="translate(303.084 173.54)"/><circle class="b" cx="2.517" cy="2.517" r="2.517" transform="translate(303.084 165.486)"/><circle class="b" cx="2.517" cy="2.517" r="2.517" transform="translate(303.084 157.432)"/><circle class="b" cx="2.517" cy="2.517" r="2.517" transform="translate(303.084 149.378)"/><circle class="b" cx="2.517" cy="2.517" r="2.517" transform="translate(303.084 141.324)"/><circle class="b" cx="2.517" cy="2.517" r="2.517" transform="translate(303.084 133.27)"/><circle class="b" cx="2.517" cy="2.517" r="2.517" transform="translate(303.084 125.216)"/><circle class="b" cx="2.517" cy="2.517" r="2.517" transform="translate(303.084 117.162)"/><circle class="b" cx="2.517" cy="2.517" r="2.517" transform="translate(303.084 109.108)"/><circle class="b" cx="2.517" cy="2.517" r="2.517" transform="translate(303.084 101.054)"/><circle class="b" cx="2.517" cy="2.517" r="2.517" transform="translate(303.084 93)"/><circle class="b" cx="2.517" cy="2.517" r="2.517" transform="translate(295.533 382.943)"/><circle class="b" cx="2.517" cy="2.517" r="2.517" transform="translate(295.533 374.889)"/><circle class="b" cx="2.517" cy="2.517" r="2.517" transform="translate(295.533 366.835)"/><circle class="b" cx="2.517" cy="2.517" r="2.517" transform="translate(295.533 358.781)"/><circle class="b" cx="2.517" cy="2.517" r="2.517" transform="translate(295.533 350.727)"/><circle class="b" cx="2.517" cy="2.517" r="2.517" transform="translate(295.533 342.673)"/><circle class="b" cx="2.517" cy="2.517" r="2.517" transform="translate(295.533 334.619)"/><circle class="b" cx="2.517" cy="2.517" r="2.517" transform="translate(295.533 326.565)"/><circle class="b" cx="2.517" cy="2.517" r="2.517" transform="translate(295.533 318.511)"/><circle class="b" cx="2.517" cy="2.517" r="2.517" transform="translate(295.533 310.457)"/><circle class="b" cx="2.517" cy="2.517" r="2.517" transform="translate(295.533 302.403)"/><circle class="b" cx="2.517" cy="2.517" r="2.517" transform="translate(295.533 294.349)"/><circle class="b" cx="2.517" cy="2.517" r="2.517" transform="translate(295.533 286.295)"/><circle class="b" cx="2.517" cy="2.517" r="2.517" transform="translate(295.533 278.241)"/><circle class="b" cx="2.517" cy="2.517" r="2.517" transform="translate(295.533 270.187)"/><circle class="b" cx="2.517" cy="2.517" r="2.517" transform="translate(295.533 262.133)"/><circle class="b" cx="2.517" cy="2.517" r="2.517" transform="translate(295.533 254.079)"/><circle class="b" cx="2.517" cy="2.517" r="2.517" transform="translate(295.533 246.025)"/><circle class="b" cx="2.517" cy="2.517" r="2.517" transform="translate(295.533 237.971)"/><circle class="b" cx="2.517" cy="2.517" r="2.517" transform="translate(295.533 229.917)"/><circle class="b" cx="2.517" cy="2.517" r="2.517" transform="translate(295.533 221.864)"/><circle class="b" cx="2.517" cy="2.517" r="2.517" transform="translate(295.533 213.81)"/><circle class="b" cx="2.517" cy="2.517" r="2.517" transform="translate(295.533 205.756)"/><circle class="b" cx="2.517" cy="2.517" r="2.517" transform="translate(295.533 197.702)"/><circle class="b" cx="2.517" cy="2.517" r="2.517" transform="translate(295.533 189.648)"/><circle class="b" cx="2.517" cy="2.517" r="2.517" transform="translate(295.533 181.594)"/><circle class="b" cx="2.517" cy="2.517" r="2.517" transform="translate(295.533 173.54)"/><circle class="b" cx="2.517" cy="2.517" r="2.517" transform="translate(295.533 165.486)"/><circle class="b" cx="2.517" cy="2.517" r="2.517" transform="translate(295.533 157.432)"/><circle class="b" cx="2.517" cy="2.517" r="2.517" transform="translate(295.533 149.378)"/><circle class="b" cx="2.517" cy="2.517" r="2.517" transform="translate(295.533 141.324)"/><circle class="b" cx="2.517" cy="2.517" r="2.517" transform="translate(295.533 133.27)"/><circle class="b" cx="2.517" cy="2.517" r="2.517" transform="translate(295.533 125.216)"/><circle class="b" cx="2.517" cy="2.517" r="2.517" transform="translate(295.533 117.162)"/><circle class="b" cx="2.517" cy="2.517" r="2.517" transform="translate(295.533 109.108)"/><circle class="b" cx="2.517" cy="2.517" r="2.517" transform="translate(295.533 101.054)"/><circle class="b" cx="2.517" cy="2.517" r="2.517" transform="translate(295.533 93)"/><circle class="b" cx="2.517" cy="2.517" r="2.517" transform="translate(287.983 382.943)"/><circle class="b" cx="2.517" cy="2.517" r="2.517" transform="translate(287.983 374.889)"/><circle class="b" cx="2.517" cy="2.517" r="2.517" transform="translate(287.983 366.835)"/><circle class="b" cx="2.517" cy="2.517" r="2.517" transform="translate(287.983 358.781)"/><circle class="b" cx="2.517" cy="2.517" r="2.517" transform="translate(287.983 350.727)"/><circle class="b" cx="2.517" cy="2.517" r="2.517" transform="translate(287.983 342.673)"/><circle class="b" cx="2.517" cy="2.517" r="2.517" transform="translate(287.983 334.619)"/><circle class="b" cx="2.517" cy="2.517" r="2.517" transform="translate(287.983 326.565)"/><circle class="b" cx="2.517" cy="2.517" r="2.517" transform="translate(287.983 318.511)"/><circle class="b" cx="2.517" cy="2.517" r="2.517" transform="translate(287.983 310.457)"/><circle class="b" cx="2.517" cy="2.517" r="2.517" transform="translate(287.983 302.403)"/><circle class="b" cx="2.517" cy="2.517" r="2.517" transform="translate(287.983 294.349)"/><circle class="b" cx="2.517" cy="2.517" r="2.517" transform="translate(287.983 286.295)"/><circle class="b" cx="2.517" cy="2.517" r="2.517" transform="translate(287.983 278.241)"/><circle class="b" cx="2.517" cy="2.517" r="2.517" transform="translate(287.983 270.187)"/><circle class="b" cx="2.517" cy="2.517" r="2.517" transform="translate(287.983 262.133)"/><circle class="b" cx="2.517" cy="2.517" r="2.517" transform="translate(287.983 254.079)"/><circle class="b" cx="2.517" cy="2.517" r="2.517" transform="translate(287.983 246.025)"/><circle class="b" cx="2.517" cy="2.517" r="2.517" transform="translate(287.983 237.971)"/><circle class="b" cx="2.517" cy="2.517" r="2.517" transform="translate(287.983 229.917)"/><circle class="b" cx="2.517" cy="2.517" r="2.517" transform="translate(287.983 221.864)"/><circle class="b" cx="2.517" cy="2.517" r="2.517" transform="translate(287.983 213.81)"/><circle class="b" cx="2.517" cy="2.517" r="2.517" transform="translate(287.983 205.756)"/><circle class="b" cx="2.517" cy="2.517" r="2.517" transform="translate(287.983 197.702)"/><circle class="b" cx="2.517" cy="2.517" r="2.517" transform="translate(287.983 189.648)"/><circle class="b" cx="2.517" cy="2.517" r="2.517" transform="translate(287.983 181.594)"/><circle class="b" cx="2.517" cy="2.517" r="2.517" transform="translate(287.983 173.54)"/><circle class="b" cx="2.517" cy="2.517" r="2.517" transform="translate(287.983 165.486)"/><circle class="b" cx="2.517" cy="2.517" r="2.517" transform="translate(287.983 157.432)"/><circle class="b" cx="2.517" cy="2.517" r="2.517" transform="translate(287.983 149.378)"/><circle class="b" cx="2.517" cy="2.517" r="2.517" transform="translate(287.983 141.324)"/><circle class="b" cx="2.517" cy="2.517" r="2.517" transform="translate(287.983 133.27)"/><circle class="b" cx="2.517" cy="2.517" r="2.517" transform="translate(287.983 125.216)"/><circle class="b" cx="2.517" cy="2.517" r="2.517" transform="translate(287.983 117.162)"/><circle class="b" cx="2.517" cy="2.517" r="2.517" transform="translate(287.983 109.108)"/><circle class="b" cx="2.517" cy="2.517" r="2.517" transform="translate(287.983 101.054)"/><circle class="b" cx="2.517" cy="2.517" r="2.517" transform="translate(287.983 93)"/><circle class="b" cx="2.517" cy="2.517" r="2.517" transform="translate(280.432 382.943)"/><circle class="b" cx="2.517" cy="2.517" r="2.517" transform="translate(280.432 374.889)"/><circle class="b" cx="2.517" cy="2.517" r="2.517" transform="translate(280.432 366.835)"/><circle class="b" cx="2.517" cy="2.517" r="2.517" transform="translate(280.432 358.781)"/><circle class="b" cx="2.517" cy="2.517" r="2.517" transform="translate(280.432 350.727)"/><circle class="b" cx="2.517" cy="2.517" r="2.517" transform="translate(280.432 342.673)"/><circle class="b" cx="2.517" cy="2.517" r="2.517" transform="translate(280.432 334.619)"/><circle class="b" cx="2.517" cy="2.517" r="2.517" transform="translate(280.432 326.565)"/><circle class="b" cx="2.517" cy="2.517" r="2.517" transform="translate(280.432 318.511)"/><circle class="b" cx="2.517" cy="2.517" r="2.517" transform="translate(280.432 310.457)"/><circle class="b" cx="2.517" cy="2.517" r="2.517" transform="translate(280.432 302.403)"/><circle class="b" cx="2.517" cy="2.517" r="2.517" transform="translate(280.432 294.349)"/><circle class="b" cx="2.517" cy="2.517" r="2.517" transform="translate(280.432 286.295)"/><circle class="b" cx="2.517" cy="2.517" r="2.517" transform="translate(280.432 278.241)"/><circle class="b" cx="2.517" cy="2.517" r="2.517" transform="translate(280.432 270.187)"/><circle class="b" cx="2.517" cy="2.517" r="2.517" transform="translate(280.432 262.133)"/><circle class="b" cx="2.517" cy="2.517" r="2.517" transform="translate(280.432 254.079)"/><circle class="b" cx="2.517" cy="2.517" r="2.517" transform="translate(280.432 246.025)"/><circle class="b" cx="2.517" cy="2.517" r="2.517" transform="translate(280.432 237.971)"/><circle class="b" cx="2.517" cy="2.517" r="2.517" transform="translate(280.432 229.917)"/><circle class="b" cx="2.517" cy="2.517" r="2.517" transform="translate(280.432 221.864)"/><circle class="b" cx="2.517" cy="2.517" r="2.517" transform="translate(280.432 213.81)"/><circle class="b" cx="2.517" cy="2.517" r="2.517" transform="translate(280.432 205.756)"/><circle class="b" cx="2.517" cy="2.517" r="2.517" transform="translate(280.432 197.702)"/><circle class="b" cx="2.517" cy="2.517" r="2.517" transform="translate(280.432 189.648)"/><circle class="b" cx="2.517" cy="2.517" r="2.517" transform="translate(280.432 181.594)"/><circle class="b" cx="2.517" cy="2.517" r="2.517" transform="translate(280.432 173.54)"/><circle class="b" cx="2.517" cy="2.517" r="2.517" transform="translate(280.432 165.486)"/><circle class="b" cx="2.517" cy="2.517" r="2.517" transform="translate(280.432 157.432)"/><circle class="b" cx="2.517" cy="2.517" r="2.517" transform="translate(280.432 149.378)"/><circle class="b" cx="2.517" cy="2.517" r="2.517" transform="translate(280.432 141.324)"/><circle class="b" cx="2.517" cy="2.517" r="2.517" transform="translate(280.432 133.27)"/><circle class="b" cx="2.517" cy="2.517" r="2.517" transform="translate(280.432 125.216)"/><circle class="b" cx="2.517" cy="2.517" r="2.517" transform="translate(280.432 117.162)"/><circle class="b" cx="2.517" cy="2.517" r="2.517" transform="translate(280.432 109.108)"/><circle class="b" cx="2.517" cy="2.517" r="2.517" transform="translate(280.432 101.054)"/><circle class="b" cx="2.517" cy="2.517" r="2.517" transform="translate(280.432 93)"/><circle class="b" cx="2.517" cy="2.517" r="2.517" transform="translate(272.882 382.943)"/><circle class="b" cx="2.517" cy="2.517" r="2.517" transform="translate(272.882 374.889)"/><circle class="b" cx="2.517" cy="2.517" r="2.517" transform="translate(272.882 366.835)"/><circle class="b" cx="2.517" cy="2.517" r="2.517" transform="translate(272.882 358.781)"/><circle class="b" cx="2.517" cy="2.517" r="2.517" transform="translate(272.882 350.727)"/><circle class="b" cx="2.517" cy="2.517" r="2.517" transform="translate(272.882 342.673)"/><circle class="b" cx="2.517" cy="2.517" r="2.517" transform="translate(272.882 334.619)"/><circle class="b" cx="2.517" cy="2.517" r="2.517" transform="translate(272.882 326.565)"/><circle class="b" cx="2.517" cy="2.517" r="2.517" transform="translate(272.882 318.511)"/><circle class="b" cx="2.517" cy="2.517" r="2.517" transform="translate(272.882 310.457)"/><circle class="b" cx="2.517" cy="2.517" r="2.517" transform="translate(272.882 302.403)"/><circle class="b" cx="2.517" cy="2.517" r="2.517" transform="translate(272.882 294.349)"/><circle class="b" cx="2.517" cy="2.517" r="2.517" transform="translate(272.882 286.295)"/><circle class="b" cx="2.517" cy="2.517" r="2.517" transform="translate(272.882 278.241)"/><circle class="b" cx="2.517" cy="2.517" r="2.517" transform="translate(272.882 270.187)"/><circle class="b" cx="2.517" cy="2.517" r="2.517" transform="translate(272.882 262.133)"/><circle class="b" cx="2.517" cy="2.517" r="2.517" transform="translate(272.882 254.079)"/><circle class="b" cx="2.517" cy="2.517" r="2.517" transform="translate(272.882 246.025)"/><circle class="b" cx="2.517" cy="2.517" r="2.517" transform="translate(272.882 237.971)"/><circle class="b" cx="2.517" cy="2.517" r="2.517" transform="translate(272.882 229.917)"/><circle class="b" cx="2.517" cy="2.517" r="2.517" transform="translate(272.882 221.864)"/><circle class="b" cx="2.517" cy="2.517" r="2.517" transform="translate(272.882 213.81)"/><circle class="b" cx="2.517" cy="2.517" r="2.517" transform="translate(272.882 205.756)"/><circle class="b" cx="2.517" cy="2.517" r="2.517" transform="translate(272.882 197.702)"/><circle class="b" cx="2.517" cy="2.517" r="2.517" transform="translate(272.882 189.648)"/><circle class="b" cx="2.517" cy="2.517" r="2.517" transform="translate(272.882 181.594)"/><circle class="b" cx="2.517" cy="2.517" r="2.517" transform="translate(272.882 173.54)"/><circle class="b" cx="2.517" cy="2.517" r="2.517" transform="translate(272.882 165.486)"/><circle class="b" cx="2.517" cy="2.517" r="2.517" transform="translate(272.882 157.432)"/><circle class="b" cx="2.517" cy="2.517" r="2.517" transform="translate(272.882 149.378)"/><circle class="b" cx="2.517" cy="2.517" r="2.517" transform="translate(272.882 141.324)"/><circle class="b" cx="2.517" cy="2.517" r="2.517" transform="translate(272.882 133.27)"/><circle class="b" cx="2.517" cy="2.517" r="2.517" transform="translate(272.882 125.216)"/><circle class="b" cx="2.517" cy="2.517" r="2.517" transform="translate(272.882 117.162)"/><circle class="b" cx="2.517" cy="2.517" r="2.517" transform="translate(272.882 109.108)"/><circle class="b" cx="2.517" cy="2.517" r="2.517" transform="translate(272.882 101.054)"/><circle class="b" cx="2.517" cy="2.517" r="2.517" transform="translate(272.882 93)"/></g></svg>