<svg xmlns="http://www.w3.org/2000/svg" width="187.604" height="81.546" viewBox="0 0 187.604 81.546"><defs><style>.a{opacity:0.606;}.b{fill:#fff;}</style></defs><g class="a" transform="translate(-272.931 -273.579)"><g transform="translate(272.931 273.579)"><circle class="b" cx="1.234" cy="1.234" r="1.234" transform="translate(88.886 78.963)"/><circle class="b" cx="1.234" cy="1.234" r="1.234" transform="translate(88.886 75.013)"/><circle class="b" cx="1.234" cy="1.234" r="1.234" transform="translate(88.886 71.064)"/><circle class="b" cx="1.234" cy="1.234" r="1.234" transform="translate(88.886 67.115)"/><circle class="b" cx="1.234" cy="1.234" r="1.234" transform="translate(88.886 63.166)"/><circle class="b" cx="1.234" cy="1.234" r="1.234" transform="translate(88.886 59.217)"/><circle class="b" cx="1.234" cy="1.234" r="1.234" transform="translate(88.886 55.267)"/><circle class="b" cx="1.234" cy="1.234" r="1.234" transform="translate(88.886 51.318)"/><circle class="b" cx="1.234" cy="1.234" r="1.234" transform="translate(81.481 78.963)"/><circle class="b" cx="1.234" cy="1.234" r="1.234" transform="translate(81.481 75.013)"/><circle class="b" cx="1.234" cy="1.234" r="1.234" transform="translate(81.481 71.064)"/><circle class="b" cx="1.234" cy="1.234" r="1.234" transform="translate(81.481 67.115)"/><circle class="b" cx="1.234" cy="1.234" r="1.234" transform="translate(81.481 63.166)"/><circle class="b" cx="1.234" cy="1.234" r="1.234" transform="translate(81.481 59.217)"/><circle class="b" cx="1.234" cy="1.234" r="1.234" transform="translate(81.481 55.267)"/><circle class="b" cx="1.234" cy="1.234" r="1.234" transform="translate(81.481 51.318)"/><circle class="b" cx="1.234" cy="1.234" r="1.234" transform="translate(74.077 78.963)"/><circle class="b" cx="1.234" cy="1.234" r="1.234" transform="translate(74.077 75.013)"/><circle class="b" cx="1.234" cy="1.234" r="1.234" transform="translate(74.077 71.064)"/><circle class="b" cx="1.234" cy="1.234" r="1.234" transform="translate(74.077 67.115)"/><circle class="b" cx="1.234" cy="1.234" r="1.234" transform="translate(74.077 63.166)"/><circle class="b" cx="1.234" cy="1.234" r="1.234" transform="translate(74.077 59.217)"/><circle class="b" cx="1.234" cy="1.234" r="1.234" transform="translate(74.077 55.267)"/><circle class="b" cx="1.234" cy="1.234" r="1.234" transform="translate(74.077 51.318)"/><circle class="b" cx="1.234" cy="1.234" r="1.234" transform="translate(66.672 78.963)"/><circle class="b" cx="1.234" cy="1.234" r="1.234" transform="translate(66.672 75.013)"/><circle class="b" cx="1.234" cy="1.234" r="1.234" transform="translate(66.672 71.064)"/><circle class="b" cx="1.234" cy="1.234" r="1.234" transform="translate(66.672 67.115)"/><circle class="b" cx="1.234" cy="1.234" r="1.234" transform="translate(66.672 63.166)"/><circle class="b" cx="1.234" cy="1.234" r="1.234" transform="translate(66.672 59.217)"/><circle class="b" cx="1.234" cy="1.234" r="1.234" transform="translate(66.672 55.267)"/><circle class="b" cx="1.234" cy="1.234" r="1.234" transform="translate(66.672 51.318)"/><circle class="b" cx="1.234" cy="1.234" r="1.234" transform="translate(59.267 78.963)"/><circle class="b" cx="1.234" cy="1.234" r="1.234" transform="translate(59.267 75.013)"/><circle class="b" cx="1.234" cy="1.234" r="1.234" transform="translate(59.267 71.064)"/><circle class="b" cx="1.234" cy="1.234" r="1.234" transform="translate(59.267 67.115)"/><circle class="b" cx="1.234" cy="1.234" r="1.234" transform="translate(59.267 63.166)"/><circle class="b" cx="1.234" cy="1.234" r="1.234" transform="translate(59.267 59.217)"/><circle class="b" cx="1.234" cy="1.234" r="1.234" transform="translate(59.267 55.267)"/><circle class="b" cx="1.234" cy="1.234" r="1.234" transform="translate(59.267 51.318)"/><circle class="b" cx="1.234" cy="1.234" r="1.234" transform="translate(51.862 78.963)"/><circle class="b" cx="1.234" cy="1.234" r="1.234" transform="translate(51.862 75.013)"/><circle class="b" cx="1.234" cy="1.234" r="1.234" transform="translate(51.862 71.064)"/><circle class="b" cx="1.234" cy="1.234" r="1.234" transform="translate(51.862 67.115)"/><circle class="b" cx="1.234" cy="1.234" r="1.234" transform="translate(51.862 63.166)"/><circle class="b" cx="1.234" cy="1.234" r="1.234" transform="translate(51.862 59.217)"/><circle class="b" cx="1.234" cy="1.234" r="1.234" transform="translate(51.862 55.267)"/><circle class="b" cx="1.234" cy="1.234" r="1.234" transform="translate(51.862 51.318)"/><circle class="b" cx="1.234" cy="1.234" r="1.234" transform="translate(44.458 78.963)"/><circle class="b" cx="1.234" cy="1.234" r="1.234" transform="translate(44.458 75.013)"/><circle class="b" cx="1.234" cy="1.234" r="1.234" transform="translate(44.458 71.064)"/><circle class="b" cx="1.234" cy="1.234" r="1.234" transform="translate(44.458 67.115)"/><circle class="b" cx="1.234" cy="1.234" r="1.234" transform="translate(44.458 63.166)"/><circle class="b" cx="1.234" cy="1.234" r="1.234" transform="translate(44.458 59.217)"/><circle class="b" cx="1.234" cy="1.234" r="1.234" transform="translate(44.458 55.267)"/><circle class="b" cx="1.234" cy="1.234" r="1.234" transform="translate(44.458 51.318)"/><circle class="b" cx="1.234" cy="1.234" r="1.234" transform="translate(37.053 78.963)"/><circle class="b" cx="1.234" cy="1.234" r="1.234" transform="translate(37.053 75.013)"/><circle class="b" cx="1.234" cy="1.234" r="1.234" transform="translate(37.053 71.064)"/><circle class="b" cx="1.234" cy="1.234" r="1.234" transform="translate(37.053 67.115)"/><circle class="b" cx="1.234" cy="1.234" r="1.234" transform="translate(37.053 63.166)"/><circle class="b" cx="1.234" cy="1.234" r="1.234" transform="translate(37.053 59.217)"/><circle class="b" cx="1.234" cy="1.234" r="1.234" transform="translate(37.053 55.267)"/><circle class="b" cx="1.234" cy="1.234" r="1.234" transform="translate(37.053 51.318)"/><circle class="b" cx="1.234" cy="1.234" r="1.234" transform="translate(29.648 78.963)"/><circle class="b" cx="1.234" cy="1.234" r="1.234" transform="translate(29.648 75.013)"/><circle class="b" cx="1.234" cy="1.234" r="1.234" transform="translate(29.648 71.064)"/><circle class="b" cx="1.234" cy="1.234" r="1.234" transform="translate(29.648 67.115)"/><circle class="b" cx="1.234" cy="1.234" r="1.234" transform="translate(29.648 63.166)"/><circle class="b" cx="1.234" cy="1.234" r="1.234" transform="translate(29.648 59.217)"/><circle class="b" cx="1.234" cy="1.234" r="1.234" transform="translate(29.648 55.267)"/><circle class="b" cx="1.234" cy="1.234" r="1.234" transform="translate(29.648 51.318)"/><circle class="b" cx="1.234" cy="1.234" r="1.234" transform="translate(22.243 78.963)"/><circle class="b" cx="1.234" cy="1.234" r="1.234" transform="translate(22.243 75.013)"/><circle class="b" cx="1.234" cy="1.234" r="1.234" transform="translate(22.243 71.064)"/><circle class="b" cx="1.234" cy="1.234" r="1.234" transform="translate(22.243 67.115)"/><circle class="b" cx="1.234" cy="1.234" r="1.234" transform="translate(22.243 63.166)"/><circle class="b" cx="1.234" cy="1.234" r="1.234" transform="translate(22.243 59.217)"/><circle class="b" cx="1.234" cy="1.234" r="1.234" transform="translate(22.243 55.267)"/><circle class="b" cx="1.234" cy="1.234" r="1.234" transform="translate(22.243 51.318)"/><circle class="b" cx="1.234" cy="1.234" r="1.234" transform="translate(14.839 78.963)"/><circle class="b" cx="1.234" cy="1.234" r="1.234" transform="translate(14.839 75.013)"/><circle class="b" cx="1.234" cy="1.234" r="1.234" transform="translate(14.839 71.064)"/><circle class="b" cx="1.234" cy="1.234" r="1.234" transform="translate(14.839 67.115)"/><circle class="b" cx="1.234" cy="1.234" r="1.234" transform="translate(14.839 63.166)"/><circle class="b" cx="1.234" cy="1.234" r="1.234" transform="translate(14.839 59.217)"/><circle class="b" cx="1.234" cy="1.234" r="1.234" transform="translate(14.839 55.267)"/><circle class="b" cx="1.234" cy="1.234" r="1.234" transform="translate(14.839 51.318)"/><circle class="b" cx="1.234" cy="1.234" r="1.234" transform="translate(7.434 78.963)"/><circle class="b" cx="1.234" cy="1.234" r="1.234" transform="translate(7.434 75.013)"/><circle class="b" cx="1.234" cy="1.234" r="1.234" transform="translate(7.434 71.064)"/><circle class="b" cx="1.234" cy="1.234" r="1.234" transform="translate(7.434 67.115)"/><circle class="b" cx="1.234" cy="1.234" r="1.234" transform="translate(7.434 63.166)"/><circle class="b" cx="1.234" cy="1.234" r="1.234" transform="translate(7.434 59.217)"/><circle class="b" cx="1.234" cy="1.234" r="1.234" transform="translate(7.434 55.267)"/><circle class="b" cx="1.234" cy="1.234" r="1.234" transform="translate(7.434 51.318)"/><circle class="b" cx="1.234" cy="1.234" r="1.234" transform="translate(0.029 78.963)"/><circle class="b" cx="1.234" cy="1.234" r="1.234" transform="translate(0.029 75.013)"/><circle class="b" cx="1.234" cy="1.234" r="1.234" transform="translate(0.029 71.064)"/><circle class="b" cx="1.234" cy="1.234" r="1.234" transform="translate(0.029 67.115)"/><circle class="b" cx="1.234" cy="1.234" r="1.234" transform="translate(0.029 63.166)"/><circle class="b" cx="1.234" cy="1.234" r="1.234" transform="translate(0.029 59.217)"/><circle class="b" cx="1.234" cy="1.234" r="1.234" transform="translate(0.029 55.267)"/><circle class="b" cx="1.234" cy="1.234" r="1.234" transform="translate(0.029 51.318)"/><circle class="b" cx="1.234" cy="1.234" r="1.234" transform="translate(88.857 47.39)"/><circle class="b" cx="1.234" cy="1.234" r="1.234" transform="translate(88.857 43.441)"/><circle class="b" cx="1.234" cy="1.234" r="1.234" transform="translate(88.857 39.492)"/><circle class="b" cx="1.234" cy="1.234" r="1.234" transform="translate(88.857 35.543)"/><circle class="b" cx="1.234" cy="1.234" r="1.234" transform="translate(88.857 31.594)"/><circle class="b" cx="1.234" cy="1.234" r="1.234" transform="translate(88.857 27.644)"/><circle class="b" cx="1.234" cy="1.234" r="1.234" transform="translate(88.857 23.695)"/><circle class="b" cx="1.234" cy="1.234" r="1.234" transform="translate(88.857 19.746)"/><circle class="b" cx="1.234" cy="1.234" r="1.234" transform="translate(88.857 15.797)"/><circle class="b" cx="1.234" cy="1.234" r="1.234" transform="translate(88.857 11.848)"/><circle class="b" cx="1.234" cy="1.234" r="1.234" transform="translate(88.857 7.898)"/><circle class="b" cx="1.234" cy="1.234" r="1.234" transform="translate(88.857 3.949)"/><circle class="b" cx="1.234" cy="1.234" r="1.234" transform="translate(88.857 0)"/><circle class="b" cx="1.234" cy="1.234" r="1.234" transform="translate(81.452 47.39)"/><circle class="b" cx="1.234" cy="1.234" r="1.234" transform="translate(81.452 43.441)"/><circle class="b" cx="1.234" cy="1.234" r="1.234" transform="translate(81.452 39.492)"/><circle class="b" cx="1.234" cy="1.234" r="1.234" transform="translate(81.452 35.543)"/><circle class="b" cx="1.234" cy="1.234" r="1.234" transform="translate(81.452 31.594)"/><circle class="b" cx="1.234" cy="1.234" r="1.234" transform="translate(81.452 27.644)"/><circle class="b" cx="1.234" cy="1.234" r="1.234" transform="translate(81.452 23.695)"/><circle class="b" cx="1.234" cy="1.234" r="1.234" transform="translate(81.452 19.746)"/><circle class="b" cx="1.234" cy="1.234" r="1.234" transform="translate(81.452 15.797)"/><circle class="b" cx="1.234" cy="1.234" r="1.234" transform="translate(81.452 11.848)"/><circle class="b" cx="1.234" cy="1.234" r="1.234" transform="translate(74.047 47.39)"/><circle class="b" cx="1.234" cy="1.234" r="1.234" transform="translate(74.047 43.441)"/><circle class="b" cx="1.234" cy="1.234" r="1.234" transform="translate(74.047 39.492)"/><circle class="b" cx="1.234" cy="1.234" r="1.234" transform="translate(74.047 35.543)"/><circle class="b" cx="1.234" cy="1.234" r="1.234" transform="translate(74.047 31.594)"/><circle class="b" cx="1.234" cy="1.234" r="1.234" transform="translate(74.047 27.644)"/><circle class="b" cx="1.234" cy="1.234" r="1.234" transform="translate(74.047 23.695)"/><circle class="b" cx="1.234" cy="1.234" r="1.234" transform="translate(74.047 19.746)"/><circle class="b" cx="1.234" cy="1.234" r="1.234" transform="translate(74.047 15.797)"/><circle class="b" cx="1.234" cy="1.234" r="1.234" transform="translate(66.643 47.39)"/><circle class="b" cx="1.234" cy="1.234" r="1.234" transform="translate(66.643 43.441)"/><circle class="b" cx="1.234" cy="1.234" r="1.234" transform="translate(66.643 39.492)"/><circle class="b" cx="1.234" cy="1.234" r="1.234" transform="translate(66.643 35.543)"/><circle class="b" cx="1.234" cy="1.234" r="1.234" transform="translate(66.643 31.594)"/><circle class="b" cx="1.234" cy="1.234" r="1.234" transform="translate(66.643 27.644)"/><circle class="b" cx="1.234" cy="1.234" r="1.234" transform="translate(66.643 23.695)"/><circle class="b" cx="1.234" cy="1.234" r="1.234" transform="translate(59.238 47.39)"/><circle class="b" cx="1.234" cy="1.234" r="1.234" transform="translate(59.238 43.441)"/><circle class="b" cx="1.234" cy="1.234" r="1.234" transform="translate(59.238 39.492)"/><circle class="b" cx="1.234" cy="1.234" r="1.234" transform="translate(59.238 35.543)"/><circle class="b" cx="1.234" cy="1.234" r="1.234" transform="translate(51.833 47.39)"/><circle class="b" cx="1.234" cy="1.234" r="1.234" transform="translate(51.833 43.441)"/><circle class="b" cx="1.234" cy="1.234" r="1.234" transform="translate(51.833 39.492)"/><circle class="b" cx="1.234" cy="1.234" r="1.234" transform="translate(51.833 35.543)"/><circle class="b" cx="1.234" cy="1.234" r="1.234" transform="translate(44.428 47.39)"/><circle class="b" cx="1.234" cy="1.234" r="1.234" transform="translate(37.024 47.39)"/><circle class="b" cx="1.234" cy="1.234" r="1.234" transform="translate(37.024 43.441)"/><circle class="b" cx="1.234" cy="1.234" r="1.234" transform="translate(37.024 39.492)"/><circle class="b" cx="1.234" cy="1.234" r="1.234" transform="translate(37.024 35.543)"/><circle class="b" cx="1.234" cy="1.234" r="1.234" transform="translate(29.619 47.39)"/><circle class="b" cx="1.234" cy="1.234" r="1.234" transform="translate(29.619 43.441)"/><circle class="b" cx="1.234" cy="1.234" r="1.234" transform="translate(29.619 39.492)"/><circle class="b" cx="1.234" cy="1.234" r="1.234" transform="translate(29.619 35.543)"/><circle class="b" cx="1.234" cy="1.234" r="1.234" transform="translate(29.619 31.594)"/><circle class="b" cx="1.234" cy="1.234" r="1.234" transform="translate(29.619 27.644)"/><circle class="b" cx="1.234" cy="1.234" r="1.234" transform="translate(22.214 47.39)"/><circle class="b" cx="1.234" cy="1.234" r="1.234" transform="translate(22.214 43.441)"/><circle class="b" cx="1.234" cy="1.234" r="1.234" transform="translate(22.214 39.492)"/><circle class="b" cx="1.234" cy="1.234" r="1.234" transform="translate(22.214 35.543)"/><circle class="b" cx="1.234" cy="1.234" r="1.234" transform="translate(22.214 31.594)"/><circle class="b" cx="1.234" cy="1.234" r="1.234" transform="translate(22.214 27.644)"/><circle class="b" cx="1.234" cy="1.234" r="1.234" transform="translate(22.214 23.695)"/><circle class="b" cx="1.234" cy="1.234" r="1.234" transform="translate(22.214 19.746)"/><circle class="b" cx="1.234" cy="1.234" r="1.234" transform="translate(22.214 15.797)"/><circle class="b" cx="1.234" cy="1.234" r="1.234" transform="translate(14.81 47.39)"/><circle class="b" cx="1.234" cy="1.234" r="1.234" transform="translate(14.81 43.441)"/><circle class="b" cx="1.234" cy="1.234" r="1.234" transform="translate(14.81 39.492)"/><circle class="b" cx="1.234" cy="1.234" r="1.234" transform="translate(14.81 35.543)"/><circle class="b" cx="1.234" cy="1.234" r="1.234" transform="translate(14.81 31.594)"/><circle class="b" cx="1.234" cy="1.234" r="1.234" transform="translate(14.81 27.644)"/><circle class="b" cx="1.234" cy="1.234" r="1.234" transform="translate(14.81 23.695)"/><circle class="b" cx="1.234" cy="1.234" r="1.234" transform="translate(14.81 19.746)"/><circle class="b" cx="1.234" cy="1.234" r="1.234" transform="translate(14.81 15.797)"/><circle class="b" cx="1.234" cy="1.234" r="1.234" transform="translate(14.81 11.848)"/><circle class="b" cx="1.234" cy="1.234" r="1.234" transform="translate(14.81 7.898)"/><circle class="b" cx="1.234" cy="1.234" r="1.234" transform="translate(14.81 3.949)"/><circle class="b" cx="1.234" cy="1.234" r="1.234" transform="translate(14.81 0)"/><circle class="b" cx="1.234" cy="1.234" r="1.234" transform="translate(7.405 47.39)"/><circle class="b" cx="1.234" cy="1.234" r="1.234" transform="translate(7.405 43.441)"/><circle class="b" cx="1.234" cy="1.234" r="1.234" transform="translate(7.405 39.492)"/><circle class="b" cx="1.234" cy="1.234" r="1.234" transform="translate(7.405 35.543)"/><circle class="b" cx="1.234" cy="1.234" r="1.234" transform="translate(7.405 31.594)"/><circle class="b" cx="1.234" cy="1.234" r="1.234" transform="translate(7.405 27.644)"/><circle class="b" cx="1.234" cy="1.234" r="1.234" transform="translate(7.405 23.695)"/><circle class="b" cx="1.234" cy="1.234" r="1.234" transform="translate(7.405 19.746)"/><path class="b" d="M287.266,349.84" transform="translate(-281.095 -317.012)"/><path class="b" d="M287.266,340.666" transform="translate(-281.095 -311.787)"/><path class="b" d="M287.266,331.492" transform="translate(-281.095 -306.563)"/><path class="b" d="M287.266,322.317" transform="translate(-281.095 -301.337)"/><circle class="b" cx="1.234" cy="1.234" r="1.234" transform="translate(0 47.39)"/><circle class="b" cx="1.234" cy="1.234" r="1.234" transform="translate(0 43.441)"/><circle class="b" cx="1.234" cy="1.234" r="1.234" transform="translate(0 39.492)"/><circle class="b" cx="1.234" cy="1.234" r="1.234" transform="translate(0 35.543)"/></g><g transform="translate(369.182 273.694)"><circle class="b" cx="1.234" cy="1.234" r="1.234" transform="translate(88.886 78.963)"/><circle class="b" cx="1.234" cy="1.234" r="1.234" transform="translate(88.886 75.013)"/><circle class="b" cx="1.234" cy="1.234" r="1.234" transform="translate(88.886 71.064)"/><circle class="b" cx="1.234" cy="1.234" r="1.234" transform="translate(88.886 67.115)"/><circle class="b" cx="1.234" cy="1.234" r="1.234" transform="translate(88.886 63.166)"/><circle class="b" cx="1.234" cy="1.234" r="1.234" transform="translate(88.886 59.217)"/><circle class="b" cx="1.234" cy="1.234" r="1.234" transform="translate(88.886 55.267)"/><circle class="b" cx="1.234" cy="1.234" r="1.234" transform="translate(88.886 51.318)"/><circle class="b" cx="1.234" cy="1.234" r="1.234" transform="translate(81.481 78.963)"/><circle class="b" cx="1.234" cy="1.234" r="1.234" transform="translate(81.481 75.013)"/><circle class="b" cx="1.234" cy="1.234" r="1.234" transform="translate(81.481 71.064)"/><circle class="b" cx="1.234" cy="1.234" r="1.234" transform="translate(81.481 67.115)"/><circle class="b" cx="1.234" cy="1.234" r="1.234" transform="translate(81.481 63.166)"/><circle class="b" cx="1.234" cy="1.234" r="1.234" transform="translate(81.481 59.217)"/><circle class="b" cx="1.234" cy="1.234" r="1.234" transform="translate(81.481 55.267)"/><circle class="b" cx="1.234" cy="1.234" r="1.234" transform="translate(81.481 51.318)"/><circle class="b" cx="1.234" cy="1.234" r="1.234" transform="translate(74.077 78.963)"/><circle class="b" cx="1.234" cy="1.234" r="1.234" transform="translate(74.077 75.013)"/><circle class="b" cx="1.234" cy="1.234" r="1.234" transform="translate(74.077 71.064)"/><circle class="b" cx="1.234" cy="1.234" r="1.234" transform="translate(74.077 67.115)"/><circle class="b" cx="1.234" cy="1.234" r="1.234" transform="translate(74.077 63.166)"/><circle class="b" cx="1.234" cy="1.234" r="1.234" transform="translate(74.077 59.217)"/><circle class="b" cx="1.234" cy="1.234" r="1.234" transform="translate(74.077 55.267)"/><circle class="b" cx="1.234" cy="1.234" r="1.234" transform="translate(74.077 51.318)"/><circle class="b" cx="1.234" cy="1.234" r="1.234" transform="translate(66.672 78.963)"/><circle class="b" cx="1.234" cy="1.234" r="1.234" transform="translate(66.672 75.013)"/><circle class="b" cx="1.234" cy="1.234" r="1.234" transform="translate(66.672 71.064)"/><circle class="b" cx="1.234" cy="1.234" r="1.234" transform="translate(66.672 67.115)"/><circle class="b" cx="1.234" cy="1.234" r="1.234" transform="translate(66.672 63.166)"/><circle class="b" cx="1.234" cy="1.234" r="1.234" transform="translate(66.672 59.217)"/><circle class="b" cx="1.234" cy="1.234" r="1.234" transform="translate(66.672 55.267)"/><circle class="b" cx="1.234" cy="1.234" r="1.234" transform="translate(66.672 51.318)"/><circle class="b" cx="1.234" cy="1.234" r="1.234" transform="translate(59.267 78.963)"/><circle class="b" cx="1.234" cy="1.234" r="1.234" transform="translate(59.267 75.013)"/><circle class="b" cx="1.234" cy="1.234" r="1.234" transform="translate(59.267 71.064)"/><circle class="b" cx="1.234" cy="1.234" r="1.234" transform="translate(59.267 67.115)"/><circle class="b" cx="1.234" cy="1.234" r="1.234" transform="translate(59.267 63.166)"/><circle class="b" cx="1.234" cy="1.234" r="1.234" transform="translate(59.267 59.217)"/><circle class="b" cx="1.234" cy="1.234" r="1.234" transform="translate(59.267 55.267)"/><circle class="b" cx="1.234" cy="1.234" r="1.234" transform="translate(59.267 51.318)"/><circle class="b" cx="1.234" cy="1.234" r="1.234" transform="translate(51.862 78.963)"/><circle class="b" cx="1.234" cy="1.234" r="1.234" transform="translate(51.862 75.013)"/><circle class="b" cx="1.234" cy="1.234" r="1.234" transform="translate(51.862 71.064)"/><circle class="b" cx="1.234" cy="1.234" r="1.234" transform="translate(51.862 67.115)"/><circle class="b" cx="1.234" cy="1.234" r="1.234" transform="translate(51.862 63.166)"/><circle class="b" cx="1.234" cy="1.234" r="1.234" transform="translate(51.862 59.217)"/><circle class="b" cx="1.234" cy="1.234" r="1.234" transform="translate(51.862 55.267)"/><circle class="b" cx="1.234" cy="1.234" r="1.234" transform="translate(51.862 51.318)"/><circle class="b" cx="1.234" cy="1.234" r="1.234" transform="translate(44.458 78.963)"/><circle class="b" cx="1.234" cy="1.234" r="1.234" transform="translate(44.458 75.013)"/><circle class="b" cx="1.234" cy="1.234" r="1.234" transform="translate(44.458 71.064)"/><circle class="b" cx="1.234" cy="1.234" r="1.234" transform="translate(44.458 67.115)"/><circle class="b" cx="1.234" cy="1.234" r="1.234" transform="translate(44.458 63.166)"/><circle class="b" cx="1.234" cy="1.234" r="1.234" transform="translate(44.458 59.217)"/><circle class="b" cx="1.234" cy="1.234" r="1.234" transform="translate(44.458 55.267)"/><circle class="b" cx="1.234" cy="1.234" r="1.234" transform="translate(44.458 51.318)"/><circle class="b" cx="1.234" cy="1.234" r="1.234" transform="translate(37.053 78.963)"/><circle class="b" cx="1.234" cy="1.234" r="1.234" transform="translate(37.053 75.013)"/><circle class="b" cx="1.234" cy="1.234" r="1.234" transform="translate(37.053 71.064)"/><circle class="b" cx="1.234" cy="1.234" r="1.234" transform="translate(37.053 67.115)"/><circle class="b" cx="1.234" cy="1.234" r="1.234" transform="translate(37.053 63.166)"/><circle class="b" cx="1.234" cy="1.234" r="1.234" transform="translate(37.053 59.217)"/><circle class="b" cx="1.234" cy="1.234" r="1.234" transform="translate(37.053 55.267)"/><circle class="b" cx="1.234" cy="1.234" r="1.234" transform="translate(37.053 51.318)"/><circle class="b" cx="1.234" cy="1.234" r="1.234" transform="translate(29.648 78.963)"/><circle class="b" cx="1.234" cy="1.234" r="1.234" transform="translate(29.648 75.013)"/><circle class="b" cx="1.234" cy="1.234" r="1.234" transform="translate(29.648 71.064)"/><circle class="b" cx="1.234" cy="1.234" r="1.234" transform="translate(29.648 67.115)"/><circle class="b" cx="1.234" cy="1.234" r="1.234" transform="translate(29.648 63.166)"/><circle class="b" cx="1.234" cy="1.234" r="1.234" transform="translate(29.648 59.217)"/><circle class="b" cx="1.234" cy="1.234" r="1.234" transform="translate(29.648 55.267)"/><circle class="b" cx="1.234" cy="1.234" r="1.234" transform="translate(29.648 51.318)"/><circle class="b" cx="1.234" cy="1.234" r="1.234" transform="translate(22.243 78.963)"/><circle class="b" cx="1.234" cy="1.234" r="1.234" transform="translate(22.243 75.013)"/><circle class="b" cx="1.234" cy="1.234" r="1.234" transform="translate(22.243 71.064)"/><circle class="b" cx="1.234" cy="1.234" r="1.234" transform="translate(22.243 67.115)"/><circle class="b" cx="1.234" cy="1.234" r="1.234" transform="translate(22.243 63.166)"/><circle class="b" cx="1.234" cy="1.234" r="1.234" transform="translate(22.243 59.217)"/><circle class="b" cx="1.234" cy="1.234" r="1.234" transform="translate(22.243 55.267)"/><circle class="b" cx="1.234" cy="1.234" r="1.234" transform="translate(22.243 51.318)"/><circle class="b" cx="1.234" cy="1.234" r="1.234" transform="translate(14.839 78.963)"/><circle class="b" cx="1.234" cy="1.234" r="1.234" transform="translate(14.839 75.013)"/><circle class="b" cx="1.234" cy="1.234" r="1.234" transform="translate(14.839 71.064)"/><circle class="b" cx="1.234" cy="1.234" r="1.234" transform="translate(14.839 67.115)"/><circle class="b" cx="1.234" cy="1.234" r="1.234" transform="translate(14.839 63.166)"/><circle class="b" cx="1.234" cy="1.234" r="1.234" transform="translate(14.839 59.217)"/><circle class="b" cx="1.234" cy="1.234" r="1.234" transform="translate(14.839 55.267)"/><circle class="b" cx="1.234" cy="1.234" r="1.234" transform="translate(14.839 51.318)"/><circle class="b" cx="1.234" cy="1.234" r="1.234" transform="translate(7.434 78.963)"/><circle class="b" cx="1.234" cy="1.234" r="1.234" transform="translate(7.434 75.013)"/><circle class="b" cx="1.234" cy="1.234" r="1.234" transform="translate(7.434 71.064)"/><circle class="b" cx="1.234" cy="1.234" r="1.234" transform="translate(7.434 67.115)"/><circle class="b" cx="1.234" cy="1.234" r="1.234" transform="translate(7.434 63.166)"/><circle class="b" cx="1.234" cy="1.234" r="1.234" transform="translate(7.434 59.217)"/><circle class="b" cx="1.234" cy="1.234" r="1.234" transform="translate(7.434 55.267)"/><circle class="b" cx="1.234" cy="1.234" r="1.234" transform="translate(7.434 51.318)"/><circle class="b" cx="1.234" cy="1.234" r="1.234" transform="translate(0.029 78.963)"/><circle class="b" cx="1.234" cy="1.234" r="1.234" transform="translate(0.029 75.013)"/><circle class="b" cx="1.234" cy="1.234" r="1.234" transform="translate(0.029 71.064)"/><circle class="b" cx="1.234" cy="1.234" r="1.234" transform="translate(0.029 67.115)"/><circle class="b" cx="1.234" cy="1.234" r="1.234" transform="translate(0.029 63.166)"/><circle class="b" cx="1.234" cy="1.234" r="1.234" transform="translate(0.029 59.217)"/><circle class="b" cx="1.234" cy="1.234" r="1.234" transform="translate(0.029 55.267)"/><circle class="b" cx="1.234" cy="1.234" r="1.234" transform="translate(0.029 51.318)"/><circle class="b" cx="1.234" cy="1.234" r="1.234" transform="translate(88.857 47.39)"/><circle class="b" cx="1.234" cy="1.234" r="1.234" transform="translate(88.857 43.441)"/><circle class="b" cx="1.234" cy="1.234" r="1.234" transform="translate(88.857 39.492)"/><circle class="b" cx="1.234" cy="1.234" r="1.234" transform="translate(88.857 35.543)"/><circle class="b" cx="1.234" cy="1.234" r="1.234" transform="translate(88.857 31.594)"/><circle class="b" cx="1.234" cy="1.234" r="1.234" transform="translate(88.857 27.644)"/><circle class="b" cx="1.234" cy="1.234" r="1.234" transform="translate(88.857 23.695)"/><circle class="b" cx="1.234" cy="1.234" r="1.234" transform="translate(88.857 19.746)"/><circle class="b" cx="1.234" cy="1.234" r="1.234" transform="translate(88.857 15.797)"/><circle class="b" cx="1.234" cy="1.234" r="1.234" transform="translate(88.857 11.848)"/><circle class="b" cx="1.234" cy="1.234" r="1.234" transform="translate(88.857 7.898)"/><circle class="b" cx="1.234" cy="1.234" r="1.234" transform="translate(88.857 3.949)"/><circle class="b" cx="1.234" cy="1.234" r="1.234" transform="translate(88.857 0)"/><circle class="b" cx="1.234" cy="1.234" r="1.234" transform="translate(81.452 47.39)"/><circle class="b" cx="1.234" cy="1.234" r="1.234" transform="translate(81.452 43.441)"/><circle class="b" cx="1.234" cy="1.234" r="1.234" transform="translate(81.452 39.492)"/><circle class="b" cx="1.234" cy="1.234" r="1.234" transform="translate(81.452 35.543)"/><circle class="b" cx="1.234" cy="1.234" r="1.234" transform="translate(81.452 31.594)"/><circle class="b" cx="1.234" cy="1.234" r="1.234" transform="translate(81.452 27.644)"/><circle class="b" cx="1.234" cy="1.234" r="1.234" transform="translate(81.452 23.695)"/><circle class="b" cx="1.234" cy="1.234" r="1.234" transform="translate(81.452 19.746)"/><circle class="b" cx="1.234" cy="1.234" r="1.234" transform="translate(81.452 15.797)"/><circle class="b" cx="1.234" cy="1.234" r="1.234" transform="translate(81.452 11.848)"/><circle class="b" cx="1.234" cy="1.234" r="1.234" transform="translate(74.047 47.39)"/><circle class="b" cx="1.234" cy="1.234" r="1.234" transform="translate(74.047 43.441)"/><circle class="b" cx="1.234" cy="1.234" r="1.234" transform="translate(74.047 39.492)"/><circle class="b" cx="1.234" cy="1.234" r="1.234" transform="translate(74.047 35.543)"/><circle class="b" cx="1.234" cy="1.234" r="1.234" transform="translate(74.047 31.594)"/><circle class="b" cx="1.234" cy="1.234" r="1.234" transform="translate(74.047 27.644)"/><circle class="b" cx="1.234" cy="1.234" r="1.234" transform="translate(74.047 23.695)"/><circle class="b" cx="1.234" cy="1.234" r="1.234" transform="translate(74.047 19.746)"/><circle class="b" cx="1.234" cy="1.234" r="1.234" transform="translate(74.047 15.797)"/><circle class="b" cx="1.234" cy="1.234" r="1.234" transform="translate(66.643 47.39)"/><circle class="b" cx="1.234" cy="1.234" r="1.234" transform="translate(66.643 43.441)"/><circle class="b" cx="1.234" cy="1.234" r="1.234" transform="translate(66.643 39.492)"/><circle class="b" cx="1.234" cy="1.234" r="1.234" transform="translate(66.643 35.543)"/><circle class="b" cx="1.234" cy="1.234" r="1.234" transform="translate(66.643 31.594)"/><circle class="b" cx="1.234" cy="1.234" r="1.234" transform="translate(66.643 27.644)"/><circle class="b" cx="1.234" cy="1.234" r="1.234" transform="translate(66.643 23.695)"/><circle class="b" cx="1.234" cy="1.234" r="1.234" transform="translate(59.238 47.39)"/><circle class="b" cx="1.234" cy="1.234" r="1.234" transform="translate(59.238 43.441)"/><circle class="b" cx="1.234" cy="1.234" r="1.234" transform="translate(59.238 39.492)"/><circle class="b" cx="1.234" cy="1.234" r="1.234" transform="translate(59.238 35.543)"/><circle class="b" cx="1.234" cy="1.234" r="1.234" transform="translate(51.833 47.39)"/><circle class="b" cx="1.234" cy="1.234" r="1.234" transform="translate(51.833 43.441)"/><circle class="b" cx="1.234" cy="1.234" r="1.234" transform="translate(51.833 39.492)"/><circle class="b" cx="1.234" cy="1.234" r="1.234" transform="translate(51.833 35.543)"/><circle class="b" cx="1.234" cy="1.234" r="1.234" transform="translate(44.428 47.39)"/><circle class="b" cx="1.234" cy="1.234" r="1.234" transform="translate(37.024 47.39)"/><circle class="b" cx="1.234" cy="1.234" r="1.234" transform="translate(37.024 43.441)"/><circle class="b" cx="1.234" cy="1.234" r="1.234" transform="translate(37.024 39.492)"/><circle class="b" cx="1.234" cy="1.234" r="1.234" transform="translate(37.024 35.543)"/><circle class="b" cx="1.234" cy="1.234" r="1.234" transform="translate(29.619 47.39)"/><circle class="b" cx="1.234" cy="1.234" r="1.234" transform="translate(29.619 43.441)"/><circle class="b" cx="1.234" cy="1.234" r="1.234" transform="translate(29.619 39.492)"/><circle class="b" cx="1.234" cy="1.234" r="1.234" transform="translate(29.619 35.543)"/><circle class="b" cx="1.234" cy="1.234" r="1.234" transform="translate(29.619 31.594)"/><circle class="b" cx="1.234" cy="1.234" r="1.234" transform="translate(29.619 27.644)"/><circle class="b" cx="1.234" cy="1.234" r="1.234" transform="translate(22.214 47.39)"/><circle class="b" cx="1.234" cy="1.234" r="1.234" transform="translate(22.214 43.441)"/><circle class="b" cx="1.234" cy="1.234" r="1.234" transform="translate(22.214 39.492)"/><circle class="b" cx="1.234" cy="1.234" r="1.234" transform="translate(22.214 35.543)"/><circle class="b" cx="1.234" cy="1.234" r="1.234" transform="translate(22.214 31.594)"/><circle class="b" cx="1.234" cy="1.234" r="1.234" transform="translate(22.214 27.644)"/><circle class="b" cx="1.234" cy="1.234" r="1.234" transform="translate(22.214 23.695)"/><circle class="b" cx="1.234" cy="1.234" r="1.234" transform="translate(22.214 19.746)"/><circle class="b" cx="1.234" cy="1.234" r="1.234" transform="translate(22.214 15.797)"/><circle class="b" cx="1.234" cy="1.234" r="1.234" transform="translate(14.809 47.39)"/><circle class="b" cx="1.234" cy="1.234" r="1.234" transform="translate(14.809 43.441)"/><circle class="b" cx="1.234" cy="1.234" r="1.234" transform="translate(14.809 39.492)"/><circle class="b" cx="1.234" cy="1.234" r="1.234" transform="translate(14.809 35.543)"/><circle class="b" cx="1.234" cy="1.234" r="1.234" transform="translate(14.809 31.594)"/><circle class="b" cx="1.234" cy="1.234" r="1.234" transform="translate(14.809 27.644)"/><circle class="b" cx="1.234" cy="1.234" r="1.234" transform="translate(14.809 23.695)"/><circle class="b" cx="1.234" cy="1.234" r="1.234" transform="translate(14.809 19.746)"/><circle class="b" cx="1.234" cy="1.234" r="1.234" transform="translate(14.809 15.797)"/><circle class="b" cx="1.234" cy="1.234" r="1.234" transform="translate(14.809 11.848)"/><circle class="b" cx="1.234" cy="1.234" r="1.234" transform="translate(14.809 7.898)"/><circle class="b" cx="1.234" cy="1.234" r="1.234" transform="translate(14.809 3.949)"/><circle class="b" cx="1.234" cy="1.234" r="1.234" transform="translate(14.809 0)"/><circle class="b" cx="1.234" cy="1.234" r="1.234" transform="translate(7.405 47.39)"/><circle class="b" cx="1.234" cy="1.234" r="1.234" transform="translate(7.405 43.441)"/><circle class="b" cx="1.234" cy="1.234" r="1.234" transform="translate(7.405 39.492)"/><circle class="b" cx="1.234" cy="1.234" r="1.234" transform="translate(7.405 35.543)"/><circle class="b" cx="1.234" cy="1.234" r="1.234" transform="translate(7.405 31.594)"/><circle class="b" cx="1.234" cy="1.234" r="1.234" transform="translate(7.405 27.644)"/><circle class="b" cx="1.234" cy="1.234" r="1.234" transform="translate(7.405 23.695)"/><circle class="b" cx="1.234" cy="1.234" r="1.234" transform="translate(7.405 19.746)"/><path class="b" d="M510.862,350.107" transform="translate(-504.691 -317.279)"/><path class="b" d="M510.862,340.933" transform="translate(-504.691 -312.054)"/><path class="b" d="M510.862,331.758" transform="translate(-504.691 -306.829)"/><path class="b" d="M510.862,322.584" transform="translate(-504.691 -301.604)"/><circle class="b" cx="1.234" cy="1.234" r="1.234" transform="translate(0 47.39)"/><circle class="b" cx="1.234" cy="1.234" r="1.234" transform="translate(0 43.441)"/><circle class="b" cx="1.234" cy="1.234" r="1.234" transform="translate(0 39.492)"/><circle class="b" cx="1.234" cy="1.234" r="1.234" transform="translate(0 35.543)"/></g></g></svg>