<svg xmlns="http://www.w3.org/2000/svg" width="287" height="64"><rect id="backgroundrect" width="100%" height="100%" x="0" y="0" fill="none" stroke="none"/><defs><style>.a{fill:#fff;}.b,.d{fill:#231f20;}.b{font-size:20px;font-family:P22MackinacProExtraBold, P22 Mackinac Pro;}.c,.d{stroke:none;}</style></defs><g class="currentLayer" style=""><title>Layer 1</title><g id="svg_1" class=""><g class="a" id="svg_2"><path class="c" d="M255,63.5 L141.94189453125,63.5 L32,63.5 C27.74732208251953,63.5 23.622106552124023,62.667213439941406 19.738927841186523,61.024784088134766 C15.98799991607666,59.43825149536133 12.619214057922363,57.166927337646484 9.726142883300781,54.27385711669922 C6.833071231842041,51.38078689575195 4.5617499351501465,48.012001037597656 2.9752142429351807,44.261070251464844 C1.332785725593567,40.377891540527344 0.5,36.25267791748047 0.5,32 C0.5,27.74732208251953 1.332785725593567,23.622106552124023 2.9752142429351807,19.738927841186523 C4.5617499351501465,15.98799991607666 6.833071231842041,12.619214057922363 9.726142883300781,9.726142883300781 C12.619214057922363,6.833071231842041 15.98799991607666,4.5617499351501465 19.738927841186523,2.9752142429351807 C23.622106552124023,1.3327857255935671 27.74732208251953,0.5 32,0.5 L255,0.5 C259.252685546875,0.5 263.3778991699219,1.3327857255935671 267.2610778808594,2.9752142429351807 C271.0119934082031,4.5617499351501465 274.3807983398438,6.833071231842041 277.2738647460938,9.726142883300781 C280.1669311523438,12.619214057922363 282.4382629394531,15.98799991607666 284.0247802734375,19.738927841186523 C285.6672058105469,23.622106552124023 286.5,27.74732208251953 286.5,32 C286.5,36.25267791748047 285.6672058105469,40.377891540527344 284.0247802734375,44.261070251464844 C282.4382629394531,48.012001037597656 280.1669311523438,51.38078689575195 277.2738647460938,54.27385711669922 C274.3807983398438,57.166927337646484 271.0119934082031,59.43825149536133 267.2610778808594,61.024784088134766 C263.3778991699219,62.667213439941406 259.252685546875,63.5 255,63.5 z" id="svg_3"/><path class="d" d="M32,1 C27.8145751953125,1 23.7548828125,1.8194999694824219 19.9337158203125,3.4357147216796875 C16.24237060546875,4.997035980224609 12.927001953125,7.232391357421875 10.079681396484375,10.07967758178711 C7.232391357421875,12.926998138427734 4.997039794921875,16.242355346679688 3.435699462890625,19.9337158203125 C1.819488525390625,23.754894256591797 1,27.814571380615234 1,32 C1,36.185428619384766 1.819488525390625,40.24510955810547 3.435699462890625,44.0662841796875 C4.997039794921875,47.75764465332031 7.232391357421875,51.072998046875 10.079681396484375,53.92032241821289 C12.927001953125,56.767608642578125 16.24237060546875,59.00296401977539 19.9337158203125,60.56428527832031 C23.7548828125,62.18050003051758 27.8145751953125,63 32,63 L141.94189453125,63 L255,63 C259.1854248046875,63 263.2451171875,62.18050003051758 267.0662841796875,60.56428527832031 C270.7576293945312,59.00296401977539 274.072998046875,56.767608642578125 276.9203186035156,53.92032241821289 C279.7676086425781,51.072998046875 282.0029602050781,47.75764465332031 283.5643005371094,44.0662841796875 C285.1805114746094,40.24510955810547 286,36.185428619384766 286,32 C286,27.814571380615234 285.1805114746094,23.754894256591797 283.5643005371094,19.9337158203125 C282.0029602050781,16.242355346679688 279.7676086425781,12.926998138427734 276.9203186035156,10.07967758178711 C274.072998046875,7.232391357421875 270.7576293945312,4.997035980224609 267.0662841796875,3.4357147216796875 C263.2451171875,1.8194999694824219 259.1854248046875,1 255,1 L32,1 M32,0 L255,0 C272.673095703125,0 287,14.326892852783203 287,32 C287,49.6731071472168 272.673095703125,64 255,64 L141.94189453125,64 L32,64 C14.326904296875,64 0,49.6731071472168 0,32 C0,14.326892852783203 14.326904296875,0 32,0 z" id="svg_4"/></g><text class="b" y="22" x="-119" id="svg_5"><tspan x="98.13999999999999" y="37" id="svg_6">Hit us up</tspan></text></g></g></svg>