<svg xmlns="http://www.w3.org/2000/svg" xmlns:xlink="http://www.w3.org/1999/xlink" width="9.234" height="132.611" viewBox="0 0 9.234 132.611"><defs><style>.a,.c,.e{fill:none;}.b{clip-path:url(#a);}.c,.e{stroke:#2b2e34;}.c{stroke-width:2px;}.d{fill:#2b2e34;}.e{stroke-miterlimit:10;stroke-width:0.8px;}</style><clipPath id="a"><path class="a" d="M0,0H9.234V-132.611H0Z"/></clipPath></defs><g transform="translate(0 132.611)"><g class="b"><g transform="translate(7.533 -132.611)"><path class="c" d="M0,0V109.808"/></g><g transform="translate(8.834 -21.999)"><path class="d" d="M0,0A1.406,1.406,0,0,0-1.4-1.4,1.406,1.406,0,0,0-2.809,0,1.407,1.407,0,0,0-1.7,1.373v16.5A3.12,3.12,0,0,1-4.68,21.013a3.082,3.082,0,0,1-3.142-2.664.181.181,0,0,1,.291-.164l.354.274-1.257-4.408V17.86A3.713,3.713,0,0,0-4.884,21.6a3.666,3.666,0,0,0,3.772-3.66V1.373A1.406,1.406,0,0,0,0,0M-1.4.819A.819.819,0,0,1-2.223,0,.819.819,0,0,1-1.4-.819.82.82,0,0,1-.585,0,.82.82,0,0,1-1.4.819"/></g><g transform="translate(8.834 -21.999)"><path class="e" d="M0,0A1.406,1.406,0,0,0-1.4-1.4,1.406,1.406,0,0,0-2.809,0,1.407,1.407,0,0,0-1.7,1.373v16.5A3.12,3.12,0,0,1-4.68,21.013a3.082,3.082,0,0,1-3.142-2.664.181.181,0,0,1,.291-.164l.354.274-1.257-4.408V17.86A3.713,3.713,0,0,0-4.884,21.6a3.666,3.666,0,0,0,3.772-3.66V1.373A1.406,1.406,0,0,0,0,0ZM-1.4.819A.819.819,0,0,1-2.223,0,.819.819,0,0,1-1.4-.819.82.82,0,0,1-.585,0,.82.82,0,0,1-1.4.819Z"/></g></g></g></svg>