<svg xmlns="http://www.w3.org/2000/svg" width="671.563" height="674.239" viewBox="0 0 671.563 674.239"><defs><style>.a{opacity:0.043;}.b{fill:#fff;}</style></defs><g class="a" transform="translate(-894.918 -885.117)"><g transform="translate(894.919 885.117)"><path class="b" d="M1336.157,1104.3c-13.362,12.451-25.895,24.531-39.027,35.919-1.84,1.6-7.684,1.144-9.858-.61a191.231,191.231,0,0,0-99.378-41.978c-51.855-6.255-98.981,6.516-139.93,37.859-42.8,32.768-68,76.968-73.316,131.183-7.174,73.107,18.52,133.5,77.287,176.6,68.1,49.948,159.274,49.534,227.647-1.783,63.038-47.3,91.878-129.028,70.456-204a218.84,218.84,0,0,0-15.5-38.522c-1.687-3.328-9.042-3.776-13.8-5.549-.767,4.5-2.526,9.1-2.017,13.448.482,4.128,3.418,7.947,5.134,11.965,25.971,60.688,19.455,119.06-19.072,171.268-44.481,60.274-116.605,86.935-189.888,63.744-67.562-21.384-109.183-68.759-121.22-138.013-12.6-72.463,20.527-140.059,85.086-178.19,59.649-35.228,135.506-30.642,192.343,12.985,6.312,4.843,8.281,8.676,1.368,15.026-11.088,10.187-21.6,21.037-31.952,31.991-4.586,4.858-8.047,5.749-14.044,1.725-27.462-18.4-56.989-23.754-89.624-15.478-73.984,18.763-109.622,113.259-51.15,177.875,52.69,58.224,149.483,39.733,179.182-32.758a103.435,103.435,0,0,0,2.846-72.229c-.968-3.032-6.6-6.354-9.977-6.255-2.4.072-5.487,5.392-6.655,8.905-.881,2.655.582,6.211,1.363,9.271,8.314,32.516-2.059,60.98-24.617,82.77-41.868,40.453-98.906,32.649-132.279-7.47-27.92-33.564-27.7-81.735,3.547-116.414,28.282-31.391,73.884-39.333,111.653-16.3,6.95,4.238,9.476,8.018,1.8,14.282-5.149,4.2-9.024,9.92-13.91,14.482-10.878,10.154-19.4,23.211-38.489,20.045-11.059-1.835-20.779,8.872-23.325,20.031-2.86,12.532.267,24.426,11.436,29.932,7.956,3.918,19.474,4.92,27.954,2.383,11.284-3.375,17.733-14.273,15.535-26.519-1.854-10.363,2.956-16.455,9.206-22.628,8.714-8.6,17.676-16.962,26.347-25.613,48.008-47.922,95.831-96.031,144.159-143.629,4.171-4.114,11.913-7.665,17.342-6.893,20.77,2.96,41.344,7.47,61.832,12.084,8.628,1.94,14.773.448,21.17-6.1,29.384-30.08,59.425-59.525,88.819-89.606,3.408-3.489,6.826-10.354,5.572-14.086-1.277-3.795-8.027-7.036-12.9-8.1-19.378-4.237-38.913-7.841-58.5-11.016-8.266-1.34-12.409-4.748-13.739-13.376-3.017-19.6-6.674-39.113-10.821-58.5-1.058-4.953-4.253-12.427-7.661-13.157-4.524-.968-11.479,2.255-15.217,5.9-29.8,29.1-58.881,58.939-88.694,88.027-7.337,7.16-8.123,14.039-5.94,23.43,4.676,20.069,8.1,40.424,12.213,60.631,2.2,10.778-5.868,16.151-12.356,21.2-2.078,1.616-9.706-1.774-13.391-4.662-39.461-30.919-83.222-52.694-133.133-59.225-81.549-10.673-155.132,8.228-218.232,62.8-53.471,46.234-84.643,104.7-91.34,174.691-10.035,104.845,27.405,191.023,113.349,251.625,75.347,53.123,159.551,63.082,247.2,32.434,57.633-20.15,102.885-56.674,135.545-108.229,37.959-59.921,50.549-125.181,38.388-194.994-6.406-36.773-20.86-70.585-41.2-101.761-1.644-2.522-8.376-3.261-12.07-2.288-1.964.52-4.271,7.122-3.3,9.892,2.312,6.626,6.378,12.656,9.9,18.839,29.855,52.446,39.518,108.878,29.107,167.808-11.407,64.55-43.756,117.6-96.274,157.405-57.366,43.484-122.444,59.3-193.1,48.371-50.077-7.746-93.9-30.3-131.106-65.15-45.529-42.641-73.426-95.163-78.831-156.848-9.071-103.434,30.828-185.812,118.769-241.257,78.984-49.8,162.378-51.135,246.239-10.6C1299.39,1073.13,1318.339,1085.3,1336.157,1104.3Z" transform="translate(-894.918 -885.117)"/><path d="M1336.157,1104.3c-17.819-19-36.768-31.167-57.037-40.963-83.861-40.538-167.255-39.2-246.239,10.6-87.941,55.445-127.841,137.824-118.769,241.257,5.406,61.685,33.3,114.207,78.831,156.848,37.2,34.846,81.029,57.4,131.106,65.15,70.657,10.93,135.735-4.887,193.1-48.371,52.518-39.809,84.867-92.856,96.274-157.405,10.411-58.929.748-115.362-29.107-167.808-3.518-6.183-7.584-12.213-9.9-18.839-.968-2.77,1.339-9.372,3.3-9.892,3.694-.972,10.426-.234,12.07,2.288,20.336,31.176,34.79,64.988,41.2,101.761,12.161,69.813-.429,135.073-38.388,194.994-32.659,51.555-77.912,88.079-135.545,108.229-87.651,30.647-171.855,20.689-247.2-32.434-85.944-60.6-123.384-146.78-113.349-251.625,6.7-69.994,37.869-128.456,91.34-174.691,63.1-54.568,136.684-73.469,218.232-62.8,49.911,6.531,93.672,28.306,133.133,59.225,3.685,2.889,11.312,6.278,13.391,4.662,6.488-5.053,14.554-10.426,12.356-21.2-4.113-20.207-7.536-40.562-12.213-60.631-2.183-9.391-1.4-16.27,5.94-23.43,29.813-29.088,58.891-58.93,88.694-88.027,3.737-3.647,10.693-6.869,15.217-5.9,3.408.73,6.6,8.2,7.661,13.157,4.147,19.387,7.8,38.9,10.821,58.5,1.329,8.628,5.472,12.037,13.739,13.376,19.582,3.175,39.118,6.779,58.5,11.016,4.877,1.063,11.627,4.3,12.9,8.1,1.254,3.733-2.164,10.6-5.572,14.086-29.394,30.08-59.435,59.525-88.819,89.606-6.4,6.545-12.542,8.037-21.17,6.1-20.489-4.615-41.062-9.124-61.832-12.084-5.43-.772-13.171,2.779-17.342,6.893-48.328,47.6-96.151,95.707-144.159,143.629-8.671,8.652-17.633,17.009-26.347,25.613-6.25,6.173-11.06,12.266-9.206,22.628,2.2,12.247-4.251,23.144-15.535,26.519-8.48,2.536-20,1.535-27.954-2.383-11.169-5.506-14.3-17.4-11.436-29.932,2.546-11.16,12.266-21.867,23.325-20.031,19.092,3.166,27.61-9.891,38.489-20.045,4.886-4.562,8.762-10.282,13.91-14.482,7.674-6.264,5.148-10.044-1.8-14.282-37.769-23.029-83.37-15.087-111.653,16.3-31.243,34.679-31.467,82.85-3.547,116.414,33.374,40.119,90.411,47.923,132.279,7.47,22.557-21.79,32.93-50.253,24.617-82.77-.782-3.06-2.245-6.617-1.363-9.271,1.168-3.513,4.257-8.833,6.655-8.905,3.375-.1,9.009,3.223,9.977,6.255a103.435,103.435,0,0,1-2.846,72.229c-29.7,72.491-126.492,90.982-179.182,32.758-58.472-64.616-22.833-159.112,51.15-177.875,32.635-8.276,62.161-2.927,89.624,15.478,6,4.023,9.458,3.132,14.044-1.725,10.349-10.954,20.865-21.8,31.952-31.991,6.913-6.35,4.944-10.183-1.368-15.026-56.837-43.627-132.694-48.213-192.343-12.985-64.559,38.131-97.685,105.727-85.086,178.19,12.037,69.255,53.658,116.629,121.22,138.013,73.283,23.191,145.407-3.47,189.888-63.744,38.527-52.208,45.043-110.58,19.072-171.268-1.716-4.018-4.652-7.837-5.134-11.965-.51-4.348,1.25-8.953,2.017-13.448,4.758,1.773,12.113,2.222,13.8,5.549a218.84,218.84,0,0,1,15.5,38.522c21.422,74.975-7.418,156.7-70.456,204-68.373,51.317-159.546,51.731-227.647,1.783-58.768-43.1-84.461-103.491-77.287-176.6,5.315-54.215,30.513-98.415,73.316-131.183,40.949-31.343,88.075-44.113,139.93-37.859a191.231,191.231,0,0,1,99.378,41.978c2.174,1.754,8.018,2.207,9.858.61C1310.263,1128.827,1322.8,1116.748,1336.157,1104.3ZM1454,913.912c-3.313,1.464-5.02,1.735-6,2.722-23.773,23.9-47.736,47.622-70.913,72.091-3.637,3.842-5.692,11.4-4.967,16.765a458.45,458.45,0,0,0,10.178,52.556c1.163,4.543,6.96,9.973,11.617,11.174,16.489,4.267,33.454,6.674,50.149,10.211,8.59,1.816,14.844-.32,21.127-6.783,22.4-23.034,45.434-45.453,68.129-68.2,1.454-1.454,2.084-3.733,3.933-7.184-18.271-3.7-35.1-8.333-52.236-10.206-13.576-1.488-19.02-6.86-20.593-20.427C1462.4,949.2,1457.715,932.075,1454,913.912Z" transform="translate(-894.918 -885.117)"/><path class="b" d="M1077.02,891.158c3.718,18.162,8.4,35.285,10.421,52.718,1.573,13.567,7.017,18.939,20.593,20.427,17.132,1.873,33.965,6.5,52.236,10.206-1.849,3.451-2.478,5.73-3.933,7.184-22.7,22.748-45.729,45.167-68.129,68.2-6.283,6.464-12.537,8.6-21.127,6.784-16.694-3.537-33.66-5.945-50.149-10.211-4.657-1.2-10.455-6.631-11.617-11.174a458.556,458.556,0,0,1-10.178-52.556c-.725-5.368,1.33-12.923,4.967-16.766,23.177-24.469,47.141-48.194,70.914-72.091C1072,892.893,1073.707,892.622,1077.02,891.158Z" transform="translate(-517.941 -862.363)"/></g></g></svg>