<svg xmlns="http://www.w3.org/2000/svg" xmlns:xlink="http://www.w3.org/1999/xlink" width="49" height="50.065" viewBox="0 0 49 50.065"><defs><style>.a{fill:none;}.b{clip-path:url(#a);}.c{fill:#4db9e6;}</style><clipPath id="a"><path class="a" d="M0-5.068H49V-55.133H0Z" transform="translate(0 55.133)"/></clipPath></defs><g transform="translate(0 55.133)"><g class="b" transform="translate(0 -55.133)"><g transform="translate(8.173 6.357)"><path class="c" d="M-3.3-2.733c-.489,1.469-4.414,5.2-6.227,2.6C-8.266-1.314-6.2-2.339-4.719-1.944c-.788-.789-2.523-2.523-7.174-.473l-.024.013a1.751,1.751,0,0,0-.2-.033c-1.355-.149-4.656-.787-7.114,2.938l-.046.071a.187.187,0,0,0-.156-.1c-.343-.019-.734-.054-.828-.264a.515.515,0,0,0-.091-.145l.34-.272c.339-.324.209-.9.331-1.331a.424.424,0,0,0,0-.223.172.172,0,0,0,.019-.017.574.574,0,0,1,.04-.042c.2-.188.9.019,1.77-.685.951-.772,2.1-2.64,3.008-7.33a.114.114,0,0,1,.016-.041,10.905,10.905,0,0,1,2.992-2.909.112.112,0,0,0-.117-.19c-.391.218-.746.43-1.043.617a.112.112,0,0,1-.137-.175c1.371-1.317,4.1-3.817,5.763-4.5a28.99,28.99,0,0,0-6.2,4.328.111.111,0,0,1-.171-.139,46.851,46.851,0,0,0,2.477-5.339.112.112,0,0,0-.2-.092c-.9,1.828-2.045,4.077-2.924,5.464a.112.112,0,0,1-.2-.1,23.118,23.118,0,0,0,1.028-3.539.112.112,0,0,0-.218-.051,17.889,17.889,0,0,1-2.083,5.274.113.113,0,0,1-.054.038c-1.652.548-3.764.945-5.644,2.356a9.528,9.528,0,0,0-1.509,1.4,6.67,6.67,0,0,0-1,1.486.1.1,0,0,0-.01.046c0,.046,0,.094,0,.142a.737.737,0,0,0-.563.069,1.707,1.707,0,0,0-.64.595.54.54,0,0,1-.04.061l-.385.52a.887.887,0,0,0-.312-.1.673.673,0,0,1-.361-.18,1.124,1.124,0,0,1-.261-.377.14.14,0,0,0-.047-.057.986.986,0,0,0,.032-.123c.159-.829,2.91-2.721,3.873-5.557a8.479,8.479,0,0,0,.25-4.254,4.443,4.443,0,0,0-.627-1.583,2.275,2.275,0,0,0,.371-.647c.654-1.755,2.268-7.266-1.8-10.483.63,1.5,1.5,4.254-1.887,7.8q-.046-.06-.09-.123c-1-1.472-3.2-3.285,3-9.489-1.281,0-8.909-1.506-12.062,13.322-1.96,9.217,6.694,11.784,7,11.85a7.985,7.985,0,0,1,1.247.664,1.137,1.137,0,0,1,.39.476.56.56,0,0,0,.233.279L-27-2.756c0,.006-.007.014-.012.021A7.072,7.072,0,0,0-28.556.419a6.585,6.585,0,0,0,.265,2.291.655.655,0,0,0,.109.233.166.166,0,0,0-.064.13l0,.053a7.129,7.129,0,0,0-.205,2.056c.069.643.82,1.106,1.22,1.5a.17.17,0,0,0,.089.047l.035.005a.141.141,0,0,0,.012.068.358.358,0,0,1,.027.093c.069.514-.136.662.21,1.324.243.463.589.459.951.712l0-.006A.263.263,0,0,0-25.853,9a1.691,1.691,0,0,1,.153.176c.473.63.245,3,1.892,3.706,1.235.532,1.545-.265,1.622-.7a.264.264,0,0,1,.282-.214,2.168,2.168,0,0,0,1.644-.508c.341-.317.167-.92.061-1.2a.265.265,0,0,1,.04-.26A1.369,1.369,0,0,0-20.5,7.84c-1.165-.8-2.743-.264-3.474-.726l-.019-.01.014-.01a.942.942,0,0,1-.256-.588c-.008-.069-.015-.133-.021-.193a.1.1,0,0,0,0-.023.167.167,0,0,0,.07-.136c-.006-.645.235-.623.669-1.214a1.858,1.858,0,0,0,.327-1.25.167.167,0,0,0-.035-.1.634.634,0,0,0,.129-.253,1.5,1.5,0,0,1,.41-.706c.651-.674.828-1.456,1.247-1.707A.387.387,0,0,0-21.32.99a.351.351,0,0,1,.051.023,4.677,4.677,0,0,1,1.394,1.463.1.1,0,0,0,.1.047,2.347,2.347,0,0,0,.155.645A5.281,5.281,0,0,0-15.846,5.7c1.813.237,13.44-.444,12.545-8.43" transform="translate(35.906 29.737)"/></g></g></g></svg>