<svg xmlns="http://www.w3.org/2000/svg" xmlns:xlink="http://www.w3.org/1999/xlink" width="153" height="43.56" viewBox="0 0 153 43.56"><defs><style>.a{fill:none;}.b{clip-path:url(#a);}.c{fill:#38cae5;}.d{fill:#2b2e34;}</style><clipPath id="a"><path class="a" d="M0,0H153V-43.56H0Z"/></clipPath></defs><g class="b" transform="translate(0 43.56)"><g transform="translate(33.183 -16.077)"><path class="c" d="M0,0C-.5,1.5-4.492,5.3-6.338,2.649-5.054,1.445-2.954.4-1.443.8c-.8-.8-2.568-2.568-7.3-.481l-.023.012C-8.834.32-8.9.309-8.967.3c-1.38-.152-4.739-.8-7.24,2.99,0,0-.018.026-.048.072a.192.192,0,0,0-.159-.1c-.349-.019-.746-.055-.842-.268a.511.511,0,0,0-.093-.148L-17,2.568c.345-.329.213-.919.337-1.355a.427.427,0,0,0,0-.227.107.107,0,0,0,.019-.018c.013-.014.026-.028.041-.042.207-.191.92.019,1.8-.7.967-.785,2.136-2.687,3.06-7.46a.132.132,0,0,1,.017-.041,11.077,11.077,0,0,1,3.045-2.961.113.113,0,0,0-.119-.193c-.4.222-.759.438-1.062.629A.114.114,0,0,1-10-9.976c1.395-1.34,4.175-3.884,5.865-4.584a29.523,29.523,0,0,0-6.311,4.405.114.114,0,0,1-.174-.142A47.726,47.726,0,0,0-8.1-15.73a.114.114,0,0,0-.208-.093c-.912,1.861-2.081,4.15-2.976,5.56a.114.114,0,0,1-.2-.1,23.475,23.475,0,0,0,1.047-3.6.114.114,0,0,0-.221-.052,18.248,18.248,0,0,1-2.121,5.367.116.116,0,0,1-.055.04c-1.681.556-3.83.961-5.743,2.4a9.676,9.676,0,0,0-1.536,1.428,6.857,6.857,0,0,0-1.019,1.512.11.11,0,0,0-.01.047c0,.048,0,.1,0,.145a.749.749,0,0,0-.572.07,1.739,1.739,0,0,0-.652.605.438.438,0,0,1-.04.062l-.393.529a.948.948,0,0,0-.317-.105.683.683,0,0,1-.367-.182,1.143,1.143,0,0,1-.265-.384.155.155,0,0,0-.048-.059,1.04,1.04,0,0,0,.032-.125c.162-.844,2.962-2.769,3.941-5.655a8.626,8.626,0,0,0,.255-4.33,4.513,4.513,0,0,0-.639-1.611,2.311,2.311,0,0,0,.378-.658c.666-1.786,2.309-7.395-1.832-10.668.641,1.522,1.522,4.329-1.921,7.937-.031-.041-.062-.083-.091-.125-1.017-1.5-3.259-3.344,3.054-9.658-1.3,0-9.068-1.532-12.276,13.559C-34.884-4.5-26.077-1.888-25.763-1.82a8.092,8.092,0,0,1,1.269.675,1.163,1.163,0,0,1,.4.484.572.572,0,0,0,.237.284l-.263.354A.225.225,0,0,0-24.136,0,7.2,7.2,0,0,0-25.7,3.209a6.7,6.7,0,0,0,.269,2.332.661.661,0,0,0,.111.237.172.172,0,0,0-.065.133c0,.017,0,.035,0,.053A7.236,7.236,0,0,0-25.6,8.056c.07.655.834,1.126,1.242,1.531a.161.161,0,0,0,.091.047l.035.006a.142.142,0,0,0,.012.069.349.349,0,0,1,.027.1c.071.523-.138.674.214,1.347.247.472.6.467.967.724l0-.006a.269.269,0,0,0,.054.077,1.664,1.664,0,0,1,.155.179c.481.642.249,3.05,1.926,3.772,1.257.541,1.572-.27,1.651-.71a.269.269,0,0,1,.287-.219,2.206,2.206,0,0,0,1.673-.516c.347-.323.17-.937.062-1.218a.27.27,0,0,1,.04-.264,1.393,1.393,0,0,0-.344-2.209c-1.185-.811-2.792-.268-3.535-.738l-.019-.011.014-.009a.956.956,0,0,1-.262-.6c-.008-.07-.015-.135-.02-.2,0-.008,0-.016,0-.023a.173.173,0,0,0,.071-.139c-.007-.656.239-.634.681-1.235a1.894,1.894,0,0,0,.333-1.272.168.168,0,0,0-.037-.105.64.64,0,0,0,.132-.258,1.528,1.528,0,0,1,.417-.719c.662-.685.842-1.481,1.268-1.737a.4.4,0,0,0,.123.07.473.473,0,0,1,.053.023A4.791,4.791,0,0,1-16.869,5.3a.1.1,0,0,0,.1.048,2.367,2.367,0,0,0,.159.656A5.373,5.373,0,0,0-12.767,8.58C-10.922,8.821.911,8.128,0,0"/></g><g transform="translate(141.119 -13.077)"><path class="d" d="M0,0A4.233,4.233,0,0,1,.189-.7C.8-2.141,1.394-3.6,2.072-5.011c1.759-3.665,3.561-7.308,5.34-10.963a17.151,17.151,0,0,0,.707-1.6,6.933,6.933,0,0,0,.324-1.314c.039-.25.118-.327.366-.334A3.1,3.1,0,0,1,11.761-17.4a2.02,2.02,0,0,1,.114.461.646.646,0,0,1-.165.5,17.2,17.2,0,0,0-1.051,1.511A89.2,89.2,0,0,0,5.68-5.044,49.174,49.174,0,0,0,3.3,1.285c-.126.444-.218.9-.319,1.348-.025.11-.042.186-.188.189A3.079,3.079,0,0,1,0,0"/></g><g transform="translate(136.396 -22.868)"><path class="d" d="M0,0A5.123,5.123,0,0,1,1.851-.537a3.871,3.871,0,0,1,1.782.26A2.59,2.59,0,0,1,5.252,2.217a9.108,9.108,0,0,1-.929,4.211A11.409,11.409,0,0,1,0,11.479a6.8,6.8,0,0,1-3.634,1.112,4.094,4.094,0,0,1-4.028-3.07A6.742,6.742,0,0,1-7.525,5.7,11.438,11.438,0,0,1-3.907.069,4.449,4.449,0,0,1-1.82-.993,1.464,1.464,0,0,1-.083-.141C-.061-.1-.036-.061,0,0M-2.956,3.458c-.053.066-.11.129-.158.2a8.114,8.114,0,0,0-1.3,3.434,3.553,3.553,0,0,0,.123,1.887,1.165,1.165,0,0,0,1.165.789,3.04,3.04,0,0,0,1.967-.823A10.368,10.368,0,0,0,1.916,4.376a3.883,3.883,0,0,0,.24-1.761.965.965,0,0,0-1.3-.933,2,2,0,0,0-.971.536A4.65,4.65,0,0,0-1.25,4.238,6.751,6.751,0,0,0-1.6,6.362a.955.955,0,0,1-.679-.387,2.759,2.759,0,0,1-.682-2.517"/></g><g transform="translate(124.606 -10.257)"><path class="d" d="M0,0A2.9,2.9,0,0,1-2.275-1.159a2.353,2.353,0,0,1-.6-1.357,2.177,2.177,0,0,1,.137-.907C-2.165-4.814-1.6-6.209-.956-7.57c.973-2.071,2-4.114,3.008-6.169.035-.071.068-.143.113-.239-.51.036-1,.077-1.489.1-.382.02-.765.038-1.147.025a1.384,1.384,0,0,1-1.406-1.438A4.026,4.026,0,0,1-.9-17.879a5.719,5.719,0,0,1,.672-.676,2.03,2.03,0,0,1,.329-.2c.592,1.364,1.784,1.712,3.07,1.9.4.057.4.047.573-.316.483-1.032.957-2.069,1.441-3.1A4.053,4.053,0,0,0,5.558-21.8c.01-.162.071-.223.231-.229a3.083,3.083,0,0,1,2.947,1.556,1.766,1.766,0,0,1,.2.485.857.857,0,0,1-.172.791c-.535.71-1.01,1.465-1.509,2.2.018.022.036.045.055.067.4-.046.8-.082,1.2-.141,2.083-.3,4.163-.63,6.248-.917a14.962,14.962,0,0,1,3.531-.165,5.62,5.62,0,0,1,.94.164,2.182,2.182,0,0,1,1.59,1.824,3.488,3.488,0,0,1-2.234,3.932c-.06.02-.122.035-.191.054-.657-1.432-1.971-1.848-3.344-2.139a18.02,18.02,0,0,0-4.5-.311c-1.49.062-2.978.168-4.466.263a.361.361,0,0,0-.264.137A83.477,83.477,0,0,0,.633-2.311C.388-1.564.215-.793,0,0"/></g><g transform="translate(122.475 -23.083)"><path class="d" d="M0,0A2.919,2.919,0,0,0-1.365,2.411c-.072,1.274-.124,2.549-.195,3.823a12.327,12.327,0,0,1-.668,3.849,3.924,3.924,0,0,1-2.121,2.378,3.948,3.948,0,0,1-3.011.078A2.941,2.941,0,0,1-9,8.79,3.686,3.686,0,0,1-7.813,7.028,1.227,1.227,0,0,1-7.449,6.8a.408.408,0,0,1,.329.015.439.439,0,0,1,.092.314,7.758,7.758,0,0,0-.04.923A.87.87,0,0,0-6,8.907,1.567,1.567,0,0,0-4.574,7.364,9.9,9.9,0,0,0-4.7,4.981,11.841,11.841,0,0,1-4.91,2.055,3.215,3.215,0,0,1-1.519-.961,1.719,1.719,0,0,1,0,0"/></g><g transform="translate(111.981 -23.922)"><path class="d" d="M0,0A3.058,3.058,0,0,1,3.316,1.872a1.006,1.006,0,0,1-.127.947,30.364,30.364,0,0,0-3.3,6.64c-.507,1.374-.941,2.774-1.421,4.2a2.3,2.3,0,0,1-1.05-.224,2.892,2.892,0,0,1-1.8-2.353,2.736,2.736,0,0,1,.233-1.3c.558-1.311,1.171-2.6,1.771-3.892C-1.694,4.405-.977,2.929-.308,1.431A6.316,6.316,0,0,0-.026.2C-.011.136-.008.065,0,0"/></g><g transform="translate(118.602 -28.154)"><path class="d" d="M0,0A3.072,3.072,0,0,0,1.039-.864,6.12,6.12,0,0,0,2.4-4.619,3.891,3.891,0,0,0,.676-7.969,6.98,6.98,0,0,0-2.638-9.252a17.062,17.062,0,0,0-13.94,4.314A10.7,10.7,0,0,0-19.692-.382,8.343,8.343,0,0,0-20.1,1.551a1.76,1.76,0,0,0,1.762,2.076,4.819,4.819,0,0,0,3.361-1,12.983,12.983,0,0,0,3.44-3.689c.581-.886,1.1-1.813,1.619-2.737a7.492,7.492,0,0,0,.395-1c.115-.3.294-.4.578-.251a2.449,2.449,0,0,1,.689.5,4.563,4.563,0,0,1,.5,5.531,29.236,29.236,0,0,0-1.8,3.587c-1.463,3.282-2.889,6.582-4.322,9.878a8.165,8.165,0,0,1-1.982,2.956,4.892,4.892,0,0,1-3.03,1.324,3.107,3.107,0,0,1-2.26-.914,15.3,15.3,0,0,0,2.982-4.079C-16.442,10.782-14.956,7.7-13.51,4.6c.016-.034.028-.07.047-.118-.431.324-.831.652-1.257.94a7.222,7.222,0,0,1-4.56,1.313A4.793,4.793,0,0,1-23.418,4.42a5.074,5.074,0,0,1-.643-3.042,10.739,10.739,0,0,1,2.416-5.811,20.584,20.584,0,0,1,6.738-5.535A24.1,24.1,0,0,1-6.8-12.647a18.714,18.714,0,0,1,7.273.27,7.776,7.776,0,0,1,3.474,1.785A5.773,5.773,0,0,1,5.763-7.043,10.344,10.344,0,0,1,3.956.195,8.8,8.8,0,0,1,.7,3.3a5.645,5.645,0,0,1-3.635.623A2.788,2.788,0,0,1-5.269.228,3.663,3.663,0,0,1-1.8-2.494a3.163,3.163,0,0,1,.755.108A1.537,1.537,0,0,1,.092-.442C.067-.31.037-.179,0,0"/></g><g transform="translate(54.061 -33.553)"><path class="d" d="M0,0C.141.459.309.9.408,1.353A3.857,3.857,0,0,1-.047,4.24,34.657,34.657,0,0,0-2.084,8.35C-3.729,12.127-5.35,15.915-6.98,19.7a8.955,8.955,0,0,1-1.569,2.638,5.3,5.3,0,0,1-3.1,1.761,3.047,3.047,0,0,1-2.659-.884,13.889,13.889,0,0,0,2.668-3.64c1.931-3.318,3.585-6.777,5.191-10.26C-5.018,6.21-3.644,3.08-2.4-.107c.031-.08.059-.161.1-.272C-2.713-.437-3.1-.5-3.481-.544A35.268,35.268,0,0,0-8.229-.881a13.389,13.389,0,0,0-4.611.71A5.722,5.722,0,0,0-15.41,1.56a4.385,4.385,0,0,0-.956,3.424,2.989,2.989,0,0,0,.308.732,3.262,3.262,0,0,1-4.567-2.308A5.571,5.571,0,0,1-20.264-.1a7.825,7.825,0,0,1,6.014-4.9,18,18,0,0,1,4.67-.25,53.721,53.721,0,0,1,5.589.606c3.222.5,6.438,1.047,9.662,1.537a53.57,53.57,0,0,0,7.836.694,18.554,18.554,0,0,0,6.687-.971,18.5,18.5,0,0,0,1.732-.851c.064-.032.121-.078.184-.111.237-.12.384-.057.437.2a4.371,4.371,0,0,1-.373,2.867,5.919,5.919,0,0,1-4.289,3.31,13.347,13.347,0,0,1-4.027.191c-1.658-.16-3.319-.331-4.961-.605C6,1.128,3.125.562.239.031.155.016.069.009,0,0"/></g><g transform="translate(53.911 -23.942)"><path class="d" d="M0,0A3.063,3.063,0,0,1,3.161,1.686a1.124,1.124,0,0,1-.089,1.226A29.7,29.7,0,0,0,.124,8.666a47.378,47.378,0,0,0-1.639,4.866.251.251,0,0,1-.184.146,3.041,3.041,0,0,1-2.784-2.659,3.681,3.681,0,0,1,.412-1.658c.608-1.333,1.252-2.65,1.877-3.976.59-1.253,1.2-2.5,1.75-3.771A11.722,11.722,0,0,0,0,0"/></g><g transform="translate(58.302 -24.76)"><path class="d" d="M0,0A6.346,6.346,0,0,1-2.534-.556a.311.311,0,0,1-.145-.256,5.957,5.957,0,0,1,.19-1.125A5.846,5.846,0,0,1-.5-4.89a3.061,3.061,0,0,1,3.013-.575A1.819,1.819,0,0,1,3.78-3.75a2.969,2.969,0,0,1-.935,2.441A4.325,4.325,0,0,1,0,0"/></g><g transform="translate(72.851 -15.158)"><path class="d" d="M0,0A1.908,1.908,0,0,0,.359,1.6,1.65,1.65,0,0,0,2,2.008,7.08,7.08,0,0,0,4.851.773a20.186,20.186,0,0,0,6.121-6.562,6.151,6.151,0,0,0,.979-2.871.516.516,0,0,1,.028-.111,2.853,2.853,0,0,1,3.232,2.085l.255-.249a7.1,7.1,0,0,1,2.2-1.587,3.538,3.538,0,0,1,.753-.222A1.945,1.945,0,0,1,20.6-7.013a3.008,3.008,0,0,1-.14,1.694.3.3,0,0,1-.349.226,9.12,9.12,0,0,0-4.723.852,5.482,5.482,0,0,0-2.671,2.789A47.007,47.007,0,0,0,10.53,4.763c-.011.038-.025.076-.045.138a2.975,2.975,0,0,1-2.462-1.37A2.6,2.6,0,0,1,7.9.771c-.677.565-1.315,1.144-2,1.661a11.893,11.893,0,0,1-4.52,2.211,5.448,5.448,0,0,1-2.42.056A3.175,3.175,0,0,1-3.582,1.951,7.206,7.206,0,0,1-3.1-1.8,11.331,11.331,0,0,1,3.527-8.47a5.075,5.075,0,0,1,1.944-.337,2.415,2.415,0,0,1,2.494,2.33A5.26,5.26,0,0,1,6.1-2.036,7.541,7.541,0,0,1,1.821-.012,15.294,15.294,0,0,1,0,0M.92-2.7a1.81,1.81,0,0,0,.237.031A4.489,4.489,0,0,0,4.583-4.165a3.674,3.674,0,0,0,.66-1.093c.2-.514-.14-.883-.683-.774a3.03,3.03,0,0,0-.917.32A7.768,7.768,0,0,0,.92-2.7"/></g><g transform="translate(56.467 -7.826)"><path class="d" d="M0,0C-.16.237-.306.418-.414.619A.984.984,0,0,0,.054,2.042,1.976,1.976,0,0,0,1.523,2.1,4.022,4.022,0,0,0,3.488.713,13.621,13.621,0,0,0,5.372-2.439c.2-.438.393-.884.607-1.37-.359.241-.662.468-.986.658a4.125,4.125,0,0,1-2.657.6A2.8,2.8,0,0,1-.183-4.961,6.809,6.809,0,0,1,.134-8.309,11.945,11.945,0,0,1,6.2-15.471a5.273,5.273,0,0,1,2.924-.662,2.35,2.35,0,0,1,2.011,1.264.8.8,0,0,0,.055.079c1.689-1.73,3.188-.876,3.761.312-.116.109-.233.226-.356.336a9.683,9.683,0,0,0-1.706,2.3A57.289,57.289,0,0,0,9.4-4.857C8.5-2.807,7.649-.733,6.574,1.235A13.92,13.92,0,0,1,4.2,4.552,6.264,6.264,0,0,1-1.06,6.439a2.816,2.816,0,0,1-2.635-2.35A3.607,3.607,0,0,1-.652-.05,4.362,4.362,0,0,1,0,0M3.413-6.608c.011.1.02.279.052.451a.915.915,0,0,0,1.515.651A6.343,6.343,0,0,0,6.089-6.551a24.72,24.72,0,0,0,3.333-5.538.344.344,0,0,0,.041-.137,1.132,1.132,0,0,0-1.387-1.236,3.32,3.32,0,0,0-1.386.774,10.6,10.6,0,0,0-2.669,3.64,6.045,6.045,0,0,0-.608,2.44"/></g></g></svg>