<svg xmlns="http://www.w3.org/2000/svg" xmlns:xlink="http://www.w3.org/1999/xlink" width="128.962" height="46.131" viewBox="0 0 128.962 46.131"><defs><style>.a{clip-path:url(#a);}</style><clipPath id="a"><path d="M0-9H128.962V-55.133H0Z" transform="translate(0 55.133)"/></clipPath></defs><g transform="translate(0 55.133)"><g class="a" transform="translate(0 -55.133)"><g transform="translate(7.53 5.857)"><path d="M-5.863-4.856C-6.313-3.5-9.93-.061-11.6-2.458c1.162-1.09,3.063-2.035,4.43-1.671-.726-.727-2.324-2.324-6.61-.436l-.022.012a1.614,1.614,0,0,0-.18-.03,6.025,6.025,0,0,0-6.555,2.707l-.043.065a.172.172,0,0,0-.144-.091c-.316-.018-.676-.05-.763-.243a.475.475,0,0,0-.084-.134l.313-.251c.312-.3.192-.833.305-1.227a.391.391,0,0,0,0-.206.158.158,0,0,0,.018-.016.53.53,0,0,1,.037-.038c.187-.173.833.018,1.631-.631.876-.711,1.935-2.432,2.771-6.754a.1.1,0,0,1,.015-.038,10.048,10.048,0,0,1,2.757-2.68.1.1,0,0,0-.108-.175c-.361.2-.687.4-.961.569a.1.1,0,0,1-.126-.161c1.263-1.213,3.78-3.517,5.31-4.15a26.712,26.712,0,0,0-5.713,3.988.1.1,0,0,1-.157-.128A43.169,43.169,0,0,0-13.194-19.1a.1.1,0,0,0-.187-.085c-.827,1.684-1.884,3.757-2.694,5.035a.1.1,0,0,1-.182-.093,21.3,21.3,0,0,0,.947-3.261.1.1,0,0,0-.2-.047,16.483,16.483,0,0,1-1.919,4.86.1.1,0,0,1-.049.035,16.269,16.269,0,0,0-5.2,2.17,8.779,8.779,0,0,0-1.391,1.294,6.146,6.146,0,0,0-.922,1.369A.093.093,0,0,0-25-7.777c0,.043,0,.086,0,.131a.679.679,0,0,0-.519.064,1.573,1.573,0,0,0-.59.548.5.5,0,0,1-.037.056L-26.5-6.5a.817.817,0,0,0-.288-.1.62.62,0,0,1-.332-.166,1.036,1.036,0,0,1-.24-.347A.129.129,0,0,0-27.4-7.16a.908.908,0,0,0,.029-.114c.146-.764,2.682-2.507,3.569-5.12a7.813,7.813,0,0,0,.23-3.92,4.094,4.094,0,0,0-.578-1.458,2.1,2.1,0,0,0,.342-.6c.6-1.617,2.09-6.7-1.659-9.659.581,1.379,1.379,3.92-1.739,7.186q-.043-.055-.083-.113c-.92-1.356-2.95-3.027,2.765-8.744-1.181,0-8.209-1.387-11.114,12.275C-37.446-8.93-29.472-6.564-29.188-6.5a7.357,7.357,0,0,1,1.149.612,1.048,1.048,0,0,1,.359.438.516.516,0,0,0,.215.257l-.238.32c0,.006-.007.013-.011.019a6.517,6.517,0,0,0-1.419,2.907A6.067,6.067,0,0,0-28.889.16a.6.6,0,0,0,.1.215.153.153,0,0,0-.059.12l0,.049a6.569,6.569,0,0,0-.189,1.894c.064.592.756,1.019,1.125,1.386a.157.157,0,0,0,.082.044l.032.005a.13.13,0,0,0,.011.063.33.33,0,0,1,.025.085c.064.474-.126.61.193,1.22.224.427.543.423.876.656l0-.006a.242.242,0,0,0,.049.069,1.558,1.558,0,0,1,.141.162c.436.581.226,2.761,1.744,3.415,1.138.49,1.423-.244,1.494-.643A.244.244,0,0,1-23,8.7a2,2,0,0,0,1.514-.468c.314-.292.154-.848.056-1.1a.244.244,0,0,1,.037-.239,1.261,1.261,0,0,0-.311-2c-1.074-.735-2.528-.243-3.2-.669l-.018-.009.013-.009a.868.868,0,0,1-.236-.542c-.008-.064-.014-.123-.019-.178a.091.091,0,0,0,0-.021.154.154,0,0,0,.064-.126c-.006-.594.217-.574.617-1.119a1.712,1.712,0,0,0,.3-1.151.154.154,0,0,0-.033-.095A.584.584,0,0,0-24.1.735a1.383,1.383,0,0,1,.377-.651c.6-.621.763-1.341,1.149-1.573a.357.357,0,0,0,.111.064.323.323,0,0,1,.047.021A4.309,4.309,0,0,1-21.135-.056a.093.093,0,0,0,.092.044A2.162,2.162,0,0,0-20.9.581a4.866,4.866,0,0,0,3.478,2.33C-15.751,3.13-5.038,2.5-5.863-4.856" transform="translate(35.906 29.737)"/></g><g transform="translate(119.808 21.208)"><path d="M0-2.89a3.3,3.3,0,0,1,.146-.537C.62-4.539,1.074-5.662,1.6-6.75,2.951-9.574,4.34-12.381,5.711-15.2a13.166,13.166,0,0,0,.545-1.229A5.3,5.3,0,0,0,6.5-17.438c.031-.192.091-.252.282-.257a2.39,2.39,0,0,1,2.274,1.4,1.527,1.527,0,0,1,.089.356.5.5,0,0,1-.128.384,13.375,13.375,0,0,0-.809,1.164A68.784,68.784,0,0,0,4.376-6.776,37.779,37.779,0,0,0,2.546-1.9c-.1.342-.168.692-.246,1.039-.019.085-.033.143-.145.145A2.373,2.373,0,0,1,0-2.89" transform="translate(0 17.696)"/></g><g transform="translate(110.098 27.676)"><path d="M-1.185-.155A3.945,3.945,0,0,1,.241-.568a2.968,2.968,0,0,1,1.373.2A2,2,0,0,1,2.862,1.554,7.009,7.009,0,0,1,2.146,4.8,8.789,8.789,0,0,1-1.186,8.689a5.235,5.235,0,0,1-2.8.857,3.154,3.154,0,0,1-3.1-2.365,5.2,5.2,0,0,1,.107-2.944A8.821,8.821,0,0,1-4.2-.1,3.436,3.436,0,0,1-2.587-.921a1.13,1.13,0,0,1,1.339.658c.017.031.036.061.064.108M-3.462,2.509c-.041.051-.085.1-.121.153a6.246,6.246,0,0,0-1,2.647,2.744,2.744,0,0,0,.095,1.453.9.9,0,0,0,.9.607,2.342,2.342,0,0,0,1.516-.633A8,8,0,0,0,.292,3.216,3,3,0,0,0,.476,1.86a.743.743,0,0,0-1-.719,1.543,1.543,0,0,0-.748.413A3.586,3.586,0,0,0-2.148,3.11a5.215,5.215,0,0,0-.266,1.637.735.735,0,0,1-.523-.3,2.127,2.127,0,0,1-.525-1.94" transform="translate(7.255 0.949)"/></g><g transform="translate(104.868 21.213)"><path d="M-.433-3.312a2.231,2.231,0,0,1-1.753-.894,1.808,1.808,0,0,1-.463-1.045,1.675,1.675,0,0,1,.105-.7c.442-1.072.881-2.146,1.374-3.2C-.419-10.74.374-12.315,1.149-13.9c.027-.054.052-.11.087-.184-.393.028-.77.059-1.147.079-.295.015-.59.028-.884.018a1.065,1.065,0,0,1-1.083-1.107,3.1,3.1,0,0,1,.748-2,4.487,4.487,0,0,1,.519-.521,1.612,1.612,0,0,1,.253-.157A2.648,2.648,0,0,0,2.006-16.3c.3.044.31.036.442-.243.372-.8.737-1.594,1.11-2.388a3.13,3.13,0,0,0,.291-1.173c.008-.125.055-.172.177-.177a2.376,2.376,0,0,1,2.271,1.2,1.363,1.363,0,0,1,.152.374.661.661,0,0,1-.133.609c-.413.546-.778,1.129-1.162,1.7l.042.051c.307-.035.616-.064.922-.108,1.6-.235,3.207-.486,4.814-.707a11.565,11.565,0,0,1,2.72-.127,4.319,4.319,0,0,1,.725.126,1.683,1.683,0,0,1,1.225,1.4,2.688,2.688,0,0,1-1.721,3.03c-.046.016-.094.027-.147.042a3.2,3.2,0,0,0-2.576-1.647,13.855,13.855,0,0,0-3.468-.24c-1.148.049-2.294.13-3.441.2a.283.283,0,0,0-.2.105A64.384,64.384,0,0,0,.055-5.093c-.189.576-.322,1.17-.488,1.781" transform="translate(2.651 20.286)"/></g><g transform="translate(98.382 27.563)"><path d="M-1.378-.145A2.249,2.249,0,0,0-2.43,1.713c-.055.981-.1,1.964-.15,2.946a9.541,9.541,0,0,1-.515,2.965A3.024,3.024,0,0,1-4.729,9.456a3.036,3.036,0,0,1-2.319.06A2.266,2.266,0,0,1-8.311,6.628,2.847,2.847,0,0,1-7.4,5.27.988.988,0,0,1-7.117,5.1a.314.314,0,0,1,.254.012.333.333,0,0,1,.07.242,5.993,5.993,0,0,0-.03.711A.671.671,0,0,0-6,6.718a1.207,1.207,0,0,0,1.1-1.19A7.621,7.621,0,0,0-5,3.692a9.193,9.193,0,0,1-.165-2.254A2.477,2.477,0,0,1-2.549-.885a1.327,1.327,0,0,1,1.171.74" transform="translate(8.439 0.887)"/></g><g transform="translate(93.969 27.619)"><path d="M-.661-.008A2.357,2.357,0,0,1,1.894,1.435a.777.777,0,0,1-.1.73A23.352,23.352,0,0,0-.748,7.28c-.391,1.058-.725,2.137-1.094,3.236a1.762,1.762,0,0,1-.809-.172A2.226,2.226,0,0,1-4.043,8.532a2.1,2.1,0,0,1,.179-1c.43-1.01.9-2,1.365-3C-1.967,3.386-1.414,2.249-.9,1.1A4.814,4.814,0,0,0-.681.15a1.557,1.557,0,0,0,.02-.157" transform="translate(4.051 0.048)"/></g><g transform="translate(83.907 14.477)"><path d="M-3.621-1.936a2.376,2.376,0,0,0,.8-.665A4.714,4.714,0,0,0-1.774-5.5,3,3,0,0,0-3.1-8.076a5.368,5.368,0,0,0-2.553-.988A13.146,13.146,0,0,0-16.394-5.741a8.257,8.257,0,0,0-2.4,3.51,6.426,6.426,0,0,0-.315,1.489A1.356,1.356,0,0,0-17.75.859,3.714,3.714,0,0,0-15.16.092,10.01,10.01,0,0,0-12.51-2.751c.447-.682.847-1.4,1.248-2.108a5.749,5.749,0,0,0,.3-.77c.089-.228.227-.306.446-.194a1.926,1.926,0,0,1,.53.387,3.515,3.515,0,0,1,.387,4.261,22.484,22.484,0,0,0-1.386,2.763C-12.108,4.118-13.207,6.66-14.31,9.2a6.3,6.3,0,0,1-1.528,2.278,3.769,3.769,0,0,1-2.334,1.02,2.4,2.4,0,0,1-1.742-.7,11.78,11.78,0,0,0,2.3-3.143C-16.288,6.371-15.144,4-14.029,1.608c.013-.026.022-.054.036-.09-.332.249-.64.5-.968.725a5.57,5.57,0,0,1-3.514,1.012,3.692,3.692,0,0,1-3.187-1.785,3.907,3.907,0,0,1-.5-2.344A8.268,8.268,0,0,1-20.3-5.351a15.869,15.869,0,0,1,5.191-4.265A18.577,18.577,0,0,1-8.858-11.68a14.407,14.407,0,0,1,5.6.208A6,6,0,0,1-.578-10.1,4.452,4.452,0,0,1,.82-7.363,7.97,7.97,0,0,1-.572-1.786,6.774,6.774,0,0,1-3.083.6a4.34,4.34,0,0,1-2.8.48,2.147,2.147,0,0,1-1.8-2.845,2.82,2.82,0,0,1,2.672-2.1,2.447,2.447,0,0,1,.582.084,1.184,1.184,0,0,1,.874,1.5c-.018.1-.042.2-.07.341" transform="translate(22.173 11.857)"/></g><g transform="translate(36.731 16.154)"><path d="M-3.123-.8c.109.354.238.693.315,1.043a2.97,2.97,0,0,1-.351,2.224,26.716,26.716,0,0,0-1.57,3.167C-6,8.547-7.244,11.465-8.5,14.38a6.928,6.928,0,0,1-1.209,2.033A4.088,4.088,0,0,1-12.1,17.77a2.35,2.35,0,0,1-2.049-.681,10.715,10.715,0,0,0,2.055-2.8c1.488-2.556,2.763-5.221,4-7.9,1.1-2.392,2.161-4.8,3.117-7.259.023-.061.044-.124.075-.209-.314-.044-.609-.09-.906-.127a27.157,27.157,0,0,0-3.657-.259,10.339,10.339,0,0,0-3.553.546A4.405,4.405,0,0,0-15,.405a3.378,3.378,0,0,0-.736,2.637,2.315,2.315,0,0,0,.238.564,2.513,2.513,0,0,1-3.519-1.778,4.285,4.285,0,0,1,.279-2.705A6.029,6.029,0,0,1-14.1-4.655a13.866,13.866,0,0,1,3.6-.193A41.517,41.517,0,0,1-6.2-4.382c2.483.387,4.96.807,7.444,1.185a41.34,41.34,0,0,0,6.038.535,14.3,14.3,0,0,0,5.152-.748,14.275,14.275,0,0,0,1.335-.656c.049-.025.093-.06.142-.085.182-.093.3-.044.336.156a3.368,3.368,0,0,1-.286,2.208A4.563,4.563,0,0,1,10.657.763a10.275,10.275,0,0,1-3.1.147C6.277.788,5,.656,3.732.445,1.5.072-.715-.364-2.939-.773-3-.785-3.07-.79-3.123-.8" transform="translate(19.124 4.881)"/></g><g transform="translate(49.162 27.62)"><path d="M-.674,0a2.361,2.361,0,0,1,2.436,1.3.865.865,0,0,1-.069.945A22.9,22.9,0,0,0-.579,6.672a36.273,36.273,0,0,0-1.263,3.749.191.191,0,0,1-.142.111A2.342,2.342,0,0,1-4.128,8.485a2.851,2.851,0,0,1,.317-1.277c.469-1.027.965-2.042,1.446-3.063.455-.966.924-1.926,1.349-2.906A9.009,9.009,0,0,0-.674,0" transform="translate(4.129 0.028)"/></g><g transform="translate(53.936 22.665)"><path d="M-.4-.848a4.877,4.877,0,0,1-1.952-.428.242.242,0,0,1-.112-.2,4.489,4.489,0,0,1,.147-.868A4.5,4.5,0,0,1-.791-4.616,2.359,2.359,0,0,1,1.53-5.059a1.4,1.4,0,0,1,.98,1.321,2.29,2.29,0,0,1-.72,1.88A3.331,3.331,0,0,1-.4-.848" transform="translate(2.468 5.196)"/></g><g transform="translate(64.394 27.621)"><path d="M-.55-1.325A1.47,1.47,0,0,0-.273-.093,1.27,1.27,0,0,0,.99.222a5.468,5.468,0,0,0,2.2-.951A15.553,15.553,0,0,0,7.9-5.785,4.738,4.738,0,0,0,8.658-8a.455.455,0,0,1,.022-.085A2.2,2.2,0,0,1,11.17-6.476l.2-.192A5.473,5.473,0,0,1,13.06-7.891a2.756,2.756,0,0,1,.581-.172,1.5,1.5,0,0,1,1.685,1.335,2.309,2.309,0,0,1-.108,1.3.229.229,0,0,1-.269.174,7.036,7.036,0,0,0-3.639.656,4.224,4.224,0,0,0-2.057,2.15A36.092,36.092,0,0,0,7.563,2.345c-.008.029-.019.059-.035.106A2.292,2.292,0,0,1,5.632,1.4a2.005,2.005,0,0,1-.1-2.126C5.015-.3,4.523.15,4,.548a9.168,9.168,0,0,1-3.482,1.7A4.2,4.2,0,0,1-1.352,2.3,2.445,2.445,0,0,1-3.309.179a5.54,5.54,0,0,1,.372-2.893,8.732,8.732,0,0,1,5.1-5.137,3.924,3.924,0,0,1,1.5-.259A1.86,1.86,0,0,1,5.587-6.315a4.048,4.048,0,0,1-1.44,3.421A5.8,5.8,0,0,1,.854-1.334a11.664,11.664,0,0,1-1.4.009M.159-3.408a1.514,1.514,0,0,0,.182.024,3.46,3.46,0,0,0,2.64-1.15,2.837,2.837,0,0,0,.509-.842c.155-.4-.108-.681-.526-.6a2.376,2.376,0,0,0-.707.247,5.993,5.993,0,0,0-2.1,2.319" transform="translate(3.366 8.115)"/></g><g transform="translate(51.71 27.617)"><path d="M-.561-2.428c-.124.182-.235.322-.319.477A.757.757,0,0,0-.52-.855,1.523,1.523,0,0,0,.612-.813,3.1,3.1,0,0,0,2.126-1.879,10.521,10.521,0,0,0,3.578-4.308c.156-.338.3-.681.468-1.055-.277.186-.51.361-.761.506a3.168,3.168,0,0,1-2.047.46A2.158,2.158,0,0,1-.7-6.25,5.254,5.254,0,0,1-.459-8.83a9.2,9.2,0,0,1,4.673-5.518,4.073,4.073,0,0,1,2.252-.51,1.813,1.813,0,0,1,1.55.974.565.565,0,0,0,.042.061c1.3-1.333,2.456-.674,2.9.241-.089.084-.179.173-.274.259a7.45,7.45,0,0,0-1.314,1.769A44.148,44.148,0,0,0,6.679-6.17C5.986-4.591,5.331-2.993,4.5-1.476A10.73,10.73,0,0,1,2.675,1.079,4.828,4.828,0,0,1-1.378,2.533,2.173,2.173,0,0,1-3.409.723a2.779,2.779,0,0,1,2.344-3.19,3.5,3.5,0,0,1,.5.038M2.067-7.52c.009.08.016.216.04.348a.7.7,0,0,0,1.167.5,4.84,4.84,0,0,0,.855-.8A19.066,19.066,0,0,0,6.7-11.743a.28.28,0,0,0,.032-.1A.873.873,0,0,0,5.66-12.8a2.566,2.566,0,0,0-1.068.6A8.176,8.176,0,0,0,2.537-9.4a4.666,4.666,0,0,0-.469,1.88" transform="translate(3.439 14.871)"/></g></g></g></svg>