<svg xmlns="http://www.w3.org/2000/svg" xmlns:xlink="http://www.w3.org/1999/xlink" width="33.178" height="26.973" viewBox="0 0 33.178 26.973"><defs><style>.a{fill:#fff;}.b{clip-path:url(#a);}</style><clipPath id="a"><path class="a" d="M0-1.656H33.178V-28.629H0Z" transform="translate(0 28.629)"/></clipPath></defs><g transform="translate(0 28.629)"><g class="b" transform="translate(0 -28.629)"><g transform="translate(0 0)"><path class="a" d="M-.866-.231c-.312-.044-.606-.089-.9-.126A26.893,26.893,0,0,0-5.394-.614a10.217,10.217,0,0,0-3.525.543,4.373,4.373,0,0,0-1.964,1.323,3.351,3.351,0,0,0-.73,2.617,2.263,2.263,0,0,0,.236.56,2.493,2.493,0,0,1-3.491-1.765A4.253,4.253,0,0,1-14.593-.02,5.979,5.979,0,0,1-10-3.769,13.726,13.726,0,0,1-6.427-3.96,40.85,40.85,0,0,1-2.155-3.5c2.463.384,4.921.8,7.386,1.174a40.747,40.747,0,0,0,5.989.53,14.176,14.176,0,0,0,5.111-.741,14.344,14.344,0,0,0,1.324-.651c.049-.024.092-.059.14-.085.181-.091.293-.043.334.155a3.338,3.338,0,0,1-.285,2.191,4.525,4.525,0,0,1-3.279,2.53,10.17,10.17,0,0,1-3.078.146C10.22,1.631,8.951,1.5,7.7,1.291,5.485.921,3.284.488,1.078.083,1.014.071.948.066.9.058" transform="translate(14.979 3.993)"/></g><g transform="translate(0 9.172)"><path class="a" d="M-.866-.231c-.312-.044-.606-.089-.9-.126A26.893,26.893,0,0,0-5.394-.614a10.217,10.217,0,0,0-3.525.543,4.373,4.373,0,0,0-1.964,1.323,3.351,3.351,0,0,0-.73,2.617,2.263,2.263,0,0,0,.236.56,2.493,2.493,0,0,1-3.491-1.765A4.253,4.253,0,0,1-14.593-.02,5.979,5.979,0,0,1-10-3.769,13.726,13.726,0,0,1-6.427-3.96,40.85,40.85,0,0,1-2.155-3.5c2.463.384,4.921.8,7.386,1.174a40.876,40.876,0,0,0,5.989.53,14.176,14.176,0,0,0,5.111-.741,14.344,14.344,0,0,0,1.324-.651c.049-.024.092-.059.14-.085.181-.091.293-.043.334.155a3.338,3.338,0,0,1-.285,2.191,4.525,4.525,0,0,1-3.279,2.53,10.17,10.17,0,0,1-3.078.146C10.22,1.631,8.951,1.5,7.7,1.291,5.485.921,3.284.488,1.078.083,1.014.071.948.066.9.058" transform="translate(14.979 3.993)"/></g><g transform="translate(0 18.344)"><path class="a" d="M-.866-.231c-.312-.044-.606-.089-.9-.126A26.893,26.893,0,0,0-5.394-.614a10.217,10.217,0,0,0-3.525.543,4.373,4.373,0,0,0-1.964,1.323,3.351,3.351,0,0,0-.73,2.617,2.263,2.263,0,0,0,.236.56,2.493,2.493,0,0,1-3.491-1.765A4.253,4.253,0,0,1-14.593-.02,5.979,5.979,0,0,1-10-3.769,13.726,13.726,0,0,1-6.427-3.96,40.85,40.85,0,0,1-2.155-3.5c2.463.384,4.921.8,7.386,1.174a40.747,40.747,0,0,0,5.989.53,14.176,14.176,0,0,0,5.111-.741,14.344,14.344,0,0,0,1.324-.651c.049-.024.092-.059.14-.085.181-.091.293-.043.334.155a3.338,3.338,0,0,1-.285,2.191,4.523,4.523,0,0,1-3.279,2.53,10.17,10.17,0,0,1-3.078.146C10.22,1.631,8.951,1.5,7.7,1.291,5.485.921,3.284.488,1.078.083,1.014.071.948.066.9.058" transform="translate(14.979 3.993)"/></g></g></g></svg>