<svg xmlns="http://www.w3.org/2000/svg" width="400" height="430" viewBox="0 0 0 0 400 430"><path d="M60.106 104.873c-16.081 19.376-4.681 53.702 12.222 36.799 19.049-19.049 45.342-13.472 79.229 16.806l31.872 28.478-33.709 46.939c-18.541 25.817-49.318 56.586-68.395 68.376-33.24 20.544-33.796 21.834-13.349 30.958 27.902 12.45 63.201-10.326 98.372-63.472 32.76-49.504 33.289-49.466 72.556 5.212 36.525 50.86 63.408 68.819 90.259 60.297 15.412-4.892 7.944-16.307-45.883-70.134-62.542-62.542-63.868-64.938-48.72-88.057 24.014-36.65 62.254-53.876 86.284-38.869 24.404 15.241 38.66-9.705 19.05-33.333C318.06 78.564 273.64 87.027 236 124.667l-34.667 34.666-34.666-34.666c-37.775-37.775-84.444-46.444-106.561-19.794" fill-rule="evenodd"/></svg>