<svg xmlns="http://www.w3.org/2000/svg" width="330.729" height="330.431" viewBox="0 0 330.729 330.431"><defs><style>.a{fill:none;stroke:#231f20;stroke-miterlimit:10;stroke-width:6px;}.b{fill:#231f20;}.c{fill:#38cae5;}.d{fill:#41596e;}.e{fill:#51789a;}</style></defs><g transform="translate(-164.486 -309.849)"><path class="a" d="M418.395,481.6c-11.279-1.815-15.874-13.192-9.206-22.511,2.1-2.93,5.316-5.242,8.417-7.218,3.253-2.07,6.995-3.363,10.5-5.052,15.972-7.707,23.342-20.267,22.115-37.924-1.431-20.577-10.825-37.538-25-51.809-26.382-26.565-59.095-40.245-95.889-43.6-75.958-6.937-153.918,44.482-161.37,139.67-2.789,35.626,6.738,68.534,23.9,99.455,18.188,32.776,43.749,57.634,78.794,71.869,38.793,15.759,78.471,16.108,118.62,5.942,33.727-8.541,62.067-25.291,82.511-54.107,11.035-15.549,19.041-32.247,20.3-51.653,1.5-23-10.689-38.4-33.364-41.449C452.139,482.33,425.068,482.677,418.395,481.6Z" transform="translate(0 0)"/><path class="b" d="M286.906,393.82c-15.469.033-27.87-11.789-27.879-26.579-.01-14.691,12.523-26.678,27.889-26.677,15.305,0,27.923,12.05,27.949,26.689S302.385,393.785,286.906,393.82Z" transform="translate(68.218 20.642)"/><path class="c" d="M268.51,367.4A26.6,26.6,0,1,1,242.3,340.628,26.4,26.4,0,0,1,268.51,367.4Z" transform="translate(35.648 20.687)"/><path class="c" d="M194.443,442.306a26.616,26.616,0,0,1,53.231.107,26.616,26.616,0,1,1-53.231-.107Z" transform="translate(20.093 76.694)"/><path class="d" d="M215.713,428.206a26.629,26.629,0,1,1,26.526-26.858A26.629,26.629,0,0,1,215.713,428.206Z" transform="translate(16.025 46.263)"/><path class="e" d="M251.122,498.022a26.624,26.624,0,1,1,26.82-26.636A26.506,26.506,0,0,1,251.122,498.022Z" transform="translate(42.604 98.294)"/><circle class="a" cx="29.218" cy="29.218" r="29.218" transform="translate(349.626 521.297)"/></g></svg>