<svg xmlns="http://www.w3.org/2000/svg" width="165.311" height="162.449" viewBox="0 0 165.311 162.449"><defs><style>.a{fill:#231f20;}.b{fill:none;stroke:#231f20;stroke-linecap:round;}.c{fill:#38cae5;}</style></defs><g transform="translate(-212.953 -2142.953)"><g transform="translate(-194 2005)"><path class="a" d="M436.2,197.94l-5.346-2.052A37.435,37.435,0,0,1,465.609,172v5.724A31.681,31.681,0,0,0,436.2,197.94Z" transform="translate(35.109 53.994)"/><path class="a" d="M435.728,188.847,430,188.71a38.025,38.025,0,0,1,.664-6.193l5.624,1.085A31.885,31.885,0,0,0,435.728,188.847Z" transform="translate(33.521 73.575)"/><path class="a" d="M466.962,246.408A37.364,37.364,0,0,1,430.13,214.49l5.666-.807a31.483,31.483,0,1,0,31.166-35.959V172a37.2,37.2,0,1,1,0,74.408Z" transform="translate(33.756 53.994)"/><path class="a" d="M423.566,150.843l-1.874-5.786A42.505,42.505,0,0,1,434.8,143v6.084A36.455,36.455,0,0,0,423.566,150.843Z" transform="translate(14.745 -5.047)"/><path class="a" d="M421.132,153.589l-3.748-4.794a42.771,42.771,0,0,1,6.553-4.216l2.811,5.4A36.485,36.485,0,0,0,421.132,153.589Z" transform="translate(5.948 -1.824)"/><path class="a" d="M454.589,228.179a42.59,42.59,0,0,1-30.734-72.074l4.393,4.21a36.505,36.505,0,1,0,26.342-11.231V143a42.589,42.589,0,0,1,0,85.179Z" transform="translate(-5.047 -5.047)"/><path class="a" d="M478.342,215.685a34.342,34.342,0,1,1,0-68.685v5.724a28.619,28.619,0,1,0,28.146,33.824l5.629,1.036A34.32,34.32,0,0,1,478.342,215.685Z" transform="translate(59.58 7.447)"/><path class="a" d="M472.029,163.055h-5.724a29.358,29.358,0,0,0-.469-5.2l5.629-1.03A34.807,34.807,0,0,1,472.029,163.055Z" transform="translate(100.235 25.735)"/><path class="a" d="M482.667,170.934A28.456,28.456,0,0,0,456,152.724V147a34.151,34.151,0,0,1,32,21.85Z" transform="translate(81.922 7.447)"/><rect class="a" width="17.171" height="5.724" transform="translate(489.27 180.204)"/><rect class="a" width="5.723" height="22.207" transform="translate(469.561 215.874) rotate(-29.743)"/><rect class="a" width="17.554" height="5.724" transform="translate(515.765 232.427) rotate(-63.434)"/><line class="b" x1="16" y1="23" transform="translate(441.5 230.5)"/><line class="b" x1="30" y1="6" transform="translate(486.5 148.5)"/><line class="b" y1="21" x2="12" transform="translate(543.5 227.5)"/></g><g transform="translate(74 2111)"><path class="c" d="M175.871,88.258h0l.319,8,13.324-8" transform="translate(51.669 77.941)"/><rect class="c" width="28.281" height="23.568" transform="translate(219 144)"/><path class="c" d="M175.871,88.258h0l.446,10.186,18.611-10.186" transform="translate(-1.69)"/><path class="c" d="M-2.295-3.636H35.418l1.623,33.455L-2.295,28.63Z" transform="translate(165 60.181)"/><g transform="translate(160.143 53.914)"><path class="a" d="M278.458,188.363a3.443,3.443,0,0,1-3.438-3.438v-5.148h-6.869A5.158,5.158,0,0,1,263,174.626V147.151A5.158,5.158,0,0,1,268.151,142h32.626a5.158,5.158,0,0,1,5.151,5.151v27.475a5.158,5.158,0,0,1-5.151,5.152h-9.731l-10.533,7.9A3.417,3.417,0,0,1,278.458,188.363Zm-10.306-42.929a1.718,1.718,0,0,0-1.717,1.717v27.475a1.718,1.718,0,0,0,1.717,1.717h10.3v8.582l11.448-8.582h10.875a1.718,1.718,0,0,0,1.717-1.717V147.151a1.718,1.718,0,0,0-1.717-1.717Z" transform="translate(-263 -142)"/><rect class="a" width="25.758" height="3.434" transform="translate(8.586 8.586)"/><rect class="a" width="8.586" height="3.434" transform="translate(8.586 17.172)"/><rect class="a" width="13.737" height="3.434" transform="translate(20.606 17.172)"/><rect class="a" width="6.869" height="3.434" transform="translate(27.475 25.758)"/><rect class="a" width="3.431" height="3.434" transform="translate(20.606 25.758)"/><rect class="a" width="8.586" height="3.434" transform="translate(8.586 25.758)"/></g><path class="c" d="M175.871,88.258h0l.251,6.3,10.495-6.3" transform="translate(89.867 1.857)"/><rect class="c" width="22.768" height="19.538" transform="translate(258.724 71.656)"/></g><g transform="translate(168.88 2124)"><g transform="translate(163 57)"><path class="a" d="M272.119,169.352a2.032,2.032,0,0,1-2.028-2.028v-3.037h-4.052A3.043,3.043,0,0,1,263,161.248V145.039A3.043,3.043,0,0,1,266.039,142h19.248a3.043,3.043,0,0,1,3.039,3.039v16.209a3.043,3.043,0,0,1-3.039,3.039h-5.741l-6.214,4.658A2.016,2.016,0,0,1,272.119,169.352Zm-6.08-25.326a1.013,1.013,0,0,0-1.013,1.013v16.209a1.013,1.013,0,0,0,1.013,1.013h6.078v5.063l6.754-5.063h6.416a1.013,1.013,0,0,0,1.013-1.013V145.039a1.013,1.013,0,0,0-1.013-1.013Z" transform="translate(-263 -142)"/><rect class="a" width="15.196" height="2.026" transform="translate(5.065 5.065)"/><rect class="a" width="5.065" height="2.026" transform="translate(5.065 10.13)"/><rect class="a" width="8.104" height="2.026" transform="translate(12.156 10.13)"/><rect class="a" width="4.052" height="2.026" transform="translate(16.209 15.196)"/><rect class="a" width="2.024" height="2.026" transform="translate(12.156 15.196)"/><rect class="a" width="5.065" height="2.026" transform="translate(5.065 15.196)"/></g></g><g transform="translate(128.436 2196.57)"><g transform="translate(163 57)"><path class="a" d="M274.191,175.567a2.493,2.493,0,0,1-2.489-2.489v-3.727H266.73a3.734,3.734,0,0,1-3.73-3.73V145.73a3.734,3.734,0,0,1,3.73-3.73h23.621a3.734,3.734,0,0,1,3.73,3.73v19.891a3.734,3.734,0,0,1-3.73,3.73h-7.045l-7.626,5.716A2.474,2.474,0,0,1,274.191,175.567Zm-7.462-31.08a1.244,1.244,0,0,0-1.243,1.243v19.891a1.244,1.244,0,0,0,1.243,1.243h7.459v6.214l8.288-6.214h7.873a1.244,1.244,0,0,0,1.243-1.243V145.73a1.244,1.244,0,0,0-1.243-1.243Z" transform="translate(-263 -142)"/><rect class="a" width="18.648" height="2.486" transform="translate(6.216 6.216)"/><rect class="a" width="6.216" height="2.486" transform="translate(6.216 12.432)"/><rect class="a" width="9.946" height="2.486" transform="translate(14.919 12.432)"/><rect class="a" width="4.973" height="2.486" transform="translate(19.891 18.648)"/><rect class="a" width="2.484" height="2.486" transform="translate(14.919 18.648)"/><rect class="a" width="6.216" height="2.486" transform="translate(6.216 18.648)"/></g></g></g></svg>