<svg xmlns="http://www.w3.org/2000/svg" width="194.123" height="216.961" viewBox="0 0 194.123 216.961"><defs><style>.a{fill:#38cae5;}.b{fill:#231f20;}.c,.d{fill:none;stroke:#231f20;}.c{stroke-linecap:round;}</style></defs><g transform="translate(-271 -1752.539)"><g transform="translate(271 1752.539)"><path class="a" d="M4299.333,1830.815H4286v-23.735l8.286-7.8h36.843l16.253,7.8-8.339,10.526h-7.914V1866.1h-31.8Z" transform="translate(-4280.334 -1732.715)"/><path class="b" d="M78.032,100.676C67.538,100.676,59,91.853,59,81.009V74.667C59,63.823,67.538,55,78.032,55s19.032,8.823,19.032,19.667v6.341C97.063,91.853,88.526,100.676,78.032,100.676Zm0-38.063c-6.3,0-11.419,5.409-11.419,12.055v6.341c0,6.646,5.123,12.055,11.419,12.055s11.419-5.409,11.419-12.055V74.667C89.451,68.021,84.327,62.613,78.032,62.613Z" transform="translate(-43.775 -38.322)"/><rect class="b" width="7.613" height="64.708" transform="translate(30.451 148.447)"/><path class="b" d="M109.289,205.415H63.613A7.61,7.61,0,0,1,56,197.89a14.335,14.335,0,0,1,9.824-13.718l1.595-.533V76h7.613V189.128l-6.8,2.265a6.739,6.739,0,0,0-4.621,6.452l45.676-.042a6.733,6.733,0,0,0-4.621-6.414l-6.8-2.261V87.419h7.613v96.22l1.595.529A14.343,14.343,0,0,1,116.9,197.89,7.61,7.61,0,0,1,109.289,205.415Z" transform="translate(-52.194 11.546)"/><path class="b" d="M81.613,121.514H74v-60.9A7.625,7.625,0,0,1,81.613,53H188.19a7.625,7.625,0,0,1,7.613,7.613V94.87H188.19V60.613H81.613Z" transform="translate(-1.68 -53)"/><rect class="b" width="7.613" height="7.609" transform="translate(186.51 49.486)"/><path class="b" d="M188.19,130.9H81.613A7.625,7.625,0,0,1,74,123.289V111.87h7.613v11.419H188.19V70H195.8v53.289A7.625,7.625,0,0,1,188.19,130.9Z" transform="translate(-1.68 -5.292)"/><path class="b" d="M74.032,141.32H70.225A15.241,15.241,0,0,1,55,126.1V91.838A22.861,22.861,0,0,1,77.838,69h22.884a18.878,18.878,0,0,1,11.389,3.749l15.275,11.476h22.773a11.419,11.419,0,0,1,0,22.838H120.416L100.2,93.319l4.282-6.3L122.76,99.451h27.4a3.806,3.806,0,0,0,0-7.613H124.842l-17.3-12.995a11.714,11.714,0,0,0-6.859-2.231H77.838A15.241,15.241,0,0,0,62.613,91.838V126.1a7.625,7.625,0,0,0,7.613,7.613h3.806Z" transform="translate(-55 -8.099)"/><path class="b" d="M135.289,107.838H89.613A7.625,7.625,0,0,1,82,100.225V85h7.613v15.225h45.676V85H142.9v15.225A7.625,7.625,0,0,1,135.289,107.838Z" transform="translate(20.771 36.803)"/><path class="a" d="M108.225,88.451a15.225,15.225,0,1,1,15.225-15.225A15.241,15.241,0,0,1,108.225,88.451Zm0-22.838a7.613,7.613,0,1,0,7.613,7.613A7.625,7.625,0,0,0,108.225,65.613Z" transform="translate(51.641 -38.968)"/><path class="a" d="M110.032,110.063a19.032,19.032,0,1,1,16.493-28.532l-6.593,3.806a11.416,11.416,0,1,0-4.191,15.587l3.806,6.593A19.026,19.026,0,0,1,110.032,110.063Z" transform="translate(46.028 0.32)"/><path class="a" d="M105.192,86.516,98.6,82.71A11.441,11.441,0,0,0,100.125,77h7.613A19.026,19.026,0,0,1,105.192,86.516Z" transform="translate(67.353 14.352)"/><rect class="a" width="30.688" height="7.612" transform="matrix(0.124, -0.992, 0.992, 0.124, 152.283, 75.655)"/><rect class="a" width="7.614" height="11.804" transform="translate(136.295 36.737) rotate(-83.66)"/><rect class="a" width="7.612" height="14.614" transform="matrix(0.707, -0.707, 0.707, 0.707, 130.538, 75.019)"/><rect class="a" width="7.612" height="9.067" transform="translate(115.693 61.307) rotate(-45)"/><line class="c" y1="20.397" x2="33.996" transform="translate(102.553 64.547)"/><line class="c" x1="26.063" y2="66.858" transform="translate(107.086 141.604)"/><line class="c" x2="21.531" y2="66.858" transform="translate(138.815 141.604)"/></g><line class="d" x2="30.159" transform="translate(390.98 1929.507)"/><g transform="translate(353.722 1763.26)"><path class="a" d="M416.373,421.706a6.064,6.064,0,0,0,1.919,4.21,6.779,6.779,0,0,0,9.282,0,6.08,6.08,0,0,0,0-8.873,6.78,6.78,0,0,0-9.282,0,6.064,6.064,0,0,0-1.917,4.208h0v.456Zm2.792-3.827a5.5,5.5,0,0,1,7.532,0,4.934,4.934,0,0,1,0,7.2,5.5,5.5,0,0,1-7.532,0,4.934,4.934,0,0,1,0-7.2Z" transform="translate(-398.628 -398.243)"/><path class="a" d="M425.359,425.282h.057a1.46,1.46,0,0,0,1.056-.421,1.378,1.378,0,0,0,0-2.017,1.534,1.534,0,0,0-2.111,0,1.379,1.379,0,0,0,0,2.017A1.461,1.461,0,0,0,425.359,425.282Z" transform="translate(-401.111 -400.617)"/><path class="a" d="M424.175,426.517a4.1,4.1,0,0,0,2.849-1.13,3.732,3.732,0,0,0,0-5.447,4.161,4.161,0,0,0-5.7,0,3.74,3.74,0,0,0-1.17,2.493h-.009v.456h.009a3.743,3.743,0,0,0,1.174,2.5A4.094,4.094,0,0,0,424.175,426.517Zm-2.79-4.08a2.553,2.553,0,0,1,.819-1.656,2.737,2.737,0,0,1,1.961-.784h.019a2.733,2.733,0,0,1,1.96.784,2.5,2.5,0,0,1,.822,1.874v.018a2.494,2.494,0,0,1-.821,1.874,2.722,2.722,0,0,1-1.961.785h-.019a2.725,2.725,0,0,1-1.961-.785,2.553,2.553,0,0,1-.819-1.656h.007l-.009-.227.009-.228Z" transform="translate(-399.869 -399.431)"/><path class="a" d="M417.885,432.694h.156a17.034,17.034,0,0,0,11.732-4.676,15.474,15.474,0,0,0,0-22.58,17.029,17.029,0,0,0-11.732-4.677h-.155a17.037,17.037,0,0,0-11.733,4.676,15.475,15.475,0,0,0,0,22.58A17.029,17.029,0,0,0,417.885,432.694ZM402.5,416.5a14.425,14.425,0,0,1,4.529-10.226,15.78,15.78,0,0,1,10.866-4.329h.138a15.775,15.775,0,0,1,10.865,4.331,14.327,14.327,0,0,1,0,20.906,15.777,15.777,0,0,1-10.866,4.329h-.138a15.775,15.775,0,0,1-10.865-4.331,14.423,14.423,0,0,1-4.528-10.225h0V416.5Z" transform="translate(-393.659 -393.493)"/><path class="a" d="M412.593,420.518h0a8.455,8.455,0,0,0,2.662,5.922,9.243,9.243,0,0,0,6.414,2.547h.038a9.247,9.247,0,0,0,6.415-2.547,8.429,8.429,0,0,0,0-12.3,9.24,9.24,0,0,0-6.413-2.547h-.038a9.243,9.243,0,0,0-6.414,2.547,8.455,8.455,0,0,0-2.662,5.922l0,.159c0,.023,0,.046,0,.069s0,.046,0,.069Zm1.237-.271a7.312,7.312,0,0,1,2.3-5.269,8.005,8.005,0,0,1,5.548-2.2h.021a8,8,0,0,1,5.547,2.2,7.283,7.283,0,0,1,0,10.627,8,8,0,0,1-5.547,2.2h-.022a8,8,0,0,1-5.547-2.2,7.314,7.314,0,0,1-2.3-5.27v-.087Z" transform="translate(-397.385 -397.056)"/><path class="a" d="M408.817,419.331h0a10.909,10.909,0,0,0,3.405,7.636,11.924,11.924,0,0,0,8.187,3.257h.075a11.922,11.922,0,0,0,8.188-3.257,10.778,10.778,0,0,0,0-15.727,12.015,12.015,0,0,0-16.451,0,10.907,10.907,0,0,0-3.406,7.635v.087c0,.047,0,.094,0,.141s0,.094,0,.141Zm1.237-.344a9.747,9.747,0,0,1,3.044-6.91,10.665,10.665,0,0,1,7.321-2.911h.03a10.65,10.65,0,0,1,7.349,2.911,9.63,9.63,0,0,1,0,14.053,10.663,10.663,0,0,1-7.32,2.911h-.062a10.668,10.668,0,0,1-7.318-2.911,9.747,9.747,0,0,1-3.044-6.91v-.234Z" transform="translate(-396.143 -395.868)"/><path class="a" d="M405.04,418.143h0a13.237,13.237,0,0,0,4.147,9.348,14.478,14.478,0,0,0,9.96,3.968h.114a14.476,14.476,0,0,0,9.961-3.967,13.124,13.124,0,0,0,0-19.152,14.477,14.477,0,0,0-9.96-3.968h-.056a14.459,14.459,0,0,0-10.017,3.967,13.236,13.236,0,0,0-4.149,9.348v.009c0,.073,0,.146,0,.219s0,.146,0,.219Zm1.238-.42a12.086,12.086,0,0,1,3.786-8.547,13.216,13.216,0,0,1,9.092-3.62h.05a13.223,13.223,0,0,1,9.142,3.621,11.978,11.978,0,0,1,0,17.479,13.218,13.218,0,0,1-9.093,3.62h-.1a13.22,13.22,0,0,1-9.091-3.621,12.087,12.087,0,0,1-3.786-8.547v-.384Z" transform="translate(-394.901 -394.681)"/><path class="a" d="M416.623,433.93h.2a19.584,19.584,0,0,0,13.5-5.386,17.821,17.821,0,0,0,0-26.005,19.587,19.587,0,0,0-13.5-5.387h-.195a19.586,19.586,0,0,0-13.505,5.386,17.821,17.821,0,0,0,0,26.005A19.586,19.586,0,0,0,416.623,433.93Zm-17.9-18.617A16.757,16.757,0,0,1,404,403.374a18.59,18.59,0,0,1,25.453,0,16.675,16.675,0,0,1,0,24.332,18.326,18.326,0,0,1-12.637,5.039h-.18a18.331,18.331,0,0,1-12.636-5.041,16.756,16.756,0,0,1-5.27-11.937h0v-.456Z" transform="translate(-392.417 -392.306)"/><path class="a" d="M415.361,435.165h.234a22.142,22.142,0,0,0,15.277-6.1,20.17,20.17,0,0,0,0-29.432,22.137,22.137,0,0,0-15.276-6.1h-.234a22.14,22.14,0,0,0-15.278,6.1,20.171,20.171,0,0,0,0,29.432A22.143,22.143,0,0,0,415.361,435.165Zm-20.414-21.04a19.091,19.091,0,0,1,6.014-13.652,21.207,21.207,0,0,1,29.037,0,19.023,19.023,0,0,1,0,27.759,20.885,20.885,0,0,1-14.41,5.748h-.217a20.885,20.885,0,0,1-14.409-5.75,19.088,19.088,0,0,1-6.013-13.651h0v-.456Z" transform="translate(-391.175 -391.118)"/><path class="a" d="M414.105,436.4h.261a25.039,25.039,0,0,0,17.056-6.8,22.518,22.518,0,0,0,0-32.858,25.041,25.041,0,0,0-17.055-6.806h-.131a25.034,25.034,0,0,0-17.186,6.8,22.519,22.519,0,0,0,0,32.859A25.04,25.04,0,0,0,414.105,436.4ZM391.17,413.166v-.228h0a21.727,21.727,0,0,1,6.757-15.365,23.825,23.825,0,0,1,32.621,0,21.371,21.371,0,0,1,0,31.185,23.766,23.766,0,0,1-16.19,6.459h-.243a23.771,23.771,0,0,1-16.189-6.46,21.728,21.728,0,0,1-6.755-15.364h0Z" transform="translate(-389.932 -389.931)"/></g></g></svg>