<svg xmlns="http://www.w3.org/2000/svg" width="159.243" height="220.418" viewBox="0 0 159.243 220.418"><defs><style>.a,.c{fill:#38cae5;}.b{fill:#231f20;}.c,.d{stroke:#231f20;}.c{stroke-width:6px;}.d,.f{fill:none;}.d{stroke-linecap:round;}.e{stroke:none;}</style></defs><g transform="translate(-844.963 -1738.976)"><g transform="translate(850.592 1755.304)"><g transform="translate(34.149 19.926)"><g transform="translate(14.502 26.794)"><rect class="a" width="26.947" height="8.401" transform="translate(27.676)"/><rect class="a" width="21.003" height="8.401" transform="translate(9.234 21.003)"/><rect class="a" width="33.605" height="8.401" transform="translate(21.018 21.003)"/><rect class="a" width="25.605" height="8.401" transform="translate(29.152 42.006)"/><rect class="a" width="30.238" height="8.401" transform="translate(0 42.006)"/></g><path class="b" d="M215.112,392.811h-7.674V374.16a42.507,42.507,0,0,1,1.078-9.488l9.431-40.861a39.047,39.047,0,0,0-6.81-32.217l-25.933-34.588,6.139-4.6,25.933,34.584a46.767,46.767,0,0,1,8.153,38.548L216,366.395a34.372,34.372,0,0,0-.886,7.766Z" transform="translate(-107.684 -208.647)"/><path class="b" d="M212.138,347.44H176.51c-6.346,0-11.51-6.389-11.51-14.24V262h7.673v71.2c0,2.62,1.719,4.747,3.837,4.747h35.628Z" transform="translate(-165 -197.806)"/><rect class="b" width="39.799" height="7.673" transform="translate(3.837 115.102)"/><path class="b" d="M203.694,425.164H196.02V409.817a4.934,4.934,0,0,0-.936-3.046c-8.725-8.87-10.536-20.358-10.574-34.865a25.338,25.338,0,0,0-1.189-7.508L173.9,334.436a15.089,15.089,0,0,1-.9-5.191,15.349,15.349,0,0,1,30.057-4.389l8.249,27.5c.944,3.069,2.647,6.212,7.735,7.232V252.51a3.838,3.838,0,0,0-3.837-3.837H188.347V241H215.2a11.524,11.524,0,0,1,11.51,11.51v115.1h-3.837c-9.9,0-16.26-4.385-18.915-13.03L195.7,327.054a7.674,7.674,0,0,0-15.029,2.191,7.879,7.879,0,0,0,.487,2.709l9.484,30.153a33.1,33.1,0,0,1,1.539,9.776c.042,15.343,2.31,23.339,8.368,29.5a12.465,12.465,0,0,1,3.142,8.429Z" transform="translate(-142.306 -241)"/></g><g class="c" transform="translate(0 0)"><circle class="e" cx="36.269" cy="36.269" r="36.269"/><circle class="f" cx="36.269" cy="36.269" r="33.269"/></g><path class="d" d="M4823.427,1783v25.061h18.419" transform="translate(-4788.478 -1768.245)"/></g><line class="d" x1="16.16" y2="8.08" transform="translate(852.426 1921.879)"/><line class="d" y1="15.818" x2="12.941" transform="translate(972.229 1753.352)"/><line class="d" x1="15.006" y2="1.154" transform="translate(845.5 1897.639)"/><line class="d" y1="18.755" x2="0.91" transform="translate(957.711 1739.5)"/><line class="d" x1="6.926" y2="13.852" transform="translate(874.357 1940.348)"/><line class="d" y1="2.67" x2="18.081" transform="translate(985.557 1784.518)"/></g></svg>