<svg xmlns="http://www.w3.org/2000/svg" xmlns:xlink="http://www.w3.org/1999/xlink" width="624.613" height="624.613" viewBox="0 0 624.613 624.613"><defs><style>.a,.c{fill:none;}.b{clip-path:url(#a);}.c{stroke:#a7a8ab;stroke-width:0.4px;}</style><clipPath id="a"><path class="a" d="M0,109.351H624.613V-515.262H0Z" transform="translate(0 515.262)"/></clipPath></defs><g transform="translate(0 515.262)"><g class="b" transform="translate(0 -515.262)"><g transform="translate(283.027 283.578)"><path class="c" d="M5.174,10.347A29.551,29.551,0,0,0,34.725-19.2,29.551,29.551,0,0,0,5.174-48.756,29.551,29.551,0,0,0-24.378-19.2,29.551,29.551,0,0,0,5.174,10.347Z" transform="translate(24.378 48.756)"/></g><g transform="translate(221.479 222.029)"><path class="c" d="M15.9,31.8a90.826,90.826,0,0,0,90.826-90.827A90.828,90.828,0,0,0,15.9-149.852,90.829,90.829,0,0,0-74.926-59.025,90.827,90.827,0,0,0,15.9,31.8Z" transform="translate(74.926 149.852)"/></g><g transform="translate(147.39 147.376)"><path class="c" d="M28.874,57.748A164.929,164.929,0,0,0,193.8-107.181,164.929,164.929,0,0,0,28.874-272.109,164.929,164.929,0,0,0-136.055-107.181,164.929,164.929,0,0,0,28.874,57.748Z" transform="translate(136.055 272.109)"/></g><g transform="translate(73.136 72.861)"><path class="c" d="M41.919,83.839c132.242,0,239.443-107.207,239.443-239.447S174.161-395.051,41.919-395.051s-239.443,107.2-239.443,239.443S-90.322,83.839,41.919,83.839Z" transform="translate(197.524 395.051)"/></g><g transform="translate(0.242 0.242)"><path class="c" d="M54.633,109.266C226.981,109.266,366.7-30.452,366.7-202.8S226.981-514.863,54.633-514.863-257.431-375.145-257.431-202.8-117.715,109.266,54.633,109.266Z" transform="translate(257.431 514.863)"/></g></g></g></svg>