<svg xmlns="http://www.w3.org/2000/svg" xmlns:xlink="http://www.w3.org/1999/xlink" width="33" height="43" style=""><rect id="backgroundrect" width="100%" height="100%" x="0" y="0" fill="none" stroke="none"/><defs><style>.a{fill:none;}.b{clip-path:url(#a);}.c{fill:#4db9e6;}</style><clipPath id="a"><path class="a" d="M0,50.06499942016602 H49 V-5.798339870466407e-7 H0 z" id="svg_1"/></clipPath></defs><g class="currentLayer" style=""><title>Layer 1</title><g id="svg_2" class=""><g class="b" id="svg_3"><g id="svg_4"><path class="c" d="M32.61560664772988,26.998929063797 c-0.4890000000000003,1.469 -4.414,5.2 -6.227,2.6 C27.649606647729875,28.417929063796997 29.71560664772987,27.392929063797 31.196606647729872,27.787929063796994 c-0.788,-0.789 -2.523,-2.523 -7.174,-0.4730000000000003 l-0.02400000000000002,0.013000000000000018 a1.7510000000000003,1.7510000000000003 0 0 0 -0.2,-0.03300000000000004 c-1.355,-0.14900000000000016 -4.6560000000000015,-0.787 -7.114,2.938 l-0.046000000000000076,0.07100000000000002 a0.18700000000000017,0.18700000000000017 0 0 0 -0.15600000000000017,-0.1 c-0.34300000000000047,-0.01900000000000002 -0.7340000000000007,-0.054000000000000076 -0.8280000000000006,-0.264 a0.515,0.515 0 0 0 -0.09100000000000016,-0.14500000000000016 l0.34000000000000047,-0.272 c0.33900000000000047,-0.3240000000000004 0.20900000000000016,-0.9 0.3310000000000004,-1.331 a0.4240000000000003,0.4240000000000003 0 0 0 0,-0.22300000000000023 a0.17200000000000001,0.17200000000000001 0 0 0 0.01900000000000002,-0.017000000000000026 a0.5740000000000006,0.5740000000000006 0 0 1 0.04000000000000004,-0.04200000000000005 c0.2,-0.18800000000000017 0.9,0.01900000000000002 1.77,-0.6850000000000009 c0.9510000000000006,-0.772 2.1,-2.64 3.008,-7.33 a0.1140000000000001,0.1140000000000001 0 0 1 0.01600000000000002,-0.04100000000000004 a10.905,10.905 0 0 1 2.992,-2.909 a0.11200000000000009,0.11200000000000009 0 0 0 -0.11700000000000012,-0.19000000000000017 c-0.3910000000000004,0.21800000000000017 -0.7460000000000007,0.4300000000000003 -1.043,0.6170000000000007 a0.11200000000000009,0.11200000000000009 0 0 1 -0.137,-0.17500000000000004 c1.371,-1.3170000000000002 4.1,-3.817 5.763,-4.5 a28.99,28.99 0 0 0 -6.2,4.328 a0.11100000000000008,0.11100000000000008 0 0 1 -0.171,-0.139 a46.851,46.851 0 0 0 2.477,-5.339 a0.11200000000000009,0.11200000000000009 0 0 0 -0.2,-0.09200000000000016 c-0.9,1.828 -2.045,4.077 -2.924,5.464 a0.11200000000000009,0.11200000000000009 0 0 1 -0.2,-0.1 a23.118,23.118 0 0 0 1.028,-3.539 a0.11200000000000009,0.11200000000000009 0 0 0 -0.21800000000000017,-0.05100000000000006 a17.889,17.889 0 0 1 -2.083,5.274 a0.11300000000000009,0.11300000000000009 0 0 1 -0.054000000000000076,0.03800000000000001 c-1.6520000000000001,0.548 -3.7640000000000002,0.9450000000000006 -5.644,2.356 a9.528,9.528 0 0 0 -1.509,1.4 a6.67,6.67 0 0 0 -1,1.486 a0.1,0.1 0 0 0 -0.01000000000000001,0.046000000000000076 c0,0.046000000000000076 0,0.09400000000000017 0,0.14200000000000004 a0.7370000000000007,0.7370000000000007 0 0 0 -0.5630000000000006,0.06900000000000012 a1.707,1.707 0 0 0 -0.6400000000000008,0.5950000000000006 a0.54,0.54 0 0 1 -0.04000000000000004,0.06100000000000007 l-0.3850000000000004,0.52 a0.8870000000000008,0.8870000000000008 0 0 0 -0.31200000000000033,-0.1 a0.6730000000000009,0.6730000000000009 0 0 1 -0.3610000000000003,-0.18000000000000016 a1.124,1.124 0 0 1 -0.261,-0.37700000000000033 a0.14,0.14 0 0 0 -0.04700000000000004,-0.05700000000000005 a0.986,0.986 0 0 0 0.03200000000000004,-0.12300000000000008 c0.15900000000000017,-0.8290000000000006 2.91,-2.721 3.873,-5.557 a8.479,8.479 0 0 0 0.25,-4.254 a4.443,4.443 0 0 0 -0.6270000000000007,-1.5830000000000002 a2.275,2.275 0 0 0 0.37100000000000033,-0.6470000000000008 c0.6540000000000008,-1.7550000000000003 2.268,-7.266 -1.8,-10.483 c0.6300000000000007,1.5 1.5,4.254 -1.887,7.8 q-0.046000000000000076,-0.06000000000000006 -0.09000000000000014,-0.12300000000000008 c-1,-1.472 -3.2,-3.285 3,-9.489 c-1.2810000000000001,0 -8.909,-1.506 -12.062,13.322 c-1.96,9.217 6.694,11.784 7,11.85 a7.985,7.985 0 0 1 1.247,0.6640000000000009 a1.137,1.137 0 0 1 0.3900000000000004,0.4760000000000003 a0.56,0.56 0 0 0 0.233,0.279 L8.915606647729874,26.975929063796997 c0,0.006000000000000012 -0.007000000000000012,0.01400000000000001 -0.01200000000000001,0.021000000000000026 A7.072,7.072 0 0 0 7.359606647729873,30.150929063796994 a6.585,6.585 0 0 0 0.265,2.291 a0.6550000000000008,0.6550000000000008 0 0 0 0.10900000000000008,0.233 a0.16600000000000023,0.16600000000000023 0 0 0 -0.06400000000000008,0.13 l0,0.05300000000000007 a7.129,7.129 0 0 0 -0.20500000000000004,2.056 c0.06900000000000012,0.6430000000000008 0.8200000000000006,1.106 1.22,1.5 a0.17,0.17 0 0 0 0.08900000000000012,0.04700000000000004 l0.035,0.005000000000000006 a0.14100000000000001,0.14100000000000001 0 0 0 0.01200000000000001,0.0680000000000001 a0.3580000000000003,0.3580000000000003 0 0 1 0.02700000000000004,0.09300000000000017 c0.06900000000000012,0.514 -0.136,0.6620000000000009 0.21000000000000016,1.324 c0.24300000000000016,0.463 0.5890000000000006,0.459 0.9510000000000006,0.7120000000000006 l0,-0.006000000000000012 A0.263,0.263 0 0 0 10.062606647729872,38.731929063797 a1.6910000000000007,1.6910000000000007 0 0 1 0.15300000000000016,0.17600000000000016 c0.4730000000000003,0.6300000000000007 0.24500000000000016,3 1.8920000000000003,3.706 c1.235,0.532 1.545,-0.265 1.622,-0.7000000000000006 a0.264,0.264 0 0 1 0.2820000000000003,-0.21400000000000016 a2.168,2.168 0 0 0 1.6440000000000001,-0.508 c0.34100000000000047,-0.31700000000000034 0.16700000000000026,-0.92 0.06100000000000007,-1.2 a0.265,0.265 0 0 1 0.04000000000000004,-0.26 A1.369,1.369 0 0 0 15.415606647729874,37.571929063797 c-1.165,-0.8 -2.7430000000000003,-0.264 -3.474,-0.7260000000000006 l-0.01900000000000002,-0.01000000000000001 l0.01400000000000001,-0.01000000000000001 a0.9420000000000006,0.9420000000000006 0 0 1 -0.256,-0.5880000000000006 c-0.00800000000000001,-0.06900000000000012 -0.015000000000000019,-0.133 -0.021000000000000026,-0.19300000000000023 a0.1,0.1 0 0 0 0,-0.02300000000000004 a0.16700000000000026,0.16700000000000026 0 0 0 0.07,-0.136 c-0.006000000000000012,-0.6450000000000008 0.23500000000000001,-0.6230000000000007 0.6690000000000009,-1.214 a1.858,1.858 0 0 0 0.3270000000000004,-1.25 a0.16700000000000026,0.16700000000000026 0 0 0 -0.035,-0.1 a0.6340000000000008,0.6340000000000008 0 0 0 0.129,-0.253 a1.5,1.5 0 0 1 0.4100000000000003,-0.7060000000000006 c0.6510000000000008,-0.6740000000000009 0.8280000000000006,-1.456 1.247,-1.707 A0.3870000000000004,0.3870000000000004 0 0 0 14.595606647729873,30.721929063797 a0.3510000000000003,0.3510000000000003 0 0 1 0.05100000000000006,0.02300000000000004 a4.6770000000000005,4.6770000000000005 0 0 1 1.3940000000000001,1.463 a0.1,0.1 0 0 0 0.1,0.04700000000000004 a2.347,2.347 0 0 0 0.15500000000000017,0.6450000000000008 A5.281,5.281 0 0 0 20.069606647729874,35.431929063797 c1.8130000000000002,0.23700000000000004 13.44,-0.4440000000000004 12.545,-8.43 " id="svg_5"/></g></g></g></g></svg>