<svg xmlns="http://www.w3.org/2000/svg" width="160.721" height="26.71" viewBox="0 0 160.721 26.71"><g transform="translate(-61.734 -115.091)"><g transform="translate(196.533 115.091)"><path d="M399.45,118.884a12.96,12.96,0,1,0,3.8,9.168A12.929,12.929,0,0,0,399.45,118.884Zm-12.359,14.943h-2.681v-8.666h2.681Zm-1.355-9.8a1.6,1.6,0,1,1,1.589-1.6A1.593,1.593,0,0,1,385.737,124.028Zm11.409,9.8h-2.673v-4.551c0-1.246-.472-1.94-1.46-1.94-1.075,0-1.635.724-1.635,1.94v4.551h-2.572v-8.666h2.572v1.167a3.024,3.024,0,0,1,2.614-1.43c1.836,0,3.154,1.121,3.154,3.442Z" transform="translate(-377.326 -115.091)"/></g><g transform="translate(61.734 115.422)"><path d="M83.858,119.662a12.954,12.954,0,1,0,3.8,9.163A12.921,12.921,0,0,0,83.858,119.662Zm-5.55,4.074H76.6c-.6,0-.727.247-.727.87v1.506h2.434l-.234,2.647h-2.2v7.9H72.721v-7.866H71.077v-2.681h1.644V124c0-1.978,1.058-3.011,3.4-3.011h2.183Z" transform="translate(-61.734 -115.865)"/></g><g transform="translate(151.539 115.879)"><path d="M294.114,120.734a12.964,12.964,0,1,0,3.793,9.163A12.925,12.925,0,0,0,294.114,120.734Zm-3.676,6.345a8.055,8.055,0,0,1-12.4,7.156,5.693,5.693,0,0,0,4.195-1.171,2.84,2.84,0,0,1-2.647-1.97,2.85,2.85,0,0,0,1.28-.046,2.833,2.833,0,0,1-2.271-2.815,2.868,2.868,0,0,0,1.284.356A2.837,2.837,0,0,1,279,124.8a8.035,8.035,0,0,0,5.838,2.961,2.836,2.836,0,0,1,4.83-2.585,5.618,5.618,0,0,0,1.8-.69,2.829,2.829,0,0,1-1.246,1.568,5.717,5.717,0,0,0,1.627-.443A5.739,5.739,0,0,1,290.438,127.079Z" transform="translate(-271.986 -116.937)"/></g><g transform="translate(107.041 115.542)"><path d="M194.975,140.938a2.369,2.369,0,1,0,2.371,2.371A2.371,2.371,0,0,0,194.975,140.938Z" transform="translate(-182.014 -130.349)"/><path d="M195.877,134.485a2.336,2.336,0,0,0-1.351-1.351,3.856,3.856,0,0,0-1.317-.243c-.749-.034-.975-.042-2.873-.042s-2.12.008-2.869.042a3.91,3.91,0,0,0-1.322.243,2.213,2.213,0,0,0-.815.531,2.19,2.19,0,0,0-.531.82,4.012,4.012,0,0,0-.247,1.318c-.033.748-.042.974-.042,2.873s.009,2.12.042,2.869a4.012,4.012,0,0,0,.247,1.322,2.167,2.167,0,0,0,.531.815,2.117,2.117,0,0,0,.815.531,3.9,3.9,0,0,0,1.322.247c.749.033.974.042,2.869.042s2.125-.009,2.873-.042a3.848,3.848,0,0,0,1.317-.247,2.139,2.139,0,0,0,.82-.531,2.213,2.213,0,0,0,.531-.815,3.908,3.908,0,0,0,.243-1.322c.038-.749.042-.97.042-2.869s0-2.125-.042-2.873A3.907,3.907,0,0,0,195.877,134.485Zm-5.541,7.837a3.649,3.649,0,1,1,3.651-3.647A3.644,3.644,0,0,1,190.336,142.323Zm3.793-6.587a.853.853,0,1,1,.853-.853A.857.857,0,0,1,194.129,135.736Z" transform="translate(-177.375 -125.715)"/><path d="M189.93,119.943a12.955,12.955,0,1,0,3.8,9.163A12.907,12.907,0,0,0,189.93,119.943Zm-2.1,12.091a5.209,5.209,0,0,1-.331,1.727,3.44,3.44,0,0,1-.82,1.259,3.508,3.508,0,0,1-1.259.82,5.162,5.162,0,0,1-1.723.331c-.757.033-1,.042-2.932.042s-2.171-.009-2.928-.042a5.19,5.19,0,0,1-1.727-.331,3.579,3.579,0,0,1-1.259-.82,3.541,3.541,0,0,1-.82-1.259,5.3,5.3,0,0,1-.331-1.727c-.033-.757-.042-1-.042-2.928s.009-2.171.042-2.932a5.271,5.271,0,0,1,.331-1.723,3.512,3.512,0,0,1,.82-1.259,3.476,3.476,0,0,1,1.259-.82,5.2,5.2,0,0,1,1.727-.33c.757-.034,1-.042,2.928-.042s2.175.008,2.932.042a5.173,5.173,0,0,1,1.723.33,3.634,3.634,0,0,1,2.078,2.078,5.183,5.183,0,0,1,.331,1.723c.038.761.041,1,.041,2.932S187.868,131.277,187.831,132.034Z" transform="translate(-167.806 -116.146)"/></g></g></svg>