<svg xmlns="http://www.w3.org/2000/svg" width="1155.106" height="1209.258" viewBox="0 0 1155.106 1209.258"><defs><style>.a{fill:none;}.a,.b{stroke:#58595b;stroke-linecap:round;stroke-miterlimit:10;stroke-width:2.835px;stroke-dasharray:0 5.102;}.b{fill:#fff;}</style></defs><g transform="translate(2.004 1.417)"><path class="a" d="M1179.52,831.712c-65.686,2.856-127.473,29.974-143.656,60.437" transform="translate(-359.509 -226.096)"/><path class="a" d="M1219.781,953.937" transform="translate(-401.608 -254.073)"/><path class="a" d="M1274.825,826.261" transform="translate(-414.207 -224.848)"/><path class="a" d="M1366.338,825.386" transform="translate(-435.155 -224.648)"/><line class="a" x2="182.867" y2="0.611" transform="translate(608.872 970.907)"/><line class="a" y2="710.31" transform="translate(878.029)"/><path class="a" d="M1297.405,1067.889" transform="translate(-419.376 -280.157)"/><path class="a" d="M1297.405,1043.232" transform="translate(-419.376 -274.513)"/><line class="a" x1="113.629" y2="106.757" transform="translate(655.995 826.792)"/><line class="a" x1="94.118" y1="88.825" transform="translate(692.04 901.974)"/><path class="a" d="M1115.664,934.819" transform="translate(-377.775 -249.697)"/><path class="a" d="M1144.007,851.67" transform="translate(-384.263 -230.664)"/><path class="a" d="M1164.716,813.666" transform="translate(-389.003 -221.965)"/><path class="a" d="M1247.946,826.183" transform="translate(-408.055 -224.83)"/><line class="a" x2="215.535" transform="translate(610.919 901.173)"/><line class="a" x2="293" y2="0.113" transform="translate(820.316 900.604)"/><line class="a" x2="234.414" transform="translate(823.259 875.984)"/><line class="a" y2="160.158" transform="translate(754.363 877.145)"/><line class="a" x1="0.215" y2="119.773" transform="translate(377.919 964.316)"/><line class="a" x1="0.718" y2="118.607" transform="translate(335.072 962.757)"/><line class="a" y2="123.613" transform="translate(298.284 963.115)"/><line class="a" y2="123.613" transform="translate(282.684 962.548)"/><line class="a" y2="123.613" transform="translate(267.402 962.265)"/><line class="a" y2="83.301" transform="translate(914.889 993.718)"/><line class="a" y2="172.398" transform="translate(791.972 904.399)"/><line class="a" x2="551.48" transform="translate(537.736 1035.769)"/><line class="a" x1="94.118" y1="88.825" transform="translate(655.73 1040.205)"/><line class="a" x2="209.298" transform="translate(755.514 1076.098)"/><line class="a" x2="189.244" transform="translate(831.676 710.205)"/><line class="a" x2="579.706" transform="translate(407.587 665.451)"/><g transform="translate(0 9.385)"><path class="a" d="M1447.384,1012.821H1223.031s-10.142,30.139,70.778,109.338c0,0,51.651,49.356,21.234,147.493" transform="translate(-402.258 -276.937)"/><line class="a" x2="203.728" transform="translate(821.193 826.372)"/><line class="a" y2="109.868" transform="translate(791.787 787.134)"/><line class="a" y2="395.665" transform="translate(818.724 715.607)"/><g transform="translate(481.092)"><path class="a" d="M1047.01,1019.433" transform="translate(-843.152 -278.45)"/><line class="a" x2="132.868" transform="translate(206.471 729.183)"/><line class="a" y1="0.371" x2="184.406" transform="translate(125.851 816.442)"/><path class="a" d="M1118.4,1260.14H977.227v35.029" transform="translate(-827.178 -333.548)"/><line class="a" y1="0.207" x2="199.797" transform="translate(125.846 700.498)"/><circle class="a" cx="11.798" cy="11.798" r="11.798" transform="translate(325.905 689.531)"/><line class="a" x2="157.697" y2="109.171" transform="translate(129.359 703.043)"/><line class="a" y2="442.543" transform="translate(263.152 313.103)"/><line class="a" y2="662.373" transform="translate(456.698 70.809)"/><line class="a" y2="662.373" transform="translate(479.059 140.979)"/><line class="a" x2="0.416" y2="259.8" transform="translate(237.372 496.04)"/><line class="a" x2="0.603" y2="56.523" transform="translate(219.707 701.581)"/><line class="a" x2="0.603" y2="56.523" transform="translate(205.611 700.448)"/><line class="a" x2="205.986" transform="translate(85.495 681.127)"/><path class="a" d="M1033.635,907.039" transform="translate(-840.09 -252.723)"/><line class="a" y2="653.93" transform="translate(171.237)"/><line class="a" y2="134.981" transform="translate(149.715 520.741)"/><path class="a" d="M1028.2,1118.772s-15.4,53.4-76.063,70.49" transform="translate(-821.435 -301.189)"/><path class="a" d="M782.636,826.844" transform="translate(-782.636 -234.366)"/><path class="a" d="M984.588,825.763" transform="translate(-828.863 -234.119)"/><line class="a" y2="661.914" transform="translate(289.073 203.874)"/><line class="a" x2="0.224" y2="337.864" transform="translate(208.801 792.198)"/><line class="a" y2="338.962" transform="translate(171.636 755.783)"/><line class="a" x1="0.771" y2="373.161" transform="translate(125.446 702.339)"/><line class="a" y2="170.45" transform="translate(231.019 817.671)"/><line class="a" y2="212.002" transform="translate(252.226 818.05)"/><line class="a" x2="347.727" transform="translate(131.174 986.889)"/></g><g transform="translate(0 48.447)"><line class="a" x2="208.506" transform="translate(611.605 737.502)"/><line class="a" x2="43.584" transform="translate(567.305 687.8)"/><line class="a" x1="0.809" y2="101.339" transform="translate(588.015 654.519)"/><line class="a" x1="0.365" y2="910.901" transform="translate(566.579)"/><path class="a" d="M901.841,877.011s-28.5,91.781-140.7,121.15" transform="translate(-296.625 -294.297)"/><line class="a" x2="145.107" transform="translate(462.489 757.933)"/><line class="a" x1="433.766" transform="translate(461.857 707.227)"/><line class="a" x2="277.367" transform="translate(329.509 582.42)"/><path class="a" d="M762.306,758.443" transform="translate(-296.891 -267.157)"/><path class="a" d="M402.6,758.443" transform="translate(-214.554 -267.157)"/><path class="a" d="M751.387,760.857" transform="translate(-294.391 -267.709)"/><path class="a" d="M399.074,758.443" transform="translate(-213.746 -267.157)"/><path class="a" d="M818.158,830.635" transform="translate(-309.675 -283.681)"/><line class="a" y2="43.966" transform="translate(481.856 608.383)"/><line class="b" x2="147.818" transform="translate(460.187 728.17)"/><line class="a" x2="316.884" transform="translate(502.337 817.72)"/><g transform="translate(0 69.232)"><line class="a" x2="422.726" transform="translate(187.361 583.669)"/><path class="a" d="M650.551,1254.034s-100.957-56.185-104.839-126.672-32.288-142.885-78.792-159.3" transform="translate(-229.276 -384.371)"/><line class="a" x2="194.056" transform="translate(214.619 553.156)"/><line class="a" y2="689.285" transform="translate(406.938)"/><line class="a" y2="570.949" transform="translate(460.185 151.793)"/><line class="a" y2="182.68" transform="translate(503.221 691.722)"/><path class="a" d="M617.1,965.295" transform="translate(-263.653 -383.737)"/><path class="a" d="M644.6,965.138" transform="translate(-269.947 -383.701)"/><line class="a" x1="76.011" y1="71.389" transform="translate(330.841 478.646)"/><line class="a" y2="579.372" transform="translate(326.889 109.807)"/><path class="a" d="M533.6,967.914" transform="translate(-244.539 -384.337)"/><line class="a" x2="275.449" transform="translate(51.373 632.834)"/><line class="a" x2="445.003" transform="translate(22.886 687.943)"/><line class="a" x2="161.884" y2="1.167" transform="translate(49.22 662.101)"/><line class="a" x2="237.544" transform="translate(189.663 783.502)"/><line class="a" x2="78.077" transform="translate(186.75 713.572)"/><line class="a" x2="459.235" transform="translate(44.259 738.565)"/><line class="a" x2="430.283" transform="translate(186.089 832.79)"/><line class="a" x2="340.435" transform="translate(187.657 868.68)"/><line class="a" x2="340.435" transform="translate(187.021 886.468)"/><line class="a" y2="81.312" transform="translate(235.419 605.03)"/><line class="a" y2="51.775" transform="translate(273.028 634.027)"/><line class="a" x1="339.464" transform="translate(190.972 603.399)"/><line class="a" y1="186.534" x2="186.534" transform="translate(0 644.865)"/><path class="a" d="M478.724,992.933" transform="translate(-231.978 -390.064)"/><path class="a" d="M506.221,993.424" transform="translate(-238.272 -390.176)"/><line class="a" x1="0.213" y2="54.035" transform="translate(214.417 551.16)"/><line class="a" x2="0.793" y2="281.47" transform="translate(427.69 584.731)"/><line class="a" x1="133.258" y1="105.519" transform="translate(193.017 478.721)"/><line class="a" x2="378.901" transform="translate(354.724 723.603)"/><path class="a" d="M449.89,1298.639V1179.795h37.3v-75.318" transform="translate(-225.378 -415.596)"/><path class="a" d="M259.256,1451.237" transform="translate(-181.742 -494.97)"/><path class="a" d="M282.533,1104.226" transform="translate(-187.07 -415.539)"/><line class="a" y2="911.456" transform="translate(187.849 92.044)"/><line class="a" y2="390.551" transform="translate(353.779 688.807)"/><line class="a" y2="214.373" transform="translate(460.039 804.859)"/><path class="a" d="M714.184,1340.06" transform="translate(-285.875 -469.522)"/><path class="a" d="M714.184,1179.259" transform="translate(-285.875 -432.714)"/><line class="a" y2="207.674" transform="translate(396.32 741.329)"/><line class="a" y2="343.701" transform="translate(481.373 605.769)"/><line class="a" x1="113.629" y2="106.757" transform="translate(365.31 871.21)"/><line class="a" x2="178.809" transform="translate(351.897 949.194)"/><line class="a" y2="182.787" transform="translate(315.68 740.866)"/><line class="a" x2="417.357" y2="2.115" transform="translate(189.226 803.851)"/><line class="a" x2="971.97" transform="translate(77.499 477.912)"/><path class="a" d="M1654.133,823.6" transform="translate(-501.032 -351.304)"/><path class="a" d="M403.063,823.6" transform="translate(-214.659 -351.304)"/><line class="a" y2="293.901" transform="translate(128.627 632.467)"/></g></g></g></g></svg>