<svg xmlns="http://www.w3.org/2000/svg" xmlns:xlink="http://www.w3.org/1999/xlink" version="1.1" style="" xml:space="preserve" width="370" height="513"><rect id="backgroundrect" width="100%" height="100%" x="0" y="0" fill="none" stroke="none" class="" style=""/>
















<g class="currentLayer" style=""><title>Layer 1</title><g id="svg_1" class="selected" fill="#ffffff" fill-opacity="1">
	<g id="svg_2" fill="#ffffff" fill-opacity="1">
		<path d="M331.035000007242,213.56466650772094 c-12.295,-1.17 -24.556,2.8920000000000003 -33.639,11.15 c-1.122,1.021 -2.186,2.096 -3.188,3.217 c-6.805,-12.704 -19.329,-21.819 -33.946,-23.214 c-12.295,-1.17 -24.556,2.8920000000000003 -33.639,11.15 c-1.122,1.021 -2.186,2.096 -3.188,3.217 c-5.941,-11.089 -16.24,-19.443 -28.485,-22.315 c21.223,-21.098 33.958,-50.2 33.958,-81.275 C228.90700000724195,52.38566650772095 177.56300000724195,1.0416665077209473 114.45300000724197,1.0416665077209473 S7.241965235826875e-9,52.38566650772095 7.241965235826875e-9,115.49566650772094 c0,46.302 28.254,88.244 70.773,105.817 v49.155 l-31.869,22.764 c-18.882,13.488 -26.638,37.341 -19.3,59.353 l31.431,94.297 c13.193,39.573 50.082,66.162 91.796,66.162 h130.862 c53.354,0 96.76,-43.406 96.76,-96.76 V258.56366650772094 C370.45300000724194,235.43766650772093 353.139000007242,215.67366650772095 331.035000007242,213.56466650772094 zM16.58700000724197,115.49566650772094 c0,-53.963 43.903,-97.866 97.866,-97.866 c53.963,0 97.866,43.903 97.866,97.866 c0,37.248 -21.382,71.191 -54.186,87.594 v-21.686 c21.942,-14.579 35.387,-39.4 35.387,-65.908 c0,-43.597 -35.47,-79.067 -79.067,-79.067 c-43.597,0 -79.067,35.47 -79.067,79.067 c0,26.506 13.446,51.328 35.387,65.908 v21.686 C37.97100000724197,186.68666650772096 16.58700000724197,152.74266650772094 16.58700000724197,115.49566650772094 zM118.71500000724197,72.01966650772094 c-12.296,-1.172 -24.556,2.89 -33.638,11.149000000000001 c-9.09,8.265 -14.304,20.048 -14.304,32.327 v44.644 c-11.839,-11.626 -18.799,-27.699 -18.799,-44.644 c0,-34.451 28.028,-62.479 62.479,-62.479 c34.451,0 62.479,28.028 62.479,62.479 c0,16.947 -6.96,33.019 -18.799,44.645 v-43.123 C158.13400000724195,93.89166650772094 140.82000000724196,74.12566650772095 118.71500000724197,72.01966650772094 zM273.69300000724195,496.45466650772096 H142.83000000724198 c-34.564,0 -65.129,-22.03 -76.059,-54.819 l-31.431,-94.296 c-5.022,-15.061 0.28500000000000014,-31.381 13.205,-40.609 l22.228,-15.878 v72.352 c0,4.58 3.712,8.294 8.294,8.294 c4.581,0 8.294,-3.713 8.294,-8.294 V115.49566650772094 c0,-7.617 3.235,-14.927 8.874,-20.053 c5.716,-5.197 13.146,-7.652 20.906,-6.91 c13.686,1.304 24.406,13.816 24.406,28.484 v175.413 c0,4.58 3.712,8.294 8.294,8.294 c4.581,0 8.294,-3.713 8.294,-8.294 v-53.08 c0,-7.617 3.235,-14.927 8.874,-20.053 c5.715,-5.196 13.137,-7.657 20.906,-6.91 c13.685,1.3050000000000002 24.405,13.817 24.405,28.485 v7.325 v53.08 c0,4.58 3.712,8.294 8.294,8.294 s8.294,-3.713 8.294,-8.294 v-53.08 c0,-7.617 3.235,-14.927 8.874,-20.053 c5.715,-5.196 13.137,-7.657 20.906,-6.91 c13.685,1.3050000000000002 24.405,13.817 24.405,28.485 V257.04166650772095 v53.08 c0,4.58 3.712,8.294 8.294,8.294 s8.294,-3.713 8.294,-8.294 V257.04166650772095 c0,-7.617 3.234,-14.927 8.874,-20.053 c5.715,-5.196 13.137,-7.657 20.906,-6.91 c13.685,1.3050000000000002 24.405,13.817 24.405,28.485 V416.28166650772096 h0.003000000000000003 C353.86600000724195,460.4896665077209 317.901000007242,496.45466650772096 273.69300000724195,496.45466650772096 z" id="svg_3" fill="#ffffff" fill-opacity="1"/>
	</g>
</g><g id="svg_4" class="">
</g><g id="svg_5" class="">
</g><g id="svg_6" class="">
</g><g id="svg_7" class="">
</g><g id="svg_8" class="">
</g><g id="svg_9" class="">
</g><g id="svg_10" class="">
</g><g id="svg_11" class="">
</g><g id="svg_12" class="">
</g><g id="svg_13" class="">
</g><g id="svg_14" class="">
</g><g id="svg_15" class="">
</g><g id="svg_16" class="">
</g><g id="svg_17" class="">
</g><g id="svg_18" class="">
</g></g></svg>