<?xml version="1.0" standalone="no"?>
<!DOCTYPE svg PUBLIC "-//W3C//DTD SVG 1.1//EN" "http://www.w3.org/Graphics/SVG/1.1/DTD/svg11.dtd" >
<svg>
<metadata>
Created by FontForge 20090622 at Mon May 27 16:56:16 2019
 By deploy user
Copyright (c) 2006 by Joseph Miceli. All rights reserved.
</metadata>
<defs>
<font id="SHAOLIN-Display" horiz-adv-x="558" >
  <font-face 
    font-family="SHAOLIN Display"
    font-weight="900"
    font-stretch="normal"
    units-per-em="1000"
    panose-1="2 0 5 3 0 0 0 2 0 4"
    ascent="800"
    descent="-200"
    x-height="850"
    cap-height="850"
    bbox="-495.261 -372 1299 1188"
    underline-thickness="50"
    underline-position="-50"
    unicode-range="U+0020-U+2212"
  />
<missing-glyph horiz-adv-x="212" 
 />
    <glyph glyph-name=".notdef" horiz-adv-x="212" 
 />
    <glyph glyph-name=".null" horiz-adv-x="0" 
 />
    <glyph glyph-name="nonmarkingreturn" horiz-adv-x="333" 
 />
    <glyph glyph-name="space" unicode=" " horiz-adv-x="212" 
 />
    <glyph glyph-name="exclam" unicode="!" horiz-adv-x="252" 
d="M210 270q-1 -17 -14 -29.5t-30 -12.5h-80q-17 0 -30.5 12.5t-13.5 29.5l-24 537q-1 18 11.5 30.5t29.5 12.5h134q18 0 30 -12.5t11 -30.5zM218 42q0 -17 -12.5 -29.5t-29.5 -12.5h-101q-18 0 -30.5 12.5t-12.5 29.5v108q0 17 12.5 29.5t30.5 12.5h101q17 0 29.5 -12.5
t12.5 -29.5v-108z" />
    <glyph glyph-name="quotedbl" unicode="&#x22;" horiz-adv-x="287" 
d="M113 637q0 -9 -6.5 -15.5t-15.5 -6.5h-40q-8 0 -14.5 6.5t-7.5 15.5l-12 192q0 9 6 15t14 6h68q9 0 15 -6t5 -15zM258 637q0 -9 -7 -15.5t-16 -6.5h-40q-8 0 -14.5 6.5t-7.5 15.5l-12 192q0 9 6.5 15t14.5 6h67q9 0 15 -6t5 -15z" />
    <glyph glyph-name="numbersign" unicode="#" horiz-adv-x="847" 
d="M764 393q16 0 26 -11.5t6 -27.5l-17 -85q-3 -16 -16 -27.5t-29 -11.5h-114l-35 -190q-4 -16 -18.5 -28t-31.5 -12h-102q-17 0 -27.5 12t-7.5 28l35 190h-85l-35 -190q-4 -16 -18.5 -28t-31.5 -12h-102q-17 0 -27.5 12t-7.5 28l35 190h-129q-16 0 -25 11.5t-6 27.5l16 85
q3 16 15.5 27.5t28.5 11.5h129l13 67h-122q-16 0 -25.5 11.5t-6.5 27.5l16 84q4 16 17 27.5t29 11.5h122l35 188q4 17 18.5 28.5t31.5 11.5h101q18 0 28.5 -12t6.5 -28l-35 -188h86l35 188q4 17 18.5 28.5t31.5 11.5h101q18 0 28.5 -12t6.5 -28l-35 -188h123q16 0 26 -11.5
t7 -27.5l-17 -84q-4 -16 -17 -27.5t-29 -11.5h-123l-12 -67h115zM377 393h85l13 67h-86z" />
    <glyph glyph-name="dollar" unicode="$" horiz-adv-x="508" 
d="M241 -3q0 -16 -11.5 -27.5t-27.5 -11.5h-65q-16 0 -27.5 11.5t-11.5 27.5v79l-53 52q-28 30 -28 67v78q0 16 11.5 27.5t27.5 11.5h83q17 0 28 -11t11 -28v-33q0 -16 11 -27.5t28 -11.5h75q16 0 27.5 11.5t11.5 27.5v67q0 16 -11.5 27.5t-27.5 11.5h-144q-19 0 -44 27
l-59 59q-11 10 -19 30t-8 36l-1 156q0 39 28 67l53 52v81q0 29 29 38h3l3 1h69q5 0 6 -1h4q1 0 2 -1q11 -4 15 -9q7 -5 10 -15q2 -6 2 -9v-51h25v47q0 16 11.5 27.5t27.5 11.5h66q16 0 27.5 -11.5t11.5 -27.5v-79l53 -54q28 -26 28 -67v-78q0 -16 -11.5 -27.5t-27.5 -11.5
h-82q-16 0 -27.5 11.5t-11.5 27.5v33q0 17 -11.5 28.5t-27.5 11.5h-75q-17 0 -28 -11.5t-11 -28.5v-66q0 -17 11 -28t28 -11h154q6 0 34 -28l58 -58q12 -11 20 -31t8 -36v-156q0 -39 -28 -67l-53 -54v-77q0 -16 -11.5 -27.5t-27.5 -11.5h-66q-16 0 -27.5 11.5t-11.5 27.5v45
h-25v-45z" />
    <glyph glyph-name="ampersand" unicode="&#x26;" horiz-adv-x="639" 
d="M597 546q17 0 29.5 -12.5t12.5 -30.5v-73q0 -17 -12.5 -29.5t-29.5 -12.5h-43v-266q0 -17 -8.5 -38.5t-21.5 -34.5l-18 -18q-13 -13 -34.5 -22t-38.5 -9h-303q-42 0 -73 31l-19 18q-12 13 -21 34.5t-9 38.5v181q0 42 30 74l62 62q12 12 12 29.5t-12 29.5l-41 41
q-29 31 -29 73v116q0 43 29 74l19 18q32 30 73 30h205q41 0 73 -30l19 -18q30 -32 30 -74v-100q0 -18 -12.5 -30t-30.5 -12h-80q-17 0 -29.5 12t-12.5 30v21q0 18 -12.5 30.5t-30.5 12.5h-33q-18 0 -30 -10t-12 -24q0 -36 29 -65l47 -47h326zM326 158q17 0 29.5 13t12.5 30
v145q0 35 -35 42h-58l-51 -51q-29 -31 -29 -73v-63q0 -18 12 -30.5t30 -12.5h89z" />
    <glyph glyph-name="quotesingle" unicode="'" horiz-adv-x="182" 
d="M153 637q0 -9 -6.5 -15.5t-15.5 -6.5h-80q-8 0 -14.5 6.5t-7.5 15.5l-12 192q0 9 6 15t14 6h108q9 0 15 -6t5 -15z" />
    <glyph glyph-name="parenleft" unicode="(" horiz-adv-x="360" 
d="M235 -116q-42 0 -77 24q-53 36 -95.5 170.5t-42.5 346.5t43 347t95 171q36 23 77 23h103q16 0 16.5 -14t-13.5 -24l-1 -1q-62 -44 -99 -181q-35 -130 -35 -321q0 -119 13.5 -214t30.5 -145t39 -84.5t33 -44t19 -12.5q12 -5 17 -15t0.5 -18t-16.5 -8h-107z" />
    <glyph glyph-name="parenright" unicode=")" horiz-adv-x="360" 
d="M125 -116h-107q-12 0 -16.5 8t0.5 18t17 15q8 3 19 12.5t33 44t39 84.5t30.5 145t13.5 214q0 114 -13.5 207t-29.5 143t-39 88.5t-32.5 47.5t-19.5 16v1h-1q-14 10 -13.5 24t16.5 14h103q41 0 77 -23q52 -36 95 -171t43 -347t-42.5 -346.5t-95.5 -170.5q-35 -24 -77 -24z
" />
    <glyph glyph-name="asterisk" unicode="*" horiz-adv-x="458" 
d="M425 331q13 -13 12.5 -30t-12.5 -30l-38 -38q-12 -12 -29.5 -12.5t-30.5 12.5l-50 81l22 -91q0 -18 -12.5 -30.5t-30.5 -12.5h-53q-17 0 -29.5 12.5t-12.5 30.5l21 81l-43 -70q-13 -13 -30.5 -13t-30.5 13l-38 37q-12 13 -12 30.5t13 29.5l77 46l-92 -21
q-17 0 -29.5 12.5t-12.5 29.5v54q0 17 12.5 29.5t29.5 12.5l95 -24l-81 51q-12 12 -12.5 29.5t12.5 29.5l38 39q12 12 30 11.5t29 -11.5l45 -76l-21 85q0 18 12.5 30.5t29.5 12.5h53q18 0 30.5 -12.5t12.5 -30.5l-23 -96l51 86q13 13 30.5 13t30.5 -12l37 -38
q13 -13 13 -30.5t-13 -30.5l-78 -48l86 22q18 0 30 -12.5t12 -29.5v-54q0 -17 -12 -29.5t-30 -12.5l-83 19z" />
    <glyph glyph-name="plus" unicode="+" horiz-adv-x="551" 
d="M479 504q18 0 30 -12.5t12 -29.5v-74q0 -17 -12 -29.5t-30 -12.5h-112q-11 0 -11 -11l-1 -112q0 -18 -12.5 -30.5t-30.5 -12.5h-73q-17 0 -29.5 12.5t-12.5 30.5v112q0 11 -12 11h-113q-17 0 -29.5 12.5t-12.5 29.5v74q0 17 12.5 29.5t29.5 12.5h113q5 0 8.5 4t3.5 8v112
q0 18 12.5 30.5t29.5 12.5h73q18 0 30.5 -12.5t12.5 -30.5l1 -112q0 -12 11 -12h112z" />
    <glyph glyph-name="comma" unicode="," horiz-adv-x="220" 
d="M61 0q-19 3 -31.5 18t-12.5 32v116q0 18 12.5 30t29.5 12h102q17 0 29.5 -12t12.5 -30v-116q0 -47 -30 -93q-52 -87 -75 -87q-17 0 -24 12t0 28l15 42q6 16 -2.5 30.5t-25.5 17.5z" />
    <glyph glyph-name="hyphen" unicode="-" horiz-adv-x="417" 
d="M348 518q16 0 27.5 -11.5t11.5 -27.5v-108q0 -16 -11.5 -28t-27.5 -12h-279q-16 0 -27.5 11.5t-11.5 28.5v108q0 16 11.5 27.5t27.5 11.5h279z" />
    <glyph glyph-name="period" unicode="." horiz-adv-x="220" 
d="M203 42q0 -17 -12.5 -29.5t-29.5 -12.5h-102q-17 0 -29.5 13t-12.5 29v125q0 17 12.5 29.5t29.5 12.5h102q17 0 29.5 -12.5t12.5 -29.5v-125z" />
    <glyph glyph-name="slash" unicode="/" horiz-adv-x="502" 
d="M454 850q18 0 26 -11.5t2 -28.5l-275 -770q-7 -16 -23.5 -28t-33.5 -12h-102q-17 0 -25.5 12t-2.5 28l276 770q6 16 23 28t34 12h101z" />
    <glyph glyph-name="zero" unicode="0" horiz-adv-x="525" 
d="M478 802q30 -30 30 -74v-606q0 -17 -8.5 -38.5t-21.5 -34.5l-19 -18q-12 -13 -33.5 -22t-38.5 -9h-248q-17 0 -39 9t-34 22l-18 18q-13 13 -22 34.5t-9 38.5v606q0 18 9 39.5t22 34.5l18 18q12 12 34 21t39 9h248q17 0 38.5 -9t33.5 -21zM322 600q0 44 -9 67
q-5 11 -19 18t-31 7t-32 -7.5t-19 -17.5q-9 -23 -9 -67v-349q0 -44 9 -67q4 -11 19 -18.5t32 -7.5t31.5 7.5t18.5 18.5q9 23 9 67v349z" />
    <glyph glyph-name="one" unicode="1" horiz-adv-x="320" 
d="M261 850q17 0 29.5 -12.5t12.5 -30.5v-765q0 -17 -12.5 -29.5t-29.5 -12.5h-101q-18 0 -30.5 12.5t-12.5 29.5v607q0 18 -12.5 30.5t-29.5 12.5h-34q-17 0 -22 10t5 24l68 90q10 14 30 24t38 10h101z" />
    <glyph glyph-name="two" unicode="2" horiz-adv-x="524" 
d="M478 802q29 -31 29 -74v-181q0 -43 -26 -76l-222 -279q-11 -14 -6 -24t22 -10h190q18 0 30 -12.5t12 -29.5v-74q0 -17 -12 -29.5t-30 -12.5h-406q-17 0 -29.5 12.5t-12.5 29.5v74q0 42 26 75l252 310q26 33 26 75v73q0 18 -12 30.5t-30 12.5h-33q-18 0 -30.5 -12.5
t-12.5 -30.5v-102q0 -17 -12.5 -30t-29.5 -13h-102q-17 0 -29.5 13t-12.5 30v181q0 42 30 74l18 18q32 30 74 30h247q41 0 73 -30z" />
    <glyph glyph-name="three" unicode="3" horiz-adv-x="524" 
d="M38 728q0 44 30 74l19 18q32 30 73 30h205q17 0 38.5 -9t33.5 -21l19 -18q30 -30 30 -74v-116q0 -43 -30 -73l-40 -41q-13 -12 -13 -29.5t13 -29.5l62 -62q29 -31 29 -74v-181q0 -42 -29 -73l-20 -18q-12 -13 -33.5 -22t-38.5 -9h-248q-17 0 -38.5 9t-34.5 22l-18 18
q-13 13 -21.5 34.5t-8.5 38.5v122q0 18 12.5 30t29.5 12h102q17 0 29.5 -12t12.5 -30v-43q0 -17 12.5 -30t30.5 -13h33q18 0 30 12.5t12 30.5v63q0 42 -29 73l-59 58q-13 12 -21.5 32.5t-8.5 37.5q0 16 8.5 36.5t21.5 33.5l59 58q29 29 29 65q0 14 -12 24t-30 10h-33
q-18 0 -30.5 -12.5t-12.5 -30.5v-42q0 -18 -12.5 -30.5t-29.5 -12.5h-80q-18 0 -30.5 12.5t-12.5 30.5v121z" />
    <glyph glyph-name="four" unicode="4" horiz-adv-x="499" 
d="M194 850q17 0 27.5 -12.5t8.5 -29.5l-48 -341q-2 -17 9 -29.5t28 -12.5h34q17 0 30 12.5t13 29.5v340q0 18 12 30.5t30 12.5h101q17 0 30 -12.5t13 -30.5v-765q0 -17 -13 -29.5t-30 -12.5h-101q-18 0 -30 12.5t-12 29.5v182q0 18 -13 30.5t-30 12.5h-150q-42 0 -72 30
l-19 19q-13 13 -20 34t-4 38l56 420q2 17 16.5 29.5t31.5 12.5h102z" />
    <glyph glyph-name="five" unicode="5" horiz-adv-x="524" 
d="M219 652q-16 0 -16 -16v-48q0 -10 7 -17t17 -7h145q17 0 38.5 -8.5t34.5 -21.5l33 -33q12 -12 20.5 -33.5t8.5 -38.5v-307q0 -49 -38 -85.5t-83 -36.5h-251q-49 0 -83.5 35t-34.5 84v151q0 17 12.5 29.5t29.5 12.5h102q17 0 29.5 -12.5t12.5 -29.5v-69q0 -17 12.5 -30
t30.5 -13h33q18 0 30 12.5t12 30.5v162q0 18 -12 30.5t-30 12.5h-137q-52 0 -88.5 37t-36.5 89v251q0 28 19.5 47.5t47.5 19.5h381q18 0 30 -12.5t12 -30.5v-113q0 -17 -12 -29.5t-30 -12.5h-246z" />
    <glyph glyph-name="six" unicode="6" horiz-adv-x="524" 
d="M353 544q73 0 113.5 -48.5t40.5 -135.5v-159q0 -44 -21 -79l-50 -85q-9 -15 -28 -26t-36 -11h-220q-18 0 -36.5 11t-27.5 26l-50 85q-21 35 -21 79v448q0 46 21 79l50 85q9 16 27.5 26.5t36.5 10.5h280q20 0 37 -10t17 -27v-115q0 -16 -16 -26t-35 -10h-189
q-18 0 -30.5 -12.5t-12.5 -30.5v-113q10 17 26.5 27.5t29.5 10.5h94zM321 353q0 18 -12 30.5t-30 12.5h-33q-18 0 -30.5 -12.5t-12.5 -30.5v-152q0 -17 12.5 -30t30.5 -13h33q18 0 30 12.5t12 30.5v152z" />
    <glyph glyph-name="seven" unicode="7" horiz-adv-x="507" 
d="M306 42q-5 -18 -19.5 -30t-32.5 -12h-121q-18 0 -27.5 12.5t-5.5 29.5q6 18 70 265.5t79 310.5q4 17 -5 29t-27 12h-149q-20 0 -36 8.5t-16 25.5v123q0 17 20.5 25.5t47.5 8.5h363q17 0 26.5 -23.5t5.5 -57.5l-68.5 -288.5l-70 -295z" />
    <glyph glyph-name="eight" unicode="8" horiz-adv-x="525" 
d="M463 802q28 -30 28 -74v-181q0 -43 -28 -73l-18 -18q-10 -14 -5 -30.5t19 -30.5l19 -18q30 -30 30 -74v-181q0 -17 -8.5 -38.5t-21.5 -34.5l-19 -18q-12 -13 -33.5 -22t-38.5 -9h-248q-17 0 -39 9t-34 22l-18 18q-13 13 -22 34.5t-9 38.5v181q0 18 9 39.5t22 34.5l18 18
q14 14 19 30.5t-5 30.5l-18 18q-28 32 -28 73v181q0 42 28 74l18 18q11 12 31.5 21t36.5 9h229q16 0 36.5 -9t31.5 -21zM322 649q0 18 -12.5 30.5t-29.5 12.5h-34q-17 0 -30 -12.5t-13 -30.5v-102q0 -17 13 -30t30 -13h34q17 0 29.5 13t12.5 30v102zM322 303
q0 18 -12.5 30.5t-29.5 12.5h-34q-17 0 -30 -12.5t-13 -30.5v-102q0 -17 13 -30t30 -13h34q17 0 29.5 13t12.5 30v102z" />
    <glyph glyph-name="nine" unicode="9" horiz-adv-x="524" 
d="M171 306q-73 0 -113.5 48.5t-40.5 135.5v199q0 68 42.5 114.5t92.5 46.5h220q55 0 95 -57.5t40 -143.5v-448q0 -46 -21 -79l-50 -85q-9 -16 -27.5 -26.5t-36.5 -10.5h-280q-20 0 -37 10t-17 27v115q0 16 16 26t35 10h189q18 0 30.5 12.5t12.5 30.5v113
q-10 -17 -26.5 -27.5t-29.5 -10.5h-94zM203 497q0 -18 12 -30.5t30 -12.5h33q18 0 30.5 12.5t12.5 30.5v152q0 17 -12.5 30t-30.5 13h-33q-18 0 -30 -12.5t-12 -30.5v-152z" />
    <glyph glyph-name="colon" unicode=":" horiz-adv-x="220" 
d="M203 388q0 -17 -12.5 -29.5t-29.5 -12.5h-102q-17 0 -29.5 12.5t-12.5 29.5v125q0 17 12.5 29.5t29.5 12.5h102q17 0 29.5 -12.5t12.5 -29.5v-125zM203 42q0 -17 -12.5 -29.5t-29.5 -12.5h-102q-17 0 -29.5 13t-12.5 29v125q0 17 12.5 29.5t29.5 12.5h102
q17 0 29.5 -12.5t12.5 -29.5v-125z" />
    <glyph glyph-name="semicolon" unicode=";" horiz-adv-x="220" 
d="M203 388q0 -17 -12.5 -29.5t-29.5 -12.5h-102q-17 0 -29.5 12.5t-12.5 29.5v125q0 17 12.5 29.5t29.5 12.5h102q17 0 29.5 -12.5t12.5 -29.5v-125zM59 0q-17 3 -29.5 18t-12.5 32v116q0 18 12.5 30t29.5 12h102q17 0 29.5 -12t12.5 -30v-116q0 -47 -30 -93
q-52 -87 -75 -87q-17 0 -24 12t0 28l15 42q6 16 -2.5 30.5t-25.5 17.5h-2z" />
    <glyph glyph-name="less" unicode="&#x3c;" horiz-adv-x="394" 
d="M10 402l-2 2v1q-18 18 0 40l2 1l252 252q10 10 22.5 10t21.5 -10l61 -61q9 -8 9 -21.5t-9 -23.5l-169 -168l169 -168q10 -10 9.5 -22.5t-9.5 -21.5l-61 -62q-22 -20 -44 0z" />
    <glyph glyph-name="equal" unicode="=" horiz-adv-x="536" 
d="M467 484q16 0 27.5 -11.5t11.5 -27.5v-83q0 -16 -11.5 -27.5t-27.5 -11.5h-398q-16 0 -27.5 11.5t-11.5 27.5v83q0 16 11.5 27.5t27.5 11.5h398zM467 271q16 0 27.5 -11.5t11.5 -27.5v-82q0 -16 -11.5 -28t-27.5 -12h-398q-16 0 -27.5 11.5t-11.5 28.5v82q0 16 11.5 27.5
t27.5 11.5h398z" />
    <glyph glyph-name="greater" unicode="&#x3e;" horiz-adv-x="394" 
d="M133 150q-10 -9 -23 -8.5t-21 8.5l-62 62q-9 9 -9 21.5t9 22.5l169 168l-169 168q-9 10 -9 23.5t9 21.5l62 61q8 10 21 10t23 -10l251 -252l2 -1q18 -21 1 -40v-1l-3 -2z" />
    <glyph glyph-name="question" unicode="?" horiz-adv-x="524" 
d="M385 850q50 0 86 -36t36 -86v-261q0 -17 -11 -35.5t-26 -26.5l-77 -40q-16 -7 -27 -25.5t-11 -36.5v-33q0 -17 -12.5 -29.5t-29.5 -12.5h-101q-18 0 -30.5 12.5t-12.5 29.5v112q0 18 11 36.5t27 26.5l77 39q15 9 26 27.5t11 35.5v102q0 18 -12 30.5t-30 12.5h-33
q-18 0 -30.5 -12.5t-12.5 -30.5v-102q0 -17 -12.5 -30t-29.5 -13h-102q-17 0 -29.5 13t-12.5 30v181q0 50 36 86t86 36h246zM355 42q0 -17 -12.5 -29.5t-29.5 -12.5h-101q-18 0 -30.5 12.5t-12.5 29.5v108q0 17 12.5 29.5t30.5 12.5h101q17 0 29.5 -12.5t12.5 -29.5v-108z
" />
    <glyph glyph-name="at" unicode="@" horiz-adv-x="1032" 
d="M1022 477q11 -35 -1 -68l-102 -291q-5 -14 -18.5 -28.5t-26.5 -20.5l-116 -49q-13 -5 -30 -1.5t-27 14.5l-69 91q-24 28 -24 63v5q-57 -37 -123 -37q-77 0 -137 53t-60 133q0 73 54 124q55 51 143 51h110q2 24 -21 51.5t-53 27.5q-23 0 -40 -6t-23.5 -12t-14.5 -16.5
t-9 -11.5q-11 -11 -41 -1l-54 16q-14 4 -19.5 16.5t1.5 25.5q12 22 43 49q65 56 157 56q91 0 151 -63q42 -44 56 -140q6 -28 6 -71v-186q0 -40 11 -44q8 -3 18 5t15 22l66 175q12 33 1 68l-65 196q-4 13 -17.5 27t-27.5 18l-186 65q-34 11 -68 0l-186 -65q-13 -4 -27 -18
t-18 -27l-65 -196q-11 -34 0 -68l65 -196q5 -14 18 -27.5t27 -18.5l173 -64q34 -11 66 5l3 2q14 7 29 3t24 -16l70 -95q8 -12 4.5 -23.5t-17.5 -16.5l-111 -36q-34 -11 -68 0l-305 109q-14 4 -27.5 17.5t-18.5 28.5l-109 328q-11 34 0 68l109 328q5 14 18.5 27.5t27.5 18.5
l318 109q34 11 68 0l318 -109q14 -5 27.5 -18.5t18.5 -27.5zM585 348q3 4 2.5 21t0.5 21h-103q-27 0 -44 -15t-17 -34q0 -14 12.5 -25t32 -15t41 -2.5t42.5 14.5t33 35z" />
    <glyph glyph-name="A" unicode="A" 
d="M518 225q6 -38 6 -77v-109q0 -16 -11.5 -27.5t-27.5 -11.5h-108q-16 0 -27.5 11.5t-11.5 27.5v51q0 21 -9 30t-30 9h-40q-21 0 -30 -9t-9 -30v-51q0 -16 -11.5 -27.5t-27.5 -11.5h-108q-16 0 -27.5 11.5t-11.5 27.5v109q0 41 6 77l94 587q2 16 16 27t30 11h198
q15 0 29 -11.5t16 -26.5zM238 296q-2 -20 6 -29t28 -9h14q20 0 28 9t6 29l-29 265q-1 15 -12 15t-12 -15z" />
    <glyph glyph-name="B" unicode="B" horiz-adv-x="564" 
d="M525 564q0 -22 -34.5 -52.5t-34.5 -41.5q0 -13 19.5 -26.5t39.5 -30.5t20 -36v-263q0 -54 -30 -84t-84 -30h-348q-39 0 -39 39v772q0 39 39 39h338q54 0 84 -30t30 -83v-173zM259 692q-39 0 -39 -39v-84q0 -39 39 -39h41q39 0 39 39v84q0 39 -39 39h-41zM310 158
q39 0 39 39v135q0 39 -39 39h-51q-39 0 -39 -39v-135q0 -39 39 -39h51z" />
    <glyph glyph-name="C" unicode="C" 
d="M377 505q-39 0 -39 39v109q0 39 -39 39h-40q-39 0 -39 -39v-456q0 -39 39 -39h40q39 0 39 39v110q0 39 39 39h108q39 0 39 -39v-193q0 -54 -30 -84t-83 -30h-263q-54 0 -84 30t-30 84v623q0 53 30 83t84 30h263q53 0 83 -30t30 -83v-193q0 -39 -39 -39h-108z" />
    <glyph glyph-name="D" unicode="D" 
d="M497 746q27 -26 27 -67v-508q0 -39 -27 -66l-76 -77q-28 -28 -46 -28h-302q-39 0 -39 39v772q0 39 39 39h302q17 0 46 -27zM258 158q80 0 80 83v368q0 83 -80 83q-38 0 -38 -39v-456q0 -39 38 -39z" />
    <glyph glyph-name="E" unicode="E" horiz-adv-x="520" 
d="M259 692q-17 0 -28 -11t-11 -28v-84q0 -17 11 -28t28 -11h144q17 0 28 -11.5t11 -28.5v-79q0 -17 -11 -28.5t-28 -11.5h-144q-17 0 -28 -11t-11 -28v-135q0 -17 11 -28t28 -11h188q17 0 28 -11t11 -28v-29q0 -40 -25 -65t-65 -25h-323q-17 0 -28 11t-11 28v772
q0 17 11 28t28 11h323q40 0 65 -25t25 -65v-29q0 -17 -11 -28t-28 -11h-188z" />
    <glyph glyph-name="F" unicode="F" horiz-adv-x="500" 
d="M259 692q-17 0 -28 -11t-11 -28v-84q0 -17 11 -28t28 -11h124q17 0 28 -11.5t11 -28.5v-79q0 -17 -11 -28.5t-28 -11.5h-124q-17 0 -28 -11t-11 -28v-293q0 -17 -11 -28t-28 -11h-108q-17 0 -28 11t-11 28v772q0 17 11 28t28 11h303q40 0 65 -25t25 -65v-29
q0 -17 -11 -28t-28 -11h-168z" />
    <glyph glyph-name="G" unicode="G" horiz-adv-x="559" 
d="M378 610q-17 0 -28 11t-11 28v4q0 17 -11 28t-28 11h-40q-17 0 -28.5 -11t-11.5 -28v-456q0 -17 11.5 -28t28.5 -11h40q17 0 28 11t11 28v110q0 17 -8.5 28t-21.5 11t-21 11t-8 28v80q0 17 8 28t21 11h177q17 0 28 -11t11 -28v-351q0 -50 -32 -82t-82 -32h-263
q-50 0 -82 32t-32 82v623q0 50 32 81.5t82 31.5h263q50 0 82 -31.5t32 -81.5v-88q0 -17 -11 -28t-28 -11h-108z" />
    <glyph glyph-name="H" unicode="H" horiz-adv-x="559" 
d="M486 850q17 0 28 -11t11 -28v-772q0 -17 -11 -28t-28 -11h-108q-17 0 -28 11t-11 28v288q0 17 -11 28t-28 11h-41q-17 0 -28 -11t-11 -28v-288q0 -17 -11 -28t-28 -11h-108q-17 0 -28 11t-11 28v772q0 17 11 28t28 11h108q17 0 28 -11t11 -28v-268q0 -17 11 -28t28 -11
h41q17 0 28 11t11 28v268q0 17 11 28t28 11h108z" />
    <glyph glyph-name="I" unicode="I" horiz-adv-x="254" 
d="M220 39q0 -16 -11.5 -27.5t-27.5 -11.5h-108q-16 0 -27.5 11.5t-11.5 27.5v772q0 16 11.5 27.5t27.5 11.5h108q16 0 27.5 -11.5t11.5 -27.5v-772z" />
    <glyph glyph-name="J" unicode="J" 
d="M524 153q0 -42 -27 -67l-58 -59q-30 -27 -50 -27h-215q-25 0 -54 27l-59 59q-27 27 -27 67v154q0 39 39 39h108q39 0 39 -39v-110q0 -39 39 -39h40q39 0 39 39v614q0 39 39 39h108q39 0 39 -39v-658z" />
    <glyph glyph-name="K" unicode="K" horiz-adv-x="559" 
d="M498 357q27 -27 27 -66v-252q0 -17 -11 -28t-28 -11h-108q-17 0 -28 11t-11 28v205q0 38 -28 66l-28 28q-28 28 -45 28q-18 0 -18 -39v-288q0 -17 -11 -28t-28 -11h-108q-17 0 -28 11t-11 28v772q0 17 11 28t28 11h108q17 0 28 -11t11 -28v-248q0 -39 18 -39q17 0 45 28
l28 28q28 28 28 66v165q0 17 11 28t28 11h108q17 0 28 -11t11 -28v-212q0 -41 -28 -67l-58 -58q-28 -28 -28 -29t28 -29z" />
    <glyph glyph-name="L" unicode="L" horiz-adv-x="518" 
d="M445 158q16 0 27.5 -11.5t11.5 -27.5v-80q0 -16 -11.5 -27.5t-27.5 -11.5h-372q-16 0 -27.5 11.5t-11.5 27.5v772q0 16 11.5 27.5t27.5 11.5h108q16 0 27.5 -11.5t11.5 -27.5v-614q0 -16 11.5 -27.5t27.5 -11.5h186z" />
    <glyph glyph-name="M" unicode="M" horiz-adv-x="794" 
d="M728 850q14 0 23 -11t9 -28v-772q0 -17 -11.5 -28t-28.5 -11h-108q-17 0 -28 11t-11 28v352q0 16 -7 14q-7 -1 -10 -15l-70 -323q-4 -17 -18 -27.5t-32 -10.5h-75q-17 0 -30.5 11t-17.5 27l-75 332q-2 10 -6.5 13.5t-8 -0.5t-3.5 -13v-360q0 -17 -11 -28t-28 -11h-108
q-17 0 -28 11t-11 28v772q0 17 8.5 28t22.5 11h204q16 0 30 -11t17 -27l66 -339q4 -18 15.5 -18t15.5 18l65 339q3 16 17 27t30 11h203z" />
    <glyph glyph-name="N" unicode="N" horiz-adv-x="622" 
d="M548 850q17 0 28.5 -11t11.5 -28v-772q0 -17 -11.5 -28t-28.5 -11h-120q-29 0 -46 37l-121 271q-16 36 -32 38q-9 1 -9 -16v-291q0 -17 -11 -28t-28 -11h-108q-17 0 -28 11t-11 28v772q0 17 11 28t28 11h118q32 0 49 -37l121 -270q17 -37 32 -40q8 -1 8 15v293
q0 17 11.5 28t28.5 11h107z" />
    <glyph glyph-name="O" unicode="O" horiz-adv-x="583" 
d="M537 695l12 -235v-83l-12 -222q-2 -47 -49 -101t-92 -54h-202q-50 0 -98 56q-30 35 -39.5 55.5t-10.5 43.5l-12 222v83l12 235q3 50 40 97q44 58 92 58h234q44 0 86 -56q37 -48 39 -99zM312 158q15 0 27 12.5t12 26.5l10 86v271l-10 99q0 15 -12 27t-27 12h-41
q-14 0 -26.5 -12t-12.5 -27l-10 -99v-271l10 -86q0 -14 12.5 -26.5t26.5 -12.5h41z" />
    <glyph glyph-name="P" unicode="P" 
d="M499 824q25 -25 25 -50v-375q0 -32 -25 -57q-10 -10 -35 -18t-42 -8h-163q-16 0 -27.5 -11.5t-11.5 -27.5v-238q0 -16 -11.5 -27.5t-27.5 -11.5h-108q-16 0 -27.5 11.5t-11.5 27.5v772q0 16 11.5 27.5t27.5 11.5h361q39 0 65 -26zM299 474q16 0 27.5 11.5t11.5 27.5v140
q0 16 -11.5 27.5t-27.5 11.5h-40q-16 0 -27.5 -11.5t-11.5 -27.5v-140q0 -16 11.5 -27.5t27.5 -11.5h40z" />
    <glyph glyph-name="Q" unicode="Q" horiz-adv-x="643" 
d="M586 158q17 0 28.5 -11.5t11.5 -27.5v-80q0 -16 -11.5 -27.5t-28.5 -11.5h-443q-34 0 -61 27l-20 20q-28 28 -28 67v622q0 39 28 67l20 19q11 11 29 19.5t32 8.5h282q39 0 67 -28l20 -19q27 -29 27 -67v-539q0 -16 11.5 -27.5t27.5 -11.5h8zM314 158q16 0 27.5 11.5
t11.5 27.5v456q0 16 -11.5 27.5t-27.5 11.5h-55q-16 0 -27.5 -11.5t-11.5 -27.5v-456q0 -16 11.5 -27.5t27.5 -11.5h55z" />
    <glyph glyph-name="R" unicode="R" horiz-adv-x="564" 
d="M409 0q-16 0 -33 10t-24 25l-115 230q-4 10 -8 13t-6.5 -1.5t-2.5 -15.5v-222q0 -16 -11.5 -27.5t-27.5 -11.5h-108q-17 0 -28 11t-11 28v772q0 16 11.5 27.5t27.5 11.5h361q39 0 65 -26q25 -25 25 -50v-364q0 -22 -27 -47l-64 -64q-7 -7 -6.5 -22t7.5 -30l112 -213
q7 -14 0.5 -24t-22.5 -10h-115zM259 691q-17 0 -28 -11.5t-11 -27.5v-258q0 -16 8 -19t19 8l64 63q11 12 27 28v178q0 16 -11.5 27.5t-27.5 11.5h-40z" />
    <glyph glyph-name="S" unicode="S" horiz-adv-x="559" 
d="M378 584q-17 0 -28 11t-11 28v30q0 17 -11 28t-28 11h-41q-17 0 -28 -11t-11 -28v-90q0 -17 11 -28t28 -11h122q33 0 58 -27l58 -59q28 -28 28 -67v-219q0 -38 -28 -66l-58 -59q-29 -27 -49 -27h-216q-27 0 -54 27l-59 59q-27 27 -27 66v115q0 17 11 28t28 11h108
q17 0 28 -11t11 -28v-70q0 -17 11 -28t28 -11h41q17 0 28 11t11 28v130q0 17 -11 28t-28 11h-122q-33 0 -58 27l-58 59q-28 28 -28 67v179q0 38 28 66l58 59q29 27 49 27h216q27 0 54 -27l59 -59q27 -27 27 -66v-75q0 -17 -11 -28t-28 -11h-108z" />
    <glyph glyph-name="T" unicode="T" horiz-adv-x="559" 
d="M525 730q0 -16 -11.5 -27.5t-27.5 -11.5h-75q-16 0 -27.5 -11.5t-11.5 -27.5v-613q0 -17 -11 -28t-28 -11h-108q-16 0 -27.5 11.5t-11.5 27.5v613q0 16 -11 27.5t-28 11.5h-74q-16 0 -27.5 11.5t-11.5 27.5v81q0 16 11.5 27.5t27.5 11.5h413q16 0 27.5 -11.5t11.5 -27.5
v-81z" />
    <glyph glyph-name="U" unicode="U" 
d="M524 152q0 -41 -27 -66l-58 -59q-29 -27 -50 -27h-215q-27 0 -54 27l-59 59q-27 27 -27 66v659q0 16 11.5 27.5t27.5 11.5h108q16 0 27.5 -11.5t11.5 -27.5v-614q0 -17 11 -28t28 -11h40q17 0 28 11t11 28v614q0 16 11.5 27.5t27.5 11.5h108q16 0 27.5 -11.5t11.5 -27.5
v-659z" />
    <glyph glyph-name="V" unicode="V" horiz-adv-x="559" 
d="M486 850q16 0 27.5 -11.5t11.5 -27.5v-308q0 -37 -8 -77l-90 -389q-4 -15 -18 -26t-30 -11h-199q-16 0 -29.5 11t-17.5 26l-90 389q-9 36 -9 77v308q0 16 11.5 27.5t27.5 11.5h108q16 0 27.5 -11.5t11.5 -27.5v-285q0 -39 9 -77l42 -199q4 -16 9 -16t8 16l43 199
q8 34 8 77v285q0 16 11.5 27.5t27.5 11.5h108z" />
    <glyph glyph-name="W" unicode="W" horiz-adv-x="862" 
d="M788 850q16 0 28 -11.5t12 -27.5v-219q0 -39 -9 -77l-95 -477q-3 -16 -12 -27t-18 -11h-184q-9 0 -18.5 11t-13.5 26l-37 136q-5 15 -10.5 15t-9.5 -15l-37 -136q-5 -15 -14 -26t-19 -11h-184q-9 0 -17.5 11t-11.5 27l-96 477q-8 34 -8 77v219q0 16 11.5 27.5t27.5 11.5
h108q16 0 27.5 -11.5t11.5 -27.5v-195q0 -36 8 -78l35 -186q3 -16 8 -16t9 15l48 188q9 38 9 77v194q0 17 11.5 28.5t28.5 11.5h107q17 0 28.5 -11.5t11.5 -28.5v-194q0 -42 10 -77l47 -188q4 -15 9.5 -15t7.5 16l36 186q7 37 7 78v195q0 16 11.5 27.5t27.5 11.5h108z" />
    <glyph glyph-name="X" unicode="X" horiz-adv-x="545" 
d="M435 463q-7 -39 0 -76l75 -349q3 -16 -6 -27t-25 -11h-108q-16 0 -30 11t-17 27l-44 200q-3 16 -7.5 16t-8.5 -16l-42 -200q-4 -16 -18 -27t-30 -11h-108q-16 0 -25 11t-5 27l74 349q9 37 0 76l-74 349q-4 15 5 26.5t25 11.5h108q16 0 30 -11.5t18 -26.5l42 -201
q4 -16 8.5 -16t7.5 16l44 201q3 15 17 26.5t30 11.5h108q16 0 25 -11.5t6 -26.5z" />
    <glyph glyph-name="Y" unicode="Y" horiz-adv-x="541" 
d="M477 850q16 0 24 -11t3 -26l-128 -407q-12 -34 -12 -76v-291q0 -16 -11.5 -27.5t-27.5 -11.5h-108q-17 0 -28 11t-11 28v291q0 36 -12 76l-129 407q-5 15 3 26t24 11h108q16 0 30.5 -11t19.5 -27l38 -139q4 -15 10 -15t10 15l40 139q4 16 18.5 27t30.5 11h108z" />
    <glyph glyph-name="Z" unicode="Z" horiz-adv-x="562" 
d="M289 194q-7 -15 0 -25.5t23 -10.5h167q16 0 27.5 -11.5t11.5 -27.5v-80q0 -16 -11.5 -27.5t-27.5 -11.5h-338q-40 0 -67 27l-24 24q-11 11 -14.5 30t2.5 34l235 540q7 15 0 25.5t-23 10.5h-143q-16 0 -27.5 11.5t-11.5 27.5v81q0 16 11.5 27.5t27.5 11.5h314q39 0 67 -28
l24 -24q11 -11 14.5 -29.5t-2.5 -34.5z" />
    <glyph glyph-name="bracketleft" unicode="[" horiz-adv-x="299" 
d="M223 807q-18 0 -30 -12t-12 -30v-680q0 -18 12 -30.5t30 -12.5h33q18 0 30.5 -12t12.5 -30v-73q0 -17 -12.5 -30t-30.5 -13h-194q-17 0 -29.5 13t-12.5 30v996q0 18 12.5 30.5t29.5 12.5h194q18 0 30.5 -12.5t12.5 -30.5v-73q0 -17 -12.5 -30t-30.5 -13h-33z" />
    <glyph glyph-name="backslash" unicode="\" horiz-adv-x="502" 
d="M150 850q17 0 33.5 -11.5t23.5 -28.5l276 -770q5 -16 -3 -28t-26 -12h-101q-17 0 -34 12t-23 28l-276 770q-6 16 2.5 28t25.5 12h102z" />
    <glyph glyph-name="bracketright" unicode="]" horiz-adv-x="299" 
d="M42 807q-17 0 -29.5 13t-12.5 30v73q0 18 12.5 30.5t29.5 12.5h194q18 0 30.5 -12.5t12.5 -30.5v-996q0 -17 -12.5 -30t-30.5 -13h-194q-17 0 -29.5 13t-12.5 30v73q0 18 12.5 30t29.5 12h34q17 0 29.5 13t12.5 30v680q0 18 -12.5 30t-29.5 12h-34z" />
    <glyph glyph-name="asciicircum" unicode="^" horiz-adv-x="551" 
d="M469 762q13 -7 17.5 -21.5t-2.5 -27.5l-26 -48q-7 -13 -21 -17t-28 3l-92 50q-13 7 -31.5 7t-31.5 -7l-92 -50q-14 -7 -28 -3t-21 17l-26 48q-7 13 -2.5 27.5t17.5 21.5l152 82q13 7 31.5 7t31.5 -7z" />
    <glyph glyph-name="underscore" unicode="_" horiz-adv-x="569" 
d="M513 -1q16 0 27.5 -11.5t11.5 -27.5v-108q0 -16 -11.5 -27.5t-27.5 -11.5h-457q-16 0 -27.5 11.5t-11.5 27.5v108q0 16 11.5 27.5t27.5 11.5h457z" />
    <glyph glyph-name="grave" unicode="`" horiz-adv-x="231" 
d="M229 912q4 -8 0 -14.5t-13 -6.5h-74q-16 0 -31 21l-105 158q-13 21 4 21h101q9 0 21 -6.5t16 -14.5z" />
    <glyph glyph-name="a" unicode="a" 
d="M518 225q6 -32 6 -77v-109q0 -16 -11.5 -27.5t-27.5 -11.5h-108q-16 0 -27.5 11.5t-11.5 27.5v21q0 16 -11.5 27.5t-27.5 11.5h-40q-17 0 -28 -11.5t-11 -27.5v-21q0 -16 -11.5 -27.5t-27.5 -11.5h-108q-16 0 -27.5 11.5t-11.5 27.5v109q0 35 6 77l94 587q3 16 16.5 27
t29.5 11h198q16 0 29.5 -11t15.5 -27zM238 296q-2 -16 8 -27t26 -11h14q16 0 26 11t8 27l-35 265q-6 33 -11 0z" />
    <glyph glyph-name="b" unicode="b" horiz-adv-x="559" 
d="M525 564q0 -39 -28 -67l-18 -19q-12 -12 -12 -28t12 -28l18 -18q28 -28 28 -67v-223q0 -16 -8 -36t-20 -31l-18 -19q-30 -28 -68 -28h-338q-16 0 -27.5 11.5t-11.5 27.5v772q0 16 11.5 27.5t27.5 11.5h338q39 0 68 -27l18 -20q12 -11 20 -30.5t8 -35.5v-173zM259 692
q-16 0 -27.5 -11.5t-11.5 -27.5v-84q0 -16 11.5 -27.5t27.5 -11.5h41q16 0 27.5 11.5t11.5 27.5v84q0 16 -11.5 27.5t-27.5 11.5h-41zM300 158q16 0 27.5 11.5t11.5 27.5v135q0 16 -11.5 27.5t-27.5 11.5h-41q-16 0 -27.5 -11.5t-11.5 -27.5v-135q0 -16 11.5 -27.5
t27.5 -11.5h41z" />
    <glyph glyph-name="c" unicode="c" 
d="M377 505q-16 0 -27.5 11.5t-11.5 27.5v109q0 16 -11.5 27.5t-27.5 11.5h-40q-16 0 -27.5 -11.5t-11.5 -27.5v-456q0 -16 11.5 -27.5t27.5 -11.5h40q16 0 27.5 11.5t11.5 27.5v110q0 16 11.5 27.5t27.5 11.5h108q16 0 27.5 -11.5t11.5 -27.5v-193q0 -16 -7.5 -36
t-19.5 -31l-19 -19q-30 -28 -67 -28h-263q-39 0 -67 28l-20 19q-11 11 -19 31t-8 36v623q0 39 27 66l20 20q27 27 67 27h263q38 0 67 -27l19 -20q27 -25 27 -66v-193q0 -16 -11 -27.5t-28 -11.5h-108z" />
    <glyph glyph-name="d" unicode="d" 
d="M497 746q27 -25 27 -67v-508q0 -41 -27 -66l-76 -77q-30 -28 -46 -28h-302q-16 0 -27.5 11.5t-11.5 27.5v772q0 17 11 28t28 11h302q17 0 46 -27zM258 158q36 0 58 22t22 61v368q0 39 -22 61q-20 22 -58 22q-16 0 -27 -11.5t-11 -27.5v-456q0 -16 11 -27.5t27 -11.5z" />
    <glyph glyph-name="e" unicode="e" horiz-adv-x="520" 
d="M259 692q-16 0 -27.5 -11.5t-11.5 -27.5v-84q0 -16 11.5 -27.5t27.5 -11.5h144q16 0 27.5 -12t11.5 -28v-79q0 -17 -11.5 -28.5t-27.5 -11.5h-144q-16 0 -27.5 -11.5t-11.5 -27.5v-135q0 -16 11.5 -27.5t27.5 -11.5h188q16 0 27.5 -11.5t11.5 -27.5v-29q0 -36 -25 -65
q-29 -25 -65 -25h-323q-16 0 -27.5 11.5t-11.5 27.5v772q0 16 11.5 27.5t27.5 11.5h323q39 0 65 -26q25 -25 25 -64v-29q0 -16 -11.5 -27.5t-27.5 -11.5h-188z" />
    <glyph glyph-name="f" unicode="f" horiz-adv-x="500" 
d="M259 692q-16 0 -27.5 -11.5t-11.5 -27.5v-84q0 -16 11.5 -27.5t27.5 -11.5h124q16 0 27.5 -11.5t11.5 -28.5v-79q0 -17 -11 -28.5t-28 -11.5h-124q-16 0 -27.5 -11.5t-11.5 -27.5v-293q0 -16 -11.5 -27.5t-27.5 -11.5h-108q-16 0 -27.5 11.5t-11.5 27.5v772
q0 16 11.5 27.5t27.5 11.5h303q41 0 64 -26q26 -23 26 -64v-29q0 -16 -11.5 -27.5t-27.5 -11.5h-168z" />
    <glyph glyph-name="g" unicode="g" horiz-adv-x="559" 
d="M378 610q-16 0 -27.5 11.5t-11.5 27.5v4q0 16 -11.5 27.5t-27.5 11.5h-40q-16 0 -28 -11.5t-12 -27.5v-456q0 -16 12 -27.5t28 -11.5h40q16 0 27.5 11.5t11.5 27.5v110q0 17 -8.5 28t-21.5 11t-21 11.5t-8 27.5v80q0 17 8 28t21 11h177q16 0 27.5 -11.5t11.5 -27.5v-351
q0 -16 -8 -36t-19 -31l-19 -19q-30 -28 -68 -28h-263q-16 0 -36 8.5t-30 19.5l-20 19q-11 11 -19.5 31t-8.5 36v623q0 38 28 66l20 20q10 11 30 19t36 8h263q39 0 68 -27l19 -20q27 -27 27 -66v-88q0 -16 -11.5 -27.5t-27.5 -11.5h-108z" />
    <glyph glyph-name="h" unicode="h" horiz-adv-x="559" 
d="M486 850q16 0 27.5 -11.5t11.5 -27.5v-772q0 -16 -11.5 -27.5t-27.5 -11.5h-108q-16 0 -27.5 11.5t-11.5 27.5v268q0 16 -11.5 27.5t-27.5 11.5h-41q-16 0 -27.5 -11.5t-11.5 -27.5v-268q0 -16 -11.5 -27.5t-27.5 -11.5h-108q-16 0 -27.5 11.5t-11.5 27.5v772
q0 16 11.5 27.5t27.5 11.5h108q17 0 28 -11t11 -28v-268q0 -16 11.5 -27.5t27.5 -11.5h41q16 0 27.5 11.5t11.5 27.5v268q0 16 11.5 27.5t27.5 11.5h108z" />
    <glyph glyph-name="i" unicode="i" horiz-adv-x="254" 
d="M220 39q0 -16 -11.5 -27.5t-27.5 -11.5h-108q-16 0 -27.5 11.5t-11.5 27.5v772q0 16 11.5 27.5t27.5 11.5h108q16 0 27.5 -11.5t11.5 -27.5v-772z" />
    <glyph glyph-name="j" unicode="j" 
d="M524 153q0 -42 -27 -67l-58 -59q-31 -27 -50 -27h-215q-25 0 -54 27l-59 59q-27 27 -27 67v154q0 16 11.5 27.5t27.5 11.5h108q16 0 27.5 -11.5t11.5 -27.5v-110q0 -16 11.5 -27.5t27.5 -11.5h40q16 0 27.5 11.5t11.5 27.5v614q0 16 11.5 27.5t27.5 11.5h108
q16 0 27.5 -11.5t11.5 -27.5v-658z" />
    <glyph glyph-name="k" unicode="k" horiz-adv-x="559" 
d="M498 337q27 -27 27 -66v-232q0 -16 -11.5 -27.5t-27.5 -11.5h-108q-16 0 -27.5 11.5t-11.5 27.5v185q0 38 -28 66l-28 28q-28 28 -45 28q-7 0 -12.5 -12t-5.5 -27v-268q0 -16 -11.5 -27.5t-27.5 -11.5h-108q-16 0 -27.5 11.5t-11.5 27.5v772q0 16 11.5 27.5t27.5 11.5
h108q16 0 27.5 -11.5t11.5 -27.5v-268q0 -15 5.5 -27t12.5 -12q17 0 45 28l28 28q28 28 28 66v185q0 16 11.5 27.5t27.5 11.5h108q16 0 27.5 -11.5t11.5 -27.5v-232q0 -16 -8 -36t-20 -31l-58 -58q-28 -28 -28 -29t28 -29z" />
    <glyph glyph-name="l" unicode="l" horiz-adv-x="518" 
d="M445 158q16 0 27.5 -11.5t11.5 -27.5v-80q0 -16 -11.5 -27.5t-27.5 -11.5h-372q-16 0 -27.5 11.5t-11.5 27.5v772q0 16 11.5 27.5t27.5 11.5h108q16 0 27.5 -11.5t11.5 -27.5v-614q0 -16 11.5 -27.5t27.5 -11.5h186z" />
    <glyph glyph-name="m" unicode="m" horiz-adv-x="794" 
d="M728 850q13 0 22.5 -11.5t9.5 -27.5v-772q0 -16 -12 -27.5t-28 -11.5h-108q-16 0 -27.5 11.5t-11.5 27.5v292q0 10 -1 14t-3.5 0.5t-4.5 -14.5l-68 -264q-4 -16 -19 -27t-31 -11h-95q-16 0 -30 11t-18 27l-73 273q-2 10 -4.5 13.5t-4 -0.5t-1.5 -14v-300
q0 -16 -11.5 -27.5t-27.5 -11.5h-108q-16 0 -27.5 11.5t-11.5 27.5v772q0 16 9 27.5t22 11.5h204q16 0 29.5 -11t17.5 -27l73 -340q2 -11 5.5 -14.5t6.5 0t5 14.5l72 340q4 16 17.5 27t29.5 11h203z" />
    <glyph glyph-name="n" unicode="n" horiz-adv-x="592" 
d="M518 850q16 0 28 -11.5t12 -27.5v-772q0 -16 -12 -27.5t-28 -11.5h-159q-12 0 -26 37l-99 270q-4 10 -7 13t-5 -1t-2 -15v-265q0 -16 -11.5 -27.5t-27.5 -11.5h-108q-16 0 -27.5 11.5t-11.5 27.5v772q0 16 11.5 27.5t27.5 11.5h133q16 0 31.5 -10.5t20.5 -26.5l100 -272
q3 -10 6 -13t5 1.5t2 14.5v267q0 16 12 27.5t28 11.5h107z" />
    <glyph glyph-name="o" unicode="o" horiz-adv-x="559" 
d="M497 803q28 -26 28 -67v-622q0 -41 -28 -67l-18 -20q-31 -27 -43 -27h-294q-32 0 -61 27l-19 20q-28 28 -28 67v622q0 39 28 67l19 19q28 28 61 28h269q38 0 68 -28zM300 158q16 0 27.5 11.5t11.5 27.5v456q0 16 -11.5 27.5t-27.5 11.5h-41q-16 0 -27.5 -11.5
t-11.5 -27.5v-456q0 -16 11.5 -27.5t27.5 -11.5h41z" />
    <glyph glyph-name="p" unicode="p" 
d="M499 824q25 -25 25 -50v-395q0 -32 -25 -57q-14 -13 -76 -30l-165 -43q-38 -10 -38 -42v-168q0 -17 -11 -28t-28 -11h-108q-17 0 -28 11t-11 28v772q0 17 11 28t28 11h361q39 0 65 -26zM299 434q39 7 39 39v180q0 17 -11 28t-28 11h-40q-17 0 -28 -11t-11 -28v-190
q0 -18 12 -28.5t25 -8.5z" />
    <glyph glyph-name="q" unicode="q" horiz-adv-x="643" 
d="M586 158q17 0 28.5 -11.5t11.5 -27.5v-80q0 -16 -11.5 -27.5t-28.5 -11.5h-443q-34 0 -61 27l-20 20q-28 28 -28 67v622q0 39 28 67l20 19q11 11 29 19.5t32 8.5h282q39 0 67 -28l20 -19q27 -29 27 -67v-539q0 -16 11.5 -27.5t27.5 -11.5h8zM314 158q16 0 27.5 11.5
t11.5 27.5v456q0 16 -11.5 27.5t-27.5 11.5h-55q-16 0 -27.5 -11.5t-11.5 -27.5v-456q0 -16 11.5 -27.5t27.5 -11.5h55z" />
    <glyph glyph-name="r" unicode="r" horiz-adv-x="564" 
d="M399 0q-40 0 -57 35l-105 250q-4 9 -8 11.5t-6.5 -1.5t-2.5 -14v-242q0 -17 -11 -28t-28 -11h-108q-17 0 -28 11t-11 28v772q0 17 11 28t28 11h361q40 0 65 -21t25 -55v-324q0 -20 -29.5 -47t-59 -51t-29.5 -35q0 -19 150 -283q10 -15 3.5 -24.5t-25.5 -9.5h-135z
M259 691q-17 0 -28 -11t-11 -28v-238q0 -17 7.5 -20t19.5 9l64 63l27 28v158q0 17 -11 28t-28 11h-40z" />
    <glyph glyph-name="s" unicode="s" horiz-adv-x="559" 
d="M378 563q-16 0 -27.5 11.5t-11.5 27.5v50q0 16 -11.5 27.5t-27.5 11.5h-41q-16 0 -27.5 -11.5t-11.5 -27.5v-109q0 -16 11.5 -27.5t27.5 -11.5h146q6 0 34 -28l58 -58q12 -11 20 -31t8 -36v-199q0 -16 -8 -35.5t-20 -30.5l-58 -59q-27 -27 -49 -27h-215q-29 0 -54 27
l-59 59q-28 28 -28 66v95q0 16 11.5 27.5t27.5 11.5h108q17 0 28 -11t11 -28v-50q0 -16 11.5 -27.5t27.5 -11.5h41q16 0 27.5 11.5t11.5 27.5v110q0 16 -11.5 27.5t-27.5 11.5h-135q-19 0 -44 27l-59 59q-11 10 -19 30t-8 36l-1 199q0 16 8.5 36t19.5 30l59 59q26 28 48 28
h216q26 0 54 -28l58 -59q12 -10 20 -30t8 -36v-95q0 -16 -11.5 -27.5t-27.5 -11.5h-108z" />
    <glyph glyph-name="t" unicode="t" horiz-adv-x="559" 
d="M525 730q0 -16 -11.5 -27.5t-27.5 -11.5h-75q-16 0 -27.5 -11.5t-11.5 -27.5v-613q0 -17 -11 -28t-28 -11h-108q-16 0 -27.5 11.5t-11.5 27.5v613q0 16 -11 27.5t-28 11.5h-74q-16 0 -27.5 11.5t-11.5 27.5v81q0 16 11.5 27.5t27.5 11.5h413q16 0 27.5 -11.5t11.5 -27.5
v-81z" />
    <glyph glyph-name="u" unicode="u" 
d="M524 152q0 -41 -27 -66l-58 -59q-29 -27 -50 -27h-215q-27 0 -54 27l-59 59q-27 27 -27 66v659q0 16 11.5 27.5t27.5 11.5h108q16 0 27.5 -11.5t11.5 -27.5v-614q0 -17 11 -28t28 -11h40q17 0 28 11t11 28v614q0 16 11.5 27.5t27.5 11.5h108q16 0 27.5 -11.5t11.5 -27.5
v-659z" />
    <glyph glyph-name="v" unicode="v" horiz-adv-x="559" 
d="M486 850q16 0 27.5 -11.5t11.5 -27.5v-308q0 -37 -8 -77l-90 -389q-4 -15 -18 -26t-30 -11h-199q-16 0 -29.5 11t-17.5 26l-90 389q-9 36 -9 77v308q0 16 11.5 27.5t27.5 11.5h108q16 0 27.5 -11.5t11.5 -27.5v-285q0 -39 9 -77l42 -199q4 -16 9 -16t8 16l43 199
q8 34 8 77v285q0 16 11.5 27.5t27.5 11.5h108z" />
    <glyph glyph-name="w" unicode="w" horiz-adv-x="862" 
d="M788 850q16 0 28 -11.5t12 -27.5v-219q0 -39 -9 -77l-95 -477q-3 -16 -12 -27t-18 -11h-184q-9 0 -18.5 11t-13.5 26l-37 136q-5 15 -10.5 15t-9.5 -15l-37 -136q-5 -15 -14 -26t-19 -11h-184q-9 0 -17.5 11t-11.5 27l-96 477q-8 34 -8 77v219q0 16 11.5 27.5t27.5 11.5
h108q16 0 27.5 -11.5t11.5 -27.5v-195q0 -36 8 -78l35 -186q3 -16 8 -16t9 15l48 188q9 38 9 77v194q0 17 11.5 28.5t28.5 11.5h107q17 0 28.5 -11.5t11.5 -28.5v-194q0 -42 10 -77l47 -188q4 -15 9.5 -15t7.5 16l36 186q7 37 7 78v195q0 16 11.5 27.5t27.5 11.5h108z" />
    <glyph glyph-name="x" unicode="x" horiz-adv-x="545" 
d="M435 463q-7 -39 0 -76l75 -349q3 -16 -6 -27t-25 -11h-108q-16 0 -30 11t-17 27l-44 200q-3 16 -7.5 16t-8.5 -16l-42 -200q-4 -16 -18 -27t-30 -11h-108q-16 0 -25 11t-5 27l74 349q9 37 0 76l-74 349q-4 15 5 26.5t25 11.5h108q16 0 30 -11.5t18 -26.5l42 -201
q4 -16 8.5 -16t7.5 16l44 201q3 15 17 26.5t30 11.5h108q16 0 25 -11.5t6 -26.5z" />
    <glyph glyph-name="y" unicode="y" horiz-adv-x="541" 
d="M477 850q16 0 24 -11t3 -26l-128 -407q-12 -34 -12 -76v-291q0 -16 -11.5 -27.5t-27.5 -11.5h-108q-17 0 -28 11t-11 28v291q0 36 -12 76l-129 407q-5 15 3 26t24 11h108q16 0 30.5 -11t19.5 -27l38 -139q4 -15 10 -15t10 15l40 139q4 16 18.5 27t30.5 11h108z" />
    <glyph glyph-name="z" unicode="z" horiz-adv-x="562" 
d="M289 194q-7 -15 0 -25.5t23 -10.5h167q16 0 27.5 -11.5t11.5 -27.5v-80q0 -16 -11.5 -27.5t-27.5 -11.5h-338q-40 0 -67 27l-24 24q-11 11 -14.5 30t2.5 34l235 540q7 15 0 25.5t-23 10.5h-143q-16 0 -27.5 11.5t-11.5 27.5v81q0 16 11.5 27.5t27.5 11.5h314q39 0 67 -28
l24 -24q11 -11 14.5 -29.5t-2.5 -34.5z" />
    <glyph glyph-name="braceleft" unicode="{" horiz-adv-x="376" 
d="M77 861q0 64 46 110t111 46h80q17 0 29.5 -12.5t12.5 -30.5v-73q0 -17 -12.5 -30t-29.5 -13h-34q-17 0 -29.5 -12t-12.5 -30v-176q0 -37 -15 -81.5t-37 -69.5q-21 -25 -21 -62t21 -62q22 -25 37 -69t15 -81v-181q0 -17 12.5 -30t29.5 -13h34q17 0 29.5 -12t12.5 -30v-73
q0 -17 -12.5 -30t-29.5 -13h-80q-65 0 -111 46.5t-46 110.5l-4 225q0 37 -15 81t-37 69q-21 25 -21 62t21 62q22 25 37 69.5t15 81.5z" />
    <glyph glyph-name="bar" unicode="|" horiz-adv-x="254" 
d="M220 -46q0 -16 -11.5 -27.5t-27.5 -11.5h-108q-16 0 -27.5 11.5t-11.5 27.5v942q0 16 11.5 27.5t27.5 11.5h108q16 0 27.5 -11.5t11.5 -27.5v-942z" />
    <glyph glyph-name="braceright" unicode="}" horiz-adv-x="376" 
d="M303 640q0 -37 15 -81.5t37 -69.5q21 -25 21 -62t-21 -62q-22 -25 -37 -69t-15 -81l-4 -225q0 -64 -46 -110.5t-111 -46.5h-80q-17 0 -29.5 13t-12.5 30v73q0 18 12.5 30t29.5 12h34q17 0 29.5 13t12.5 30v181q0 37 15 81t37 69q21 25 21 62t-21 62q-22 25 -37 69.5
t-15 81.5v176q0 18 -12.5 30t-29.5 12h-34q-17 0 -29.5 13t-12.5 30v73q0 18 12.5 30.5t29.5 12.5h80q65 0 111 -46t46 -110z" />
    <glyph glyph-name="exclamdown" unicode="&#xa1;" horiz-adv-x="252" 
d="M218 475q0 -17 -12.5 -29.5t-29.5 -12.5h-101q-18 0 -30.5 12.5t-12.5 29.5v108q0 17 12.5 29.5t30.5 12.5h101q17 0 29.5 -12.5t12.5 -29.5v-108zM234 -182q1 -18 -11 -30.5t-30 -12.5h-134q-17 0 -29.5 12.5t-11.5 30.5l24 537q0 17 13.5 29.5t30.5 12.5h80
q17 0 30 -12.5t14 -29.5z" />
    <glyph glyph-name="cent" unicode="&#xa2;" horiz-adv-x="530" 
d="M317 -101q0 -16 -11.5 -27.5t-27.5 -11.5h-28q-16 0 -27.5 11.5t-11.5 27.5v101h-77q-39 0 -67 28l-20 19q-11 11 -19 31t-8 36v623q0 39 27 66l20 20q27 27 67 27h77v46q0 16 11.5 27.5t27.5 11.5h28q16 0 27.5 -11.5t11.5 -27.5v-46h80q38 0 67 -27l19 -20
q27 -25 27 -66v-193q0 -16 -11 -27.5t-28 -11.5h-108q-16 0 -27.5 11.5t-11.5 27.5v109q0 16 -11.5 27.5t-27.5 11.5h-40q-16 0 -27.5 -11.5t-11.5 -27.5v-456q0 -16 11.5 -27.5t27.5 -11.5h40q16 0 27.5 11.5t11.5 27.5v110q0 16 11.5 27.5t27.5 11.5h108q16 0 27.5 -11.5
t11.5 -27.5v-193q0 -16 -7.5 -36t-19.5 -31l-19 -19q-30 -28 -67 -28h-80v-101z" />
    <glyph glyph-name="sterling" unicode="&#xa3;" horiz-adv-x="524" 
d="M449 158q16 0 27.5 -11.5t11.5 -27.5v-80q0 -16 -11.5 -27.5t-27.5 -11.5h-372q-34 0 -63 39t-10 85l56 138h-22q-16 0 -27.5 11.5t-11.5 28.5v108q0 16 11.5 27.5t27.5 11.5h69l-39 40q-30 30 -30 73v166q0 44 30 74l19 18q12 12 33.5 21t38.5 9h185q41 0 73 -30l19 -18
q30 -30 30 -74v-111q0 -18 -12.5 -30.5t-30.5 -12.5h-80q-17 0 -29.5 12.5t-12.5 30.5v32q0 18 -12.5 30.5t-30.5 12.5h-13q-18 0 -30 -10t-12 -24q0 -60 15 -88t61 -74q8 -7 12 -11q19 -19 24 -36h112q16 0 27.5 -11.5t11.5 -27.5v-108q0 -16 -11.5 -28t-27.5 -12h-174
l-29 -65q-6 -15 8 -27t31 -12h186z" />
    <glyph glyph-name="yen" unicode="&#xa5;" horiz-adv-x="541" 
d="M469 271q16 0 27.5 -11.5t11.5 -27.5v-82q0 -16 -11.5 -28t-27.5 -12h-105v-71q0 -16 -11.5 -27.5t-27.5 -11.5h-108q-17 0 -28 11t-11 28v71h-107q-16 0 -27.5 11.5t-11.5 28.5v82q0 16 11.5 27.5t27.5 11.5h107v52h-107q-16 0 -27.5 11.5t-11.5 27.5v83q0 16 11.5 27.5
t27.5 11.5h70l-104 329q-5 15 3 26t24 11h108q16 0 30.5 -11t19.5 -27l38 -139q4 -15 10 -15t10 15l40 139q4 16 18.5 27t30.5 11h108q16 0 24 -11t3 -26l-104 -329h69q16 0 27.5 -11.5t11.5 -27.5v-83q0 -16 -11.5 -27.5t-27.5 -11.5h-105v-52h105z" />
    <glyph glyph-name="section" unicode="&#xa7;" horiz-adv-x="559" 
d="M34 67v65q0 16 11.5 27.5t27.5 11.5h108q17 0 28 -11.5t11 -27.5v-20q0 -16 11.5 -27.5t27.5 -11.5h41q16 0 27.5 11.5t11.5 27.5v50q0 16 -11.5 27t-27.5 11h-125q-26 0 -54 28l-59 59q-27 27 -27 65v1l-1 139q0 38 28 66l7 7l-7 7q-27 27 -27 66l-1 139q0 38 28 66
l59 59q28 28 48 28h216q26 0 54 -28l58 -59q12 -10 20 -30t8 -36v-65q0 -16 -11.5 -27.5t-27.5 -11.5h-108q-16 0 -27.5 11.5t-11.5 27.5v20q0 16 -11.5 27.5t-27.5 11.5h-41q-16 0 -27.5 -11.5t-11.5 -27.5v-49q0 -14 8.5 -24.5t21.5 -13.5h135q14 0 31 -11l8 -5
q9 -6 15 -12l58 -59q12 -10 20 -30t8 -36v-140q0 -38 -28 -66l-7 -7l7 -7q28 -28 28 -67v-138q0 -36 -28 -66l-58 -59q-27 -27 -49 -27h-215q-27 0 -54 27l-59 59q-28 28 -28 66zM220 397q0 -16 11.5 -27.5t27.5 -11.5h41q16 0 27.5 11.5t11.5 27.5v50q0 16 -11.5 27.5
t-27.5 11.5h-41q-16 0 -27.5 -11.5t-11.5 -27.5v-50z" />
    <glyph glyph-name="dieresis" unicode="&#xa8;" horiz-adv-x="368" 
d="M116 1058q17 0 29.5 -12.5t12.5 -30.5v-84q0 -17 -12.5 -30t-29.5 -13h-73q-17 0 -30 13t-13 30v84q0 18 13 30.5t30 12.5h73zM326 1058q17 0 29.5 -12.5t12.5 -30.5v-84q0 -17 -12.5 -30t-29.5 -13h-74q-17 0 -29.5 13t-12.5 30v84q0 18 12.5 30.5t29.5 12.5h74z" />
    <glyph glyph-name="copyright" unicode="&#xa9;" horiz-adv-x="1032" 
d="M8 409q-11 34 0 68l109 328q5 14 18.5 27.5t27.5 18.5l318 109q34 11 68 0l318 -109q14 -5 27.5 -18.5t18.5 -27.5l109 -328q11 -33 -1 -68l-109 -328q-4 -14 -17.5 -27.5t-28.5 -18.5l-305 -109q-15 -4 -46 -4q-32 0 -47 4l-305 109q-14 4 -27.5 17.5t-18.5 28.5z
M185 409l65 -196q5 -14 18 -27.5t27 -18.5l173 -64q8 -3 47 -3q38 0 46 3l173 64q14 5 27 18.5t18 27.5l65 196q12 33 1 68l-65 196q-4 13 -17.5 27t-27.5 18l-186 65q-34 11 -68 0l-186 -65q-13 -4 -27 -18t-18 -27l-65 -196q-11 -34 0 -68zM602 465q-16 0 -27.5 10
t-11.5 23v50q0 14 -11.5 23.5t-27.5 9.5h-20q-16 0 -27.5 -10t-11.5 -23v-216q0 -13 11.5 -23t27.5 -10h20q16 0 27.5 9.5t11.5 23.5v51q0 13 11.5 23t27.5 10h108q16 0 27.5 -10t11.5 -23v-121q0 -34 -27 -56l-19 -16q-27 -24 -67 -24h-243q-37 0 -67 24l-20 16
q-11 9 -19 26t-8 30v357q0 13 8 29.5t19 25.5l20 17q27 23 67 23h243q42 0 67 -23l19 -17q12 -9 19.5 -25.5t7.5 -29.5v-121q0 -14 -11.5 -23.5t-27.5 -9.5h-108z" />
    <glyph glyph-name="guillemotleft" unicode="&#xab;" horiz-adv-x="754" 
d="M317 133q-6 4 -73 52l-129 92t-66 48q-9 9 -9 21t12 20l265 189q20 13 34 0l47 -47q8 -6 8 -17t-8 -18l-158 -129l158 -129q8 -7 8 -17t-8 -17l-47 -48q-17 -15 -34 0zM605 133q-6 4 -73 52l-129 92t-66 48q-9 9 -9 21t12 20l265 189q20 13 34 0l47 -47q8 -6 8 -17
t-8 -18l-158 -129l158 -129q8 -7 8 -17t-8 -17l-47 -48q-17 -15 -34 0z" />
    <glyph glyph-name="registered" unicode="&#xae;" horiz-adv-x="1032" 
d="M1022 477q11 -33 -1 -68l-109 -328q-4 -14 -17.5 -27.5t-28.5 -18.5l-305 -109q-15 -4 -46 -4q-32 0 -47 4l-305 109q-14 4 -27.5 17.5t-18.5 28.5l-109 328q-11 34 0 68l109 328q5 14 18.5 27.5t27.5 18.5l318 109q34 11 68 0l318 -109q14 -5 27.5 -18.5t18.5 -27.5z
M844 409q12 33 1 68l-65 196q-4 13 -17.5 27t-27.5 18l-186 65q-34 11 -68 0l-186 -65q-13 -4 -27 -18t-18 -27l-65 -196q-11 -34 0 -68l65 -196q5 -14 18 -27.5t27 -18.5l173 -64q8 -3 46 -3q39 0 47 3l173 64q14 5 27 18.5t18 27.5zM627 374l80 -153q5 -11 0.5 -18.5
t-17.5 -7.5h-90q-12 0 -25 8t-19 19l-70 140q-8 17 -13 29v-166q0 -13 -9 -21.5t-21 -8.5h-84q-13 0 -22 8.5t-9 21.5v445q0 12 9 21t22 9h249q46 0 73.5 -25.5t27.5 -67.5v-100q0 -18 -21 -37l-62 -56q-13 -12 1 -40zM565 526v20q0 18 -6.5 24t-24.5 6h-31q-18 0 -24 -6
t-6 -24v-117q4 8 21 25q18 18 37.5 34t26.5 23t7 15z" />
    <glyph glyph-name="macron" unicode="&#xaf;" horiz-adv-x="378" 
d="M336 1058q17 0 29.5 -12.5t12.5 -30.5v-84q0 -17 -12.5 -30t-29.5 -13h-294q-17 0 -29.5 13t-12.5 30v84q0 18 12.5 30.5t29.5 12.5h294z" />
    <glyph glyph-name="degree" unicode="&#xb0;" horiz-adv-x="293" 
d="M276 720q0 -54 -38 -92t-91 -38t-91.5 38t-38.5 92t38.5 92t91.5 38t91 -38t38 -92zM198 720q0 22 -15 37t-36 15t-36.5 -15t-15.5 -37t15.5 -37t36.5 -15t36 15t15 37z" />
    <glyph glyph-name="acute" unicode="&#xb4;" horiz-adv-x="231" 
d="M83 1067q4 8 16 14.5t21 6.5h101q17 0 4 -21l-105 -158q-15 -21 -30 -21h-74q-9 0 -13.5 6.5t-0.5 14.5z" />
    <glyph glyph-name="paragraph" unicode="&#xb6;" horiz-adv-x="819" 
d="M59 824q26 26 65 26h361q16 0 27.5 -11.5t11.5 -27.5v-1022q0 -16 -11.5 -27.5t-27.5 -11.5h-108q-16 0 -27.5 11.5t-11.5 27.5v488q0 16 -11.5 27.5t-27.5 11.5h-163q-17 0 -42 8t-35 18q-25 25 -25 57v375q0 25 25 50zM785 -211q0 -16 -11.5 -27.5t-27.5 -11.5h-108
q-16 0 -27.5 11.5t-11.5 27.5v1022q0 16 11.5 27.5t27.5 11.5h108q16 0 27.5 -11.5t11.5 -27.5v-1022z" />
    <glyph glyph-name="periodcentered" unicode="&#xb7;" horiz-adv-x="159" 
d="M117 562q17 0 29.5 -12.5t12.5 -30.5v-84q0 -17 -12.5 -30t-29.5 -13h-74q-17 0 -29.5 13t-12.5 30v84q0 18 12.5 30.5t29.5 12.5h74z" />
    <glyph glyph-name="cedilla" unicode="&#xb8;" horiz-adv-x="330" 
d="M341 -205q0 -14 -9.5 -29.5t-22.5 -22.5l-100 -52q-31 -16 -63 1l-102 59q-13 7 -19 20t-1 23q4 10 17 13.5t27 -1.5l52 -21q33 -14 64 4l10 5q31 18 31 39q0 13 -10.5 20t-24.5 4l-73 -20q-15 -3 -23 5t-5 23l23 156h133l-33 -62q-3 -4 0 -7.5t7 -1.5q34 18 78 18h8
q15 0 25.5 -10.5t10.5 -25.5v-137z" />
    <glyph glyph-name="guillemotright" unicode="&#xbb;" horiz-adv-x="754" 
d="M149 133q-17 -15 -34 0l-47 48q-8 7 -8 17t8 17l158 129l-158 129q-8 7 -8 18t8 17l47 47q14 13 34 0l265 -189q12 -8 12 -20t-9 -21q-4 -4 -66 -48l-129 -92t-73 -52zM437 133q-17 -15 -34 0l-47 48q-8 7 -8 17t8 17l158 129l-158 129q-8 7 -8 18t8 17l47 47q14 13 34 0
l265 -189q12 -8 12 -20t-9 -21q-4 -4 -66 -48l-129 -92t-73 -52z" />
    <glyph glyph-name="questiondown" unicode="&#xbf;" horiz-adv-x="524" 
d="M169 579q0 17 12.5 29.5t29.5 12.5h101q18 0 30.5 -12.5t12.5 -29.5v-108q0 -17 -12.5 -29.5t-30.5 -12.5h-101q-17 0 -29.5 12.5t-12.5 29.5v108zM139 -229q-50 0 -86 36t-36 86v261q0 17 11 35.5t26 26.5l77 40q16 7 27 25.5t11 36.5v33q0 17 12.5 29.5t29.5 12.5h101
q18 0 30.5 -12.5t12.5 -29.5v-112q0 -18 -11 -36.5t-27 -26.5l-77 -39q-15 -9 -26 -27.5t-11 -35.5v-102q0 -18 12 -30.5t30 -12.5h33q18 0 30.5 12.5t12.5 30.5v102q0 17 12.5 30t29.5 13h102q17 0 29.5 -13t12.5 -30v-181q0 -50 -36 -86t-86 -36h-246z" />
    <glyph glyph-name="Agrave" unicode="&#xc0;" 
d="M272 1036l61 -127q4 -8 -0.5 -14.5t-13.5 -6.5h-74q-15 0 -30 21l-75 112q-24 36 10 36h85q9 0 21 -6.5t16 -14.5zM518 225q6 -38 6 -77v-109q0 -16 -11.5 -27.5t-27.5 -11.5h-108q-16 0 -27.5 11.5t-11.5 27.5v51q0 21 -9 30t-30 9h-40q-21 0 -30 -9t-9 -30v-51
q0 -16 -11.5 -27.5t-27.5 -11.5h-108q-16 0 -27.5 11.5t-11.5 27.5v109q0 41 6 77l94 587q2 16 16 27t30 11h198q15 0 29 -11.5t16 -26.5zM238 296q-2 -20 6 -29t28 -9h14q20 0 28 9t6 29l-29 265q-1 15 -12 15t-12 -15z" />
    <glyph glyph-name="Aacute" unicode="&#xc1;" 
d="M287 1036q4 8 16 14.5t21 6.5h85q34 0 10 -36l-75 -112q-15 -21 -30 -21h-74q-9 0 -13.5 6.5t-0.5 14.5zM518 225q6 -38 6 -77v-109q0 -16 -11.5 -27.5t-27.5 -11.5h-108q-16 0 -27.5 11.5t-11.5 27.5v51q0 21 -9 30t-30 9h-40q-21 0 -30 -9t-9 -30v-51
q0 -16 -11.5 -27.5t-27.5 -11.5h-108q-16 0 -27.5 11.5t-11.5 27.5v109q0 41 6 77l94 587q2 16 16 27t30 11h198q15 0 29 -11.5t16 -26.5zM238 296q-2 -20 6 -29t28 -9h14q20 0 28 9t6 29l-29 265q-1 15 -12 15t-12 -15z" />
    <glyph glyph-name="Acircumflex" unicode="&#xc2;" 
d="M462 992q13 -7 17.5 -21.5t-2.5 -27.5l-26 -48q-7 -13 -21 -17t-28 3l-92 50q-13 7 -31.5 7t-31.5 -7l-92 -50q-14 -7 -28 -3t-21 17l-26 48q-7 13 -2.5 27.5t17.5 21.5l152 82q13 7 31.5 7t31.5 -7zM518 225q6 -38 6 -77v-109q0 -16 -11.5 -27.5t-27.5 -11.5h-108
q-16 0 -27.5 11.5t-11.5 27.5v51q0 21 -9 30t-30 9h-40q-21 0 -30 -9t-9 -30v-51q0 -16 -11.5 -27.5t-27.5 -11.5h-108q-16 0 -27.5 11.5t-11.5 27.5v109q0 41 6 77l94 587q2 16 16 27t30 11h198q15 0 29 -11.5t16 -26.5zM238 296q-2 -20 6 -29t28 -9h14q20 0 28 9t6 29
l-29 265q-1 15 -12 15t-12 -15z" />
    <glyph glyph-name="Atilde" unicode="&#xc3;" 
d="M403 897q-31 -15 -67 -6l-112 30q-34 9 -66 -8l-24 -13q-14 -7 -28 -2.5t-21 17.5l-25 48q-7 13 -2.5 27.5t17.5 21.5l67 36q32 16 67 7l115 -31q35 -9 67 7l36 17q13 6 27.5 0.5t20.5 -18.5l23 -49q7 -13 2 -27t-19 -20zM518 225q6 -38 6 -77v-109q0 -16 -11.5 -27.5
t-27.5 -11.5h-108q-16 0 -27.5 11.5t-11.5 27.5v51q0 21 -9 30t-30 9h-40q-21 0 -30 -9t-9 -30v-51q0 -16 -11.5 -27.5t-27.5 -11.5h-108q-16 0 -27.5 11.5t-11.5 27.5v109q0 41 6 77l94 587q2 16 16 27t30 11h198q15 0 29 -11.5t16 -26.5zM238 296q-2 -20 6 -29t28 -9h14
q20 0 28 9t6 29l-29 265q-1 15 -12 15t-12 -15z" />
    <glyph glyph-name="Adieresis" unicode="&#xc4;" 
d="M211 1058q17 0 29.5 -12.5t12.5 -30.5v-84q0 -17 -12.5 -30t-29.5 -13h-73q-17 0 -30 13t-13 30v84q0 18 13 30.5t30 12.5h73zM421 1058q17 0 29.5 -12.5t12.5 -30.5v-84q0 -17 -12.5 -30t-29.5 -13h-74q-17 0 -29.5 13t-12.5 30v84q0 18 12.5 30.5t29.5 12.5h74z
M518 225q6 -38 6 -77v-109q0 -16 -11.5 -27.5t-27.5 -11.5h-108q-16 0 -27.5 11.5t-11.5 27.5v51q0 21 -9 30t-30 9h-40q-21 0 -30 -9t-9 -30v-51q0 -16 -11.5 -27.5t-27.5 -11.5h-108q-16 0 -27.5 11.5t-11.5 27.5v109q0 41 6 77l94 587q2 16 16 27t30 11h198
q15 0 29 -11.5t16 -26.5zM238 296q-2 -20 6 -29t28 -9h14q20 0 28 9t6 29l-29 265q-1 15 -12 15t-12 -15z" />
    <glyph glyph-name="Aring" unicode="&#xc5;" 
d="M430 997q0 -61 -36 -91.5t-115 -30.5q-85 0 -118 29.5t-33 92.5t34 92t117 29q85 0 118 -29.5t33 -91.5zM279 962q14 0 24.5 10t10.5 25q0 14 -10.5 24.5t-24.5 10.5q-15 0 -25 -10.5t-10 -24.5q0 -15 10 -25t25 -10zM518 225q6 -38 6 -77v-109q0 -16 -11.5 -27.5
t-27.5 -11.5h-108q-16 0 -27.5 11.5t-11.5 27.5v51q0 21 -9 30t-30 9h-40q-21 0 -30 -9t-9 -30v-51q0 -16 -11.5 -27.5t-27.5 -11.5h-108q-16 0 -27.5 11.5t-11.5 27.5v109q0 41 6 77l94 587q2 16 16 27t30 11h198q15 0 29 -11.5t16 -26.5zM238 296q-2 -20 6 -29t28 -9h14
q20 0 28 9t6 29l-29 265q-1 15 -12 15t-12 -15z" />
    <glyph glyph-name="AE" unicode="&#xc6;" horiz-adv-x="823" 
d="M563 692q-16 0 -27.5 -11.5t-11.5 -27.5v-84q0 -16 11.5 -27.5t27.5 -11.5h144q16 0 27.5 -12t11.5 -28v-79q0 -17 -11.5 -28.5t-27.5 -11.5h-144q-16 0 -27.5 -11.5t-11.5 -27.5v-135q0 -16 11.5 -27.5t27.5 -11.5h188q16 0 27.5 -11.5t11.5 -27.5v-29q0 -36 -25 -65
q-29 -25 -65 -25h-326q-13 0 -24.5 11.5t-11.5 27.5v21q0 16 -11.5 27.5t-27.5 11.5h-40q-17 0 -28 -11.5t-11 -27.5v-21q0 -16 -11.5 -27.5t-27.5 -11.5h-108q-16 0 -27.5 11.5t-11.5 27.5v129q0 35 6 77l179 567q3 16 16.5 27t29.5 11h435q39 0 65 -26q25 -25 25 -64v-29
q0 -16 -11.5 -27.5t-27.5 -11.5h-188zM238 296q-4 -15 6.5 -26.5t27.5 -11.5h32q16 0 25 11t9 27v248q-1 14 -13.5 12.5t-15.5 -15.5z" />
    <glyph glyph-name="Ccedilla" unicode="&#xc7;" 
d="M377 505q-39 0 -39 39v109q0 39 -39 39h-40q-39 0 -39 -39v-456q0 -39 39 -39h40q39 0 39 39v110q0 39 39 39h108q39 0 39 -39v-193q0 -54 -30 -84t-83 -30h-75v-10q0 -23 6.5 -28t29.5 -5q48 0 78.5 -38t30.5 -78q0 -35 -7.5 -54.5t-27.5 -36.5l-41 -35q-27 -23 -64 -23
l-123 3q-15 0 -25.5 11t-10.5 26l1 35q0 15 11 25t25 9l87 -6q23 -1 44.5 10t21.5 32q0 35 -62 35h-55q-15 0 -25 8.5t-10 22.5v97h-72q-54 0 -84 30t-30 84v623q0 53 30 83t84 30h263q53 0 83 -30t30 -83v-193q0 -39 -39 -39h-108z" />
    <glyph glyph-name="Egrave" unicode="&#xc8;" horiz-adv-x="520" 
d="M253 1036l61 -127q4 -8 -0.5 -14.5t-13.5 -6.5h-74q-15 0 -30 21l-75 112q-24 36 10 36h85q9 0 21 -6.5t16 -14.5zM259 692q-17 0 -28 -11t-11 -28v-84q0 -17 11 -28t28 -11h144q17 0 28 -11.5t11 -28.5v-79q0 -17 -11 -28.5t-28 -11.5h-144q-17 0 -28 -11t-11 -28v-135
q0 -17 11 -28t28 -11h188q17 0 28 -11t11 -28v-29q0 -40 -25 -65t-65 -25h-323q-17 0 -28 11t-11 28v772q0 17 11 28t28 11h323q40 0 65 -25t25 -65v-29q0 -17 -11 -28t-28 -11h-188z" />
    <glyph glyph-name="Eacute" unicode="&#xc9;" horiz-adv-x="520" 
d="M268 1036q4 8 16 14.5t21 6.5h85q34 0 10 -36l-75 -112q-15 -21 -30 -21h-74q-9 0 -13.5 6.5t-0.5 14.5zM259 692q-17 0 -28 -11t-11 -28v-84q0 -17 11 -28t28 -11h144q17 0 28 -11.5t11 -28.5v-79q0 -17 -11 -28.5t-28 -11.5h-144q-17 0 -28 -11t-11 -28v-135
q0 -17 11 -28t28 -11h188q17 0 28 -11t11 -28v-29q0 -40 -25 -65t-65 -25h-323q-17 0 -28 11t-11 28v772q0 17 11 28t28 11h323q40 0 65 -25t25 -65v-29q0 -17 -11 -28t-28 -11h-188z" />
    <glyph glyph-name="Ecircumflex" unicode="&#xca;" horiz-adv-x="520" 
d="M443 992q13 -7 17.5 -21.5t-2.5 -27.5l-26 -48q-7 -13 -21 -17t-28 3l-92 50q-13 7 -31.5 7t-31.5 -7l-92 -50q-14 -7 -28 -3t-21 17l-26 48q-7 13 -2.5 27.5t17.5 21.5l152 82q13 7 31.5 7t31.5 -7zM259 692q-17 0 -28 -11t-11 -28v-84q0 -17 11 -28t28 -11h144
q17 0 28 -11.5t11 -28.5v-79q0 -17 -11 -28.5t-28 -11.5h-144q-17 0 -28 -11t-11 -28v-135q0 -17 11 -28t28 -11h188q17 0 28 -11t11 -28v-29q0 -40 -25 -65t-65 -25h-323q-17 0 -28 11t-11 28v772q0 17 11 28t28 11h323q40 0 65 -25t25 -65v-29q0 -17 -11 -28t-28 -11h-188
z" />
    <glyph glyph-name="Edieresis" unicode="&#xcb;" horiz-adv-x="520" 
d="M192 1058q17 0 29.5 -12.5t12.5 -30.5v-84q0 -17 -12.5 -30t-29.5 -13h-73q-17 0 -30 13t-13 30v84q0 18 13 30.5t30 12.5h73zM402 1058q17 0 29.5 -12.5t12.5 -30.5v-84q0 -17 -12.5 -30t-29.5 -13h-74q-17 0 -29.5 13t-12.5 30v84q0 18 12.5 30.5t29.5 12.5h74z
M259 692q-17 0 -28 -11t-11 -28v-84q0 -17 11 -28t28 -11h144q17 0 28 -11.5t11 -28.5v-79q0 -17 -11 -28.5t-28 -11.5h-144q-17 0 -28 -11t-11 -28v-135q0 -17 11 -28t28 -11h188q17 0 28 -11t11 -28v-29q0 -40 -25 -65t-65 -25h-323q-17 0 -28 11t-11 28v772q0 17 11 28
t28 11h323q40 0 65 -25t25 -65v-29q0 -17 -11 -28t-28 -11h-188z" />
    <glyph glyph-name="Igrave" unicode="&#xcc;" horiz-adv-x="254" 
d="M120 1036l61 -127q4 -8 -0.5 -14.5t-13.5 -6.5h-74q-15 0 -30 21l-75 112q-24 36 10 36h85q9 0 21 -6.5t16 -14.5zM220 39q0 -16 -11.5 -27.5t-27.5 -11.5h-108q-16 0 -27.5 11.5t-11.5 27.5v772q0 16 11.5 27.5t27.5 11.5h108q16 0 27.5 -11.5t11.5 -27.5v-772z" />
    <glyph glyph-name="Iacute" unicode="&#xcd;" horiz-adv-x="254" 
d="M135 1036q4 8 16 14.5t21 6.5h85q34 0 10 -36l-75 -112q-15 -21 -30 -21h-74q-9 0 -13.5 6.5t-0.5 14.5zM220 39q0 -16 -11.5 -27.5t-27.5 -11.5h-108q-16 0 -27.5 11.5t-11.5 27.5v772q0 16 11.5 27.5t27.5 11.5h108q16 0 27.5 -11.5t11.5 -27.5v-772z" />
    <glyph glyph-name="Icircumflex" unicode="&#xce;" horiz-adv-x="254" 
d="M310 992q13 -7 17.5 -21.5t-2.5 -27.5l-26 -48q-7 -13 -21 -17t-28 3l-92 50q-13 7 -31.5 7t-31.5 -7l-92 -50q-14 -7 -28 -3t-21 17l-26 48q-7 13 -2.5 27.5t17.5 21.5l152 82q13 7 31.5 7t31.5 -7zM220 39q0 -16 -11.5 -27.5t-27.5 -11.5h-108q-16 0 -27.5 11.5
t-11.5 27.5v772q0 16 11.5 27.5t27.5 11.5h108q16 0 27.5 -11.5t11.5 -27.5v-772z" />
    <glyph glyph-name="Idieresis" unicode="&#xcf;" horiz-adv-x="254" 
d="M59 1058q17 0 29.5 -12.5t12.5 -30.5v-84q0 -17 -12.5 -30t-29.5 -13h-73q-17 0 -30 13t-13 30v84q0 18 13 30.5t30 12.5h73zM269 1058q17 0 29.5 -12.5t12.5 -30.5v-84q0 -17 -12.5 -30t-29.5 -13h-74q-17 0 -29.5 13t-12.5 30v84q0 18 12.5 30.5t29.5 12.5h74zM220 39
q0 -16 -11.5 -27.5t-27.5 -11.5h-108q-16 0 -27.5 11.5t-11.5 27.5v772q0 16 11.5 27.5t27.5 11.5h108q16 0 27.5 -11.5t11.5 -27.5v-772z" />
    <glyph glyph-name="Eth" unicode="&#xd0;" 
d="M497 746q27 -26 27 -67v-508q0 -39 -27 -66l-76 -77q-28 -28 -46 -28h-302q-39 0 -39 39v292h-37q-39 0 -39 40v108q0 39 39 39h37v293q0 39 39 39h302q17 0 46 -27zM338 241v368q0 83 -80 83q-38 0 -38 -39v-135h34q39 0 39 -39v-108q0 -40 -39 -40h-34v-134
q0 -39 38 -39q80 0 80 83z" />
    <glyph glyph-name="Ntilde" unicode="&#xd1;" horiz-adv-x="622" 
d="M420 897q-31 -15 -67 -6l-112 30q-34 9 -66 -8l-24 -13q-14 -7 -28 -2.5t-21 17.5l-25 48q-7 13 -2.5 27.5t17.5 21.5l67 36q32 16 67 7l115 -31q35 -9 67 7l36 17q13 6 27.5 0.5t20.5 -18.5l23 -49q7 -13 2 -27t-19 -20zM548 850q17 0 28.5 -11t11.5 -28v-772
q0 -17 -11.5 -28t-28.5 -11h-120q-29 0 -46 37l-121 271q-16 36 -32 38q-9 1 -9 -16v-291q0 -17 -11 -28t-28 -11h-108q-17 0 -28 11t-11 28v772q0 17 11 28t28 11h118q32 0 49 -37l121 -270q17 -37 32 -40q8 -1 8 15v293q0 17 11.5 28t28.5 11h107z" />
    <glyph glyph-name="Ograve" unicode="&#xd2;" horiz-adv-x="583" 
d="M275 1036l61 -127q4 -8 -0.5 -14.5t-13.5 -6.5h-74q-15 0 -30 21l-75 112q-24 36 10 36h85q9 0 21 -6.5t16 -14.5zM537 695l12 -235v-83l-12 -222q-2 -47 -49 -101t-92 -54h-202q-50 0 -98 56q-30 35 -39.5 55.5t-10.5 43.5l-12 222v83l12 235q3 50 40 97q44 58 92 58
h234q44 0 86 -56q37 -48 39 -99zM312 158q15 0 27 12.5t12 26.5l10 86v271l-10 99q0 15 -12 27t-27 12h-41q-14 0 -26.5 -12t-12.5 -27l-10 -99v-271l10 -86q0 -14 12.5 -26.5t26.5 -12.5h41z" />
    <glyph glyph-name="Oacute" unicode="&#xd3;" horiz-adv-x="583" 
d="M290 1036q4 8 16 14.5t21 6.5h85q34 0 10 -36l-75 -112q-15 -21 -30 -21h-74q-9 0 -13.5 6.5t-0.5 14.5zM537 695l12 -235v-83l-12 -222q-2 -47 -49 -101t-92 -54h-202q-50 0 -98 56q-30 35 -39.5 55.5t-10.5 43.5l-12 222v83l12 235q3 50 40 97q44 58 92 58h234
q44 0 86 -56q37 -48 39 -99zM312 158q15 0 27 12.5t12 26.5l10 86v271l-10 99q0 15 -12 27t-27 12h-41q-14 0 -26.5 -12t-12.5 -27l-10 -99v-271l10 -86q0 -14 12.5 -26.5t26.5 -12.5h41z" />
    <glyph glyph-name="Ocircumflex" unicode="&#xd4;" horiz-adv-x="583" 
d="M465 992q13 -7 17.5 -21.5t-2.5 -27.5l-26 -48q-7 -13 -21 -17t-28 3l-92 50q-13 7 -31.5 7t-31.5 -7l-92 -50q-14 -7 -28 -3t-21 17l-26 48q-7 13 -2.5 27.5t17.5 21.5l152 82q13 7 31.5 7t31.5 -7zM537 695l12 -235v-83l-12 -222q-2 -47 -49 -101t-92 -54h-202
q-50 0 -98 56q-30 35 -39.5 55.5t-10.5 43.5l-12 222v83l12 235q3 50 40 97q44 58 92 58h234q44 0 86 -56q37 -48 39 -99zM312 158q15 0 27 12.5t12 26.5l10 86v271l-10 99q0 15 -12 27t-27 12h-41q-14 0 -26.5 -12t-12.5 -27l-10 -99v-271l10 -86q0 -14 12.5 -26.5
t26.5 -12.5h41z" />
    <glyph glyph-name="Otilde" unicode="&#xd5;" horiz-adv-x="583" 
d="M406 897q-31 -15 -67 -6l-112 30q-34 9 -66 -8l-24 -13q-14 -7 -28 -2.5t-21 17.5l-25 48q-7 13 -2.5 27.5t17.5 21.5l67 36q32 16 67 7l115 -31q35 -9 67 7l36 17q13 6 27.5 0.5t20.5 -18.5l23 -49q7 -13 2 -27t-19 -20zM537 695l12 -235v-83l-12 -222q-2 -47 -49 -101
t-92 -54h-202q-50 0 -98 56q-30 35 -39.5 55.5t-10.5 43.5l-12 222v83l12 235q3 50 40 97q44 58 92 58h234q44 0 86 -56q37 -48 39 -99zM312 158q15 0 27 12.5t12 26.5l10 86v271l-10 99q0 15 -12 27t-27 12h-41q-14 0 -26.5 -12t-12.5 -27l-10 -99v-271l10 -86
q0 -14 12.5 -26.5t26.5 -12.5h41z" />
    <glyph glyph-name="Odieresis" unicode="&#xd6;" horiz-adv-x="583" 
d="M214 1058q17 0 29.5 -12.5t12.5 -30.5v-84q0 -17 -12.5 -30t-29.5 -13h-73q-17 0 -30 13t-13 30v84q0 18 13 30.5t30 12.5h73zM424 1058q17 0 29.5 -12.5t12.5 -30.5v-84q0 -17 -12.5 -30t-29.5 -13h-74q-17 0 -29.5 13t-12.5 30v84q0 18 12.5 30.5t29.5 12.5h74z
M537 695l12 -235v-83l-12 -222q-2 -47 -49 -101t-92 -54h-202q-50 0 -98 56q-30 35 -39.5 55.5t-10.5 43.5l-12 222v83l12 235q3 50 40 97q44 58 92 58h234q44 0 86 -56q37 -48 39 -99zM312 158q15 0 27 12.5t12 26.5l10 86v271l-10 99q0 15 -12 27t-27 12h-41
q-14 0 -26.5 -12t-12.5 -27l-10 -99v-271l10 -86q0 -14 12.5 -26.5t26.5 -12.5h41z" />
    <glyph glyph-name="multiply" unicode="&#xd7;" horiz-adv-x="458" 
d="M317 625q12 13 29.5 13t30.5 -13l51 -52q13 -12 13 -29.5t-13 -30.5l-79 -79q-7 -9 0 -16l79 -80q13 -13 13 -30t-13 -30l-51 -52q-13 -12 -30.5 -12.5t-30.5 12.5l-79 79q-3 3 -8.5 3t-8.5 -3l-79 -80q-12 -12 -30 -12t-30 12l-51 52q-13 13 -12.5 30.5t12.5 29.5l79 79
q8 9 0 17l-79 80q-13 13 -12.5 30.5t12.5 29.5l51 52q13 13 30 13t30 -13l80 -79q8 -9 17 0z" />
    <glyph glyph-name="Oslash" unicode="&#xd8;" horiz-adv-x="583" 
d="M574 880q12 -6 10.5 -20.5t-13.5 -29.5l-54 -65q18 -30 20 -70l12 -235v-83l-12 -222q-2 -47 -49 -101t-92 -54h-202q-8 0 -13 1l-35 -42q-12 -14 -29.5 -21t-28.5 -1l-66 34q-11 6 -9.5 20.5t13.5 29.5l50 60q-28 37 -30 74l-12 222v83l12 235q3 50 40 97q44 58 92 58
h234h4l35 42q12 15 29.5 21t28.5 1zM361 283v271l-10 99q0 15 -12 27t-27 12h-41q-14 0 -26.5 -12t-12.5 -27l-10 -99v-271l10 -86q0 -14 12.5 -26.5t26.5 -12.5h41q15 0 27 12.5t12 26.5z" />
    <glyph glyph-name="Ugrave" unicode="&#xd9;" 
d="M272 1036l61 -127q4 -8 -0.5 -14.5t-13.5 -6.5h-74q-15 0 -30 21l-75 112q-24 36 10 36h85q9 0 21 -6.5t16 -14.5zM524 152q0 -41 -27 -66l-58 -59q-29 -27 -50 -27h-215q-27 0 -54 27l-59 59q-27 27 -27 66v659q0 16 11.5 27.5t27.5 11.5h108q16 0 27.5 -11.5
t11.5 -27.5v-614q0 -17 11 -28t28 -11h40q17 0 28 11t11 28v614q0 16 11.5 27.5t27.5 11.5h108q16 0 27.5 -11.5t11.5 -27.5v-659z" />
    <glyph glyph-name="Uacute" unicode="&#xda;" 
d="M287 1036q4 8 16 14.5t21 6.5h85q34 0 10 -36l-75 -112q-15 -21 -30 -21h-74q-9 0 -13.5 6.5t-0.5 14.5zM524 152q0 -41 -27 -66l-58 -59q-29 -27 -50 -27h-215q-27 0 -54 27l-59 59q-27 27 -27 66v659q0 16 11.5 27.5t27.5 11.5h108q16 0 27.5 -11.5t11.5 -27.5v-614
q0 -17 11 -28t28 -11h40q17 0 28 11t11 28v614q0 16 11.5 27.5t27.5 11.5h108q16 0 27.5 -11.5t11.5 -27.5v-659z" />
    <glyph glyph-name="Ucircumflex" unicode="&#xdb;" 
d="M462 992q13 -7 17.5 -21.5t-2.5 -27.5l-26 -48q-7 -13 -21 -17t-28 3l-92 50q-13 7 -31.5 7t-31.5 -7l-92 -50q-14 -7 -28 -3t-21 17l-26 48q-7 13 -2.5 27.5t17.5 21.5l152 82q13 7 31.5 7t31.5 -7zM524 152q0 -41 -27 -66l-58 -59q-29 -27 -50 -27h-215q-27 0 -54 27
l-59 59q-27 27 -27 66v659q0 16 11.5 27.5t27.5 11.5h108q16 0 27.5 -11.5t11.5 -27.5v-614q0 -17 11 -28t28 -11h40q17 0 28 11t11 28v614q0 16 11.5 27.5t27.5 11.5h108q16 0 27.5 -11.5t11.5 -27.5v-659z" />
    <glyph glyph-name="Udieresis" unicode="&#xdc;" 
d="M211 1058q17 0 29.5 -12.5t12.5 -30.5v-84q0 -17 -12.5 -30t-29.5 -13h-73q-17 0 -30 13t-13 30v84q0 18 13 30.5t30 12.5h73zM421 1058q17 0 29.5 -12.5t12.5 -30.5v-84q0 -17 -12.5 -30t-29.5 -13h-74q-17 0 -29.5 13t-12.5 30v84q0 18 12.5 30.5t29.5 12.5h74z
M524 152q0 -41 -27 -66l-58 -59q-29 -27 -50 -27h-215q-27 0 -54 27l-59 59q-27 27 -27 66v659q0 16 11.5 27.5t27.5 11.5h108q16 0 27.5 -11.5t11.5 -27.5v-614q0 -17 11 -28t28 -11h40q17 0 28 11t11 28v614q0 16 11.5 27.5t27.5 11.5h108q16 0 27.5 -11.5t11.5 -27.5
v-659z" />
    <glyph glyph-name="Yacute" unicode="&#xdd;" horiz-adv-x="541" 
d="M279 1036q4 8 16 14.5t21 6.5h85q34 0 10 -36l-75 -112q-15 -21 -30 -21h-74q-9 0 -13.5 6.5t-0.5 14.5zM477 850q16 0 24 -11t3 -26l-128 -407q-12 -34 -12 -76v-291q0 -16 -11.5 -27.5t-27.5 -11.5h-108q-17 0 -28 11t-11 28v291q0 36 -12 76l-129 407q-5 15 3 26
t24 11h108q16 0 30.5 -11t19.5 -27l38 -139q4 -15 10 -15t10 15l40 139q4 16 18.5 27t30.5 11h108z" />
    <glyph glyph-name="Thorn" unicode="&#xde;" 
d="M499 694q25 -25 25 -50v-375q0 -32 -25 -57q-10 -10 -35 -18t-42 -8h-202v-147q0 -16 -11.5 -27.5t-27.5 -11.5h-108q-16 0 -27.5 11.5t-11.5 27.5v772q0 16 11.5 27.5t27.5 11.5h108q16 0 27.5 -11.5t11.5 -27.5v-91h214q39 0 65 -26zM338 383v140q0 16 -11.5 27.5
t-27.5 11.5h-79v-218h79q16 0 27.5 11.5t11.5 27.5z" />
    <glyph glyph-name="agrave" unicode="&#xe0;" 
d="M272 1036l61 -127q4 -8 -0.5 -14.5t-13.5 -6.5h-74q-15 0 -30 21l-75 112q-24 36 10 36h85q9 0 21 -6.5t16 -14.5zM518 225q6 -32 6 -77v-109q0 -16 -11.5 -27.5t-27.5 -11.5h-108q-16 0 -27.5 11.5t-11.5 27.5v21q0 16 -11.5 27.5t-27.5 11.5h-40q-17 0 -28 -11.5
t-11 -27.5v-21q0 -16 -11.5 -27.5t-27.5 -11.5h-108q-16 0 -27.5 11.5t-11.5 27.5v109q0 35 6 77l94 587q3 16 16.5 27t29.5 11h198q16 0 29.5 -11t15.5 -27zM238 296q-2 -16 8 -27t26 -11h14q16 0 26 11t8 27l-35 265q-6 33 -11 0z" />
    <glyph glyph-name="aacute" unicode="&#xe1;" 
d="M287 1036q4 8 16 14.5t21 6.5h85q34 0 10 -36l-75 -112q-15 -21 -30 -21h-74q-9 0 -13.5 6.5t-0.5 14.5zM518 225q6 -32 6 -77v-109q0 -16 -11.5 -27.5t-27.5 -11.5h-108q-16 0 -27.5 11.5t-11.5 27.5v21q0 16 -11.5 27.5t-27.5 11.5h-40q-17 0 -28 -11.5t-11 -27.5v-21
q0 -16 -11.5 -27.5t-27.5 -11.5h-108q-16 0 -27.5 11.5t-11.5 27.5v109q0 35 6 77l94 587q3 16 16.5 27t29.5 11h198q16 0 29.5 -11t15.5 -27zM238 296q-2 -16 8 -27t26 -11h14q16 0 26 11t8 27l-35 265q-6 33 -11 0z" />
    <glyph glyph-name="acircumflex" unicode="&#xe2;" 
d="M462 992q13 -7 17.5 -21.5t-2.5 -27.5l-26 -48q-7 -13 -21 -17t-28 3l-92 50q-13 7 -31.5 7t-31.5 -7l-92 -50q-14 -7 -28 -3t-21 17l-26 48q-7 13 -2.5 27.5t17.5 21.5l152 82q13 7 31.5 7t31.5 -7zM518 225q6 -32 6 -77v-109q0 -16 -11.5 -27.5t-27.5 -11.5h-108
q-16 0 -27.5 11.5t-11.5 27.5v21q0 16 -11.5 27.5t-27.5 11.5h-40q-17 0 -28 -11.5t-11 -27.5v-21q0 -16 -11.5 -27.5t-27.5 -11.5h-108q-16 0 -27.5 11.5t-11.5 27.5v109q0 35 6 77l94 587q3 16 16.5 27t29.5 11h198q16 0 29.5 -11t15.5 -27zM238 296q-2 -16 8 -27t26 -11
h14q16 0 26 11t8 27l-35 265q-6 33 -11 0z" />
    <glyph glyph-name="atilde" unicode="&#xe3;" 
d="M403 897q-31 -15 -67 -6l-112 30q-34 9 -66 -8l-24 -13q-14 -7 -28 -2.5t-21 17.5l-25 48q-7 13 -2.5 27.5t17.5 21.5l67 36q32 16 67 7l115 -31q35 -9 67 7l36 17q13 6 27.5 0.5t20.5 -18.5l23 -49q7 -13 2 -27t-19 -20zM518 225q6 -32 6 -77v-109q0 -16 -11.5 -27.5
t-27.5 -11.5h-108q-16 0 -27.5 11.5t-11.5 27.5v21q0 16 -11.5 27.5t-27.5 11.5h-40q-17 0 -28 -11.5t-11 -27.5v-21q0 -16 -11.5 -27.5t-27.5 -11.5h-108q-16 0 -27.5 11.5t-11.5 27.5v109q0 35 6 77l94 587q3 16 16.5 27t29.5 11h198q16 0 29.5 -11t15.5 -27zM238 296
q-2 -16 8 -27t26 -11h14q16 0 26 11t8 27l-35 265q-6 33 -11 0z" />
    <glyph glyph-name="adieresis" unicode="&#xe4;" 
d="M211 1058q17 0 29.5 -12.5t12.5 -30.5v-84q0 -17 -12.5 -30t-29.5 -13h-73q-17 0 -30 13t-13 30v84q0 18 13 30.5t30 12.5h73zM421 1058q17 0 29.5 -12.5t12.5 -30.5v-84q0 -17 -12.5 -30t-29.5 -13h-74q-17 0 -29.5 13t-12.5 30v84q0 18 12.5 30.5t29.5 12.5h74z
M518 225q6 -32 6 -77v-109q0 -16 -11.5 -27.5t-27.5 -11.5h-108q-16 0 -27.5 11.5t-11.5 27.5v21q0 16 -11.5 27.5t-27.5 11.5h-40q-17 0 -28 -11.5t-11 -27.5v-21q0 -16 -11.5 -27.5t-27.5 -11.5h-108q-16 0 -27.5 11.5t-11.5 27.5v109q0 35 6 77l94 587q3 16 16.5 27
t29.5 11h198q16 0 29.5 -11t15.5 -27zM238 296q-2 -16 8 -27t26 -11h14q16 0 26 11t8 27l-35 265q-6 33 -11 0z" />
    <glyph glyph-name="aring" unicode="&#xe5;" 
d="M430 997q0 -61 -36 -91.5t-115 -30.5q-85 0 -118 29.5t-33 92.5t34 92t117 29q85 0 118 -29.5t33 -91.5zM279 962q14 0 24.5 10t10.5 25q0 14 -10.5 24.5t-24.5 10.5q-15 0 -25 -10.5t-10 -24.5q0 -15 10 -25t25 -10zM518 225q6 -32 6 -77v-109q0 -16 -11.5 -27.5
t-27.5 -11.5h-108q-16 0 -27.5 11.5t-11.5 27.5v21q0 16 -11.5 27.5t-27.5 11.5h-40q-17 0 -28 -11.5t-11 -27.5v-21q0 -16 -11.5 -27.5t-27.5 -11.5h-108q-16 0 -27.5 11.5t-11.5 27.5v109q0 35 6 77l94 587q3 16 16.5 27t29.5 11h198q16 0 29.5 -11t15.5 -27zM238 296
q-2 -16 8 -27t26 -11h14q16 0 26 11t8 27l-35 265q-6 33 -11 0z" />
    <glyph glyph-name="ae" unicode="&#xe6;" horiz-adv-x="823" 
d="M563 692q-16 0 -27.5 -11.5t-11.5 -27.5v-84q0 -16 11.5 -27.5t27.5 -11.5h144q16 0 27.5 -12t11.5 -28v-79q0 -17 -11.5 -28.5t-27.5 -11.5h-144q-16 0 -27.5 -11.5t-11.5 -27.5v-135q0 -16 11.5 -27.5t27.5 -11.5h188q16 0 27.5 -11.5t11.5 -27.5v-29q0 -36 -25 -65
q-29 -25 -65 -25h-326q-13 0 -24.5 11.5t-11.5 27.5v21q0 16 -11.5 27.5t-27.5 11.5h-40q-17 0 -28 -11.5t-11 -27.5v-21q0 -16 -11.5 -27.5t-27.5 -11.5h-108q-16 0 -27.5 11.5t-11.5 27.5v129q0 35 6 77l179 567q3 16 16.5 27t29.5 11h435q39 0 65 -26q25 -25 25 -64v-29
q0 -16 -11.5 -27.5t-27.5 -11.5h-188zM238 296q-4 -15 6.5 -26.5t27.5 -11.5h32q16 0 25 11t9 27v248q-1 14 -13.5 12.5t-15.5 -15.5z" />
    <glyph glyph-name="ccedilla" unicode="&#xe7;" 
d="M377 505q-16 0 -27.5 11.5t-11.5 27.5v109q0 16 -11.5 27.5t-27.5 11.5h-40q-16 0 -27.5 -11.5t-11.5 -27.5v-456q0 -16 11.5 -27.5t27.5 -11.5h40q16 0 27.5 11.5t11.5 27.5v110q0 16 11.5 27.5t27.5 11.5h108q16 0 27.5 -11.5t11.5 -27.5v-193q0 -16 -7.5 -36
t-19.5 -31l-19 -19q-30 -28 -67 -28h-75v-10q0 -23 6.5 -28t29.5 -5q48 0 78.5 -38t30.5 -78q0 -35 -7.5 -54.5t-27.5 -36.5l-41 -35q-27 -23 -64 -23l-123 3q-15 0 -25.5 11t-10.5 26l1 35q0 15 11 25t25 9l87 -6q23 -1 44.5 10t21.5 32q0 35 -62 35h-55q-15 0 -25 8.5
t-10 22.5v97h-72q-39 0 -67 28l-20 19q-11 11 -19 31t-8 36v623q0 39 27 66l20 20q27 27 67 27h263q38 0 67 -27l19 -20q27 -25 27 -66v-193q0 -16 -11 -27.5t-28 -11.5h-108z" />
    <glyph glyph-name="egrave" unicode="&#xe8;" horiz-adv-x="520" 
d="M253 1036l61 -127q4 -8 -0.5 -14.5t-13.5 -6.5h-74q-15 0 -30 21l-75 112q-24 36 10 36h85q9 0 21 -6.5t16 -14.5zM259 692q-16 0 -27.5 -11.5t-11.5 -27.5v-84q0 -16 11.5 -27.5t27.5 -11.5h144q16 0 27.5 -12t11.5 -28v-79q0 -17 -11.5 -28.5t-27.5 -11.5h-144
q-16 0 -27.5 -11.5t-11.5 -27.5v-135q0 -16 11.5 -27.5t27.5 -11.5h188q16 0 27.5 -11.5t11.5 -27.5v-29q0 -36 -25 -65q-29 -25 -65 -25h-323q-16 0 -27.5 11.5t-11.5 27.5v772q0 16 11.5 27.5t27.5 11.5h323q39 0 65 -26q25 -25 25 -64v-29q0 -16 -11.5 -27.5t-27.5 -11.5
h-188z" />
    <glyph glyph-name="eacute" unicode="&#xe9;" horiz-adv-x="520" 
d="M268 1036q4 8 16 14.5t21 6.5h85q34 0 10 -36l-75 -112q-15 -21 -30 -21h-74q-9 0 -13.5 6.5t-0.5 14.5zM259 692q-16 0 -27.5 -11.5t-11.5 -27.5v-84q0 -16 11.5 -27.5t27.5 -11.5h144q16 0 27.5 -12t11.5 -28v-79q0 -17 -11.5 -28.5t-27.5 -11.5h-144
q-16 0 -27.5 -11.5t-11.5 -27.5v-135q0 -16 11.5 -27.5t27.5 -11.5h188q16 0 27.5 -11.5t11.5 -27.5v-29q0 -36 -25 -65q-29 -25 -65 -25h-323q-16 0 -27.5 11.5t-11.5 27.5v772q0 16 11.5 27.5t27.5 11.5h323q39 0 65 -26q25 -25 25 -64v-29q0 -16 -11.5 -27.5t-27.5 -11.5
h-188z" />
    <glyph glyph-name="ecircumflex" unicode="&#xea;" horiz-adv-x="520" 
d="M443 992q13 -7 17.5 -21.5t-2.5 -27.5l-26 -48q-7 -13 -21 -17t-28 3l-92 50q-13 7 -31.5 7t-31.5 -7l-92 -50q-14 -7 -28 -3t-21 17l-26 48q-7 13 -2.5 27.5t17.5 21.5l152 82q13 7 31.5 7t31.5 -7zM259 692q-16 0 -27.5 -11.5t-11.5 -27.5v-84q0 -16 11.5 -27.5
t27.5 -11.5h144q16 0 27.5 -12t11.5 -28v-79q0 -17 -11.5 -28.5t-27.5 -11.5h-144q-16 0 -27.5 -11.5t-11.5 -27.5v-135q0 -16 11.5 -27.5t27.5 -11.5h188q16 0 27.5 -11.5t11.5 -27.5v-29q0 -36 -25 -65q-29 -25 -65 -25h-323q-16 0 -27.5 11.5t-11.5 27.5v772
q0 16 11.5 27.5t27.5 11.5h323q39 0 65 -26q25 -25 25 -64v-29q0 -16 -11.5 -27.5t-27.5 -11.5h-188z" />
    <glyph glyph-name="edieresis" unicode="&#xeb;" horiz-adv-x="520" 
d="M192 1058q17 0 29.5 -12.5t12.5 -30.5v-84q0 -17 -12.5 -30t-29.5 -13h-73q-17 0 -30 13t-13 30v84q0 18 13 30.5t30 12.5h73zM402 1058q17 0 29.5 -12.5t12.5 -30.5v-84q0 -17 -12.5 -30t-29.5 -13h-74q-17 0 -29.5 13t-12.5 30v84q0 18 12.5 30.5t29.5 12.5h74z
M259 692q-16 0 -27.5 -11.5t-11.5 -27.5v-84q0 -16 11.5 -27.5t27.5 -11.5h144q16 0 27.5 -12t11.5 -28v-79q0 -17 -11.5 -28.5t-27.5 -11.5h-144q-16 0 -27.5 -11.5t-11.5 -27.5v-135q0 -16 11.5 -27.5t27.5 -11.5h188q16 0 27.5 -11.5t11.5 -27.5v-29q0 -36 -25 -65
q-29 -25 -65 -25h-323q-16 0 -27.5 11.5t-11.5 27.5v772q0 16 11.5 27.5t27.5 11.5h323q39 0 65 -26q25 -25 25 -64v-29q0 -16 -11.5 -27.5t-27.5 -11.5h-188z" />
    <glyph glyph-name="igrave" unicode="&#xec;" horiz-adv-x="254" 
d="M120 1036l61 -127q4 -8 -0.5 -14.5t-13.5 -6.5h-74q-15 0 -30 21l-75 112q-24 36 10 36h85q9 0 21 -6.5t16 -14.5zM220 39q0 -16 -11.5 -27.5t-27.5 -11.5h-108q-16 0 -27.5 11.5t-11.5 27.5v772q0 16 11.5 27.5t27.5 11.5h108q16 0 27.5 -11.5t11.5 -27.5v-772z" />
    <glyph glyph-name="iacute" unicode="&#xed;" horiz-adv-x="254" 
d="M135 1036q4 8 16 14.5t21 6.5h85q34 0 10 -36l-75 -112q-15 -21 -30 -21h-74q-9 0 -13.5 6.5t-0.5 14.5zM220 39q0 -16 -11.5 -27.5t-27.5 -11.5h-108q-16 0 -27.5 11.5t-11.5 27.5v772q0 16 11.5 27.5t27.5 11.5h108q16 0 27.5 -11.5t11.5 -27.5v-772z" />
    <glyph glyph-name="icircumflex" unicode="&#xee;" horiz-adv-x="254" 
d="M310 992q13 -7 17.5 -21.5t-2.5 -27.5l-26 -48q-7 -13 -21 -17t-28 3l-92 50q-13 7 -31.5 7t-31.5 -7l-92 -50q-14 -7 -28 -3t-21 17l-26 48q-7 13 -2.5 27.5t17.5 21.5l152 82q13 7 31.5 7t31.5 -7zM220 39q0 -16 -11.5 -27.5t-27.5 -11.5h-108q-16 0 -27.5 11.5
t-11.5 27.5v772q0 16 11.5 27.5t27.5 11.5h108q16 0 27.5 -11.5t11.5 -27.5v-772z" />
    <glyph glyph-name="idieresis" unicode="&#xef;" horiz-adv-x="254" 
d="M59 1058q17 0 29.5 -12.5t12.5 -30.5v-84q0 -17 -12.5 -30t-29.5 -13h-73q-17 0 -30 13t-13 30v84q0 18 13 30.5t30 12.5h73zM269 1058q17 0 29.5 -12.5t12.5 -30.5v-84q0 -17 -12.5 -30t-29.5 -13h-74q-17 0 -29.5 13t-12.5 30v84q0 18 12.5 30.5t29.5 12.5h74zM220 39
q0 -16 -11.5 -27.5t-27.5 -11.5h-108q-16 0 -27.5 11.5t-11.5 27.5v772q0 16 11.5 27.5t27.5 11.5h108q16 0 27.5 -11.5t11.5 -27.5v-772z" />
    <glyph glyph-name="ntilde" unicode="&#xf1;" horiz-adv-x="592" 
d="M420 897q-31 -15 -67 -6l-112 30q-34 9 -66 -8l-24 -13q-14 -7 -28 -2.5t-21 17.5l-25 48q-7 13 -2.5 27.5t17.5 21.5l67 36q32 16 67 7l115 -31q35 -9 67 7l36 17q13 6 27.5 0.5t20.5 -18.5l23 -49q7 -13 2 -27t-19 -20zM518 850q16 0 28 -11.5t12 -27.5v-772
q0 -16 -12 -27.5t-28 -11.5h-159q-12 0 -26 37l-99 270q-4 10 -7 13t-5 -1t-2 -15v-265q0 -16 -11.5 -27.5t-27.5 -11.5h-108q-16 0 -27.5 11.5t-11.5 27.5v772q0 16 11.5 27.5t27.5 11.5h133q16 0 31.5 -10.5t20.5 -26.5l100 -272q3 -10 6 -13t5 1.5t2 14.5v267
q0 16 12 27.5t28 11.5h107z" />
    <glyph glyph-name="ograve" unicode="&#xf2;" horiz-adv-x="559" 
d="M273 1036l61 -127q4 -8 -0.5 -14.5t-13.5 -6.5h-74q-15 0 -30 21l-75 112q-24 36 10 36h85q9 0 21 -6.5t16 -14.5zM497 803q28 -26 28 -67v-622q0 -41 -28 -67l-18 -20q-31 -27 -43 -27h-294q-32 0 -61 27l-19 20q-28 28 -28 67v622q0 39 28 67l19 19q28 28 61 28h269
q38 0 68 -28zM300 158q16 0 27.5 11.5t11.5 27.5v456q0 16 -11.5 27.5t-27.5 11.5h-41q-16 0 -27.5 -11.5t-11.5 -27.5v-456q0 -16 11.5 -27.5t27.5 -11.5h41z" />
    <glyph glyph-name="oacute" unicode="&#xf3;" horiz-adv-x="559" 
d="M288 1036q4 8 16 14.5t21 6.5h85q34 0 10 -36l-75 -112q-15 -21 -30 -21h-74q-9 0 -13.5 6.5t-0.5 14.5zM497 803q28 -26 28 -67v-622q0 -41 -28 -67l-18 -20q-31 -27 -43 -27h-294q-32 0 -61 27l-19 20q-28 28 -28 67v622q0 39 28 67l19 19q28 28 61 28h269q38 0 68 -28
zM300 158q16 0 27.5 11.5t11.5 27.5v456q0 16 -11.5 27.5t-27.5 11.5h-41q-16 0 -27.5 -11.5t-11.5 -27.5v-456q0 -16 11.5 -27.5t27.5 -11.5h41z" />
    <glyph glyph-name="ocircumflex" unicode="&#xf4;" horiz-adv-x="559" 
d="M463 992q13 -7 17.5 -21.5t-2.5 -27.5l-26 -48q-7 -13 -21 -17t-28 3l-92 50q-13 7 -31.5 7t-31.5 -7l-92 -50q-14 -7 -28 -3t-21 17l-26 48q-7 13 -2.5 27.5t17.5 21.5l152 82q13 7 31.5 7t31.5 -7zM497 803q28 -26 28 -67v-622q0 -41 -28 -67l-18 -20q-31 -27 -43 -27
h-294q-32 0 -61 27l-19 20q-28 28 -28 67v622q0 39 28 67l19 19q28 28 61 28h269q38 0 68 -28zM300 158q16 0 27.5 11.5t11.5 27.5v456q0 16 -11.5 27.5t-27.5 11.5h-41q-16 0 -27.5 -11.5t-11.5 -27.5v-456q0 -16 11.5 -27.5t27.5 -11.5h41z" />
    <glyph glyph-name="otilde" unicode="&#xf5;" horiz-adv-x="559" 
d="M404 897q-31 -15 -67 -6l-112 30q-34 9 -66 -8l-24 -13q-14 -7 -28 -2.5t-21 17.5l-25 48q-7 13 -2.5 27.5t17.5 21.5l67 36q32 16 67 7l115 -31q35 -9 67 7l36 17q13 6 27.5 0.5t20.5 -18.5l23 -49q7 -13 2 -27t-19 -20zM497 803q28 -26 28 -67v-622q0 -41 -28 -67
l-18 -20q-31 -27 -43 -27h-294q-32 0 -61 27l-19 20q-28 28 -28 67v622q0 39 28 67l19 19q28 28 61 28h269q38 0 68 -28zM300 158q16 0 27.5 11.5t11.5 27.5v456q0 16 -11.5 27.5t-27.5 11.5h-41q-16 0 -27.5 -11.5t-11.5 -27.5v-456q0 -16 11.5 -27.5t27.5 -11.5h41z" />
    <glyph glyph-name="odieresis" unicode="&#xf6;" horiz-adv-x="559" 
d="M212 1058q17 0 29.5 -12.5t12.5 -30.5v-84q0 -17 -12.5 -30t-29.5 -13h-73q-17 0 -30 13t-13 30v84q0 18 13 30.5t30 12.5h73zM422 1058q17 0 29.5 -12.5t12.5 -30.5v-84q0 -17 -12.5 -30t-29.5 -13h-74q-17 0 -29.5 13t-12.5 30v84q0 18 12.5 30.5t29.5 12.5h74z
M497 803q28 -26 28 -67v-622q0 -41 -28 -67l-18 -20q-31 -27 -43 -27h-294q-32 0 -61 27l-19 20q-28 28 -28 67v622q0 39 28 67l19 19q28 28 61 28h269q38 0 68 -28zM300 158q16 0 27.5 11.5t11.5 27.5v456q0 16 -11.5 27.5t-27.5 11.5h-41q-16 0 -27.5 -11.5t-11.5 -27.5
v-456q0 -16 11.5 -27.5t27.5 -11.5h41z" />
    <glyph glyph-name="divide" unicode="&#xf7;" horiz-adv-x="702" 
d="M444 568q0 -17 -12.5 -29.5t-29.5 -12.5h-102q-17 0 -29.5 12.5t-12.5 29.5v125q0 17 13 29.5t29 12.5h102q17 0 29.5 -12.5t12.5 -29.5v-125zM633 478q16 0 27.5 -11.5t11.5 -27.5v-108q0 -16 -11.5 -28t-27.5 -12h-564q-16 0 -27.5 11.5t-11.5 28.5v108q0 16 11.5 27.5
t27.5 11.5h564zM444 82q0 -17 -12.5 -29.5t-29.5 -12.5h-102q-16 0 -29 13t-13 29v125q0 17 12.5 29.5t29.5 12.5h102q17 0 29.5 -12.5t12.5 -29.5v-125z" />
    <glyph glyph-name="oslash" unicode="&#xf8;" horiz-adv-x="583" 
d="M574 880q12 -6 10.5 -20.5t-13.5 -29.5l-54 -65q18 -30 20 -70l12 -235v-83l-12 -222q-2 -47 -49 -101t-92 -54h-202q-8 0 -13 1l-35 -42q-12 -14 -29.5 -21t-28.5 -1l-66 34q-11 6 -9.5 20.5t13.5 29.5l50 60q-28 37 -30 74l-12 222v83l12 235q3 50 40 97q44 58 92 58
h234h4l35 42q12 15 29.5 21t28.5 1zM361 283v271l-10 99q0 15 -12 27t-27 12h-41q-14 0 -26.5 -12t-12.5 -27l-10 -99v-271l10 -86q0 -14 12.5 -26.5t26.5 -12.5h41q15 0 27 12.5t12 26.5z" />
    <glyph glyph-name="ugrave" unicode="&#xf9;" 
d="M272 1036l61 -127q4 -8 -0.5 -14.5t-13.5 -6.5h-74q-15 0 -30 21l-75 112q-24 36 10 36h85q9 0 21 -6.5t16 -14.5zM524 152q0 -41 -27 -66l-58 -59q-29 -27 -50 -27h-215q-27 0 -54 27l-59 59q-27 27 -27 66v659q0 16 11.5 27.5t27.5 11.5h108q16 0 27.5 -11.5
t11.5 -27.5v-614q0 -17 11 -28t28 -11h40q17 0 28 11t11 28v614q0 16 11.5 27.5t27.5 11.5h108q16 0 27.5 -11.5t11.5 -27.5v-659z" />
    <glyph glyph-name="uacute" unicode="&#xfa;" 
d="M287 1036q4 8 16 14.5t21 6.5h85q34 0 10 -36l-75 -112q-15 -21 -30 -21h-74q-9 0 -13.5 6.5t-0.5 14.5zM524 152q0 -41 -27 -66l-58 -59q-29 -27 -50 -27h-215q-27 0 -54 27l-59 59q-27 27 -27 66v659q0 16 11.5 27.5t27.5 11.5h108q16 0 27.5 -11.5t11.5 -27.5v-614
q0 -17 11 -28t28 -11h40q17 0 28 11t11 28v614q0 16 11.5 27.5t27.5 11.5h108q16 0 27.5 -11.5t11.5 -27.5v-659z" />
    <glyph glyph-name="ucircumflex" unicode="&#xfb;" 
d="M462 992q13 -7 17.5 -21.5t-2.5 -27.5l-26 -48q-7 -13 -21 -17t-28 3l-92 50q-13 7 -31.5 7t-31.5 -7l-92 -50q-14 -7 -28 -3t-21 17l-26 48q-7 13 -2.5 27.5t17.5 21.5l152 82q13 7 31.5 7t31.5 -7zM524 152q0 -41 -27 -66l-58 -59q-29 -27 -50 -27h-215q-27 0 -54 27
l-59 59q-27 27 -27 66v659q0 16 11.5 27.5t27.5 11.5h108q16 0 27.5 -11.5t11.5 -27.5v-614q0 -17 11 -28t28 -11h40q17 0 28 11t11 28v614q0 16 11.5 27.5t27.5 11.5h108q16 0 27.5 -11.5t11.5 -27.5v-659z" />
    <glyph glyph-name="udieresis" unicode="&#xfc;" 
d="M211 1058q17 0 29.5 -12.5t12.5 -30.5v-84q0 -17 -12.5 -30t-29.5 -13h-73q-17 0 -30 13t-13 30v84q0 18 13 30.5t30 12.5h73zM421 1058q17 0 29.5 -12.5t12.5 -30.5v-84q0 -17 -12.5 -30t-29.5 -13h-74q-17 0 -29.5 13t-12.5 30v84q0 18 12.5 30.5t29.5 12.5h74z
M524 152q0 -41 -27 -66l-58 -59q-29 -27 -50 -27h-215q-27 0 -54 27l-59 59q-27 27 -27 66v659q0 16 11.5 27.5t27.5 11.5h108q16 0 27.5 -11.5t11.5 -27.5v-614q0 -17 11 -28t28 -11h40q17 0 28 11t11 28v614q0 16 11.5 27.5t27.5 11.5h108q16 0 27.5 -11.5t11.5 -27.5
v-659z" />
    <glyph glyph-name="yacute" unicode="&#xfd;" horiz-adv-x="541" 
d="M279 1036q4 8 16 14.5t21 6.5h85q34 0 10 -36l-75 -112q-15 -21 -30 -21h-74q-9 0 -13.5 6.5t-0.5 14.5zM477 850q16 0 24 -11t3 -26l-128 -407q-12 -34 -12 -76v-291q0 -16 -11.5 -27.5t-27.5 -11.5h-108q-17 0 -28 11t-11 28v291q0 36 -12 76l-129 407q-5 15 3 26
t24 11h108q16 0 30.5 -11t19.5 -27l38 -139q4 -15 10 -15t10 15l40 139q4 16 18.5 27t30.5 11h108z" />
    <glyph glyph-name="thorn" unicode="&#xfe;" 
d="M499 694q25 -25 25 -50v-375q0 -32 -25 -57q-10 -10 -35 -18t-42 -8h-202v-147q0 -16 -11.5 -27.5t-27.5 -11.5h-108q-16 0 -27.5 11.5t-11.5 27.5v772q0 16 11.5 27.5t27.5 11.5h108q16 0 27.5 -11.5t11.5 -27.5v-91h214q39 0 65 -26zM338 383v140q0 16 -11.5 27.5
t-27.5 11.5h-79v-218h79q16 0 27.5 11.5t11.5 27.5z" />
    <glyph glyph-name="ydieresis" unicode="&#xff;" horiz-adv-x="541" 
d="M203 1058q17 0 29.5 -12.5t12.5 -30.5v-84q0 -17 -12.5 -30t-29.5 -13h-73q-17 0 -30 13t-13 30v84q0 18 13 30.5t30 12.5h73zM413 1058q17 0 29.5 -12.5t12.5 -30.5v-84q0 -17 -12.5 -30t-29.5 -13h-74q-17 0 -29.5 13t-12.5 30v84q0 18 12.5 30.5t29.5 12.5h74z
M477 850q16 0 24 -11t3 -26l-128 -407q-12 -34 -12 -76v-291q0 -16 -11.5 -27.5t-27.5 -11.5h-108q-17 0 -28 11t-11 28v291q0 36 -12 76l-129 407q-5 15 3 26t24 11h108q16 0 30.5 -11t19.5 -27l38 -139q4 -15 10 -15t10 15l40 139q4 16 18.5 27t30.5 11h108z" />
    <glyph glyph-name="Amacron" unicode="&#x100;" 
d="M396 1038q17 0 29.5 -12.5t12.5 -30.5v-44q0 -17 -12.5 -30t-29.5 -13h-234q-17 0 -29.5 13t-12.5 30v44q0 18 12.5 30.5t29.5 12.5h234zM518 225q6 -38 6 -77v-109q0 -16 -11.5 -27.5t-27.5 -11.5h-108q-16 0 -27.5 11.5t-11.5 27.5v51q0 21 -9 30t-30 9h-40
q-21 0 -30 -9t-9 -30v-51q0 -16 -11.5 -27.5t-27.5 -11.5h-108q-16 0 -27.5 11.5t-11.5 27.5v109q0 41 6 77l94 587q2 16 16 27t30 11h198q15 0 29 -11.5t16 -26.5zM238 296q-2 -20 6 -29t28 -9h14q20 0 28 9t6 29l-29 265q-1 15 -12 15t-12 -15z" />
    <glyph glyph-name="amacron" unicode="&#x101;" 
d="M396 1038q17 0 29.5 -12.5t12.5 -30.5v-44q0 -17 -12.5 -30t-29.5 -13h-234q-17 0 -29.5 13t-12.5 30v44q0 18 12.5 30.5t29.5 12.5h234zM518 225q6 -32 6 -77v-109q0 -16 -11.5 -27.5t-27.5 -11.5h-108q-16 0 -27.5 11.5t-11.5 27.5v21q0 16 -11.5 27.5t-27.5 11.5h-40
q-17 0 -28 -11.5t-11 -27.5v-21q0 -16 -11.5 -27.5t-27.5 -11.5h-108q-16 0 -27.5 11.5t-11.5 27.5v109q0 35 6 77l94 587q3 16 16.5 27t29.5 11h198q16 0 29.5 -11t15.5 -27zM238 296q-2 -16 8 -27t26 -11h14q16 0 26 11t8 27l-35 265q-6 33 -11 0z" />
    <glyph glyph-name="Abreve" unicode="&#x102;" 
d="M314 879q-36 -4 -71 0q-32 2 -62 18q-36 19 -63 51q-29 36 -29 39q-4 14 3.5 27t21.5 17l52 14q23 6 52 -25q32 -34 61 -34q28 0 60 34q29 31 52 25l52 -14q14 -4 21.5 -17t3.5 -27q0 -3 -29 -39q-27 -31 -62 -51q-31 -16 -63 -18zM518 225q6 -38 6 -77v-109
q0 -16 -11.5 -27.5t-27.5 -11.5h-108q-16 0 -27.5 11.5t-11.5 27.5v51q0 21 -9 30t-30 9h-40q-21 0 -30 -9t-9 -30v-51q0 -16 -11.5 -27.5t-27.5 -11.5h-108q-16 0 -27.5 11.5t-11.5 27.5v109q0 41 6 77l94 587q2 16 16 27t30 11h198q15 0 29 -11.5t16 -26.5zM238 296
q-2 -20 6 -29t28 -9h14q20 0 28 9t6 29l-29 265q-1 15 -12 15t-12 -15z" />
    <glyph glyph-name="abreve" unicode="&#x103;" 
d="M314 879q-36 -4 -71 0q-32 2 -62 18q-36 19 -63 51q-29 36 -29 39q-4 14 3.5 27t21.5 17l52 14q23 6 52 -25q32 -34 61 -34q28 0 60 34q29 31 52 25l52 -14q14 -4 21.5 -17t3.5 -27q0 -3 -29 -39q-27 -31 -62 -51q-31 -16 -63 -18zM518 225q6 -32 6 -77v-109
q0 -16 -11.5 -27.5t-27.5 -11.5h-108q-16 0 -27.5 11.5t-11.5 27.5v21q0 16 -11.5 27.5t-27.5 11.5h-40q-17 0 -28 -11.5t-11 -27.5v-21q0 -16 -11.5 -27.5t-27.5 -11.5h-108q-16 0 -27.5 11.5t-11.5 27.5v109q0 35 6 77l94 587q3 16 16.5 27t29.5 11h198q16 0 29.5 -11
t15.5 -27zM238 296q-2 -16 8 -27t26 -11h14q16 0 26 11t8 27l-35 265q-6 33 -11 0z" />
    <glyph glyph-name="Aogonek" unicode="&#x104;" 
d="M527 -233l1 -35q0 -15 -10.5 -26t-25.5 -11l-123 -3q-37 0 -64 23l-41 35q-20 17 -27.5 36.5t-7.5 54.5q0 40 30.5 78t78.5 38q13 0 18 0.5t10 3.5t6.5 10t1.5 19v10q-15 2 -25.5 13t-10.5 26v51q0 21 -9 30t-30 9h-40q-21 0 -30 -9t-9 -30v-51q0 -16 -11.5 -27.5
t-27.5 -11.5h-108q-16 0 -27.5 11.5t-11.5 27.5v109q0 41 6 77l94 587q2 16 16 27t30 11h198q15 0 29 -11.5t16 -26.5l95 -587q6 -38 6 -77v-109q0 -14 -9.5 -25.5t-24.5 -13.5v-97q0 -14 -10 -22.5t-25 -8.5h-55q-62 0 -62 -35q0 -21 21.5 -32t44.5 -10l87 6q14 1 25 -9
t11 -25zM286 258q20 0 28 9t6 29l-29 265q-1 15 -12 15t-12 -15l-29 -265q-2 -20 6 -29t28 -9h14z" />
    <glyph glyph-name="aogonek" unicode="&#x105;" 
d="M527 -233l1 -35q0 -15 -10.5 -26t-25.5 -11l-123 -3q-37 0 -64 23l-41 35q-20 17 -27.5 36.5t-7.5 54.5q0 40 30.5 78t78.5 38q13 0 18 0.5t10 3.5t6.5 10t1.5 19v10q-15 2 -25.5 13t-10.5 26v21q0 16 -11.5 27.5t-27.5 11.5h-40q-17 0 -28 -11.5t-11 -27.5v-21
q0 -16 -11.5 -27.5t-27.5 -11.5h-108q-16 0 -27.5 11.5t-11.5 27.5v109q0 35 6 77l94 587q3 16 16.5 27t29.5 11h198q16 0 29.5 -11t15.5 -27l95 -587q6 -32 6 -77v-109q0 -14 -9.5 -25.5t-24.5 -13.5v-97q0 -14 -10 -22.5t-25 -8.5h-55q-62 0 -62 -35q0 -21 21.5 -32
t44.5 -10l87 6q14 1 25 -9t11 -25zM286 258q16 0 26 11t8 27l-35 265q-6 33 -11 0l-36 -265q-2 -16 8 -27t26 -11h14z" />
    <glyph glyph-name="Cacute" unicode="&#x106;" 
d="M287 1036q4 8 16 14.5t21 6.5h85q34 0 10 -36l-75 -112q-15 -21 -30 -21h-74q-9 0 -13.5 6.5t-0.5 14.5zM377 505q-39 0 -39 39v109q0 39 -39 39h-40q-39 0 -39 -39v-456q0 -39 39 -39h40q39 0 39 39v110q0 39 39 39h108q39 0 39 -39v-193q0 -54 -30 -84t-83 -30h-263
q-54 0 -84 30t-30 84v623q0 53 30 83t84 30h263q53 0 83 -30t30 -83v-193q0 -39 -39 -39h-108z" />
    <glyph glyph-name="cacute" unicode="&#x107;" 
d="M287 1036q4 8 16 14.5t21 6.5h85q34 0 10 -36l-75 -112q-15 -21 -30 -21h-74q-9 0 -13.5 6.5t-0.5 14.5zM377 505q-16 0 -27.5 11.5t-11.5 27.5v109q0 16 -11.5 27.5t-27.5 11.5h-40q-16 0 -27.5 -11.5t-11.5 -27.5v-456q0 -16 11.5 -27.5t27.5 -11.5h40q16 0 27.5 11.5
t11.5 27.5v110q0 16 11.5 27.5t27.5 11.5h108q16 0 27.5 -11.5t11.5 -27.5v-193q0 -16 -7.5 -36t-19.5 -31l-19 -19q-30 -28 -67 -28h-263q-39 0 -67 28l-20 19q-11 11 -19 31t-8 36v623q0 39 27 66l20 20q27 27 67 27h263q38 0 67 -27l19 -20q27 -25 27 -66v-193
q0 -16 -11 -27.5t-28 -11.5h-108z" />
    <glyph glyph-name="Ccircumflex" unicode="&#x108;" 
d="M462 992q13 -7 17.5 -21.5t-2.5 -27.5l-26 -48q-7 -13 -21 -17t-28 3l-92 50q-13 7 -31.5 7t-31.5 -7l-92 -50q-14 -7 -28 -3t-21 17l-26 48q-7 13 -2.5 27.5t17.5 21.5l152 82q13 7 31.5 7t31.5 -7zM377 505q-39 0 -39 39v109q0 39 -39 39h-40q-39 0 -39 -39v-456
q0 -39 39 -39h40q39 0 39 39v110q0 39 39 39h108q39 0 39 -39v-193q0 -54 -30 -84t-83 -30h-263q-54 0 -84 30t-30 84v623q0 53 30 83t84 30h263q53 0 83 -30t30 -83v-193q0 -39 -39 -39h-108z" />
    <glyph glyph-name="ccircumflex" unicode="&#x109;" 
d="M462 992q13 -7 17.5 -21.5t-2.5 -27.5l-26 -48q-7 -13 -21 -17t-28 3l-92 50q-13 7 -31.5 7t-31.5 -7l-92 -50q-14 -7 -28 -3t-21 17l-26 48q-7 13 -2.5 27.5t17.5 21.5l152 82q13 7 31.5 7t31.5 -7zM377 505q-16 0 -27.5 11.5t-11.5 27.5v109q0 16 -11.5 27.5
t-27.5 11.5h-40q-16 0 -27.5 -11.5t-11.5 -27.5v-456q0 -16 11.5 -27.5t27.5 -11.5h40q16 0 27.5 11.5t11.5 27.5v110q0 16 11.5 27.5t27.5 11.5h108q16 0 27.5 -11.5t11.5 -27.5v-193q0 -16 -7.5 -36t-19.5 -31l-19 -19q-30 -28 -67 -28h-263q-39 0 -67 28l-20 19
q-11 11 -19 31t-8 36v623q0 39 27 66l20 20q27 27 67 27h263q38 0 67 -27l19 -20q27 -25 27 -66v-193q0 -16 -11 -27.5t-28 -11.5h-108z" />
    <glyph glyph-name="Cdotaccent" unicode="&#x10a;" 
d="M316 1058q17 0 29.5 -12.5t12.5 -30.5v-84q0 -17 -12.5 -30t-29.5 -13h-74q-17 0 -29.5 13t-12.5 30v84q0 18 12.5 30.5t29.5 12.5h74zM377 505q-39 0 -39 39v109q0 39 -39 39h-40q-39 0 -39 -39v-456q0 -39 39 -39h40q39 0 39 39v110q0 39 39 39h108q39 0 39 -39v-193
q0 -54 -30 -84t-83 -30h-263q-54 0 -84 30t-30 84v623q0 53 30 83t84 30h263q53 0 83 -30t30 -83v-193q0 -39 -39 -39h-108z" />
    <glyph glyph-name="cdotaccent" unicode="&#x10b;" 
d="M316 1058q17 0 29.5 -12.5t12.5 -30.5v-84q0 -17 -12.5 -30t-29.5 -13h-74q-17 0 -29.5 13t-12.5 30v84q0 18 12.5 30.5t29.5 12.5h74zM377 505q-16 0 -27.5 11.5t-11.5 27.5v109q0 16 -11.5 27.5t-27.5 11.5h-40q-16 0 -27.5 -11.5t-11.5 -27.5v-456q0 -16 11.5 -27.5
t27.5 -11.5h40q16 0 27.5 11.5t11.5 27.5v110q0 16 11.5 27.5t27.5 11.5h108q16 0 27.5 -11.5t11.5 -27.5v-193q0 -16 -7.5 -36t-19.5 -31l-19 -19q-30 -28 -67 -28h-263q-39 0 -67 28l-20 19q-11 11 -19 31t-8 36v623q0 39 27 66l20 20q27 27 67 27h263q38 0 67 -27l19 -20
q27 -25 27 -66v-193q0 -16 -11 -27.5t-28 -11.5h-108z" />
    <glyph glyph-name="Ccaron" unicode="&#x10c;" 
d="M310 891q-13 -7 -31.5 -7t-31.5 7l-152 82q-13 7 -17.5 21.5t2.5 27.5l26 48q7 13 21 17t28 -3l92 -50q13 -7 31.5 -7t31.5 7l92 50q14 7 28 3t21 -17l26 -48q7 -13 2.5 -27.5t-17.5 -21.5zM377 505q-39 0 -39 39v109q0 39 -39 39h-40q-39 0 -39 -39v-456q0 -39 39 -39
h40q39 0 39 39v110q0 39 39 39h108q39 0 39 -39v-193q0 -54 -30 -84t-83 -30h-263q-54 0 -84 30t-30 84v623q0 53 30 83t84 30h263q53 0 83 -30t30 -83v-193q0 -39 -39 -39h-108z" />
    <glyph glyph-name="ccaron" unicode="&#x10d;" 
d="M310 891q-13 -7 -31.5 -7t-31.5 7l-152 82q-13 7 -17.5 21.5t2.5 27.5l26 48q7 13 21 17t28 -3l92 -50q13 -7 31.5 -7t31.5 7l92 50q14 7 28 3t21 -17l26 -48q7 -13 2.5 -27.5t-17.5 -21.5zM377 505q-16 0 -27.5 11.5t-11.5 27.5v109q0 16 -11.5 27.5t-27.5 11.5h-40
q-16 0 -27.5 -11.5t-11.5 -27.5v-456q0 -16 11.5 -27.5t27.5 -11.5h40q16 0 27.5 11.5t11.5 27.5v110q0 16 11.5 27.5t27.5 11.5h108q16 0 27.5 -11.5t11.5 -27.5v-193q0 -16 -7.5 -36t-19.5 -31l-19 -19q-30 -28 -67 -28h-263q-39 0 -67 28l-20 19q-11 11 -19 31t-8 36v623
q0 39 27 66l20 20q27 27 67 27h263q38 0 67 -27l19 -20q27 -25 27 -66v-193q0 -16 -11 -27.5t-28 -11.5h-108z" />
    <glyph glyph-name="Dcaron" unicode="&#x10e;" 
d="M310 891q-13 -7 -31.5 -7t-31.5 7l-152 82q-13 7 -17.5 21.5t2.5 27.5l26 48q7 13 21 17t28 -3l92 -50q13 -7 31.5 -7t31.5 7l92 50q14 7 28 3t21 -17l26 -48q7 -13 2.5 -27.5t-17.5 -21.5zM497 746q27 -26 27 -67v-508q0 -39 -27 -66l-76 -77q-28 -28 -46 -28h-302
q-39 0 -39 39v772q0 39 39 39h302q17 0 46 -27zM258 158q80 0 80 83v368q0 83 -80 83q-38 0 -38 -39v-456q0 -39 38 -39z" />
    <glyph glyph-name="dcaron" unicode="&#x10f;" 
d="M310 891q-13 -7 -31.5 -7t-31.5 7l-152 82q-13 7 -17.5 21.5t2.5 27.5l26 48q7 13 21 17t28 -3l92 -50q13 -7 31.5 -7t31.5 7l92 50q14 7 28 3t21 -17l26 -48q7 -13 2.5 -27.5t-17.5 -21.5zM497 746q27 -25 27 -67v-508q0 -41 -27 -66l-76 -77q-30 -28 -46 -28h-302
q-16 0 -27.5 11.5t-11.5 27.5v772q0 17 11 28t28 11h302q17 0 46 -27zM258 158q36 0 58 22t22 61v368q0 39 -22 61q-20 22 -58 22q-16 0 -27 -11.5t-11 -27.5v-456q0 -16 11 -27.5t27 -11.5z" />
    <glyph glyph-name="Dcroat" unicode="&#x110;" 
d="M497 746q27 -26 27 -67v-508q0 -39 -27 -66l-76 -77q-28 -28 -46 -28h-302q-39 0 -39 39v292h-37q-39 0 -39 40v108q0 39 39 39h37v293q0 39 39 39h302q17 0 46 -27zM338 241v368q0 83 -80 83q-38 0 -38 -39v-135h34q39 0 39 -39v-108q0 -40 -39 -40h-34v-134
q0 -39 38 -39q80 0 80 83z" />
    <glyph glyph-name="dcroat" unicode="&#x111;" 
d="M497 746q27 -26 27 -67v-508q0 -39 -27 -66l-76 -77q-28 -28 -46 -28h-302q-39 0 -39 39v292h-37q-39 0 -39 40v108q0 39 39 39h37v293q0 39 39 39h302q17 0 46 -27zM338 241v368q0 83 -80 83q-38 0 -38 -39v-135h34q39 0 39 -39v-108q0 -40 -39 -40h-34v-134
q0 -39 38 -39q80 0 80 83z" />
    <glyph glyph-name="Emacron" unicode="&#x112;" horiz-adv-x="520" 
d="M377 1038q17 0 29.5 -12.5t12.5 -30.5v-44q0 -17 -12.5 -30t-29.5 -13h-234q-17 0 -29.5 13t-12.5 30v44q0 18 12.5 30.5t29.5 12.5h234zM259 692q-17 0 -28 -11t-11 -28v-84q0 -17 11 -28t28 -11h144q17 0 28 -11.5t11 -28.5v-79q0 -17 -11 -28.5t-28 -11.5h-144
q-17 0 -28 -11t-11 -28v-135q0 -17 11 -28t28 -11h188q17 0 28 -11t11 -28v-29q0 -40 -25 -65t-65 -25h-323q-17 0 -28 11t-11 28v772q0 17 11 28t28 11h323q40 0 65 -25t25 -65v-29q0 -17 -11 -28t-28 -11h-188z" />
    <glyph glyph-name="emacron" unicode="&#x113;" horiz-adv-x="520" 
d="M377 1038q17 0 29.5 -12.5t12.5 -30.5v-44q0 -17 -12.5 -30t-29.5 -13h-234q-17 0 -29.5 13t-12.5 30v44q0 18 12.5 30.5t29.5 12.5h234zM259 692q-16 0 -27.5 -11.5t-11.5 -27.5v-84q0 -16 11.5 -27.5t27.5 -11.5h144q16 0 27.5 -12t11.5 -28v-79q0 -17 -11.5 -28.5
t-27.5 -11.5h-144q-16 0 -27.5 -11.5t-11.5 -27.5v-135q0 -16 11.5 -27.5t27.5 -11.5h188q16 0 27.5 -11.5t11.5 -27.5v-29q0 -36 -25 -65q-29 -25 -65 -25h-323q-16 0 -27.5 11.5t-11.5 27.5v772q0 16 11.5 27.5t27.5 11.5h323q39 0 65 -26q25 -25 25 -64v-29
q0 -16 -11.5 -27.5t-27.5 -11.5h-188z" />
    <glyph glyph-name="Ebreve" unicode="&#x114;" horiz-adv-x="520" 
d="M295 879q-36 -4 -71 0q-32 2 -62 18q-36 19 -63 51q-29 36 -29 39q-4 14 3.5 27t21.5 17l52 14q23 6 52 -25q32 -34 61 -34q28 0 60 34q29 31 52 25l52 -14q14 -4 21.5 -17t3.5 -27q0 -3 -29 -39q-27 -31 -62 -51q-32 -16 -63 -18zM259 692q-17 0 -28 -11t-11 -28v-84
q0 -17 11 -28t28 -11h144q17 0 28 -11.5t11 -28.5v-79q0 -17 -11 -28.5t-28 -11.5h-144q-17 0 -28 -11t-11 -28v-135q0 -17 11 -28t28 -11h188q17 0 28 -11t11 -28v-29q0 -40 -25 -65t-65 -25h-323q-17 0 -28 11t-11 28v772q0 17 11 28t28 11h323q40 0 65 -25t25 -65v-29
q0 -17 -11 -28t-28 -11h-188z" />
    <glyph glyph-name="ebreve" unicode="&#x115;" horiz-adv-x="520" 
d="M295 879q-36 -4 -71 0q-32 2 -62 18q-36 19 -63 51q-29 36 -29 39q-4 14 3.5 27t21.5 17l52 14q23 6 52 -25q32 -34 61 -34q28 0 60 34q29 31 52 25l52 -14q14 -4 21.5 -17t3.5 -27q0 -3 -29 -39q-27 -31 -62 -51q-32 -16 -63 -18zM259 692q-16 0 -27.5 -11.5
t-11.5 -27.5v-84q0 -16 11.5 -27.5t27.5 -11.5h144q16 0 27.5 -12t11.5 -28v-79q0 -17 -11.5 -28.5t-27.5 -11.5h-144q-16 0 -27.5 -11.5t-11.5 -27.5v-135q0 -16 11.5 -27.5t27.5 -11.5h188q16 0 27.5 -11.5t11.5 -27.5v-29q0 -36 -25 -65q-29 -25 -65 -25h-323
q-16 0 -27.5 11.5t-11.5 27.5v772q0 16 11.5 27.5t27.5 11.5h323q39 0 65 -26q25 -25 25 -64v-29q0 -16 -11.5 -27.5t-27.5 -11.5h-188z" />
    <glyph glyph-name="Edotaccent" unicode="&#x116;" horiz-adv-x="520" 
d="M297 1058q17 0 29.5 -12.5t12.5 -30.5v-84q0 -17 -12.5 -30t-29.5 -13h-74q-17 0 -29.5 13t-12.5 30v84q0 18 12.5 30.5t29.5 12.5h74zM259 692q-17 0 -28 -11t-11 -28v-84q0 -17 11 -28t28 -11h144q17 0 28 -11.5t11 -28.5v-79q0 -17 -11 -28.5t-28 -11.5h-144
q-17 0 -28 -11t-11 -28v-135q0 -17 11 -28t28 -11h188q17 0 28 -11t11 -28v-29q0 -40 -25 -65t-65 -25h-323q-17 0 -28 11t-11 28v772q0 17 11 28t28 11h323q40 0 65 -25t25 -65v-29q0 -17 -11 -28t-28 -11h-188z" />
    <glyph glyph-name="edotaccent" unicode="&#x117;" horiz-adv-x="520" 
d="M297 1058q17 0 29.5 -12.5t12.5 -30.5v-84q0 -17 -12.5 -30t-29.5 -13h-74q-17 0 -29.5 13t-12.5 30v84q0 18 12.5 30.5t29.5 12.5h74zM259 692q-16 0 -27.5 -11.5t-11.5 -27.5v-84q0 -16 11.5 -27.5t27.5 -11.5h144q16 0 27.5 -12t11.5 -28v-79q0 -17 -11.5 -28.5
t-27.5 -11.5h-144q-16 0 -27.5 -11.5t-11.5 -27.5v-135q0 -16 11.5 -27.5t27.5 -11.5h188q16 0 27.5 -11.5t11.5 -27.5v-29q0 -36 -25 -65q-29 -25 -65 -25h-323q-16 0 -27.5 11.5t-11.5 27.5v772q0 16 11.5 27.5t27.5 11.5h323q39 0 65 -26q25 -25 25 -64v-29
q0 -16 -11.5 -27.5t-27.5 -11.5h-188z" />
    <glyph glyph-name="Eogonek" unicode="&#x118;" horiz-adv-x="520" 
d="M259 692q-17 0 -28 -11t-11 -28v-84q0 -17 11 -28t28 -11h144q17 0 28 -11.5t11 -28.5v-79q0 -17 -11 -28.5t-28 -11.5h-144q-17 0 -28 -11t-11 -28v-135q0 -17 11 -28t28 -11h188q17 0 28 -11t11 -28v-29q0 -40 -25 -65t-65 -25h-77v-97q0 -14 -10 -22.5t-25 -8.5h-55
q-62 0 -62 -35q0 -21 21.5 -32t44.5 -10l87 6q14 1 25 -9t11 -25l1 -35q0 -15 -10.5 -26t-25.5 -11l-123 -3q-37 0 -64 23l-41 35q-20 17 -27.5 36.5t-7.5 54.5q0 40 30.5 78t78.5 38q13 0 18 0.5t10 3.5t6.5 10t1.5 19v10h-130q-17 0 -28 11t-11 28v772q0 17 11 28t28 11
h323q40 0 65 -25t25 -65v-29q0 -17 -11 -28t-28 -11h-188z" />
    <glyph glyph-name="eogonek" unicode="&#x119;" horiz-adv-x="520" 
d="M259 692q-16 0 -27.5 -11.5t-11.5 -27.5v-84q0 -16 11.5 -27.5t27.5 -11.5h144q16 0 27.5 -12t11.5 -28v-79q0 -17 -11.5 -28.5t-27.5 -11.5h-144q-16 0 -27.5 -11.5t-11.5 -27.5v-135q0 -16 11.5 -27.5t27.5 -11.5h188q16 0 27.5 -11.5t11.5 -27.5v-29q0 -36 -25 -65
q-29 -25 -65 -25h-77v-97q0 -14 -10 -22.5t-25 -8.5h-55q-62 0 -62 -35q0 -21 21.5 -32t44.5 -10l87 6q14 1 25 -9t11 -25l1 -35q0 -15 -10.5 -26t-25.5 -11l-123 -3q-37 0 -64 23l-41 35q-20 17 -27.5 36.5t-7.5 54.5q0 40 30.5 78t78.5 38q13 0 18 0.5t10 3.5t6.5 10
t1.5 19v10h-130q-16 0 -27.5 11.5t-11.5 27.5v772q0 16 11.5 27.5t27.5 11.5h323q39 0 65 -26q25 -25 25 -64v-29q0 -16 -11.5 -27.5t-27.5 -11.5h-188z" />
    <glyph glyph-name="Ecaron" unicode="&#x11a;" horiz-adv-x="520" 
d="M291 891q-13 -7 -31.5 -7t-31.5 7l-152 82q-13 7 -17.5 21.5t2.5 27.5l26 48q7 13 21 17t28 -3l92 -50q13 -7 31.5 -7t31.5 7l92 50q14 7 28 3t21 -17l26 -48q7 -13 2.5 -27.5t-17.5 -21.5zM259 692q-17 0 -28 -11t-11 -28v-84q0 -17 11 -28t28 -11h144q17 0 28 -11.5
t11 -28.5v-79q0 -17 -11 -28.5t-28 -11.5h-144q-17 0 -28 -11t-11 -28v-135q0 -17 11 -28t28 -11h188q17 0 28 -11t11 -28v-29q0 -40 -25 -65t-65 -25h-323q-17 0 -28 11t-11 28v772q0 17 11 28t28 11h323q40 0 65 -25t25 -65v-29q0 -17 -11 -28t-28 -11h-188z" />
    <glyph glyph-name="ecaron" unicode="&#x11b;" horiz-adv-x="520" 
d="M291 891q-13 -7 -31.5 -7t-31.5 7l-152 82q-13 7 -17.5 21.5t2.5 27.5l26 48q7 13 21 17t28 -3l92 -50q13 -7 31.5 -7t31.5 7l92 50q14 7 28 3t21 -17l26 -48q7 -13 2.5 -27.5t-17.5 -21.5zM259 692q-16 0 -27.5 -11.5t-11.5 -27.5v-84q0 -16 11.5 -27.5t27.5 -11.5h144
q16 0 27.5 -12t11.5 -28v-79q0 -17 -11.5 -28.5t-27.5 -11.5h-144q-16 0 -27.5 -11.5t-11.5 -27.5v-135q0 -16 11.5 -27.5t27.5 -11.5h188q16 0 27.5 -11.5t11.5 -27.5v-29q0 -36 -25 -65q-29 -25 -65 -25h-323q-16 0 -27.5 11.5t-11.5 27.5v772q0 16 11.5 27.5t27.5 11.5
h323q39 0 65 -26q25 -25 25 -64v-29q0 -16 -11.5 -27.5t-27.5 -11.5h-188z" />
    <glyph glyph-name="Gcircumflex" unicode="&#x11c;" horiz-adv-x="559" 
d="M463 992q13 -7 17.5 -21.5t-2.5 -27.5l-26 -48q-7 -13 -21 -17t-28 3l-92 50q-13 7 -31.5 7t-31.5 -7l-92 -50q-14 -7 -28 -3t-21 17l-26 48q-7 13 -2.5 27.5t17.5 21.5l152 82q13 7 31.5 7t31.5 -7zM378 610q-17 0 -28 11t-11 28v4q0 17 -11 28t-28 11h-40
q-17 0 -28.5 -11t-11.5 -28v-456q0 -17 11.5 -28t28.5 -11h40q17 0 28 11t11 28v110q0 17 -8.5 28t-21.5 11t-21 11t-8 28v80q0 17 8 28t21 11h177q17 0 28 -11t11 -28v-351q0 -50 -32 -82t-82 -32h-263q-50 0 -82 32t-32 82v623q0 50 32 81.5t82 31.5h263q50 0 82 -31.5
t32 -81.5v-88q0 -17 -11 -28t-28 -11h-108z" />
    <glyph glyph-name="gcircumflex" unicode="&#x11d;" horiz-adv-x="559" 
d="M463 992q13 -7 17.5 -21.5t-2.5 -27.5l-26 -48q-7 -13 -21 -17t-28 3l-92 50q-13 7 -31.5 7t-31.5 -7l-92 -50q-14 -7 -28 -3t-21 17l-26 48q-7 13 -2.5 27.5t17.5 21.5l152 82q13 7 31.5 7t31.5 -7zM378 610q-16 0 -27.5 11.5t-11.5 27.5v4q0 16 -11.5 27.5t-27.5 11.5
h-40q-16 0 -28 -11.5t-12 -27.5v-456q0 -16 12 -27.5t28 -11.5h40q16 0 27.5 11.5t11.5 27.5v110q0 17 -8.5 28t-21.5 11t-21 11.5t-8 27.5v80q0 17 8 28t21 11h177q16 0 27.5 -11.5t11.5 -27.5v-351q0 -16 -8 -36t-19 -31l-19 -19q-30 -28 -68 -28h-263q-16 0 -36 8.5
t-30 19.5l-20 19q-11 11 -19.5 31t-8.5 36v623q0 38 28 66l20 20q10 11 30 19t36 8h263q39 0 68 -27l19 -20q27 -27 27 -66v-88q0 -16 -11.5 -27.5t-27.5 -11.5h-108z" />
    <glyph glyph-name="Gbreve" unicode="&#x11e;" horiz-adv-x="559" 
d="M315 879q-35 -4 -71 0q-32 2 -62 18q-36 19 -63 51q-29 36 -29 39q-4 14 3.5 27t21.5 17l52 14q23 6 52 -25q32 -34 61 -34q28 0 60 34q29 31 52 25l52 -14q14 -4 21.5 -17t3.5 -27q0 -3 -29 -39q-27 -31 -62 -51q-32 -16 -63 -18zM378 610q-17 0 -28 11t-11 28v4
q0 17 -11 28t-28 11h-40q-17 0 -28.5 -11t-11.5 -28v-456q0 -17 11.5 -28t28.5 -11h40q17 0 28 11t11 28v110q0 17 -8.5 28t-21.5 11t-21 11t-8 28v80q0 17 8 28t21 11h177q17 0 28 -11t11 -28v-351q0 -50 -32 -82t-82 -32h-263q-50 0 -82 32t-32 82v623q0 50 32 81.5
t82 31.5h263q50 0 82 -31.5t32 -81.5v-88q0 -17 -11 -28t-28 -11h-108z" />
    <glyph glyph-name="gbreve" unicode="&#x11f;" horiz-adv-x="559" 
d="M315 879q-35 -4 -71 0q-32 2 -62 18q-36 19 -63 51q-29 36 -29 39q-4 14 3.5 27t21.5 17l52 14q23 6 52 -25q32 -34 61 -34q28 0 60 34q29 31 52 25l52 -14q14 -4 21.5 -17t3.5 -27q0 -3 -29 -39q-27 -31 -62 -51q-32 -16 -63 -18zM378 610q-16 0 -27.5 11.5t-11.5 27.5
v4q0 16 -11.5 27.5t-27.5 11.5h-40q-16 0 -28 -11.5t-12 -27.5v-456q0 -16 12 -27.5t28 -11.5h40q16 0 27.5 11.5t11.5 27.5v110q0 17 -8.5 28t-21.5 11t-21 11.5t-8 27.5v80q0 17 8 28t21 11h177q16 0 27.5 -11.5t11.5 -27.5v-351q0 -16 -8 -36t-19 -31l-19 -19
q-30 -28 -68 -28h-263q-16 0 -36 8.5t-30 19.5l-20 19q-11 11 -19.5 31t-8.5 36v623q0 38 28 66l20 20q10 11 30 19t36 8h263q39 0 68 -27l19 -20q27 -27 27 -66v-88q0 -16 -11.5 -27.5t-27.5 -11.5h-108z" />
    <glyph glyph-name="Gdotaccent" unicode="&#x120;" horiz-adv-x="559" 
d="M317 1058q17 0 29.5 -12.5t12.5 -30.5v-84q0 -17 -12.5 -30t-29.5 -13h-74q-17 0 -29.5 13t-12.5 30v84q0 18 12.5 30.5t29.5 12.5h74zM378 610q-17 0 -28 11t-11 28v4q0 17 -11 28t-28 11h-40q-17 0 -28.5 -11t-11.5 -28v-456q0 -17 11.5 -28t28.5 -11h40q17 0 28 11
t11 28v110q0 17 -8.5 28t-21.5 11t-21 11t-8 28v80q0 17 8 28t21 11h177q17 0 28 -11t11 -28v-351q0 -50 -32 -82t-82 -32h-263q-50 0 -82 32t-32 82v623q0 50 32 81.5t82 31.5h263q50 0 82 -31.5t32 -81.5v-88q0 -17 -11 -28t-28 -11h-108z" />
    <glyph glyph-name="gdotaccent" unicode="&#x121;" horiz-adv-x="559" 
d="M317 1058q17 0 29.5 -12.5t12.5 -30.5v-84q0 -17 -12.5 -30t-29.5 -13h-74q-17 0 -29.5 13t-12.5 30v84q0 18 12.5 30.5t29.5 12.5h74zM378 610q-16 0 -27.5 11.5t-11.5 27.5v4q0 16 -11.5 27.5t-27.5 11.5h-40q-16 0 -28 -11.5t-12 -27.5v-456q0 -16 12 -27.5t28 -11.5
h40q16 0 27.5 11.5t11.5 27.5v110q0 17 -8.5 28t-21.5 11t-21 11.5t-8 27.5v80q0 17 8 28t21 11h177q16 0 27.5 -11.5t11.5 -27.5v-351q0 -16 -8 -36t-19 -31l-19 -19q-30 -28 -68 -28h-263q-16 0 -36 8.5t-30 19.5l-20 19q-11 11 -19.5 31t-8.5 36v623q0 38 28 66l20 20
q10 11 30 19t36 8h263q39 0 68 -27l19 -20q27 -27 27 -66v-88q0 -16 -11.5 -27.5t-27.5 -11.5h-108z" />
    <glyph glyph-name="uni0122" unicode="&#x122;" horiz-adv-x="559" 
d="M378 610q-17 0 -28 11t-11 28v4q0 17 -11 28t-28 11h-40q-17 0 -28.5 -11t-11.5 -28v-456q0 -17 11.5 -28t28.5 -11h40q17 0 28 11t11 28v110q0 17 -8.5 28t-21.5 11t-21 11t-8 28v80q0 17 8 28t21 11h177q17 0 28 -11t11 -28v-351q0 -50 -32 -82t-82 -32h-263
q-50 0 -82 32t-32 82v623q0 50 32 81.5t82 31.5h263q50 0 82 -31.5t32 -81.5v-88q0 -17 -11 -28t-28 -11h-108zM231 -192q-19 3 -31.5 18t-12.5 32v66q0 18 12.5 30t29.5 12h102q17 0 29.5 -12t12.5 -30v-66q0 -47 -30 -93q-52 -87 -75 -87q-17 0 -24 12t0 28l15 42
q6 16 -2.5 30.5t-25.5 17.5z" />
    <glyph glyph-name="uni0123" unicode="&#x123;" horiz-adv-x="559" 
d="M378 610q-16 0 -27.5 11.5t-11.5 27.5v4q0 16 -11.5 27.5t-27.5 11.5h-40q-16 0 -28 -11.5t-12 -27.5v-456q0 -16 12 -27.5t28 -11.5h40q16 0 27.5 11.5t11.5 27.5v110q0 17 -8.5 28t-21.5 11t-21 11.5t-8 27.5v80q0 17 8 28t21 11h177q16 0 27.5 -11.5t11.5 -27.5v-351
q0 -16 -8 -36t-19 -31l-19 -19q-30 -28 -68 -28h-263q-16 0 -36 8.5t-30 19.5l-20 19q-11 11 -19.5 31t-8.5 36v623q0 38 28 66l20 20q10 11 30 19t36 8h263q39 0 68 -27l19 -20q27 -27 27 -66v-88q0 -16 -11.5 -27.5t-27.5 -11.5h-108zM231 -242q-19 3 -31.5 18t-12.5 32
v116q0 18 12.5 30t29.5 12h102q17 0 29.5 -12t12.5 -30v-116q0 -47 -30 -93q-52 -87 -75 -87q-17 0 -24 12t0 28l15 42q6 16 -2.5 30.5t-25.5 17.5z" />
    <glyph glyph-name="Hcircumflex" unicode="&#x124;" horiz-adv-x="559" 
d="M463 992q13 -7 17.5 -21.5t-2.5 -27.5l-26 -48q-7 -13 -21 -17t-28 3l-92 50q-13 7 -31.5 7t-31.5 -7l-92 -50q-14 -7 -28 -3t-21 17l-26 48q-7 13 -2.5 27.5t17.5 21.5l152 82q13 7 31.5 7t31.5 -7zM486 850q17 0 28 -11t11 -28v-772q0 -17 -11 -28t-28 -11h-108
q-17 0 -28 11t-11 28v288q0 17 -11 28t-28 11h-41q-17 0 -28 -11t-11 -28v-288q0 -17 -11 -28t-28 -11h-108q-17 0 -28 11t-11 28v772q0 17 11 28t28 11h108q17 0 28 -11t11 -28v-268q0 -17 11 -28t28 -11h41q17 0 28 11t11 28v268q0 17 11 28t28 11h108z" />
    <glyph glyph-name="hcircumflex" unicode="&#x125;" horiz-adv-x="559" 
d="M463 992q13 -7 17.5 -21.5t-2.5 -27.5l-26 -48q-7 -13 -21 -17t-28 3l-92 50q-13 7 -31.5 7t-31.5 -7l-92 -50q-14 -7 -28 -3t-21 17l-26 48q-7 13 -2.5 27.5t17.5 21.5l152 82q13 7 31.5 7t31.5 -7zM486 850q16 0 27.5 -11.5t11.5 -27.5v-772q0 -16 -11.5 -27.5
t-27.5 -11.5h-108q-16 0 -27.5 11.5t-11.5 27.5v268q0 16 -11.5 27.5t-27.5 11.5h-41q-16 0 -27.5 -11.5t-11.5 -27.5v-268q0 -16 -11.5 -27.5t-27.5 -11.5h-108q-16 0 -27.5 11.5t-11.5 27.5v772q0 16 11.5 27.5t27.5 11.5h108q17 0 28 -11t11 -28v-268q0 -16 11.5 -27.5
t27.5 -11.5h41q16 0 27.5 11.5t11.5 27.5v268q0 16 11.5 27.5t27.5 11.5h108z" />
    <glyph glyph-name="Hbar" unicode="&#x126;" horiz-adv-x="559" 
d="M533 741q14 0 24.5 -8.5t10.5 -19.5v-77q0 -11 -10.5 -19.5t-24.5 -8.5h-8v-569q0 -17 -11 -28t-28 -11h-108q-17 0 -28 11t-11 28v288q0 17 -11 28t-28 11h-41q-17 0 -28 -11t-11 -28v-288q0 -17 -11 -28t-28 -11h-108q-17 0 -28 11t-11 28v569h-8q-15 0 -25 8.5
t-10 19.5v77q0 11 10 19.5t25 8.5h8v70q0 17 11 28t28 11h108q17 0 28 -11t11 -28v-70h119v70q0 17 11 28t28 11h108q17 0 28 -11t11 -28v-70h8zM339 543v65h-119v-65q0 -17 11 -28t28 -11h41q17 0 28 11t11 28z" />
    <glyph glyph-name="hbar" unicode="&#x127;" horiz-adv-x="559" 
d="M533 741q14 0 24.5 -8.5t10.5 -19.5v-77q0 -11 -10.5 -19.5t-24.5 -8.5h-8v-569q0 -17 -11 -28t-28 -11h-108q-17 0 -28 11t-11 28v288q0 17 -11 28t-28 11h-41q-17 0 -28 -11t-11 -28v-288q0 -17 -11 -28t-28 -11h-108q-17 0 -28 11t-11 28v569h-8q-15 0 -25 8.5
t-10 19.5v77q0 11 10 19.5t25 8.5h8v70q0 17 11 28t28 11h108q17 0 28 -11t11 -28v-70h119v70q0 17 11 28t28 11h108q17 0 28 -11t11 -28v-70h8zM339 543v65h-119v-65q0 -17 11 -28t28 -11h41q17 0 28 11t11 28z" />
    <glyph glyph-name="Itilde" unicode="&#x128;" horiz-adv-x="254" 
d="M251 897q-31 -15 -67 -6l-112 30q-34 9 -66 -8l-24 -13q-14 -7 -28 -2.5t-21 17.5l-25 48q-7 13 -2.5 27.5t17.5 21.5l67 36q32 16 67 7l115 -31q35 -9 67 7l36 17q13 6 27.5 0.5t20.5 -18.5l23 -49q7 -13 2 -27t-19 -20zM220 39q0 -16 -11.5 -27.5t-27.5 -11.5h-108
q-16 0 -27.5 11.5t-11.5 27.5v772q0 16 11.5 27.5t27.5 11.5h108q16 0 27.5 -11.5t11.5 -27.5v-772z" />
    <glyph glyph-name="itilde" unicode="&#x129;" horiz-adv-x="254" 
d="M251 897q-31 -15 -67 -6l-112 30q-34 9 -66 -8l-24 -13q-14 -7 -28 -2.5t-21 17.5l-25 48q-7 13 -2.5 27.5t17.5 21.5l67 36q32 16 67 7l115 -31q35 -9 67 7l36 17q13 6 27.5 0.5t20.5 -18.5l23 -49q7 -13 2 -27t-19 -20zM220 39q0 -16 -11.5 -27.5t-27.5 -11.5h-108
q-16 0 -27.5 11.5t-11.5 27.5v772q0 16 11.5 27.5t27.5 11.5h108q16 0 27.5 -11.5t11.5 -27.5v-772z" />
    <glyph glyph-name="Imacron" unicode="&#x12a;" horiz-adv-x="254" 
d="M244 1038q17 0 29.5 -12.5t12.5 -30.5v-44q0 -17 -12.5 -30t-29.5 -13h-234q-17 0 -29.5 13t-12.5 30v44q0 18 12.5 30.5t29.5 12.5h234zM220 39q0 -16 -11.5 -27.5t-27.5 -11.5h-108q-16 0 -27.5 11.5t-11.5 27.5v772q0 16 11.5 27.5t27.5 11.5h108q16 0 27.5 -11.5
t11.5 -27.5v-772z" />
    <glyph glyph-name="imacron" unicode="&#x12b;" horiz-adv-x="254" 
d="M244 1038q17 0 29.5 -12.5t12.5 -30.5v-44q0 -17 -12.5 -30t-29.5 -13h-234q-17 0 -29.5 13t-12.5 30v44q0 18 12.5 30.5t29.5 12.5h234zM220 39q0 -16 -11.5 -27.5t-27.5 -11.5h-108q-16 0 -27.5 11.5t-11.5 27.5v772q0 16 11.5 27.5t27.5 11.5h108q16 0 27.5 -11.5
t11.5 -27.5v-772z" />
    <glyph glyph-name="Ibreve" unicode="&#x12c;" horiz-adv-x="254" 
d="M162 879q-36 -4 -71 0q-32 2 -62 18q-36 19 -63 51q-29 36 -29 39q-4 14 3.5 27t21.5 17l52 14q23 6 52 -25q32 -34 61 -34q28 0 60 34q29 31 52 25l52 -14q14 -4 21.5 -17t3.5 -27q0 -3 -29 -39q-27 -31 -62 -51q-31 -16 -63 -18zM220 39q0 -16 -11.5 -27.5t-27.5 -11.5
h-108q-16 0 -27.5 11.5t-11.5 27.5v772q0 16 11.5 27.5t27.5 11.5h108q16 0 27.5 -11.5t11.5 -27.5v-772z" />
    <glyph glyph-name="ibreve" unicode="&#x12d;" horiz-adv-x="254" 
d="M162 879q-36 -4 -71 0q-32 2 -62 18q-36 19 -63 51q-29 36 -29 39q-4 14 3.5 27t21.5 17l52 14q23 6 52 -25q32 -34 61 -34q28 0 60 34q29 31 52 25l52 -14q14 -4 21.5 -17t3.5 -27q0 -3 -29 -39q-27 -31 -62 -51q-31 -16 -63 -18zM220 39q0 -16 -11.5 -27.5t-27.5 -11.5
h-108q-16 0 -27.5 11.5t-11.5 27.5v772q0 16 11.5 27.5t27.5 11.5h108q16 0 27.5 -11.5t11.5 -27.5v-772z" />
    <glyph glyph-name="Iogonek" unicode="&#x12e;" horiz-adv-x="254" 
d="M223 -233l1 -35q0 -15 -10.5 -26t-25.5 -11l-123 -3q-37 0 -64 23l-41 35q-20 17 -27.5 36.5t-7.5 54.5q0 40 30.5 78t78.5 38q13 0 18 0.5t10 3.5t6.5 10t1.5 19v10q-15 2 -25.5 13t-10.5 26v772q0 16 11.5 27.5t27.5 11.5h108q16 0 27.5 -11.5t11.5 -27.5v-772
q0 -14 -10 -25.5t-24 -13.5v-97q0 -14 -10 -22.5t-25 -8.5h-55q-62 0 -62 -35q0 -21 21.5 -32t44.5 -10l87 6q14 1 25 -9t11 -25z" />
    <glyph glyph-name="iogonek" unicode="&#x12f;" horiz-adv-x="254" 
d="M223 -233l1 -35q0 -15 -10.5 -26t-25.5 -11l-123 -3q-37 0 -64 23l-41 35q-20 17 -27.5 36.5t-7.5 54.5q0 40 30.5 78t78.5 38q13 0 18 0.5t10 3.5t6.5 10t1.5 19v10q-15 2 -25.5 13t-10.5 26v772q0 16 11.5 27.5t27.5 11.5h108q16 0 27.5 -11.5t11.5 -27.5v-772
q0 -14 -10 -25.5t-24 -13.5v-97q0 -14 -10 -22.5t-25 -8.5h-55q-62 0 -62 -35q0 -21 21.5 -32t44.5 -10l87 6q14 1 25 -9t11 -25z" />
    <glyph glyph-name="Idotaccent" unicode="&#x130;" horiz-adv-x="254" 
d="M164 1058q17 0 29.5 -12.5t12.5 -30.5v-84q0 -17 -12.5 -30t-29.5 -13h-74q-17 0 -29.5 13t-12.5 30v84q0 18 12.5 30.5t29.5 12.5h74zM220 39q0 -16 -11.5 -27.5t-27.5 -11.5h-108q-16 0 -27.5 11.5t-11.5 27.5v772q0 16 11.5 27.5t27.5 11.5h108q16 0 27.5 -11.5
t11.5 -27.5v-772z" />
    <glyph glyph-name="dotlessi" unicode="&#x131;" horiz-adv-x="254" 
d="M220 39q0 -16 -11.5 -27.5t-27.5 -11.5h-108q-16 0 -27.5 11.5t-11.5 27.5v772q0 16 11.5 27.5t27.5 11.5h108q16 0 27.5 -11.5t11.5 -27.5v-772z" />
    <glyph glyph-name="Jcircumflex" unicode="&#x134;" 
d="M611 992q13 -7 17.5 -21.5t-2.5 -27.5l-26 -48q-7 -13 -21 -17t-28 3l-92 50q-13 7 -31.5 7t-31.5 -7l-92 -50q-14 -7 -28 -3t-21 17l-26 48q-7 13 -2.5 27.5t17.5 21.5l152 82q13 7 31.5 7t31.5 -7zM524 153q0 -42 -27 -67l-58 -59q-30 -27 -50 -27h-215q-25 0 -54 27
l-59 59q-27 27 -27 67v154q0 39 39 39h108q39 0 39 -39v-110q0 -39 39 -39h40q39 0 39 39v614q0 39 39 39h108q39 0 39 -39v-658z" />
    <glyph glyph-name="jcircumflex" unicode="&#x135;" 
d="M611 992q13 -7 17.5 -21.5t-2.5 -27.5l-26 -48q-7 -13 -21 -17t-28 3l-92 50q-13 7 -31.5 7t-31.5 -7l-92 -50q-14 -7 -28 -3t-21 17l-26 48q-7 13 -2.5 27.5t17.5 21.5l152 82q13 7 31.5 7t31.5 -7zM524 153q0 -42 -27 -67l-58 -59q-30 -27 -50 -27h-215q-25 0 -54 27
l-59 59q-27 27 -27 67v154q0 39 39 39h108q39 0 39 -39v-110q0 -39 39 -39h40q39 0 39 39v614q0 39 39 39h108q39 0 39 -39v-658z" />
    <glyph glyph-name="uni0136" unicode="&#x136;" horiz-adv-x="559" 
d="M498 357q27 -27 27 -66v-252q0 -17 -11 -28t-28 -11h-108q-17 0 -28 11t-11 28v205q0 38 -28 66l-28 28q-28 28 -45 28q-18 0 -18 -39v-288q0 -17 -11 -28t-28 -11h-108q-17 0 -28 11t-11 28v772q0 17 11 28t28 11h108q17 0 28 -11t11 -28v-248q0 -39 18 -39q17 0 45 28
l28 28q28 28 28 66v165q0 17 11 28t28 11h108q17 0 28 -11t11 -28v-212q0 -41 -28 -67l-58 -58q-28 -28 -28 -29t28 -29zM231 -192q-19 3 -31.5 18t-12.5 32v66q0 18 12.5 30t29.5 12h102q17 0 29.5 -12t12.5 -30v-66q0 -47 -30 -93q-52 -87 -75 -87q-17 0 -24 12t0 28
l15 42q6 16 -2.5 30.5t-25.5 17.5z" />
    <glyph glyph-name="uni0137" unicode="&#x137;" horiz-adv-x="559" 
d="M498 337q27 -27 27 -66v-232q0 -16 -11.5 -27.5t-27.5 -11.5h-108q-16 0 -27.5 11.5t-11.5 27.5v185q0 38 -28 66l-28 28q-28 28 -45 28q-7 0 -12.5 -12t-5.5 -27v-268q0 -16 -11.5 -27.5t-27.5 -11.5h-108q-16 0 -27.5 11.5t-11.5 27.5v772q0 16 11.5 27.5t27.5 11.5
h108q16 0 27.5 -11.5t11.5 -27.5v-268q0 -15 5.5 -27t12.5 -12q17 0 45 28l28 28q28 28 28 66v185q0 16 11.5 27.5t27.5 11.5h108q16 0 27.5 -11.5t11.5 -27.5v-232q0 -16 -8 -36t-20 -31l-58 -58q-28 -28 -28 -29t28 -29zM231 -192q-19 3 -31.5 18t-12.5 32v66
q0 18 12.5 30t29.5 12h102q17 0 29.5 -12t12.5 -30v-66q0 -47 -30 -93q-52 -87 -75 -87q-17 0 -24 12t0 28l15 42q6 16 -2.5 30.5t-25.5 17.5z" />
    <glyph glyph-name="Lacute" unicode="&#x139;" horiz-adv-x="518" 
d="M137 1036q4 8 16 14.5t21 6.5h85q34 0 10 -36l-75 -112q-15 -21 -30 -21h-74q-9 0 -13.5 6.5t-0.5 14.5zM445 158q16 0 27.5 -11.5t11.5 -27.5v-80q0 -16 -11.5 -27.5t-27.5 -11.5h-372q-16 0 -27.5 11.5t-11.5 27.5v772q0 16 11.5 27.5t27.5 11.5h108q16 0 27.5 -11.5
t11.5 -27.5v-614q0 -16 11.5 -27.5t27.5 -11.5h186z" />
    <glyph glyph-name="lacute" unicode="&#x13a;" horiz-adv-x="518" 
d="M137 1036q4 8 16 14.5t21 6.5h85q34 0 10 -36l-75 -112q-15 -21 -30 -21h-74q-9 0 -13.5 6.5t-0.5 14.5zM445 158q16 0 27.5 -11.5t11.5 -27.5v-80q0 -16 -11.5 -27.5t-27.5 -11.5h-372q-16 0 -27.5 11.5t-11.5 27.5v772q0 16 11.5 27.5t27.5 11.5h108q16 0 27.5 -11.5
t11.5 -27.5v-614q0 -16 11.5 -27.5t27.5 -11.5h186z" />
    <glyph glyph-name="uni013B" unicode="&#x13b;" horiz-adv-x="518" 
d="M445 158q16 0 27.5 -11.5t11.5 -27.5v-80q0 -16 -11.5 -27.5t-27.5 -11.5h-372q-16 0 -27.5 11.5t-11.5 27.5v772q0 16 11.5 27.5t27.5 11.5h108q16 0 27.5 -11.5t11.5 -27.5v-614q0 -16 11.5 -27.5t27.5 -11.5h186zM210 -192q-19 3 -31.5 18t-12.5 32v66q0 18 12.5 30
t29.5 12h102q17 0 29.5 -12t12.5 -30v-66q0 -47 -30 -93q-52 -87 -75 -87q-17 0 -24 12t0 28l15 42q6 16 -2.5 30.5t-25.5 17.5z" />
    <glyph glyph-name="uni013C" unicode="&#x13c;" horiz-adv-x="518" 
d="M445 158q16 0 27.5 -11.5t11.5 -27.5v-80q0 -16 -11.5 -27.5t-27.5 -11.5h-372q-16 0 -27.5 11.5t-11.5 27.5v772q0 16 11.5 27.5t27.5 11.5h108q16 0 27.5 -11.5t11.5 -27.5v-614q0 -16 11.5 -27.5t27.5 -11.5h186zM210 -192q-19 3 -31.5 18t-12.5 32v66q0 18 12.5 30
t29.5 12h102q17 0 29.5 -12t12.5 -30v-66q0 -47 -30 -93q-52 -87 -75 -87q-17 0 -24 12t0 28l15 42q6 16 -2.5 30.5t-25.5 17.5z" />
    <glyph glyph-name="Lcaron" unicode="&#x13d;" horiz-adv-x="518" 
d="M445 158q16 0 27.5 -11.5t11.5 -27.5v-80q0 -16 -11.5 -27.5t-27.5 -11.5h-372q-16 0 -27.5 11.5t-11.5 27.5v772q0 16 11.5 27.5t27.5 11.5h108q16 0 27.5 -11.5t11.5 -27.5v-614q0 -16 11.5 -27.5t27.5 -11.5h186zM328 692q-19 3 -31.5 18t-12.5 32v66q0 18 12.5 30
t29.5 12h102q17 0 29.5 -12t12.5 -30v-66q0 -47 -30 -93q-52 -87 -75 -87q-17 0 -24 12t0 28l15 42q6 16 -2.5 30.5t-25.5 17.5z" />
    <glyph glyph-name="lcaron" unicode="&#x13e;" horiz-adv-x="518" 
d="M445 158q16 0 27.5 -11.5t11.5 -27.5v-80q0 -16 -11.5 -27.5t-27.5 -11.5h-372q-16 0 -27.5 11.5t-11.5 27.5v772q0 16 11.5 27.5t27.5 11.5h108q16 0 27.5 -11.5t11.5 -27.5v-614q0 -16 11.5 -27.5t27.5 -11.5h186zM328 692q-19 3 -31.5 18t-12.5 32v66q0 18 12.5 30
t29.5 12h102q17 0 29.5 -12t12.5 -30v-66q0 -47 -30 -93q-52 -87 -75 -87q-17 0 -24 12t0 28l15 42q6 16 -2.5 30.5t-25.5 17.5z" />
    <glyph glyph-name="Ldot" unicode="&#x13f;" horiz-adv-x="518" 
d="M445 158q16 0 27.5 -11.5t11.5 -27.5v-80q0 -16 -11.5 -27.5t-27.5 -11.5h-372q-16 0 -27.5 11.5t-11.5 27.5v772q0 16 11.5 27.5t27.5 11.5h108q16 0 27.5 -11.5t11.5 -27.5v-614q0 -16 11.5 -27.5t27.5 -11.5h186zM401 539q17 0 29.5 -12.5t12.5 -30.5v-84
q0 -17 -12.5 -30t-29.5 -13h-74q-17 0 -29.5 13t-12.5 30v84q0 18 12.5 30.5t29.5 12.5h74z" />
    <glyph glyph-name="ldot" unicode="&#x140;" horiz-adv-x="518" 
d="M445 158q16 0 27.5 -11.5t11.5 -27.5v-80q0 -16 -11.5 -27.5t-27.5 -11.5h-372q-16 0 -27.5 11.5t-11.5 27.5v772q0 16 11.5 27.5t27.5 11.5h108q16 0 27.5 -11.5t11.5 -27.5v-614q0 -16 11.5 -27.5t27.5 -11.5h186zM401 539q17 0 29.5 -12.5t12.5 -30.5v-84
q0 -17 -12.5 -30t-29.5 -13h-74q-17 0 -29.5 13t-12.5 30v84q0 18 12.5 30.5t29.5 12.5h74z" />
    <glyph glyph-name="Lslash" unicode="&#x141;" horiz-adv-x="518" 
d="M445 158q16 0 27.5 -11.5t11.5 -27.5v-80q0 -16 -11.5 -27.5t-27.5 -11.5h-372q-16 0 -27.5 11.5t-11.5 27.5v152h-70q-18 0 -24 12t2 28l92 170v410q0 16 11.5 27.5t27.5 11.5h108q16 0 27.5 -11.5t11.5 -27.5v-159h76q17 0 23.5 -12t-2.5 -28l-97 -178v-237
q0 -16 11.5 -27.5t27.5 -11.5h186z" />
    <glyph glyph-name="lslash" unicode="&#x142;" horiz-adv-x="518" 
d="M445 158q16 0 27.5 -11.5t11.5 -27.5v-80q0 -16 -11.5 -27.5t-27.5 -11.5h-372q-16 0 -27.5 11.5t-11.5 27.5v152h-70q-18 0 -24 12t2 28l92 170v410q0 16 11.5 27.5t27.5 11.5h108q16 0 27.5 -11.5t11.5 -27.5v-159h76q17 0 23.5 -12t-2.5 -28l-97 -178v-237
q0 -16 11.5 -27.5t27.5 -11.5h186z" />
    <glyph glyph-name="Nacute" unicode="&#x143;" horiz-adv-x="622" 
d="M304 1036q4 8 16 14.5t21 6.5h85q34 0 10 -36l-75 -112q-15 -21 -30 -21h-74q-9 0 -13.5 6.5t-0.5 14.5zM548 850q17 0 28.5 -11t11.5 -28v-772q0 -17 -11.5 -28t-28.5 -11h-120q-29 0 -46 37l-121 271q-16 36 -32 38q-9 1 -9 -16v-291q0 -17 -11 -28t-28 -11h-108
q-17 0 -28 11t-11 28v772q0 17 11 28t28 11h118q32 0 49 -37l121 -270q17 -37 32 -40q8 -1 8 15v293q0 17 11.5 28t28.5 11h107z" />
    <glyph glyph-name="nacute" unicode="&#x144;" horiz-adv-x="592" 
d="M304 1036q4 8 16 14.5t21 6.5h85q34 0 10 -36l-75 -112q-15 -21 -30 -21h-74q-9 0 -13.5 6.5t-0.5 14.5zM518 850q16 0 28 -11.5t12 -27.5v-772q0 -16 -12 -27.5t-28 -11.5h-159q-12 0 -26 37l-99 270q-4 10 -7 13t-5 -1t-2 -15v-265q0 -16 -11.5 -27.5t-27.5 -11.5h-108
q-16 0 -27.5 11.5t-11.5 27.5v772q0 16 11.5 27.5t27.5 11.5h133q16 0 31.5 -10.5t20.5 -26.5l100 -272q3 -10 6 -13t5 1.5t2 14.5v267q0 16 12 27.5t28 11.5h107z" />
    <glyph glyph-name="uni0145" unicode="&#x145;" horiz-adv-x="622" 
d="M548 850q17 0 28.5 -11t11.5 -28v-772q0 -17 -11.5 -28t-28.5 -11h-120q-29 0 -46 37l-121 271q-16 36 -32 38q-9 1 -9 -16v-291q0 -17 -11 -28t-28 -11h-108q-17 0 -28 11t-11 28v772q0 17 11 28t28 11h118q32 0 49 -37l121 -270q17 -37 32 -40q8 -1 8 15v293
q0 17 11.5 28t28.5 11h107zM247 -192q-19 3 -31.5 18t-12.5 32v66q0 18 12.5 30t29.5 12h102q17 0 29.5 -12t12.5 -30v-66q0 -47 -30 -93q-52 -87 -75 -87q-17 0 -24 12t0 28l15 42q6 16 -2.5 30.5t-25.5 17.5z" />
    <glyph glyph-name="uni0146" unicode="&#x146;" horiz-adv-x="592" 
d="M518 850q16 0 28 -11.5t12 -27.5v-772q0 -16 -12 -27.5t-28 -11.5h-159q-12 0 -26 37l-99 270q-4 10 -7 13t-5 -1t-2 -15v-265q0 -16 -11.5 -27.5t-27.5 -11.5h-108q-16 0 -27.5 11.5t-11.5 27.5v772q0 16 11.5 27.5t27.5 11.5h133q16 0 31.5 -10.5t20.5 -26.5l100 -272
q3 -10 6 -13t5 1.5t2 14.5v267q0 16 12 27.5t28 11.5h107zM247 -192q-19 3 -31.5 18t-12.5 32v66q0 18 12.5 30t29.5 12h102q17 0 29.5 -12t12.5 -30v-66q0 -47 -30 -93q-52 -87 -75 -87q-17 0 -24 12t0 28l15 42q6 16 -2.5 30.5t-25.5 17.5z" />
    <glyph glyph-name="Ncaron" unicode="&#x147;" horiz-adv-x="622" 
d="M327 891q-13 -7 -31.5 -7t-31.5 7l-152 82q-13 7 -17.5 21.5t2.5 27.5l26 48q7 13 21 17t28 -3l92 -50q13 -7 31.5 -7t31.5 7l92 50q14 7 28 3t21 -17l26 -48q7 -13 2.5 -27.5t-17.5 -21.5zM548 850q17 0 28.5 -11t11.5 -28v-772q0 -17 -11.5 -28t-28.5 -11h-120
q-29 0 -46 37l-121 271q-16 36 -32 38q-9 1 -9 -16v-291q0 -17 -11 -28t-28 -11h-108q-17 0 -28 11t-11 28v772q0 17 11 28t28 11h118q32 0 49 -37l121 -270q17 -37 32 -40q8 -1 8 15v293q0 17 11.5 28t28.5 11h107z" />
    <glyph glyph-name="ncaron" unicode="&#x148;" horiz-adv-x="592" 
d="M327 891q-13 -7 -31.5 -7t-31.5 7l-152 82q-13 7 -17.5 21.5t2.5 27.5l26 48q7 13 21 17t28 -3l92 -50q13 -7 31.5 -7t31.5 7l92 50q14 7 28 3t21 -17l26 -48q7 -13 2.5 -27.5t-17.5 -21.5zM518 850q16 0 28 -11.5t12 -27.5v-772q0 -16 -12 -27.5t-28 -11.5h-159
q-12 0 -26 37l-99 270q-4 10 -7 13t-5 -1t-2 -15v-265q0 -16 -11.5 -27.5t-27.5 -11.5h-108q-16 0 -27.5 11.5t-11.5 27.5v772q0 16 11.5 27.5t27.5 11.5h133q16 0 31.5 -10.5t20.5 -26.5l100 -272q3 -10 6 -13t5 1.5t2 14.5v267q0 16 12 27.5t28 11.5h107z" />
    <glyph glyph-name="Eng" unicode="&#x14a;" horiz-adv-x="592" 
d="M548 850q17 0 28.5 -11t11.5 -28v-917q0 -50 -27 -82l-58 -46q-31 -21 -50 -21h-185q-25 0 -54 21l-59 46q-27 34 -27 82v40q0 13 11.5 22t27.5 9h108q16 0 27.5 -9t11.5 -22v-25q0 -13 11.5 -22t27.5 -9h10q16 0 27.5 9.5t11.5 21.5v101q-13 11 -20 27l-121 271
q-16 36 -32 38q-9 1 -9 -16v-291q0 -17 -11 -28t-28 -11h-108q-17 0 -28 11t-11 28v772q0 17 11 28t28 11h118q32 0 49 -37l121 -270q17 -37 32 -40q8 -1 8 15v293q0 17 11.5 28t28.5 11h107z" />
    <glyph glyph-name="eng" unicode="&#x14b;" horiz-adv-x="592" 
d="M548 850q17 0 28.5 -11t11.5 -28v-917q0 -50 -27 -82l-58 -46q-31 -21 -50 -21h-185q-25 0 -54 21l-59 46q-27 34 -27 82v40q0 13 11.5 22t27.5 9h108q16 0 27.5 -9t11.5 -22v-25q0 -13 11.5 -22t27.5 -9h10q16 0 27.5 9.5t11.5 21.5v101q-13 11 -20 27l-121 271
q-16 36 -32 38q-9 1 -9 -16v-291q0 -17 -11 -28t-28 -11h-108q-17 0 -28 11t-11 28v772q0 17 11 28t28 11h118q32 0 49 -37l121 -270q17 -37 32 -40q8 -1 8 15v293q0 17 11.5 28t28.5 11h107z" />
    <glyph glyph-name="Omacron" unicode="&#x14c;" horiz-adv-x="583" 
d="M399 1038q17 0 29.5 -12.5t12.5 -30.5v-44q0 -17 -12.5 -30t-29.5 -13h-234q-17 0 -29.5 13t-12.5 30v44q0 18 12.5 30.5t29.5 12.5h234zM537 695l12 -235v-83l-12 -222q-2 -47 -49 -101t-92 -54h-202q-50 0 -98 56q-30 35 -39.5 55.5t-10.5 43.5l-12 222v83l12 235
q3 50 40 97q44 58 92 58h234q44 0 86 -56q37 -48 39 -99zM312 158q15 0 27 12.5t12 26.5l10 86v271l-10 99q0 15 -12 27t-27 12h-41q-14 0 -26.5 -12t-12.5 -27l-10 -99v-271l10 -86q0 -14 12.5 -26.5t26.5 -12.5h41z" />
    <glyph glyph-name="omacron" unicode="&#x14d;" horiz-adv-x="559" 
d="M397 1038q17 0 29.5 -12.5t12.5 -30.5v-44q0 -17 -12.5 -30t-29.5 -13h-234q-17 0 -29.5 13t-12.5 30v44q0 18 12.5 30.5t29.5 12.5h234zM497 803q28 -26 28 -67v-622q0 -41 -28 -67l-18 -20q-31 -27 -43 -27h-294q-32 0 -61 27l-19 20q-28 28 -28 67v622q0 39 28 67
l19 19q28 28 61 28h269q38 0 68 -28zM300 158q16 0 27.5 11.5t11.5 27.5v456q0 16 -11.5 27.5t-27.5 11.5h-41q-16 0 -27.5 -11.5t-11.5 -27.5v-456q0 -16 11.5 -27.5t27.5 -11.5h41z" />
    <glyph glyph-name="Obreve" unicode="&#x14e;" horiz-adv-x="583" 
d="M317 879q-36 -4 -71 0q-32 2 -62 18q-36 19 -63 51q-29 36 -29 39q-4 14 3.5 27t21.5 17l52 14q23 6 52 -25q32 -34 61 -34q28 0 60 34q29 31 52 25l52 -14q14 -4 21.5 -17t3.5 -27q0 -3 -29 -39q-27 -31 -62 -51q-32 -16 -63 -18zM537 695l12 -235v-83l-12 -222
q-2 -47 -49 -101t-92 -54h-202q-50 0 -98 56q-30 35 -39.5 55.5t-10.5 43.5l-12 222v83l12 235q3 50 40 97q44 58 92 58h234q44 0 86 -56q37 -48 39 -99zM312 158q15 0 27 12.5t12 26.5l10 86v271l-10 99q0 15 -12 27t-27 12h-41q-14 0 -26.5 -12t-12.5 -27l-10 -99v-271
l10 -86q0 -14 12.5 -26.5t26.5 -12.5h41z" />
    <glyph glyph-name="obreve" unicode="&#x14f;" horiz-adv-x="559" 
d="M315 879q-35 -4 -71 0q-32 2 -62 18q-36 19 -63 51q-29 36 -29 39q-4 14 3.5 27t21.5 17l52 14q23 6 52 -25q32 -34 61 -34q28 0 60 34q29 31 52 25l52 -14q14 -4 21.5 -17t3.5 -27q0 -3 -29 -39q-27 -31 -62 -51q-32 -16 -63 -18zM497 803q28 -26 28 -67v-622
q0 -41 -28 -67l-18 -20q-31 -27 -43 -27h-294q-32 0 -61 27l-19 20q-28 28 -28 67v622q0 39 28 67l19 19q28 28 61 28h269q38 0 68 -28zM300 158q16 0 27.5 11.5t11.5 27.5v456q0 16 -11.5 27.5t-27.5 11.5h-41q-16 0 -27.5 -11.5t-11.5 -27.5v-456q0 -16 11.5 -27.5
t27.5 -11.5h41z" />
    <glyph glyph-name="Ohungarumlaut" unicode="&#x150;" horiz-adv-x="583" 
d="M202 1036q4 8 16 14.5t21 6.5h85q34 0 10 -36l-75 -112q-15 -21 -30 -21h-74q-9 0 -13.5 6.5t-0.5 14.5zM379 1036q4 8 16 14.5t21 6.5h85q34 0 10 -36l-75 -112q-15 -21 -30 -21h-74q-9 0 -13.5 6.5t-0.5 14.5zM537 695l12 -235v-83l-12 -222q-2 -47 -49 -101t-92 -54
h-202q-50 0 -98 56q-30 35 -39.5 55.5t-10.5 43.5l-12 222v83l12 235q3 50 40 97q44 58 92 58h234q44 0 86 -56q37 -48 39 -99zM312 158q15 0 27 12.5t12 26.5l10 86v271l-10 99q0 15 -12 27t-27 12h-41q-14 0 -26.5 -12t-12.5 -27l-10 -99v-271l10 -86q0 -14 12.5 -26.5
t26.5 -12.5h41z" />
    <glyph glyph-name="ohungarumlaut" unicode="&#x151;" horiz-adv-x="559" 
d="M200 1036q4 8 16 14.5t21 6.5h85q34 0 10 -36l-75 -112q-15 -21 -30 -21h-74q-9 0 -13.5 6.5t-0.5 14.5zM377 1036q4 8 16 14.5t21 6.5h85q34 0 10 -36l-75 -112q-15 -21 -30 -21h-74q-9 0 -13.5 6.5t-0.5 14.5zM497 803q28 -26 28 -67v-622q0 -41 -28 -67l-18 -20
q-31 -27 -43 -27h-294q-32 0 -61 27l-19 20q-28 28 -28 67v622q0 39 28 67l19 19q28 28 61 28h269q38 0 68 -28zM300 158q16 0 27.5 11.5t11.5 27.5v456q0 16 -11.5 27.5t-27.5 11.5h-41q-16 0 -27.5 -11.5t-11.5 -27.5v-456q0 -16 11.5 -27.5t27.5 -11.5h41z" />
    <glyph glyph-name="OE" unicode="&#x152;" horiz-adv-x="821" 
d="M564 692q-15 0 -26.5 -11t-12.5 -25v-87q0 -16 11.5 -27.5t27.5 -11.5h144q16 0 27.5 -12t11.5 -28v-79q0 -17 -11.5 -28.5t-27.5 -11.5h-144q-15 0 -26.5 -10.5t-12.5 -25.5v-138q0 -16 11.5 -27.5t27.5 -11.5h188q16 0 27.5 -11.5t11.5 -27.5v-29q0 -36 -25 -65
q-29 -25 -65 -25h-559q-32 0 -61 27l-19 20q-28 28 -28 67v622q0 39 28 67l19 19q28 28 61 28h559q39 0 65 -26q25 -25 25 -64v-29q0 -16 -11.5 -27.5t-27.5 -11.5h-188zM300 158q16 0 27.5 11.5t11.5 27.5v456q0 16 -11.5 27.5t-27.5 11.5h-41q-16 0 -27.5 -11.5
t-11.5 -27.5v-456q0 -16 11.5 -27.5t27.5 -11.5h41z" />
    <glyph glyph-name="oe" unicode="&#x153;" horiz-adv-x="821" 
d="M564 692q-15 0 -26.5 -11t-12.5 -25v-87q0 -16 11.5 -27.5t27.5 -11.5h144q16 0 27.5 -12t11.5 -28v-79q0 -17 -11.5 -28.5t-27.5 -11.5h-144q-15 0 -26.5 -10.5t-12.5 -25.5v-138q0 -16 11.5 -27.5t27.5 -11.5h188q16 0 27.5 -11.5t11.5 -27.5v-29q0 -36 -25 -65
q-29 -25 -65 -25h-559q-32 0 -61 27l-19 20q-28 28 -28 67v622q0 39 28 67l19 19q28 28 61 28h559q39 0 65 -26q25 -25 25 -64v-29q0 -16 -11.5 -27.5t-27.5 -11.5h-188zM300 158q16 0 27.5 11.5t11.5 27.5v456q0 16 -11.5 27.5t-27.5 11.5h-41q-16 0 -27.5 -11.5
t-11.5 -27.5v-456q0 -16 11.5 -27.5t27.5 -11.5h41z" />
    <glyph glyph-name="Racute" unicode="&#x154;" horiz-adv-x="564" 
d="M290 1036q4 8 16 14.5t21 6.5h85q34 0 10 -36l-75 -112q-15 -21 -30 -21h-74q-9 0 -13.5 6.5t-0.5 14.5zM409 0q-16 0 -33 10t-24 25l-115 230q-4 10 -8 13t-6.5 -1.5t-2.5 -15.5v-222q0 -16 -11.5 -27.5t-27.5 -11.5h-108q-17 0 -28 11t-11 28v772q0 16 11.5 27.5
t27.5 11.5h361q39 0 65 -26q25 -25 25 -50v-364q0 -22 -27 -47l-64 -64q-7 -7 -6.5 -22t7.5 -30l112 -213q7 -14 0.5 -24t-22.5 -10h-115zM259 691q-17 0 -28 -11.5t-11 -27.5v-258q0 -16 8 -19t19 8l64 63q11 12 27 28v178q0 16 -11.5 27.5t-27.5 11.5h-40z" />
    <glyph glyph-name="racute" unicode="&#x155;" horiz-adv-x="564" 
d="M290 1036q4 8 16 14.5t21 6.5h85q34 0 10 -36l-75 -112q-15 -21 -30 -21h-74q-9 0 -13.5 6.5t-0.5 14.5zM399 0q-40 0 -57 35l-105 250q-4 9 -8 11.5t-6.5 -1.5t-2.5 -14v-242q0 -17 -11 -28t-28 -11h-108q-17 0 -28 11t-11 28v772q0 17 11 28t28 11h361q40 0 65 -21
t25 -55v-324q0 -20 -29.5 -47t-59 -51t-29.5 -35q0 -19 150 -283q10 -15 3.5 -24.5t-25.5 -9.5h-135zM259 691q-17 0 -28 -11t-11 -28v-238q0 -17 7.5 -20t19.5 9l64 63l27 28v158q0 17 -11 28t-28 11h-40z" />
    <glyph glyph-name="uni0156" unicode="&#x156;" horiz-adv-x="564" 
d="M409 0q-16 0 -33 10t-24 25l-115 230q-4 10 -8 13t-6.5 -1.5t-2.5 -15.5v-222q0 -16 -11.5 -27.5t-27.5 -11.5h-108q-17 0 -28 11t-11 28v772q0 16 11.5 27.5t27.5 11.5h361q39 0 65 -26q25 -25 25 -50v-364q0 -22 -27 -47l-64 -64q-7 -7 -6.5 -22t7.5 -30l112 -213
q7 -14 0.5 -24t-22.5 -10h-115zM259 691q-17 0 -28 -11.5t-11 -27.5v-258q0 -16 8 -19t19 8l64 63q11 12 27 28v178q0 16 -11.5 27.5t-27.5 11.5h-40zM233 -192q-19 3 -31.5 18t-12.5 32v66q0 18 12.5 30t29.5 12h102q17 0 29.5 -12t12.5 -30v-66q0 -47 -30 -93
q-52 -87 -75 -87q-17 0 -24 12t0 28l15 42q6 16 -2.5 30.5t-25.5 17.5z" />
    <glyph glyph-name="uni0157" unicode="&#x157;" horiz-adv-x="564" 
d="M399 0q-40 0 -57 35l-105 250q-4 9 -8 11.5t-6.5 -1.5t-2.5 -14v-242q0 -17 -11 -28t-28 -11h-108q-17 0 -28 11t-11 28v772q0 17 11 28t28 11h361q40 0 65 -21t25 -55v-324q0 -20 -29.5 -47t-59 -51t-29.5 -35q0 -19 150 -283q10 -15 3.5 -24.5t-25.5 -9.5h-135z
M259 691q-17 0 -28 -11t-11 -28v-238q0 -17 7.5 -20t19.5 9l64 63l27 28v158q0 17 -11 28t-28 11h-40zM233 -192q-19 3 -31.5 18t-12.5 32v66q0 18 12.5 30t29.5 12h102q17 0 29.5 -12t12.5 -30v-66q0 -47 -30 -93q-52 -87 -75 -87q-17 0 -24 12t0 28l15 42q6 16 -2.5 30.5
t-25.5 17.5z" />
    <glyph glyph-name="Rcaron" unicode="&#x158;" horiz-adv-x="564" 
d="M313 891q-13 -7 -31.5 -7t-31.5 7l-152 82q-13 7 -17.5 21.5t2.5 27.5l26 48q7 13 21 17t28 -3l92 -50q13 -7 31.5 -7t31.5 7l92 50q14 7 28 3t21 -17l26 -48q7 -13 2.5 -27.5t-17.5 -21.5zM409 0q-16 0 -33 10t-24 25l-115 230q-4 10 -8 13t-6.5 -1.5t-2.5 -15.5v-222
q0 -16 -11.5 -27.5t-27.5 -11.5h-108q-17 0 -28 11t-11 28v772q0 16 11.5 27.5t27.5 11.5h361q39 0 65 -26q25 -25 25 -50v-364q0 -22 -27 -47l-64 -64q-7 -7 -6.5 -22t7.5 -30l112 -213q7 -14 0.5 -24t-22.5 -10h-115zM259 691q-17 0 -28 -11.5t-11 -27.5v-258q0 -16 8 -19
t19 8l64 63q11 12 27 28v178q0 16 -11.5 27.5t-27.5 11.5h-40z" />
    <glyph glyph-name="rcaron" unicode="&#x159;" horiz-adv-x="564" 
d="M313 891q-13 -7 -31.5 -7t-31.5 7l-152 82q-13 7 -17.5 21.5t2.5 27.5l26 48q7 13 21 17t28 -3l92 -50q13 -7 31.5 -7t31.5 7l92 50q14 7 28 3t21 -17l26 -48q7 -13 2.5 -27.5t-17.5 -21.5zM399 0q-40 0 -57 35l-105 250q-4 9 -8 11.5t-6.5 -1.5t-2.5 -14v-242
q0 -17 -11 -28t-28 -11h-108q-17 0 -28 11t-11 28v772q0 17 11 28t28 11h361q40 0 65 -21t25 -55v-324q0 -20 -29.5 -47t-59 -51t-29.5 -35q0 -19 150 -283q10 -15 3.5 -24.5t-25.5 -9.5h-135zM259 691q-17 0 -28 -11t-11 -28v-238q0 -17 7.5 -20t19.5 9l64 63l27 28v158
q0 17 -11 28t-28 11h-40z" />
    <glyph glyph-name="Sacute" unicode="&#x15a;" horiz-adv-x="559" 
d="M288 1036q4 8 16 14.5t21 6.5h85q34 0 10 -36l-75 -112q-15 -21 -30 -21h-74q-9 0 -13.5 6.5t-0.5 14.5zM378 584q-17 0 -28 11t-11 28v30q0 17 -11 28t-28 11h-41q-17 0 -28 -11t-11 -28v-90q0 -17 11 -28t28 -11h122q33 0 58 -27l58 -59q28 -28 28 -67v-219
q0 -38 -28 -66l-58 -59q-29 -27 -49 -27h-216q-27 0 -54 27l-59 59q-27 27 -27 66v115q0 17 11 28t28 11h108q17 0 28 -11t11 -28v-70q0 -17 11 -28t28 -11h41q17 0 28 11t11 28v130q0 17 -11 28t-28 11h-122q-33 0 -58 27l-58 59q-28 28 -28 67v179q0 38 28 66l58 59
q29 27 49 27h216q27 0 54 -27l59 -59q27 -27 27 -66v-75q0 -17 -11 -28t-28 -11h-108z" />
    <glyph glyph-name="sacute" unicode="&#x15b;" horiz-adv-x="559" 
d="M288 1036q4 8 16 14.5t21 6.5h85q34 0 10 -36l-75 -112q-15 -21 -30 -21h-74q-9 0 -13.5 6.5t-0.5 14.5zM378 563q-16 0 -27.5 11.5t-11.5 27.5v50q0 16 -11.5 27.5t-27.5 11.5h-41q-16 0 -27.5 -11.5t-11.5 -27.5v-109q0 -16 11.5 -27.5t27.5 -11.5h146q6 0 34 -28
l58 -58q12 -11 20 -31t8 -36v-199q0 -16 -8 -35.5t-20 -30.5l-58 -59q-27 -27 -49 -27h-215q-29 0 -54 27l-59 59q-28 28 -28 66v95q0 16 11.5 27.5t27.5 11.5h108q17 0 28 -11t11 -28v-50q0 -16 11.5 -27.5t27.5 -11.5h41q16 0 27.5 11.5t11.5 27.5v110q0 16 -11.5 27.5
t-27.5 11.5h-135q-19 0 -44 27l-59 59q-11 10 -19 30t-8 36l-1 199q0 16 8.5 36t19.5 30l59 59q26 28 48 28h216q26 0 54 -28l58 -59q12 -10 20 -30t8 -36v-95q0 -16 -11.5 -27.5t-27.5 -11.5h-108z" />
    <glyph glyph-name="Scircumflex" unicode="&#x15c;" horiz-adv-x="559" 
d="M463 992q13 -7 17.5 -21.5t-2.5 -27.5l-26 -48q-7 -13 -21 -17t-28 3l-92 50q-13 7 -31.5 7t-31.5 -7l-92 -50q-14 -7 -28 -3t-21 17l-26 48q-7 13 -2.5 27.5t17.5 21.5l152 82q13 7 31.5 7t31.5 -7zM378 584q-17 0 -28 11t-11 28v30q0 17 -11 28t-28 11h-41
q-17 0 -28 -11t-11 -28v-90q0 -17 11 -28t28 -11h122q33 0 58 -27l58 -59q28 -28 28 -67v-219q0 -38 -28 -66l-58 -59q-29 -27 -49 -27h-216q-27 0 -54 27l-59 59q-27 27 -27 66v115q0 17 11 28t28 11h108q17 0 28 -11t11 -28v-70q0 -17 11 -28t28 -11h41q17 0 28 11t11 28
v130q0 17 -11 28t-28 11h-122q-33 0 -58 27l-58 59q-28 28 -28 67v179q0 38 28 66l58 59q29 27 49 27h216q27 0 54 -27l59 -59q27 -27 27 -66v-75q0 -17 -11 -28t-28 -11h-108z" />
    <glyph glyph-name="scircumflex" unicode="&#x15d;" horiz-adv-x="559" 
d="M463 992q13 -7 17.5 -21.5t-2.5 -27.5l-26 -48q-7 -13 -21 -17t-28 3l-92 50q-13 7 -31.5 7t-31.5 -7l-92 -50q-14 -7 -28 -3t-21 17l-26 48q-7 13 -2.5 27.5t17.5 21.5l152 82q13 7 31.5 7t31.5 -7zM378 563q-16 0 -27.5 11.5t-11.5 27.5v50q0 16 -11.5 27.5t-27.5 11.5
h-41q-16 0 -27.5 -11.5t-11.5 -27.5v-109q0 -16 11.5 -27.5t27.5 -11.5h146q6 0 34 -28l58 -58q12 -11 20 -31t8 -36v-199q0 -16 -8 -35.5t-20 -30.5l-58 -59q-27 -27 -49 -27h-215q-29 0 -54 27l-59 59q-28 28 -28 66v95q0 16 11.5 27.5t27.5 11.5h108q17 0 28 -11t11 -28
v-50q0 -16 11.5 -27.5t27.5 -11.5h41q16 0 27.5 11.5t11.5 27.5v110q0 16 -11.5 27.5t-27.5 11.5h-135q-19 0 -44 27l-59 59q-11 10 -19 30t-8 36l-1 199q0 16 8.5 36t19.5 30l59 59q26 28 48 28h216q26 0 54 -28l58 -59q12 -10 20 -30t8 -36v-95q0 -16 -11.5 -27.5
t-27.5 -11.5h-108z" />
    <glyph glyph-name="Scedilla" unicode="&#x15e;" horiz-adv-x="559" 
d="M378 584q-17 0 -28 11t-11 28v30q0 17 -11 28t-28 11h-41q-17 0 -28 -11t-11 -28v-90q0 -17 11 -28t28 -11h122q33 0 58 -27l58 -59q28 -28 28 -67v-219q0 -38 -28 -66l-58 -59q-29 -27 -49 -27h-53v-10q0 -23 6.5 -28t29.5 -5q48 0 78.5 -38t30.5 -78q0 -35 -7.5 -54.5
t-27.5 -36.5l-41 -35q-27 -23 -64 -23l-123 3q-15 0 -25.5 11t-10.5 26l1 35q0 15 11 25t25 9l87 -6q23 -1 44.5 10t21.5 32q0 35 -62 35h-55q-15 0 -25 8.5t-10 22.5v97h-47q-27 0 -54 27l-59 59q-27 27 -27 66v115q0 17 11 28t28 11h108q17 0 28 -11t11 -28v-70
q0 -17 11 -28t28 -11h41q17 0 28 11t11 28v130q0 17 -11 28t-28 11h-122q-33 0 -58 27l-58 59q-28 28 -28 67v179q0 38 28 66l58 59q29 27 49 27h216q27 0 54 -27l59 -59q27 -27 27 -66v-75q0 -17 -11 -28t-28 -11h-108z" />
    <glyph glyph-name="scedilla" unicode="&#x15f;" horiz-adv-x="559" 
d="M378 563q-16 0 -27.5 11.5t-11.5 27.5v50q0 16 -11.5 27.5t-27.5 11.5h-41q-16 0 -27.5 -11.5t-11.5 -27.5v-109q0 -16 11.5 -27.5t27.5 -11.5h146q6 0 34 -28l58 -58q12 -11 20 -31t8 -36v-199q0 -16 -8 -35.5t-20 -30.5l-58 -59q-27 -27 -49 -27h-53v-10q0 -23 6.5 -28
t29.5 -5q48 0 78.5 -38t30.5 -78q0 -35 -7.5 -54.5t-27.5 -36.5l-41 -35q-27 -23 -64 -23l-123 3q-15 0 -25.5 11t-10.5 26l1 35q0 15 11 25t25 9l87 -6q23 -1 44.5 10t21.5 32q0 35 -62 35h-55q-15 0 -25 8.5t-10 22.5v97h-46q-29 0 -54 27l-59 59q-28 28 -28 66v95
q0 16 11.5 27.5t27.5 11.5h108q17 0 28 -11t11 -28v-50q0 -16 11.5 -27.5t27.5 -11.5h41q16 0 27.5 11.5t11.5 27.5v110q0 16 -11.5 27.5t-27.5 11.5h-135q-19 0 -44 27l-59 59q-11 10 -19 30t-8 36l-1 199q0 16 8.5 36t19.5 30l59 59q26 28 48 28h216q26 0 54 -28l58 -59
q12 -10 20 -30t8 -36v-95q0 -16 -11.5 -27.5t-27.5 -11.5h-108z" />
    <glyph glyph-name="Scaron" unicode="&#x160;" horiz-adv-x="559" 
d="M311 891q-13 -7 -31.5 -7t-31.5 7l-152 82q-13 7 -17.5 21.5t2.5 27.5l26 48q7 13 21 17t28 -3l92 -50q13 -7 31.5 -7t31.5 7l92 50q14 7 28 3t21 -17l26 -48q7 -13 2.5 -27.5t-17.5 -21.5zM378 584q-17 0 -28 11t-11 28v30q0 17 -11 28t-28 11h-41q-17 0 -28 -11
t-11 -28v-90q0 -17 11 -28t28 -11h122q33 0 58 -27l58 -59q28 -28 28 -67v-219q0 -38 -28 -66l-58 -59q-29 -27 -49 -27h-216q-27 0 -54 27l-59 59q-27 27 -27 66v115q0 17 11 28t28 11h108q17 0 28 -11t11 -28v-70q0 -17 11 -28t28 -11h41q17 0 28 11t11 28v130
q0 17 -11 28t-28 11h-122q-33 0 -58 27l-58 59q-28 28 -28 67v179q0 38 28 66l58 59q29 27 49 27h216q27 0 54 -27l59 -59q27 -27 27 -66v-75q0 -17 -11 -28t-28 -11h-108z" />
    <glyph glyph-name="scaron" unicode="&#x161;" horiz-adv-x="559" 
d="M311 891q-13 -7 -31.5 -7t-31.5 7l-152 82q-13 7 -17.5 21.5t2.5 27.5l26 48q7 13 21 17t28 -3l92 -50q13 -7 31.5 -7t31.5 7l92 50q14 7 28 3t21 -17l26 -48q7 -13 2.5 -27.5t-17.5 -21.5zM378 563q-16 0 -27.5 11.5t-11.5 27.5v50q0 16 -11.5 27.5t-27.5 11.5h-41
q-16 0 -27.5 -11.5t-11.5 -27.5v-109q0 -16 11.5 -27.5t27.5 -11.5h146q6 0 34 -28l58 -58q12 -11 20 -31t8 -36v-199q0 -16 -8 -35.5t-20 -30.5l-58 -59q-27 -27 -49 -27h-215q-29 0 -54 27l-59 59q-28 28 -28 66v95q0 16 11.5 27.5t27.5 11.5h108q17 0 28 -11t11 -28v-50
q0 -16 11.5 -27.5t27.5 -11.5h41q16 0 27.5 11.5t11.5 27.5v110q0 16 -11.5 27.5t-27.5 11.5h-135q-19 0 -44 27l-59 59q-11 10 -19 30t-8 36l-1 199q0 16 8.5 36t19.5 30l59 59q26 28 48 28h216q26 0 54 -28l58 -59q12 -10 20 -30t8 -36v-95q0 -16 -11.5 -27.5t-27.5 -11.5
h-108z" />
    <glyph glyph-name="uni0162" unicode="&#x162;" horiz-adv-x="559" 
d="M486 850q16 0 27.5 -11.5t11.5 -27.5v-81q0 -16 -11.5 -27.5t-27.5 -11.5h-75q-16 0 -27.5 -11.5t-11.5 -27.5v-613q0 -16 -10 -26.5t-25 -12.5v-10q0 -23 6.5 -28t29.5 -5q48 0 78.5 -38t30.5 -78q0 -35 -7.5 -54.5t-27.5 -36.5l-41 -35q-27 -23 -64 -23l-123 3
q-15 0 -25.5 11t-10.5 26l1 35q0 15 11 25t25 9l87 -6q23 -1 44.5 10t21.5 32q0 35 -62 35h-55q-15 0 -25 8.5t-10 22.5v97q-15 2 -25 13t-10 26v613q0 16 -11 27.5t-28 11.5h-74q-16 0 -27.5 11.5t-11.5 27.5v81q0 16 11.5 27.5t27.5 11.5h413z" />
    <glyph glyph-name="uni0163" unicode="&#x163;" horiz-adv-x="559" 
d="M486 850q16 0 27.5 -11.5t11.5 -27.5v-81q0 -16 -11.5 -27.5t-27.5 -11.5h-75q-16 0 -27.5 -11.5t-11.5 -27.5v-613q0 -16 -10 -26.5t-25 -12.5v-10q0 -23 6.5 -28t29.5 -5q48 0 78.5 -38t30.5 -78q0 -35 -7.5 -54.5t-27.5 -36.5l-41 -35q-27 -23 -64 -23l-123 3
q-15 0 -25.5 11t-10.5 26l1 35q0 15 11 25t25 9l87 -6q23 -1 44.5 10t21.5 32q0 35 -62 35h-55q-15 0 -25 8.5t-10 22.5v97q-15 2 -25 13t-10 26v613q0 16 -11 27.5t-28 11.5h-74q-16 0 -27.5 11.5t-11.5 27.5v81q0 16 11.5 27.5t27.5 11.5h413z" />
    <glyph glyph-name="Tcaron" unicode="&#x164;" horiz-adv-x="559" 
d="M311 891q-13 -7 -31.5 -7t-31.5 7l-152 82q-13 7 -17.5 21.5t2.5 27.5l26 48q7 13 21 17t28 -3l92 -50q13 -7 31.5 -7t31.5 7l92 50q14 7 28 3t21 -17l26 -48q7 -13 2.5 -27.5t-17.5 -21.5zM525 730q0 -16 -11.5 -27.5t-27.5 -11.5h-75q-16 0 -27.5 -11.5t-11.5 -27.5
v-613q0 -17 -11 -28t-28 -11h-108q-16 0 -27.5 11.5t-11.5 27.5v613q0 16 -11 27.5t-28 11.5h-74q-16 0 -27.5 11.5t-11.5 27.5v81q0 16 11.5 27.5t27.5 11.5h413q16 0 27.5 -11.5t11.5 -27.5v-81z" />
    <glyph glyph-name="tcaron" unicode="&#x165;" horiz-adv-x="559" 
d="M311 891q-13 -7 -31.5 -7t-31.5 7l-152 82q-13 7 -17.5 21.5t2.5 27.5l26 48q7 13 21 17t28 -3l92 -50q13 -7 31.5 -7t31.5 7l92 50q14 7 28 3t21 -17l26 -48q7 -13 2.5 -27.5t-17.5 -21.5zM525 730q0 -16 -11.5 -27.5t-27.5 -11.5h-75q-16 0 -27.5 -11.5t-11.5 -27.5
v-613q0 -17 -11 -28t-28 -11h-108q-16 0 -27.5 11.5t-11.5 27.5v613q0 16 -11 27.5t-28 11.5h-74q-16 0 -27.5 11.5t-11.5 27.5v81q0 16 11.5 27.5t27.5 11.5h413q16 0 27.5 -11.5t11.5 -27.5v-81z" />
    <glyph glyph-name="Tbar" unicode="&#x166;" horiz-adv-x="559" 
d="M486 850q16 0 27.5 -11.5t11.5 -27.5v-81q0 -16 -11.5 -27.5t-27.5 -11.5h-75q-16 0 -27.5 -11.5t-11.5 -27.5v-114h75q16 0 27.5 -11.5t11.5 -27.5v-78q0 -16 -11.5 -28t-27.5 -12h-75v-342q0 -17 -11 -28t-28 -11h-108q-16 0 -27.5 11.5t-11.5 27.5v342h-72
q-16 0 -27.5 11.5t-11.5 28.5v78q0 16 11.5 27.5t27.5 11.5h72v114q0 16 -11 27.5t-28 11.5h-74q-16 0 -27.5 11.5t-11.5 27.5v81q0 16 11.5 27.5t27.5 11.5h413z" />
    <glyph glyph-name="tbar" unicode="&#x167;" horiz-adv-x="559" 
d="M486 850q16 0 27.5 -11.5t11.5 -27.5v-81q0 -16 -11.5 -27.5t-27.5 -11.5h-75q-16 0 -27.5 -11.5t-11.5 -27.5v-114h75q16 0 27.5 -11.5t11.5 -27.5v-78q0 -16 -11.5 -28t-27.5 -12h-75v-342q0 -17 -11 -28t-28 -11h-108q-16 0 -27.5 11.5t-11.5 27.5v342h-72
q-16 0 -27.5 11.5t-11.5 28.5v78q0 16 11.5 27.5t27.5 11.5h72v114q0 16 -11 27.5t-28 11.5h-74q-16 0 -27.5 11.5t-11.5 27.5v81q0 16 11.5 27.5t27.5 11.5h413z" />
    <glyph glyph-name="Utilde" unicode="&#x168;" 
d="M403 897q-31 -15 -67 -6l-112 30q-34 9 -66 -8l-24 -13q-14 -7 -28 -2.5t-21 17.5l-25 48q-7 13 -2.5 27.5t17.5 21.5l67 36q32 16 67 7l115 -31q35 -9 67 7l36 17q13 6 27.5 0.5t20.5 -18.5l23 -49q7 -13 2 -27t-19 -20zM524 152q0 -41 -27 -66l-58 -59q-29 -27 -50 -27
h-215q-27 0 -54 27l-59 59q-27 27 -27 66v659q0 16 11.5 27.5t27.5 11.5h108q16 0 27.5 -11.5t11.5 -27.5v-614q0 -17 11 -28t28 -11h40q17 0 28 11t11 28v614q0 16 11.5 27.5t27.5 11.5h108q16 0 27.5 -11.5t11.5 -27.5v-659z" />
    <glyph glyph-name="utilde" unicode="&#x169;" 
d="M403 897q-31 -15 -67 -6l-112 30q-34 9 -66 -8l-24 -13q-14 -7 -28 -2.5t-21 17.5l-25 48q-7 13 -2.5 27.5t17.5 21.5l67 36q32 16 67 7l115 -31q35 -9 67 7l36 17q13 6 27.5 0.5t20.5 -18.5l23 -49q7 -13 2 -27t-19 -20zM524 152q0 -41 -27 -66l-58 -59q-29 -27 -50 -27
h-215q-27 0 -54 27l-59 59q-27 27 -27 66v659q0 16 11.5 27.5t27.5 11.5h108q16 0 27.5 -11.5t11.5 -27.5v-614q0 -17 11 -28t28 -11h40q17 0 28 11t11 28v614q0 16 11.5 27.5t27.5 11.5h108q16 0 27.5 -11.5t11.5 -27.5v-659z" />
    <glyph glyph-name="Umacron" unicode="&#x16a;" 
d="M396 1038q17 0 29.5 -12.5t12.5 -30.5v-44q0 -17 -12.5 -30t-29.5 -13h-234q-17 0 -29.5 13t-12.5 30v44q0 18 12.5 30.5t29.5 12.5h234zM524 152q0 -41 -27 -66l-58 -59q-29 -27 -50 -27h-215q-27 0 -54 27l-59 59q-27 27 -27 66v659q0 16 11.5 27.5t27.5 11.5h108
q16 0 27.5 -11.5t11.5 -27.5v-614q0 -17 11 -28t28 -11h40q17 0 28 11t11 28v614q0 16 11.5 27.5t27.5 11.5h108q16 0 27.5 -11.5t11.5 -27.5v-659z" />
    <glyph glyph-name="umacron" unicode="&#x16b;" 
d="M396 1038q17 0 29.5 -12.5t12.5 -30.5v-44q0 -17 -12.5 -30t-29.5 -13h-234q-17 0 -29.5 13t-12.5 30v44q0 18 12.5 30.5t29.5 12.5h234zM524 152q0 -41 -27 -66l-58 -59q-29 -27 -50 -27h-215q-27 0 -54 27l-59 59q-27 27 -27 66v659q0 16 11.5 27.5t27.5 11.5h108
q16 0 27.5 -11.5t11.5 -27.5v-614q0 -17 11 -28t28 -11h40q17 0 28 11t11 28v614q0 16 11.5 27.5t27.5 11.5h108q16 0 27.5 -11.5t11.5 -27.5v-659z" />
    <glyph glyph-name="Ubreve" unicode="&#x16c;" 
d="M314 879q-36 -4 -71 0q-32 2 -62 18q-36 19 -63 51q-29 36 -29 39q-4 14 3.5 27t21.5 17l52 14q23 6 52 -25q32 -34 61 -34q28 0 60 34q29 31 52 25l52 -14q14 -4 21.5 -17t3.5 -27q0 -3 -29 -39q-27 -31 -62 -51q-31 -16 -63 -18zM524 152q0 -41 -27 -66l-58 -59
q-29 -27 -50 -27h-215q-27 0 -54 27l-59 59q-27 27 -27 66v659q0 16 11.5 27.5t27.5 11.5h108q16 0 27.5 -11.5t11.5 -27.5v-614q0 -17 11 -28t28 -11h40q17 0 28 11t11 28v614q0 16 11.5 27.5t27.5 11.5h108q16 0 27.5 -11.5t11.5 -27.5v-659z" />
    <glyph glyph-name="ubreve" unicode="&#x16d;" 
d="M314 879q-36 -4 -71 0q-32 2 -62 18q-36 19 -63 51q-29 36 -29 39q-4 14 3.5 27t21.5 17l52 14q23 6 52 -25q32 -34 61 -34q28 0 60 34q29 31 52 25l52 -14q14 -4 21.5 -17t3.5 -27q0 -3 -29 -39q-27 -31 -62 -51q-31 -16 -63 -18zM524 152q0 -41 -27 -66l-58 -59
q-29 -27 -50 -27h-215q-27 0 -54 27l-59 59q-27 27 -27 66v659q0 16 11.5 27.5t27.5 11.5h108q16 0 27.5 -11.5t11.5 -27.5v-614q0 -17 11 -28t28 -11h40q17 0 28 11t11 28v614q0 16 11.5 27.5t27.5 11.5h108q16 0 27.5 -11.5t11.5 -27.5v-659z" />
    <glyph glyph-name="Uring" unicode="&#x16e;" 
d="M430 997q0 -61 -36 -91.5t-115 -30.5q-85 0 -118 29.5t-33 92.5t34 92t117 29q85 0 118 -29.5t33 -91.5zM279 962q14 0 24.5 10t10.5 25q0 14 -10.5 24.5t-24.5 10.5q-15 0 -25 -10.5t-10 -24.5q0 -15 10 -25t25 -10zM524 152q0 -41 -27 -66l-58 -59q-29 -27 -50 -27
h-215q-27 0 -54 27l-59 59q-27 27 -27 66v659q0 16 11.5 27.5t27.5 11.5h108q16 0 27.5 -11.5t11.5 -27.5v-614q0 -17 11 -28t28 -11h40q17 0 28 11t11 28v614q0 16 11.5 27.5t27.5 11.5h108q16 0 27.5 -11.5t11.5 -27.5v-659z" />
    <glyph glyph-name="uring" unicode="&#x16f;" 
d="M430 997q0 -61 -36 -91.5t-115 -30.5q-85 0 -118 29.5t-33 92.5t34 92t117 29q85 0 118 -29.5t33 -91.5zM279 962q14 0 24.5 10t10.5 25q0 14 -10.5 24.5t-24.5 10.5q-15 0 -25 -10.5t-10 -24.5q0 -15 10 -25t25 -10zM524 152q0 -41 -27 -66l-58 -59q-29 -27 -50 -27
h-215q-27 0 -54 27l-59 59q-27 27 -27 66v659q0 16 11.5 27.5t27.5 11.5h108q16 0 27.5 -11.5t11.5 -27.5v-614q0 -17 11 -28t28 -11h40q17 0 28 11t11 28v614q0 16 11.5 27.5t27.5 11.5h108q16 0 27.5 -11.5t11.5 -27.5v-659z" />
    <glyph glyph-name="Uhungarumlaut" unicode="&#x170;" 
d="M199 1036q4 8 16 14.5t21 6.5h85q34 0 10 -36l-75 -112q-15 -21 -30 -21h-74q-9 0 -13.5 6.5t-0.5 14.5zM376 1036q4 8 16 14.5t21 6.5h85q34 0 10 -36l-75 -112q-15 -21 -30 -21h-74q-9 0 -13.5 6.5t-0.5 14.5zM524 152q0 -41 -27 -66l-58 -59q-29 -27 -50 -27h-215
q-27 0 -54 27l-59 59q-27 27 -27 66v659q0 16 11.5 27.5t27.5 11.5h108q16 0 27.5 -11.5t11.5 -27.5v-614q0 -17 11 -28t28 -11h40q17 0 28 11t11 28v614q0 16 11.5 27.5t27.5 11.5h108q16 0 27.5 -11.5t11.5 -27.5v-659z" />
    <glyph glyph-name="uhungarumlaut" unicode="&#x171;" 
d="M199 1036q4 8 16 14.5t21 6.5h85q34 0 10 -36l-75 -112q-15 -21 -30 -21h-74q-9 0 -13.5 6.5t-0.5 14.5zM376 1036q4 8 16 14.5t21 6.5h85q34 0 10 -36l-75 -112q-15 -21 -30 -21h-74q-9 0 -13.5 6.5t-0.5 14.5zM524 152q0 -41 -27 -66l-58 -59q-29 -27 -50 -27h-215
q-27 0 -54 27l-59 59q-27 27 -27 66v659q0 16 11.5 27.5t27.5 11.5h108q16 0 27.5 -11.5t11.5 -27.5v-614q0 -17 11 -28t28 -11h40q17 0 28 11t11 28v614q0 16 11.5 27.5t27.5 11.5h108q16 0 27.5 -11.5t11.5 -27.5v-659z" />
    <glyph glyph-name="Uogonek" unicode="&#x172;" 
d="M485 850q16 0 27.5 -11.5t11.5 -27.5v-659q0 -41 -27 -66l-58 -59q-29 -27 -50 -27h-51v-97q0 -14 -10 -22.5t-25 -8.5h-55q-62 0 -62 -35q0 -21 21.5 -32t44.5 -10l87 6q14 1 25 -9t11 -25l1 -35q0 -15 -10.5 -26t-25.5 -11l-123 -3q-37 0 -64 23l-41 35
q-20 17 -27.5 36.5t-7.5 54.5q0 40 30.5 78t78.5 38q13 0 18 0.5t10 3.5t6.5 10t1.5 19v10h-48q-27 0 -54 27l-59 59q-27 27 -27 66v659q0 16 11.5 27.5t27.5 11.5h108q16 0 27.5 -11.5t11.5 -27.5v-614q0 -17 11 -28t28 -11h40q17 0 28 11t11 28v614q0 16 11.5 27.5
t27.5 11.5h108z" />
    <glyph glyph-name="uogonek" unicode="&#x173;" 
d="M485 850q16 0 27.5 -11.5t11.5 -27.5v-659q0 -41 -27 -66l-58 -59q-29 -27 -50 -27h-51v-97q0 -14 -10 -22.5t-25 -8.5h-55q-62 0 -62 -35q0 -21 21.5 -32t44.5 -10l87 6q14 1 25 -9t11 -25l1 -35q0 -15 -10.5 -26t-25.5 -11l-123 -3q-37 0 -64 23l-41 35
q-20 17 -27.5 36.5t-7.5 54.5q0 40 30.5 78t78.5 38q13 0 18 0.5t10 3.5t6.5 10t1.5 19v10h-48q-27 0 -54 27l-59 59q-27 27 -27 66v659q0 16 11.5 27.5t27.5 11.5h108q16 0 27.5 -11.5t11.5 -27.5v-614q0 -17 11 -28t28 -11h40q17 0 28 11t11 28v614q0 16 11.5 27.5
t27.5 11.5h108z" />
    <glyph glyph-name="Wcircumflex" unicode="&#x174;" horiz-adv-x="862" 
d="M614 992q13 -7 17.5 -21.5t-2.5 -27.5l-26 -48q-7 -13 -21 -17t-28 3l-92 50q-13 7 -31.5 7t-31.5 -7l-92 -50q-14 -7 -28 -3t-21 17l-26 48q-7 13 -2.5 27.5t17.5 21.5l152 82q13 7 31.5 7t31.5 -7zM788 850q16 0 28 -11.5t12 -27.5v-219q0 -39 -9 -77l-95 -477
q-3 -16 -12 -27t-18 -11h-184q-9 0 -18.5 11t-13.5 26l-37 136q-5 15 -10.5 15t-9.5 -15l-37 -136q-5 -15 -14 -26t-19 -11h-184q-9 0 -17.5 11t-11.5 27l-96 477q-8 34 -8 77v219q0 16 11.5 27.5t27.5 11.5h108q16 0 27.5 -11.5t11.5 -27.5v-195q0 -36 8 -78l35 -186
q3 -16 8 -16t9 15l48 188q9 38 9 77v194q0 17 11.5 28.5t28.5 11.5h107q17 0 28.5 -11.5t11.5 -28.5v-194q0 -42 10 -77l47 -188q4 -15 9.5 -15t7.5 16l36 186q7 37 7 78v195q0 16 11.5 27.5t27.5 11.5h108z" />
    <glyph glyph-name="wcircumflex" unicode="&#x175;" horiz-adv-x="862" 
d="M614 992q13 -7 17.5 -21.5t-2.5 -27.5l-26 -48q-7 -13 -21 -17t-28 3l-92 50q-13 7 -31.5 7t-31.5 -7l-92 -50q-14 -7 -28 -3t-21 17l-26 48q-7 13 -2.5 27.5t17.5 21.5l152 82q13 7 31.5 7t31.5 -7zM788 850q16 0 28 -11.5t12 -27.5v-219q0 -39 -9 -77l-95 -477
q-3 -16 -12 -27t-18 -11h-184q-9 0 -18.5 11t-13.5 26l-37 136q-5 15 -10.5 15t-9.5 -15l-37 -136q-5 -15 -14 -26t-19 -11h-184q-9 0 -17.5 11t-11.5 27l-96 477q-8 34 -8 77v219q0 16 11.5 27.5t27.5 11.5h108q16 0 27.5 -11.5t11.5 -27.5v-195q0 -36 8 -78l35 -186
q3 -16 8 -16t9 15l48 188q9 38 9 77v194q0 17 11.5 28.5t28.5 11.5h107q17 0 28.5 -11.5t11.5 -28.5v-194q0 -42 10 -77l47 -188q4 -15 9.5 -15t7.5 16l36 186q7 37 7 78v195q0 16 11.5 27.5t27.5 11.5h108z" />
    <glyph glyph-name="Ycircumflex" unicode="&#x176;" horiz-adv-x="541" 
d="M454 992q13 -7 17.5 -21.5t-2.5 -27.5l-26 -48q-7 -13 -21 -17t-28 3l-92 50q-13 7 -31.5 7t-31.5 -7l-92 -50q-14 -7 -28 -3t-21 17l-26 48q-7 13 -2.5 27.5t17.5 21.5l152 82q13 7 31.5 7t31.5 -7zM477 850q16 0 24 -11t3 -26l-128 -407q-12 -34 -12 -76v-291
q0 -16 -11.5 -27.5t-27.5 -11.5h-108q-17 0 -28 11t-11 28v291q0 36 -12 76l-129 407q-5 15 3 26t24 11h108q16 0 30.5 -11t19.5 -27l38 -139q4 -15 10 -15t10 15l40 139q4 16 18.5 27t30.5 11h108z" />
    <glyph glyph-name="ycircumflex" unicode="&#x177;" horiz-adv-x="541" 
d="M454 992q13 -7 17.5 -21.5t-2.5 -27.5l-26 -48q-7 -13 -21 -17t-28 3l-92 50q-13 7 -31.5 7t-31.5 -7l-92 -50q-14 -7 -28 -3t-21 17l-26 48q-7 13 -2.5 27.5t17.5 21.5l152 82q13 7 31.5 7t31.5 -7zM477 850q16 0 24 -11t3 -26l-128 -407q-12 -34 -12 -76v-291
q0 -16 -11.5 -27.5t-27.5 -11.5h-108q-17 0 -28 11t-11 28v291q0 36 -12 76l-129 407q-5 15 3 26t24 11h108q16 0 30.5 -11t19.5 -27l38 -139q4 -15 10 -15t10 15l40 139q4 16 18.5 27t30.5 11h108z" />
    <glyph glyph-name="Ydieresis" unicode="&#x178;" horiz-adv-x="541" 
d="M203 1058q17 0 29.5 -12.5t12.5 -30.5v-84q0 -17 -12.5 -30t-29.5 -13h-73q-17 0 -30 13t-13 30v84q0 18 13 30.5t30 12.5h73zM413 1058q17 0 29.5 -12.5t12.5 -30.5v-84q0 -17 -12.5 -30t-29.5 -13h-74q-17 0 -29.5 13t-12.5 30v84q0 18 12.5 30.5t29.5 12.5h74z
M477 850q16 0 24 -11t3 -26l-128 -407q-12 -34 -12 -76v-291q0 -16 -11.5 -27.5t-27.5 -11.5h-108q-17 0 -28 11t-11 28v291q0 36 -12 76l-129 407q-5 15 3 26t24 11h108q16 0 30.5 -11t19.5 -27l38 -139q4 -15 10 -15t10 15l40 139q4 16 18.5 27t30.5 11h108z" />
    <glyph glyph-name="Zacute" unicode="&#x179;" horiz-adv-x="562" 
d="M289 1036q4 8 16 14.5t21 6.5h85q34 0 10 -36l-75 -112q-15 -21 -30 -21h-74q-9 0 -13.5 6.5t-0.5 14.5zM289 194q-7 -15 0 -25.5t23 -10.5h167q16 0 27.5 -11.5t11.5 -27.5v-80q0 -16 -11.5 -27.5t-27.5 -11.5h-338q-40 0 -67 27l-24 24q-11 11 -14.5 30t2.5 34l235 540
q7 15 0 25.5t-23 10.5h-143q-16 0 -27.5 11.5t-11.5 27.5v81q0 16 11.5 27.5t27.5 11.5h314q39 0 67 -28l24 -24q11 -11 14.5 -29.5t-2.5 -34.5z" />
    <glyph glyph-name="zacute" unicode="&#x17a;" horiz-adv-x="562" 
d="M289 1036q4 8 16 14.5t21 6.5h85q34 0 10 -36l-75 -112q-15 -21 -30 -21h-74q-9 0 -13.5 6.5t-0.5 14.5zM289 194q-7 -15 0 -25.5t23 -10.5h167q16 0 27.5 -11.5t11.5 -27.5v-80q0 -16 -11.5 -27.5t-27.5 -11.5h-338q-40 0 -67 27l-24 24q-11 11 -14.5 30t2.5 34l235 540
q7 15 0 25.5t-23 10.5h-143q-16 0 -27.5 11.5t-11.5 27.5v81q0 16 11.5 27.5t27.5 11.5h314q39 0 67 -28l24 -24q11 -11 14.5 -29.5t-2.5 -34.5z" />
    <glyph glyph-name="Zdotaccent" unicode="&#x17b;" horiz-adv-x="562" 
d="M318 1058q17 0 29.5 -12.5t12.5 -30.5v-84q0 -17 -12.5 -30t-29.5 -13h-74q-17 0 -29.5 13t-12.5 30v84q0 18 12.5 30.5t29.5 12.5h74zM289 194q-7 -15 0 -25.5t23 -10.5h167q16 0 27.5 -11.5t11.5 -27.5v-80q0 -16 -11.5 -27.5t-27.5 -11.5h-338q-40 0 -67 27l-24 24
q-11 11 -14.5 30t2.5 34l235 540q7 15 0 25.5t-23 10.5h-143q-16 0 -27.5 11.5t-11.5 27.5v81q0 16 11.5 27.5t27.5 11.5h314q39 0 67 -28l24 -24q11 -11 14.5 -29.5t-2.5 -34.5z" />
    <glyph glyph-name="zdotaccent" unicode="&#x17c;" horiz-adv-x="562" 
d="M318 1058q17 0 29.5 -12.5t12.5 -30.5v-84q0 -17 -12.5 -30t-29.5 -13h-74q-17 0 -29.5 13t-12.5 30v84q0 18 12.5 30.5t29.5 12.5h74zM289 194q-7 -15 0 -25.5t23 -10.5h167q16 0 27.5 -11.5t11.5 -27.5v-80q0 -16 -11.5 -27.5t-27.5 -11.5h-338q-40 0 -67 27l-24 24
q-11 11 -14.5 30t2.5 34l235 540q7 15 0 25.5t-23 10.5h-143q-16 0 -27.5 11.5t-11.5 27.5v81q0 16 11.5 27.5t27.5 11.5h314q39 0 67 -28l24 -24q11 -11 14.5 -29.5t-2.5 -34.5z" />
    <glyph glyph-name="Zcaron" unicode="&#x17d;" horiz-adv-x="562" 
d="M312 891q-13 -7 -31.5 -7t-31.5 7l-152 82q-13 7 -17.5 21.5t2.5 27.5l26 48q7 13 21 17t28 -3l92 -50q13 -7 31.5 -7t31.5 7l92 50q14 7 28 3t21 -17l26 -48q7 -13 2.5 -27.5t-17.5 -21.5zM289 194q-7 -15 0 -25.5t23 -10.5h167q16 0 27.5 -11.5t11.5 -27.5v-80
q0 -16 -11.5 -27.5t-27.5 -11.5h-338q-40 0 -67 27l-24 24q-11 11 -14.5 30t2.5 34l235 540q7 15 0 25.5t-23 10.5h-143q-16 0 -27.5 11.5t-11.5 27.5v81q0 16 11.5 27.5t27.5 11.5h314q39 0 67 -28l24 -24q11 -11 14.5 -29.5t-2.5 -34.5z" />
    <glyph glyph-name="zcaron" unicode="&#x17e;" horiz-adv-x="562" 
d="M312 891q-13 -7 -31.5 -7t-31.5 7l-152 82q-13 7 -17.5 21.5t2.5 27.5l26 48q7 13 21 17t28 -3l92 -50q13 -7 31.5 -7t31.5 7l92 50q14 7 28 3t21 -17l26 -48q7 -13 2.5 -27.5t-17.5 -21.5zM289 194q-7 -15 0 -25.5t23 -10.5h167q16 0 27.5 -11.5t11.5 -27.5v-80
q0 -16 -11.5 -27.5t-27.5 -11.5h-338q-40 0 -67 27l-24 24q-11 11 -14.5 30t2.5 34l235 540q7 15 0 25.5t-23 10.5h-143q-16 0 -27.5 11.5t-11.5 27.5v81q0 16 11.5 27.5t27.5 11.5h314q39 0 67 -28l24 -24q11 -11 14.5 -29.5t-2.5 -34.5z" />
    <glyph glyph-name="AEacute" unicode="&#x1fc;" horiz-adv-x="823" 
d="M420 1036q4 8 16 14.5t21 6.5h85q34 0 10 -36l-75 -112q-15 -21 -30 -21h-74q-9 0 -13.5 6.5t-0.5 14.5zM563 692q-16 0 -27.5 -11.5t-11.5 -27.5v-84q0 -16 11.5 -27.5t27.5 -11.5h144q16 0 27.5 -12t11.5 -28v-79q0 -17 -11.5 -28.5t-27.5 -11.5h-144
q-16 0 -27.5 -11.5t-11.5 -27.5v-135q0 -16 11.5 -27.5t27.5 -11.5h188q16 0 27.5 -11.5t11.5 -27.5v-29q0 -36 -25 -65q-29 -25 -65 -25h-326q-13 0 -24.5 11.5t-11.5 27.5v21q0 16 -11.5 27.5t-27.5 11.5h-40q-17 0 -28 -11.5t-11 -27.5v-21q0 -16 -11.5 -27.5
t-27.5 -11.5h-108q-16 0 -27.5 11.5t-11.5 27.5v129q0 35 6 77l179 567q3 16 16.5 27t29.5 11h435q39 0 65 -26q25 -25 25 -64v-29q0 -16 -11.5 -27.5t-27.5 -11.5h-188zM238 296q-4 -15 6.5 -26.5t27.5 -11.5h32q16 0 25 11t9 27v248q-1 14 -13.5 12.5t-15.5 -15.5z" />
    <glyph glyph-name="aeacute" unicode="&#x1fd;" horiz-adv-x="823" 
d="M420 1036q4 8 16 14.5t21 6.5h85q34 0 10 -36l-75 -112q-15 -21 -30 -21h-74q-9 0 -13.5 6.5t-0.5 14.5zM563 692q-16 0 -27.5 -11.5t-11.5 -27.5v-84q0 -16 11.5 -27.5t27.5 -11.5h144q16 0 27.5 -12t11.5 -28v-79q0 -17 -11.5 -28.5t-27.5 -11.5h-144
q-16 0 -27.5 -11.5t-11.5 -27.5v-135q0 -16 11.5 -27.5t27.5 -11.5h188q16 0 27.5 -11.5t11.5 -27.5v-29q0 -36 -25 -65q-29 -25 -65 -25h-326q-13 0 -24.5 11.5t-11.5 27.5v21q0 16 -11.5 27.5t-27.5 11.5h-40q-17 0 -28 -11.5t-11 -27.5v-21q0 -16 -11.5 -27.5
t-27.5 -11.5h-108q-16 0 -27.5 11.5t-11.5 27.5v129q0 35 6 77l179 567q3 16 16.5 27t29.5 11h435q39 0 65 -26q25 -25 25 -64v-29q0 -16 -11.5 -27.5t-27.5 -11.5h-188zM238 296q-4 -15 6.5 -26.5t27.5 -11.5h32q16 0 25 11t9 27v248q-1 14 -13.5 12.5t-15.5 -15.5z" />
    <glyph glyph-name="Oslashacute" unicode="&#x1fe;" horiz-adv-x="583" 
d="M201 888q-9 0 -13.5 6.5t-0.5 14.5l61 127q4 8 16 14.5t21 6.5h85q34 0 10 -36l-75 -112q-15 -21 -30 -21h-74zM574 880q12 -6 10.5 -20.5t-13.5 -29.5l-54 -65q18 -30 20 -70l12 -235v-83l-12 -222q-2 -47 -49 -101t-92 -54h-202q-8 0 -13 1l-35 -42q-12 -14 -29.5 -21
t-28.5 -1l-66 34q-11 6 -9.5 20.5t13.5 29.5l50 60q-28 37 -30 74l-12 222v83l12 235q3 50 40 97q44 58 92 58h234h4l35 42q12 15 29.5 21t28.5 1zM361 283v271l-10 99q0 15 -12 27t-27 12h-41q-14 0 -26.5 -12t-12.5 -27l-10 -99v-271l10 -86q0 -14 12.5 -26.5t26.5 -12.5
h41q15 0 27 12.5t12 26.5z" />
    <glyph glyph-name="oslashacute" unicode="&#x1ff;" horiz-adv-x="583" 
d="M253 888q-9 0 -13.5 6.5t-0.5 14.5l61 127q4 8 16 14.5t21 6.5h85q34 0 10 -36l-75 -112q-15 -21 -30 -21h-74zM574 880q12 -6 10.5 -20.5t-13.5 -29.5l-54 -65q18 -30 20 -70l12 -235v-83l-12 -222q-2 -47 -49 -101t-92 -54h-202q-8 0 -13 1l-35 -42q-12 -14 -29.5 -21
t-28.5 -1l-66 34q-11 6 -9.5 20.5t13.5 29.5l50 60q-28 37 -30 74l-12 222v83l12 235q3 50 40 97q44 58 92 58h234h4l35 42q12 15 29.5 21t28.5 1zM361 283v271l-10 99q0 15 -12 27t-27 12h-41q-14 0 -26.5 -12t-12.5 -27l-10 -99v-271l10 -86q0 -14 12.5 -26.5t26.5 -12.5
h41q15 0 27 12.5t12 26.5z" />
    <glyph glyph-name="uni0218" unicode="&#x218;" horiz-adv-x="559" 
d="M378 584q-17 0 -28 11t-11 28v30q0 17 -11 28t-28 11h-41q-17 0 -28 -11t-11 -28v-90q0 -17 11 -28t28 -11h122q33 0 58 -27l58 -59q28 -28 28 -67v-219q0 -38 -28 -66l-58 -59q-29 -27 -49 -27h-216q-27 0 -54 27l-59 59q-27 27 -27 66v115q0 17 11 28t28 11h108
q17 0 28 -11t11 -28v-70q0 -17 11 -28t28 -11h41q17 0 28 11t11 28v130q0 17 -11 28t-28 11h-122q-33 0 -58 27l-58 59q-28 28 -28 67v179q0 38 28 66l58 59q29 27 49 27h216q27 0 54 -27l59 -59q27 -27 27 -66v-75q0 -17 -11 -28t-28 -11h-108zM231 -192q-19 3 -31.5 18
t-12.5 32v66q0 18 12.5 30t29.5 12h102q17 0 29.5 -12t12.5 -30v-66q0 -47 -30 -93q-52 -87 -75 -87q-17 0 -24 12t0 28l15 42q6 16 -2.5 30.5t-25.5 17.5z" />
    <glyph glyph-name="uni0219" unicode="&#x219;" horiz-adv-x="559" 
d="M378 563q-16 0 -27.5 11.5t-11.5 27.5v50q0 16 -11.5 27.5t-27.5 11.5h-41q-16 0 -27.5 -11.5t-11.5 -27.5v-109q0 -16 11.5 -27.5t27.5 -11.5h146q6 0 34 -28l58 -58q12 -11 20 -31t8 -36v-199q0 -16 -8 -35.5t-20 -30.5l-58 -59q-27 -27 -49 -27h-215q-29 0 -54 27
l-59 59q-28 28 -28 66v95q0 16 11.5 27.5t27.5 11.5h108q17 0 28 -11t11 -28v-50q0 -16 11.5 -27.5t27.5 -11.5h41q16 0 27.5 11.5t11.5 27.5v110q0 16 -11.5 27.5t-27.5 11.5h-135q-19 0 -44 27l-59 59q-11 10 -19 30t-8 36l-1 199q0 16 8.5 36t19.5 30l59 59q26 28 48 28
h216q26 0 54 -28l58 -59q12 -10 20 -30t8 -36v-95q0 -16 -11.5 -27.5t-27.5 -11.5h-108zM231 -192q-19 3 -31.5 18t-12.5 32v66q0 18 12.5 30t29.5 12h102q17 0 29.5 -12t12.5 -30v-66q0 -47 -30 -93q-52 -87 -75 -87q-17 0 -24 12t0 28l15 42q6 16 -2.5 30.5t-25.5 17.5z
" />
    <glyph glyph-name="uni021A" unicode="&#x21a;" horiz-adv-x="559" 
d="M525 730q0 -16 -11.5 -27.5t-27.5 -11.5h-75q-16 0 -27.5 -11.5t-11.5 -27.5v-613q0 -17 -11 -28t-28 -11h-108q-16 0 -27.5 11.5t-11.5 27.5v613q0 16 -11 27.5t-28 11.5h-74q-16 0 -27.5 11.5t-11.5 27.5v81q0 16 11.5 27.5t27.5 11.5h413q16 0 27.5 -11.5t11.5 -27.5
v-81zM231 -192q-19 3 -31.5 18t-12.5 32v66q0 18 12.5 30t29.5 12h102q17 0 29.5 -12t12.5 -30v-66q0 -47 -30 -93q-52 -87 -75 -87q-17 0 -24 12t0 28l15 42q6 16 -2.5 30.5t-25.5 17.5z" />
    <glyph glyph-name="uni021B" unicode="&#x21b;" horiz-adv-x="559" 
d="M525 730q0 -16 -11.5 -27.5t-27.5 -11.5h-75q-16 0 -27.5 -11.5t-11.5 -27.5v-613q0 -17 -11 -28t-28 -11h-108q-16 0 -27.5 11.5t-11.5 27.5v613q0 16 -11 27.5t-28 11.5h-74q-16 0 -27.5 11.5t-11.5 27.5v81q0 16 11.5 27.5t27.5 11.5h413q16 0 27.5 -11.5t11.5 -27.5
v-81zM231 -192q-19 3 -31.5 18t-12.5 32v66q0 18 12.5 30t29.5 12h102q17 0 29.5 -12t12.5 -30v-66q0 -47 -30 -93q-52 -87 -75 -87q-17 0 -24 12t0 28l15 42q6 16 -2.5 30.5t-25.5 17.5z" />
    <glyph glyph-name="circumflex" unicode="&#x2c6;" horiz-adv-x="405" 
d="M386 982q13 -7 17.5 -21.5t-2.5 -27.5l-26 -48q-7 -13 -21 -17t-28 3l-92 50q-13 7 -31.5 7t-31.5 -7l-92 -50q-14 -7 -28 -3t-21 17l-26 48q-7 13 -2.5 27.5t17.5 21.5l152 82q13 7 31.5 7t31.5 -7z" />
    <glyph glyph-name="caron" unicode="&#x2c7;" horiz-adv-x="405" 
d="M234 891q-13 -7 -31.5 -7t-31.5 7l-152 82q-13 7 -17.5 21.5t2.5 27.5l26 48q7 13 21 17t28 -3l92 -50q13 -7 31.5 -7t31.5 7l92 50q14 7 28 3t21 -17l26 -48q7 -13 2.5 -27.5t-17.5 -21.5z" />
    <glyph glyph-name="breve" unicode="&#x2d8;" horiz-adv-x="383" 
d="M227 879q-36 -4 -71 0q-32 2 -62 18q-36 19 -63 51q-29 36 -29 39q-4 14 3.5 27t21.5 17l52 14q23 6 52 -25q32 -34 61 -34q28 0 60 34q29 31 52 25l52 -14q14 -4 21.5 -17t3.5 -27q0 -3 -29 -39q-27 -31 -62 -51q-32 -16 -63 -18z" />
    <glyph glyph-name="dotaccent" unicode="&#x2d9;" horiz-adv-x="158" 
d="M116 1058q17 0 29.5 -12.5t12.5 -30.5v-84q0 -17 -12.5 -30t-29.5 -13h-74q-17 0 -29.5 13t-12.5 30v84q0 18 12.5 30.5t29.5 12.5h74z" />
    <glyph glyph-name="ring" unicode="&#x2da;" horiz-adv-x="286" 
d="M175 1135q43 -19 77 -53.5t34 -74.5t-34 -74.5t-77 -53.5q-33 -16 -65 0q-42 19 -76 53.5t-34 74.5t34 74.5t76 53.5q33 14 65 0zM143 972q14 0 24.5 10t10.5 25q0 14 -10.5 24.5t-24.5 10.5q-15 0 -25 -10.5t-10 -24.5q0 -15 10 -25t25 -10z" />
    <glyph glyph-name="ogonek" unicode="&#x2db;" horiz-adv-x="291" 
d="M85 51h116v-128q0 -14 -10 -22.5t-25 -8.5h-55q-62 0 -62 -35q0 -21 21.5 -32t44.5 -10l87 6q14 1 25 -9t11 -25l1 -35q0 -15 -10.5 -26t-25.5 -11l-123 -3q-37 0 -64 23l-41 35q-20 17 -27.5 36.5t-7.5 54.5q0 40 30.5 78t78.5 38q13 0 18 0.5t10 3.5t6.5 10t1.5 19v41z
" />
    <glyph glyph-name="tilde" unicode="&#x2dc;" horiz-adv-x="446" 
d="M347 897q-31 -15 -67 -6l-112 30q-34 9 -66 -8l-24 -13q-14 -7 -28 -2.5t-21 17.5l-25 48q-7 13 -2.5 27.5t17.5 21.5l67 36q32 16 67 7l115 -31q35 -9 67 7l36 17q13 6 27.5 0.5t20.5 -18.5l23 -49q7 -13 2 -27t-19 -20z" />
    <glyph glyph-name="hungarumlaut" unicode="&#x2dd;" horiz-adv-x="404" 
d="M53 1067q4 8 16 14.5t21 6.5h101q18 0 4 -21l-85 -158q-15 -21 -30 -21h-64q-9 0 -13.5 6.5t-0.5 14.5zM246 1067q4 8 16 14.5t21 6.5h111q18 0 4 -21l-125 -158q-15 -21 -30 -21h-74q-9 0 -13.5 6.5t-0.5 14.5z" />
    <glyph glyph-name="gravecomb" unicode="&#x300;" horiz-adv-x="0" 
d="M-100 1036l61 -127q4 -8 -0.5 -14.5t-13.5 -6.5h-74q-15 0 -30 21l-75 112q-24 36 10 36h85q9 0 21 -6.5t16 -14.5z" />
    <glyph glyph-name="acutecomb" unicode="&#x301;" horiz-adv-x="0" 
d="M-68 1036q4 8 16 14.5t21 6.5h85q34 0 10 -36l-75 -112q-15 -21 -30 -21h-74q-9 0 -13.5 6.5t-0.5 14.5z" />
    <glyph glyph-name="uni0302" unicode="&#x302;" horiz-adv-x="0" 
d="M-99 992q13 -7 17.5 -21.5t-2.5 -27.5l-26 -48q-7 -13 -21 -17t-28 3l-92 50q-13 7 -31.5 7t-31.5 -7l-92 -50q-14 -7 -28 -3t-21 17l-26 48q-7 13 -2.5 27.5t17.5 21.5l152 82q13 7 31.5 7t31.5 -7z" />
    <glyph glyph-name="tildecomb" unicode="&#x303;" horiz-adv-x="0" 
d="M-134 897q-31 -15 -67 -6l-112 30q-34 9 -66 -8l-24 -13q-14 -7 -28 -2.5t-21 17.5l-25 48q-7 13 -2.5 27.5t17.5 21.5l67 36q32 16 67 7l115 -31q35 -9 67 7l36 17q13 6 27.5 0.5t20.5 -18.5l23 -49q7 -13 2 -27t-19 -20z" />
    <glyph glyph-name="uni0304" unicode="&#x304;" horiz-adv-x="0" 
d="M38 1038q17 0 29.5 -12.5t12.5 -30.5v-44q0 -17 -12.5 -30t-29.5 -13h-234q-17 0 -29.5 13t-12.5 30v44q0 18 12.5 30.5t29.5 12.5h234z" />
    <glyph glyph-name="uni0306" unicode="&#x306;" horiz-adv-x="0" 
d="M-238 879q-35 -4 -71 0q-32 2 -62 18q-36 19 -63 51q-29 36 -29 39q-4 14 3.5 27t21.5 17l52 14q23 6 52 -25q32 -34 61 -34q28 0 60 34q29 31 52 25l52 -14q14 -4 21.5 -17t3.5 -27q0 -3 -29 -39q-27 -31 -62 -51q-31 -16 -63 -18z" />
    <glyph glyph-name="uni0307" unicode="&#x307;" horiz-adv-x="0" 
d="M-42 1058q17 0 29.5 -12.5t12.5 -30.5v-84q0 -17 -12.5 -30t-29.5 -13h-74q-17 0 -29.5 13t-12.5 30v84q0 18 12.5 30.5t29.5 12.5h74z" />
    <glyph glyph-name="uni0308" unicode="&#x308;" horiz-adv-x="0" 
d="M-178 1058q17 0 29.5 -12.5t12.5 -30.5v-84q0 -17 -12.5 -30t-29.5 -13h-73q-17 0 -30 13t-13 30v84q0 18 13 30.5t30 12.5h73zM32 1058q17 0 29.5 -12.5t12.5 -30.5v-84q0 -17 -12.5 -30t-29.5 -13h-74q-17 0 -29.5 13t-12.5 30v84q0 18 12.5 30.5t29.5 12.5h74z" />
    <glyph glyph-name="uni030A" unicode="&#x30a;" horiz-adv-x="0" 
d="M8 997q0 -61 -36 -91.5t-115 -30.5q-85 0 -118 29.5t-33 92.5t34 92t117 29q85 0 118 -29.5t33 -91.5zM-143 962q14 0 24.5 10t10.5 25q0 14 -10.5 24.5t-24.5 10.5q-15 0 -25 -10.5t-10 -24.5q0 -15 10 -25t25 -10z" />
    <glyph glyph-name="uni030B" unicode="&#x30b;" horiz-adv-x="0" 
d="M-236 1036q4 8 16 14.5t21 6.5h85q34 0 10 -36l-75 -112q-15 -21 -30 -21h-74q-9 0 -13.5 6.5t-0.5 14.5zM-59 1036q4 8 16 14.5t21 6.5h85q34 0 10 -36l-75 -112q-15 -21 -30 -21h-74q-9 0 -13.5 6.5t-0.5 14.5z" />
    <glyph glyph-name="uni030C" unicode="&#x30c;" horiz-adv-x="0" 
d="M-261 891q-13 -7 -31.5 -7t-31.5 7l-152 82q-13 7 -17.5 21.5t2.5 27.5l26 48q7 13 21 17t28 -3l92 -50q13 -7 31.5 -7t31.5 7l92 50q14 7 28 3t21 -17l26 -48q7 -13 2.5 -27.5t-17.5 -21.5z" />
    <glyph glyph-name="uni0312" unicode="&#x312;" horiz-adv-x="0" 
d="M-155 1058q17 3 25.5 17.5t2.5 30.5l-15 42q-7 16 0 28t24 12q23 0 75 -87q30 -46 30 -93v-116q0 -18 -12.5 -30t-29.5 -12h-102q-17 0 -29.5 12t-12.5 30v116q0 17 12.5 32t31.5 18z" />
    <glyph glyph-name="uni0326" unicode="&#x326;" horiz-adv-x="0" 
d="M-155 -192q-19 3 -31.5 18t-12.5 32v66q0 18 12.5 30t29.5 12h102q17 0 29.5 -12t12.5 -30v-66q0 -47 -30 -93q-52 -87 -75 -87q-17 0 -24 12t0 28l15 42q6 16 -2.5 30.5t-25.5 17.5z" />
    <glyph glyph-name="uni0327" unicode="&#x327;" horiz-adv-x="0" 
d="M-91 51v-41q0 -23 6.5 -28t29.5 -5q48 0 78.5 -38t30.5 -78q0 -35 -7.5 -54.5t-27.5 -36.5l-41 -35q-27 -23 -64 -23l-123 3q-15 0 -25.5 11t-10.5 26l1 35q0 15 11 25t25 9l87 -6q23 -1 44.5 10t21.5 32q0 35 -62 35h-55q-15 0 -25 8.5t-10 22.5v128h116z" />
    <glyph glyph-name="uni0328" unicode="&#x328;" horiz-adv-x="0" 
d="M-206 51h116v-128q0 -14 -10 -22.5t-25 -8.5h-55q-62 0 -62 -35q0 -21 21.5 -32t44.5 -10l87 6q14 1 25 -9t11 -25l1 -35q0 -15 -10.5 -26t-25.5 -11l-123 -3q-37 0 -64 23l-41 35q-20 17 -27.5 36.5t-7.5 54.5q0 40 30.5 78t78.5 38q13 0 18 0.5t10 3.5t6.5 10t1.5 19
v41z" />
    <glyph glyph-name="Wgrave" unicode="&#x1e80;" horiz-adv-x="862" 
d="M424 1036l61 -127q4 -8 -0.5 -14.5t-13.5 -6.5h-74q-15 0 -30 21l-75 112q-24 36 10 36h85q9 0 21 -6.5t16 -14.5zM788 850q16 0 28 -11.5t12 -27.5v-219q0 -39 -9 -77l-95 -477q-3 -16 -12 -27t-18 -11h-184q-9 0 -18.5 11t-13.5 26l-37 136q-5 15 -10.5 15t-9.5 -15
l-37 -136q-5 -15 -14 -26t-19 -11h-184q-9 0 -17.5 11t-11.5 27l-96 477q-8 34 -8 77v219q0 16 11.5 27.5t27.5 11.5h108q16 0 27.5 -11.5t11.5 -27.5v-195q0 -36 8 -78l35 -186q3 -16 8 -16t9 15l48 188q9 38 9 77v194q0 17 11.5 28.5t28.5 11.5h107q17 0 28.5 -11.5
t11.5 -28.5v-194q0 -42 10 -77l47 -188q4 -15 9.5 -15t7.5 16l36 186q7 37 7 78v195q0 16 11.5 27.5t27.5 11.5h108z" />
    <glyph glyph-name="wgrave" unicode="&#x1e81;" horiz-adv-x="862" 
d="M424 1036l61 -127q4 -8 -0.5 -14.5t-13.5 -6.5h-74q-15 0 -30 21l-75 112q-24 36 10 36h85q9 0 21 -6.5t16 -14.5zM788 850q16 0 28 -11.5t12 -27.5v-219q0 -39 -9 -77l-95 -477q-3 -16 -12 -27t-18 -11h-184q-9 0 -18.5 11t-13.5 26l-37 136q-5 15 -10.5 15t-9.5 -15
l-37 -136q-5 -15 -14 -26t-19 -11h-184q-9 0 -17.5 11t-11.5 27l-96 477q-8 34 -8 77v219q0 16 11.5 27.5t27.5 11.5h108q16 0 27.5 -11.5t11.5 -27.5v-195q0 -36 8 -78l35 -186q3 -16 8 -16t9 15l48 188q9 38 9 77v194q0 17 11.5 28.5t28.5 11.5h107q17 0 28.5 -11.5
t11.5 -28.5v-194q0 -42 10 -77l47 -188q4 -15 9.5 -15t7.5 16l36 186q7 37 7 78v195q0 16 11.5 27.5t27.5 11.5h108z" />
    <glyph glyph-name="Wacute" unicode="&#x1e82;" horiz-adv-x="862" 
d="M439 1036q4 8 16 14.5t21 6.5h85q34 0 10 -36l-75 -112q-15 -21 -30 -21h-74q-9 0 -13.5 6.5t-0.5 14.5zM788 850q16 0 28 -11.5t12 -27.5v-219q0 -39 -9 -77l-95 -477q-3 -16 -12 -27t-18 -11h-184q-9 0 -18.5 11t-13.5 26l-37 136q-5 15 -10.5 15t-9.5 -15l-37 -136
q-5 -15 -14 -26t-19 -11h-184q-9 0 -17.5 11t-11.5 27l-96 477q-8 34 -8 77v219q0 16 11.5 27.5t27.5 11.5h108q16 0 27.5 -11.5t11.5 -27.5v-195q0 -36 8 -78l35 -186q3 -16 8 -16t9 15l48 188q9 38 9 77v194q0 17 11.5 28.5t28.5 11.5h107q17 0 28.5 -11.5t11.5 -28.5
v-194q0 -42 10 -77l47 -188q4 -15 9.5 -15t7.5 16l36 186q7 37 7 78v195q0 16 11.5 27.5t27.5 11.5h108z" />
    <glyph glyph-name="wacute" unicode="&#x1e83;" horiz-adv-x="862" 
d="M439 1036q4 8 16 14.5t21 6.5h85q34 0 10 -36l-75 -112q-15 -21 -30 -21h-74q-9 0 -13.5 6.5t-0.5 14.5zM788 850q16 0 28 -11.5t12 -27.5v-219q0 -39 -9 -77l-95 -477q-3 -16 -12 -27t-18 -11h-184q-9 0 -18.5 11t-13.5 26l-37 136q-5 15 -10.5 15t-9.5 -15l-37 -136
q-5 -15 -14 -26t-19 -11h-184q-9 0 -17.5 11t-11.5 27l-96 477q-8 34 -8 77v219q0 16 11.5 27.5t27.5 11.5h108q16 0 27.5 -11.5t11.5 -27.5v-195q0 -36 8 -78l35 -186q3 -16 8 -16t9 15l48 188q9 38 9 77v194q0 17 11.5 28.5t28.5 11.5h107q17 0 28.5 -11.5t11.5 -28.5
v-194q0 -42 10 -77l47 -188q4 -15 9.5 -15t7.5 16l36 186q7 37 7 78v195q0 16 11.5 27.5t27.5 11.5h108z" />
    <glyph glyph-name="Wdieresis" unicode="&#x1e84;" horiz-adv-x="862" 
d="M363 1058q17 0 29.5 -12.5t12.5 -30.5v-84q0 -17 -12.5 -30t-29.5 -13h-73q-17 0 -30 13t-13 30v84q0 18 13 30.5t30 12.5h73zM573 1058q17 0 29.5 -12.5t12.5 -30.5v-84q0 -17 -12.5 -30t-29.5 -13h-74q-17 0 -29.5 13t-12.5 30v84q0 18 12.5 30.5t29.5 12.5h74z
M788 850q16 0 28 -11.5t12 -27.5v-219q0 -39 -9 -77l-95 -477q-3 -16 -12 -27t-18 -11h-184q-9 0 -18.5 11t-13.5 26l-37 136q-5 15 -10.5 15t-9.5 -15l-37 -136q-5 -15 -14 -26t-19 -11h-184q-9 0 -17.5 11t-11.5 27l-96 477q-8 34 -8 77v219q0 16 11.5 27.5t27.5 11.5h108
q16 0 27.5 -11.5t11.5 -27.5v-195q0 -36 8 -78l35 -186q3 -16 8 -16t9 15l48 188q9 38 9 77v194q0 17 11.5 28.5t28.5 11.5h107q17 0 28.5 -11.5t11.5 -28.5v-194q0 -42 10 -77l47 -188q4 -15 9.5 -15t7.5 16l36 186q7 37 7 78v195q0 16 11.5 27.5t27.5 11.5h108z" />
    <glyph glyph-name="wdieresis" unicode="&#x1e85;" horiz-adv-x="862" 
d="M363 1058q17 0 29.5 -12.5t12.5 -30.5v-84q0 -17 -12.5 -30t-29.5 -13h-73q-17 0 -30 13t-13 30v84q0 18 13 30.5t30 12.5h73zM573 1058q17 0 29.5 -12.5t12.5 -30.5v-84q0 -17 -12.5 -30t-29.5 -13h-74q-17 0 -29.5 13t-12.5 30v84q0 18 12.5 30.5t29.5 12.5h74z
M788 850q16 0 28 -11.5t12 -27.5v-219q0 -39 -9 -77l-95 -477q-3 -16 -12 -27t-18 -11h-184q-9 0 -18.5 11t-13.5 26l-37 136q-5 15 -10.5 15t-9.5 -15l-37 -136q-5 -15 -14 -26t-19 -11h-184q-9 0 -17.5 11t-11.5 27l-96 477q-8 34 -8 77v219q0 16 11.5 27.5t27.5 11.5h108
q16 0 27.5 -11.5t11.5 -27.5v-195q0 -36 8 -78l35 -186q3 -16 8 -16t9 15l48 188q9 38 9 77v194q0 17 11.5 28.5t28.5 11.5h107q17 0 28.5 -11.5t11.5 -28.5v-194q0 -42 10 -77l47 -188q4 -15 9.5 -15t7.5 16l36 186q7 37 7 78v195q0 16 11.5 27.5t27.5 11.5h108z" />
    <glyph glyph-name="Ygrave" unicode="&#x1ef2;" horiz-adv-x="541" 
d="M264 1036l61 -127q4 -8 -0.5 -14.5t-13.5 -6.5h-74q-15 0 -30 21l-75 112q-24 36 10 36h85q9 0 21 -6.5t16 -14.5zM477 850q16 0 24 -11t3 -26l-128 -407q-12 -34 -12 -76v-291q0 -16 -11.5 -27.5t-27.5 -11.5h-108q-17 0 -28 11t-11 28v291q0 36 -12 76l-129 407
q-5 15 3 26t24 11h108q16 0 30.5 -11t19.5 -27l38 -139q4 -15 10 -15t10 15l40 139q4 16 18.5 27t30.5 11h108z" />
    <glyph glyph-name="ygrave" unicode="&#x1ef3;" horiz-adv-x="541" 
d="M264 1036l61 -127q4 -8 -0.5 -14.5t-13.5 -6.5h-74q-15 0 -30 21l-75 112q-24 36 10 36h85q9 0 21 -6.5t16 -14.5zM477 850q16 0 24 -11t3 -26l-128 -407q-12 -34 -12 -76v-291q0 -16 -11.5 -27.5t-27.5 -11.5h-108q-17 0 -28 11t-11 28v291q0 36 -12 76l-129 407
q-5 15 3 26t24 11h108q16 0 30.5 -11t19.5 -27l38 -139q4 -15 10 -15t10 15l40 139q4 16 18.5 27t30.5 11h108z" />
    <glyph glyph-name="endash" unicode="&#x2013;" horiz-adv-x="592" 
d="M518 518q16 0 28 -11.5t12 -27.5v-108q0 -17 -12 -28.5t-28 -11.5h-445q-16 0 -27.5 11.5t-11.5 28.5v108q0 16 11.5 27.5t27.5 11.5h445z" />
    <glyph glyph-name="emdash" unicode="&#x2014;" horiz-adv-x="794" 
d="M721 518q16 0 27.5 -11.5t11.5 -27.5v-108q0 -16 -11.5 -28t-27.5 -12h-648q-16 0 -27.5 11.5t-11.5 28.5v108q0 16 11.5 27.5t27.5 11.5h648z" />
    <glyph glyph-name="quoteleft" unicode="&#x2018;" horiz-adv-x="220" 
d="M159 720q19 -3 31.5 -18t12.5 -32v-116q0 -18 -12.5 -30t-29.5 -12h-102q-17 0 -29.5 12t-12.5 30v116q0 47 30 93q52 87 75 87q17 0 24 -12t0 -28l-15 -42q-6 -16 2.5 -30.5t25.5 -17.5z" />
    <glyph glyph-name="quoteright" unicode="&#x2019;" horiz-adv-x="220" 
d="M61 642q-19 3 -31.5 18t-12.5 32v116q0 18 12.5 30t29.5 12h102q17 0 29.5 -12t12.5 -30v-116q0 -47 -30 -93q-52 -87 -75 -87q-17 0 -24 12t0 28l15 42q6 16 -2.5 30.5t-25.5 17.5z" />
    <glyph glyph-name="quotesinglbase" unicode="&#x201a;" horiz-adv-x="220" 
d="M61 0q-19 3 -31.5 18t-12.5 32v116q0 18 12.5 30t29.5 12h102q17 0 29.5 -12t12.5 -30v-116q0 -47 -30 -93q-52 -87 -75 -87q-17 0 -24 12t0 28l15 42q6 16 -2.5 30.5t-25.5 17.5z" />
    <glyph glyph-name="quotedblleft" unicode="&#x201c;" horiz-adv-x="467" 
d="M159 720q19 -3 31.5 -18t12.5 -32v-116q0 -18 -12.5 -30t-29.5 -12h-102q-17 0 -29.5 12t-12.5 30v116q0 47 30 93q52 87 75 87q17 0 24 -12t0 -28l-15 -42q-6 -16 2.5 -30.5t25.5 -17.5zM406 720q19 -3 31.5 -18t12.5 -32v-116q0 -18 -12.5 -30t-29.5 -12h-102
q-17 0 -29.5 12t-12.5 30v116q0 47 30 93q52 87 75 87q17 0 24 -12t0 -28l-15 -42q-6 -16 2.5 -30.5t25.5 -17.5z" />
    <glyph glyph-name="quotedblright" unicode="&#x201d;" horiz-adv-x="467" 
d="M61 642q-19 3 -31.5 18t-12.5 32v116q0 18 12.5 30t29.5 12h102q17 0 29.5 -12t12.5 -30v-116q0 -47 -30 -93q-52 -87 -75 -87q-17 0 -24 12t0 28l15 42q6 16 -2.5 30.5t-25.5 17.5zM308 642q-19 3 -31.5 18t-12.5 32v116q0 18 12.5 30t29.5 12h102q17 0 29.5 -12
t12.5 -30v-116q0 -47 -30 -93q-52 -87 -75 -87q-17 0 -24 12t0 28l15 42q6 16 -2.5 30.5t-25.5 17.5z" />
    <glyph glyph-name="quotedblbase" unicode="&#x201e;" horiz-adv-x="454" 
d="M61 0q-19 3 -31.5 18t-12.5 32v116q0 18 12.5 30t29.5 12h102q17 0 29.5 -12t12.5 -30v-116q0 -47 -30 -93q-52 -87 -75 -87q-17 0 -24 12t0 28l15 42q6 16 -2.5 30.5t-25.5 17.5zM291 0q-19 3 -32 17.5t-13 32.5v116q0 18 12.5 30t30.5 12h101q18 0 30.5 -12t12.5 -30
v-116q0 -47 -30 -93q-52 -87 -76 -87q-16 0 -23 12t-1 28l16 42q5 17 -3 31t-25 17z" />
    <glyph glyph-name="bullet" unicode="&#x2022;" horiz-adv-x="293" 
d="M276 427q0 -54 -38 -92t-91 -38t-91.5 38t-38.5 92t38.5 92t91.5 38t91 -38t38 -92z" />
    <glyph glyph-name="guilsinglleft" unicode="&#x2039;" horiz-adv-x="466" 
d="M317 133q-6 4 -73 52l-129 92t-66 48q-9 9 -9 21t12 20l265 189q20 13 34 0l47 -47q8 -6 8 -17t-8 -18l-158 -129l158 -129q8 -7 8 -17t-8 -17l-47 -48q-17 -15 -34 0z" />
    <glyph glyph-name="guilsinglright" unicode="&#x203a;" horiz-adv-x="466" 
d="M149 133q-17 -15 -34 0l-47 48q-8 7 -8 17t8 17l158 129l-158 129q-8 7 -8 18t8 17l47 47q14 13 34 0l265 -189q12 -8 12 -20t-9 -21q-4 -4 -66 -48l-129 -92t-73 -52z" />
    <glyph glyph-name="fraction" unicode="&#x2044;" horiz-adv-x="502" 
d="M352 850h102q17 0 25.5 -12t2.5 -28l-276 -770q-6 -16 -23 -28t-34 -12h-101q-18 0 -26 12t-3 28l276 770q7 17 23.5 28.5t33.5 11.5z" />
    <glyph glyph-name="Euro" unicode="&#x20ac;" horiz-adv-x="525" 
d="M377 605q-16 0 -27.5 11.5t-11.5 27.5v9q0 16 -11.5 27.5t-27.5 11.5h-40q-16 0 -27.5 -11.5t-11.5 -27.5v-78h189q16 0 27.5 -11.5t11.5 -27.5v-63q0 -16 -11.5 -27.5t-27.5 -11.5h-189v-22h189q16 0 27.5 -11.5t11.5 -27.5v-62q0 -16 -11.5 -28t-27.5 -12h-189v-74
q0 -16 11.5 -27.5t27.5 -11.5h40q16 0 27.5 11.5t11.5 27.5v10q0 16 11.5 27.5t27.5 11.5h108q16 0 27.5 -11.5t11.5 -27.5v-93q0 -16 -7.5 -36t-19.5 -31l-19 -19q-30 -28 -67 -28h-263q-39 0 -67 28l-20 19q-11 11 -19 31t-8 36v157h-33q-16 0 -27.5 11.5t-11.5 28.5v62
q0 16 11.5 27.5t27.5 11.5h33v22h-33q-16 0 -27.5 11.5t-11.5 27.5v63q0 16 11.5 27.5t27.5 11.5h33v162q0 39 27 66l20 20q27 27 67 27h263q38 0 67 -27l19 -20q27 -25 27 -66v-93q0 -16 -11 -27.5t-28 -11.5h-108z" />
    <glyph glyph-name="trademark" unicode="&#x2122;" horiz-adv-x="1333" 
d="M525 730q0 -16 -11.5 -27.5t-27.5 -11.5h-75q-16 0 -27.5 -11.5t-11.5 -27.5v-613q0 -17 -11 -28t-28 -11h-108q-16 0 -27.5 11.5t-11.5 27.5v613q0 16 -11 27.5t-28 11.5h-74q-16 0 -27.5 11.5t-11.5 27.5v81q0 16 11.5 27.5t27.5 11.5h413q16 0 27.5 -11.5t11.5 -27.5
v-81zM1267 850q14 0 23 -11t9 -28v-772q0 -17 -11.5 -28t-28.5 -11h-108q-17 0 -28 11t-11 28v352q0 16 -7 14q-7 -1 -10 -15l-70 -323q-4 -17 -18 -27.5t-32 -10.5h-75q-17 0 -30.5 11t-17.5 27l-75 332q-2 10 -6.5 13.5t-8 -0.5t-3.5 -13v-360q0 -17 -11 -28t-28 -11h-108
q-17 0 -28 11t-11 28v772q0 17 8.5 28t22.5 11h204q16 0 30 -11t17 -27l66 -339q4 -18 15.5 -18t15.5 18l65 339q3 16 17 27t30 11h203z" />
    <glyph glyph-name="arrowleft" unicode="&#x2190;" horiz-adv-x="845" 
d="M717 496q16 0 27.5 -9t11.5 -21v-80q0 -12 -11.5 -21t-27.5 -9h-449l53 -54q10 -11 4.5 -26.5t-18.5 -22.5l-48 -26q-27 -14 -49 15l-122 152q-10 12 -10 31.5t10 31.5l122 152q22 29 49 15l48 -26q13 -7 18.5 -22.5t-4.5 -26.5l-52 -53h448z" />
    <glyph glyph-name="arrowup" unicode="&#x2191;" horiz-adv-x="845" 
d="M606 638q29 -22 15 -49l-26 -48q-7 -13 -22.5 -18.5t-26.5 4.5l-53 52v-448q0 -16 -9 -27.5t-21 -11.5h-80q-12 0 -21 11.5t-9 27.5v449l-54 -53q-11 -10 -26.5 -4.5t-22.5 18.5l-26 48q-14 27 15 49l152 122q12 10 31.5 10t31.5 -10z" />
    <glyph glyph-name="arrowright" unicode="&#x2192;" horiz-adv-x="845" 
d="M757 457q10 -12 10 -31.5t-10 -31.5l-122 -152q-22 -29 -49 -15l-48 26q-13 7 -18.5 22.5t4.5 26.5l52 53h-448q-16 0 -27.5 9t-11.5 21v80q0 12 11.5 21t27.5 9h449l-53 54q-10 11 -4.5 26.5t18.5 22.5l48 26q27 14 49 -15z" />
    <glyph glyph-name="arrowdown" unicode="&#x2193;" horiz-adv-x="845" 
d="M621 261q14 -27 -15 -49l-152 -122q-12 -10 -31.5 -10t-31.5 10l-152 122q-29 22 -15 49l26 48q7 13 22.5 18.5t26.5 -4.5l54 -53v449q0 16 9 27.5t21 11.5h80q12 0 21 -11.5t9 -27.5v-448l53 52q11 10 26.5 4.5t22.5 -18.5z" />
    <glyph glyph-name="arrowboth" unicode="&#x2194;" horiz-adv-x="845" 
d="M757 457q10 -12 10 -31.5t-10 -31.5l-122 -152q-22 -29 -49 -15l-48 26q-13 7 -18.5 22.5t4.5 26.5l52 53h-308l53 -54q10 -11 4.5 -26.5t-18.5 -22.5l-48 -26q-27 -14 -49 15l-122 152q-10 12 -10 31.5t10 31.5l122 152q22 29 49 15l48 -26q13 -7 18.5 -22.5t-4.5 -26.5
l-52 -53h308l-53 54q-10 11 -4.5 26.5t18.5 22.5l48 26q27 14 49 -15z" />
    <glyph glyph-name="arrowupdn" unicode="&#x2195;" horiz-adv-x="845" 
d="M621 262q14 -27 -15 -49l-152 -122q-12 -10 -31.5 -10t-31.5 10l-152 122q-29 22 -15 49l26 48q7 13 22.5 18.5t26.5 -4.5l53 -52v308l-54 -53q-11 -10 -26.5 -4.5t-22.5 18.5l-26 48q-14 27 15 49l152 122q12 10 31.5 10t31.5 -10l152 -122q29 -22 15 -49l-26 -48
q-7 -13 -22.5 -18.5t-26.5 4.5l-53 52v-308l54 53q11 10 26.5 4.5t22.5 -18.5z" />
    <glyph glyph-name="uni2196" unicode="&#x2196;" horiz-adv-x="845" 
d="M680 267q11 -11 13 -25.5t-7 -23.5l-56 -56q-9 -8 -23.5 -6.5t-25.5 12.5l-317 317l-1 -75q0 -14 -15 -21.5t-30 -3.5l-52 16q-29 10 -24 45l21 194q2 15 15.5 29t29.5 15l193 22q37 3 46 -24l15 -53q5 -14 -3 -29t-22 -15l-74 -1z" />
    <glyph glyph-name="uni2197" unicode="&#x2197;" horiz-adv-x="845" 
d="M703 446q3 -37 -24 -46l-53 -15q-14 -5 -29 3t-15 22l-1 74l-317 -317q-11 -11 -25.5 -13t-23.5 7l-56 56q-8 9 -6.5 23.5t12.5 25.5l317 317l-75 1q-14 0 -21.5 15t-3.5 30l16 52q10 29 45 24l194 -21q15 -2 29 -15.5t15 -29.5z" />
    <glyph glyph-name="uni2198" unicode="&#x2198;" horiz-adv-x="845" 
d="M679 450q29 -10 24 -45l-21 -194q-2 -15 -15.5 -29t-29.5 -15l-193 -22q-37 -3 -46 24l-15 53q-5 14 3 29t22 15l74 1l-317 317q-11 11 -13 25.5t7 23.5l56 56q9 8 23.5 6.5t25.5 -12.5l317 -317l1 75q0 14 15 21.5t30 3.5z" />
    <glyph glyph-name="uni2199" unicode="&#x2199;" horiz-adv-x="845" 
d="M687 633q8 -9 6.5 -23.5t-12.5 -25.5l-317 -317l75 -1q14 0 21.5 -15t3.5 -30l-16 -52q-10 -29 -45 -24l-194 21q-15 2 -29 15.5t-15 29.5l-22 193q-3 37 24 46l53 15q14 5 29 -3t15 -22l1 -74l317 317q11 11 25.5 13t23.5 -7z" />
    <glyph glyph-name="minus" unicode="&#x2212;" horiz-adv-x="476" 
d="M420 518q16 0 27.5 -11.5t11.5 -27.5v-108q0 -16 -11.5 -28t-27.5 -12h-364q-16 0 -27.5 11.5t-11.5 28.5v108q0 16 11.5 27.5t27.5 11.5h364z" />
    <glyph glyph-name="i.loclTRK" horiz-adv-x="254" 
d="M164 1058q17 0 29.5 -12.5t12.5 -30.5v-84q0 -17 -12.5 -30t-29.5 -13h-74q-17 0 -29.5 13t-12.5 30v84q0 18 12.5 30.5t29.5 12.5h74zM220 39q0 -16 -11.5 -27.5t-27.5 -11.5h-108q-16 0 -27.5 11.5t-11.5 27.5v772q0 16 11.5 27.5t27.5 11.5h108q16 0 27.5 -11.5
t11.5 -27.5v-772z" />
    <glyph glyph-name="percent" horiz-adv-x="796" 
d="M326 810q21 -27 21 -59v-221q0 -33 -21 -58l-12 -15q-21 -25 -48 -25h-168q-12 0 -26 7.5t-22 17.5l-13 15q-20 24 -20 58v221q0 34 20 59l13 15q8 10 22 17.5t26 7.5h168q27 0 48 -25zM666 850q17 0 23.5 -12t-2.5 -28l-410 -770q-9 -16 -28 -28t-36 -12h-81
q-18 0 -24 12t2 28l408 770q9 17 27.5 28.5t35.5 11.5h85zM221 647q0 32 -6 54q-7 20 -33 20t-33 -20q-6 -17 -6 -54v-11q0 -38 6 -55q7 -21 33 -21t33 21q6 22 6 55v11zM758 378q21 -23 21 -58v-221q0 -35 -21 -59l-12 -15q-8 -10 -22 -17.5t-25 -7.5h-169q-11 0 -25 7.5
t-22 17.5l-13 15q-20 25 -20 59v221q0 34 20 58l13 16q20 24 47 24h169q27 0 47 -24zM654 215q0 21 -6 54q-8 20 -33 20q-26 0 -34 -20q-6 -22 -6 -54v-11q0 -34 6 -54q8 -22 34 -22q25 0 33 22q6 30 6 54v11z" />
    <glyph glyph-name="null" horiz-adv-x="874" 
d="M803 632q4 -30 -26 -41q-29 -10 -44 9q-8 10 -5 27q9 1 13 -13t11 -15q29 1 39 28q-4 11 -17 20.5t-21.5 21.5t-4.5 33q22 12 53.5 10.5t37.5 -25.5q-7 0 -22.5 5.5t-27 7.5t-29.5 -6q-2 -24 20 -36.5t23 -25.5zM693 603q-5 -8 -10.5 -12.5t-12 -4t-12.5 2.5t-13.5 7.5
l-12 9t-10.5 10t-8 7.5q-3 15 12 12q-6 44 28 64q30 17 52 -4q18 -17 15 -52q-4 0 -4 -8q-26 -20 -71 -20q-1 -21 47 -12zM551 568q-23 12 -24 59.5t12 71.5h12q-7 -20 -11 -41.5t-1 -46t19 -31.5q12 -2 35 3.5t33 0.5q-5 -6 -14.5 -9.5t-17 -4.5t-23 -1.5t-20.5 -0.5z
M693 694q-32 4 -43.5 -14t-12.5 -53q34 -3 68 16q2 39 -12 51zM164 541q6 -40 -37 -59q-40 -17 -70 2q-24 16 -20 48q7 -6 15 -19.5t16.5 -20.5t24.5 -7q19 -1 39 15t20 32q0 19 -23 29.5t-49 14t-46 15t-16 32.5q3 17 32.5 30.5t60.5 12t37 -22.5q-17 6 -41 6.5t-46.5 -9
t-27.5 -29.5q10 -13 32 -20.5t42 -9.5t37 -11.5t20 -28.5zM412 572q-7 13 -41 29t-38 38q6 15 31.5 22.5t35.5 -10.5q-26 3 -51 -12q3 -14 15.5 -23t26 -12t25 -11t12.5 -21q3 -30 -33 -41q-35 -11 -54 8q-13 13 -4 36q3 -20 18.5 -30.5t32.5 -3.5t24 31zM282 532
q-24 1 -36 46t8 69q-2 -82 24 -99q17 2 24 16t7 29.5t-2 36.5t-1 29q23 -25 14 -76t-38 -51zM195 529q-30 2 -33 44q-3 39 20 60q22 21 53 -10q9 -35 -2 -66t-38 -28zM179 615q-7 -19 -3 -46t23 -28q18 6 25.5 28.5t-1.5 45.5q-33 3 -44 0zM839 520q28 -26 12 -72.5
t-55 -41.5q-32 4 -33 28q-1 25 25 38q25 14 55 -3q1 49 -31 51q-18 2 -33 -20.5t-23 -26.5q5 41 34 55t49 -8zM748 422q-6 -9 -19.5 -12.5t-33.5 -4.5t-29 -3q-7 8 -8 21t1.5 24.5l5.5 26.5t4 23q4 1 7 -1.5t5 -2.5q0 -10 -8.5 -40t0.5 -39q12 0 35 5t40 3zM507 382
q9 0 14 2.5t10.5 9t7.5 8.5q-3 17 -29 28.5t-26 26.5q0 18 18.5 25.5t38 -0.5t22.5 -29q-5 1 -19.5 12t-31.5 8q-13 -6 -12 -16q4 -13 28 -25t23 -30q-1 -16 -18.5 -26t-35.5 -4t-21 30q7 5 15 -7.5t16 -12.5zM388 426q2 40 34 54q29 13 46 -11q12 -18 8 -51
q-9 -12 -29.5 -12t-37.5 4q-2 -15 8 -20t22 -3t21 -1q-10 -12 -20 -15t-23.5 7t-16.5 13.5l-16 19.5l-3 3q-9 -4 -13 -26t-14 -25q-40 24 -48 114q14 -10 23 -47t20 -48q12 13 20.5 52t11.5 47q12 -5 4 -28t3 -27zM242 465q0 -17 -6.5 -29t-19 -23.5t-17.5 -18.5
q0 -12 10.5 -33.5t5.5 -33.5q-14 2 -19.5 33t-23.5 30q11 15 8.5 22.5t-10 23.5t-6.5 29q12 -5 28.5 3t25.5 11t24 -14zM448 473q-6 3 -11.5 0.5t-9 -2.5t-7 -4.5t-5 -6t-3.5 -7.5t-2.5 -8.5t-2 -9.5t-2.5 -9q36 -17 59 0q1 22 -16 47zM294 402q-9 10 -40 0q-1 -7 2.5 -20
t-2.5 -16q-38 20 16 107h20q3 -11 8.5 -29t8.5 -29t5.5 -26.5t1.5 -29.5q-12 0 -15.5 7.5t-3 19.5t-1.5 16zM191 414q35 17 36 48q-21 8 -35.5 -10.5t-0.5 -37.5zM772 438q10 -25 39.5 -17.5t27.5 36.5q-15 13 -40.5 6.5t-26.5 -25.5zM275 457q-1 -6 -7.5 -17t-4.5 -22h27
q-1 3 -2 15t-3.5 17.5t-9.5 6.5zM575 347q-10 3 -11 9.5t3.5 13t9 16t2.5 16.5q3 1 6.5 -1.5t4.5 -2.5q-4 -41 -15 -51zM697 260q0 -9 4.5 -15t12 -7.5t17 -2t19 0.5t18.5 0q-4 -8 -12.5 -10.5t-28.5 -2t-22 0.5q-6 12 -20.5 26t-15.5 25q-4 37 32 62q33 24 53 6
q7 -6 10 -16q9 -28 -13.5 -45.5t-53.5 -21.5zM590 339q51 4 69 -49q16 -49 -7 -92q-22 -40 -62 -29q-12 3 -22.5 19.5t-4.5 31.5q21 -52 54 -33q28 16 36 57q10 52 -31 71q22 -23 -1 -56q-19 -27 -40 -24q-21 4 -23 40q-7 -14 -15 -26t-20 -24t-27 -11.5t-29 15.5
q-5 35 20 45.5t52 -2.5q9 12 5.5 27t-13.5 24q-23 4 -38 -2.5t-29 -19.5t-24 -17q2 26 32 42t58.5 6.5t27.5 -45.5q28 30 32 52zM693 275q51 0 59 44q-13 26 -40 11q-25 -14 -24 -39q1 -9 5 -16zM318 236q-2 -10 2 -25.5t5 -23t-7 -18.5q-17 11 -15 60.5t-17 66.5
q8 14 34.5 19t40.5 -4q1 -24 -20 -47.5t-23 -27.5zM373 232q7 -5 35 -3.5t37 -4.5q-7 -13 -34.5 -10.5t-45.5 -1.5q-17 30 8 103q3 1 6.5 -1.5t5.5 -2.5q-1 -7 -7 -33.5t-5 -45.5zM570 260q18 -24 37 -3q17 20 8 40q-5 10 -17 14q-28 -21 -28 -51zM314 263q6 2 11.5 6.5
t8 8.5t6 11t5.5 10q-7 3 -9.5 3t-11 -3t-10.5 -3v-33zM488 229q33 -4 37 16q3 14 -12 18q-13 4 -29 -7q-3 -11 -2.5 -15t6.5 -12z" />
    </font>
</defs>
</svg>
