<svg xmlns="http://www.w3.org/2000/svg" width="53" height="53" viewBox="0 0 53 53"><defs><style>.a{fill:#fff;stroke:#000;stroke-width:3.5px;opacity:0.238;}.b{opacity:0.24;}.c{stroke:none;}.d{fill:none;}</style></defs><g transform="translate(-1016 -323)"><g class="a" transform="translate(1016 323)"><circle class="c" cx="26.5" cy="26.5" r="26.5"/><circle class="d" cx="26.5" cy="26.5" r="24.75"/></g><g class="b" transform="translate(1027.498 328.129)"><path d="M369.126,80.009a19.066,19.066,0,0,1,1.182,4.983c.15,1.38.3,2.762.378,4.147a12.223,12.223,0,0,1-.608,4.713,19.006,19.006,0,0,1-.886,2.46,39.508,39.508,0,0,1-2.143,3.7c-.83,1.269-1.763,2.471-2.664,3.692a.33.33,0,0,0,.051.531,9.564,9.564,0,0,1,2.528,4.041,6.323,6.323,0,0,1,.293,2.71,2.44,2.44,0,0,1-.255.629l-.182-.008c-.114-.349-.238-.7-.339-1.049a10.76,10.76,0,0,0-1.667-3.394,12.64,12.64,0,0,0-3.375-3.04,6.469,6.469,0,0,0-.624-.3c-.255-.131-.263-.281-.081-.512.868-1.1,1.749-2.188,2.569-3.321a37.888,37.888,0,0,0,2.35-3.517,6.51,6.51,0,0,0,.685-2.27,17.09,17.09,0,0,0-.574-5.422c-.174-.966-.316-1.938-.487-2.9-.165-.933-.359-1.86-.524-2.793s-.316-1.9-.472-2.846c-.043-.265-.1-.53-.12-.8a1.453,1.453,0,0,1,1.218-1.57c1.256-.265,2.527-.494,3.752-.867a4.592,4.592,0,0,0,3.111-2.381,8.478,8.478,0,0,0,.583-2.26,15.255,15.255,0,0,0,.023-2.059,1.227,1.227,0,0,1,.971-1.115,1.214,1.214,0,0,1,1.312.992,10.217,10.217,0,0,1-.024,3.424,7.809,7.809,0,0,1-2.185,4.278A9.468,9.468,0,0,1,369.126,80.009Z" transform="translate(-351.735 -69.19)"/><path d="M359.2,173.573a1.814,1.814,0,0,1-1.1,1.454,1.888,1.888,0,0,1-1.663-.39c-.486-.476-.453-1.126-.6-1.706-.177-.707-.255-1.439-.38-2.159-.174-1-.343-2.007-.531-3.007q-.265-1.406-.57-2.8a2.1,2.1,0,0,1,.189-1.8,1.553,1.553,0,0,1,1.451-.6c.85.191,1.218.547,1.347,1.24.215,1.157.46,2.309.673,3.466.253,1.371.478,2.747.729,4.118C358.886,172.119,359.052,172.845,359.2,173.573Z" transform="translate(-346.018 -153.147)"/><path d="M278.131,302.261c3.005.656,5.765.478,8.034-1.985a8.68,8.68,0,0,1-.025,1.83,21.692,21.692,0,0,1-.8,2.33c-.159.459-.593.548-.955.647a13.705,13.705,0,0,1-4.211.594c-.513-.023-1.029,0-1.524,0-.634.755-1.257,1.575-1.962,2.317a8.384,8.384,0,0,1-3.869,2.373c-.115.032-.261-.045-.392-.072.057-.13.078-.327.176-.379a8.949,8.949,0,0,0,2.7-2.457,15.264,15.264,0,0,0,2.317-4.007C277.776,303.052,277.956,302.665,278.131,302.261Z" transform="translate(-272.424 -277.025)"/><path d="M391.24,90.693A2.729,2.729,0,0,1,394,93.477a2.7,2.7,0,0,1-2.7,2.849,2.746,2.746,0,0,1-2.947-2.581A2.823,2.823,0,0,1,391.24,90.693Z" transform="translate(-376.675 -88.52)"/></g></g></svg>