<svg xmlns="http://www.w3.org/2000/svg" width="1483.582" height="60.33"><rect id="backgroundrect" width="100%" height="100%" x="0" y="0" fill="none" stroke="none"/><defs><style>.a{fill:#4db9e6;}</style></defs><g class="currentLayer" style=""><title>Layer 1</title><path class="a" d="M371.22500021362305,0.0000050048828086346475 c0,25 -53.033,24.771 -53.033,0 c0,25 -53.032,24.771 -53.032,0 c0,25 -53.032,24.771 -53.032,0 c0,25 -53.032,24.771 -53.032,0 c0,25 -53.033,24.771 -53.033,0 c0,25 -53.03,24.771 -53.03,0 c0,25 -53.033,24.771 -53.033,0 v60.33 H371.22500021362305 z" id="svg_1"/><path class="a" d="M742.0099924316406,0.0000050048828086346475 c0,25 -53.033,24.771 -53.033,0 c0,25 -53.032,24.771 -53.032,0 c0,25 -53.032,24.771 -53.032,0 c0,25 -53.032,24.771 -53.032,0 c0,25 -53.033,24.771 -53.033,0 c0,25 -53.03,24.771 -53.03,0 c0,25 -53.033,24.771 -53.033,0 v60.33 H742.0099924316406 z" id="svg_2"/><path class="a" d="M1112.79597265625,0.0000050048828086346475 c0,25 -53.033,24.771 -53.033,0 c0,25 -53.032,24.771 -53.032,0 c0,25 -53.032,24.771 -53.032,0 c0,25 -53.032,24.771 -53.032,0 c0,25 -53.033,24.771 -53.033,0 c0,25 -53.03,24.771 -53.03,0 c0,25 -53.033,24.771 -53.033,0 v60.33 H1112.79597265625 z" id="svg_3"/><path class="a" d="M1483.5810068359374,0.0000050048828086346475 c0,25 -53.033,24.771 -53.033,0 c0,25 -53.032,24.771 -53.032,0 c0,25 -53.032,24.771 -53.032,0 c0,25 -53.032,24.771 -53.032,0 c0,25 -53.033,24.771 -53.033,0 c0,25 -53.03,24.771 -53.03,0 c0,25 -53.033,24.771 -53.033,0 v60.33 H1483.5810068359374 z" id="svg_4"/></g></svg>